<svg width="64" height="64" viewBox="0 0 64 64" fill="none" xmlns="http://www.w3.org/2000/svg">
<rect x="0.5" y="0.5" width="63" height="63" rx="31.5" stroke="#666666"/>
<path d="M29.9727 27.5469C30.2333 27.866 30.5857 28.0972 30.9825 28.2089C31.3386 28.3079 31.715 28.3079 32.0712 28.2089C32.4739 28.0949 32.831 27.8581 33.0924 27.5312C33.649 26.8455 33.6952 25.8778 33.2066 25.1418C32.7256 24.4272 31.8447 24.0965 31.0124 24.3179C30.18 24.5389 29.5798 25.264 29.5173 26.1226L29.507 26.2633C29.5057 26.6078 29.5925 26.947 29.7596 27.2484C29.8213 27.3542 29.893 27.454 29.9727 27.5469ZM30.5279 26.1838C30.5638 25.659 31.0006 25.2523 31.5264 25.2535C31.8652 25.2535 32.1817 25.4222 32.3707 25.7032C32.6106 26.0688 32.5879 26.5472 32.3144 26.8886C32.1832 27.0549 32.0037 27.1762 31.8001 27.2354C31.4165 27.3449 31.0046 27.2153 30.7532 26.9059C30.7108 26.857 30.6725 26.8047 30.6395 26.7493C30.5622 26.61 30.5202 26.4541 30.5172 26.2951L30.5279 26.1838Z" fill="#333333" fill-opacity="0.99"/>
<path d="M34.8077 28.6074C35.2287 28.0234 35.4844 27.3366 35.5476 26.6194L41.4469 25.0365L43.2717 28.7311L47.0001 27.727L46.6335 22.0801L44.1234 17L40.4014 18.0025L40.6638 22.1115L34.6564 23.7199C33.6547 22.483 32.0186 21.9515 30.4813 22.3638C28.9439 22.7762 27.7933 24.0549 27.5449 25.627L16 28.7181L16.787 31.646L18.0334 31.3114L21.2786 43.4272H16.3816V47.466H46.6712V43.4272H38.7794L34.8077 28.6074ZM29.0609 29.4589C29.1114 29.4964 29.1617 29.5268 29.2122 29.5602C29.2728 29.603 29.333 29.6448 29.3961 29.6843C29.5021 29.7504 29.6116 29.809 29.7236 29.8656C29.7848 29.8964 29.8438 29.9291 29.9063 29.9569C29.9261 29.9656 29.9438 29.9771 29.9632 29.985L26.363 43.4272H25.3171L29.0609 29.4589ZM30.9368 30.2562C31.3275 30.3168 31.7253 30.3168 32.1159 30.2562L35.6444 43.4272H27.4087L30.9368 30.2562ZM33.0894 29.9867C33.1091 29.9786 33.1267 29.9666 33.1464 29.9585C33.208 29.9311 33.2672 29.8977 33.3273 29.8676C33.4386 29.8115 33.5483 29.7533 33.6545 29.6872C33.7194 29.6468 33.7811 29.6034 33.8437 29.5596C33.894 29.5252 33.9445 29.496 33.9921 29.4586L37.7358 43.4272H36.6897L33.0894 29.9867ZM43.5852 18.1903L45.6389 22.3476L45.9388 26.9684L43.8103 27.5408L42.4418 24.7691H42.4452L41.7568 23.3856L41.4615 18.7627L43.5852 18.1903ZM40.7293 23.1376L40.7622 23.6486L40.9909 24.1115L35.5095 25.5842C35.4807 25.4135 35.4404 25.2446 35.3899 25.0793C35.3808 25.0499 35.367 25.0222 35.3578 24.993C35.3153 24.8658 35.2717 24.7405 35.2167 24.6154L40.7293 23.1376ZM31.5264 23.2343C33.1888 23.2298 34.5421 24.569 34.5553 26.2311V26.2633C34.5496 27.1219 34.1844 27.9391 33.5483 28.5162C33.5422 28.5212 33.5351 28.5253 33.5292 28.5306C32.9136 29.0782 32.1011 29.35 31.2803 29.2834C30.4594 29.2167 29.7014 28.8169 29.1825 28.1775C29.0722 28.0453 28.9737 27.9038 28.8877 27.7547C28.6316 27.2995 28.4972 26.7855 28.4974 26.2633C28.4974 26.2074 28.5008 26.1518 28.5081 26.0965V26.0928L28.5692 25.6481C28.8581 24.2441 30.093 23.2359 31.5264 23.2343ZM17.2398 29.4319L27.5095 26.6819C27.5095 26.6993 27.516 26.7161 27.518 26.7324C27.5273 26.8114 27.5435 26.8881 27.5571 26.9653C27.5731 27.0566 27.5879 27.1482 27.61 27.2377C27.6287 27.3125 27.6534 27.3853 27.6761 27.4585C27.6987 27.5317 27.7135 27.599 27.7386 27.6665L17.5005 30.4107L17.2398 29.4319ZM19.0069 31.052L28.2214 28.5821C28.2279 28.5914 28.2348 28.5995 28.2415 28.6086L24.2736 43.4272H22.3219L19.0069 31.052ZM45.6616 44.437V46.4562H17.3912V44.437H45.6616Z" fill="#333333" fill-opacity="0.99"/>
</svg>
