<svg width="64" height="64" viewBox="0 0 64 64" fill="none" xmlns="http://www.w3.org/2000/svg">
<rect x="0.500122" y="0.5" width="63" height="63" rx="31.5" stroke="#666666"/>
<path d="M47.4666 34.6668H45.8308L44.8 19.6973C44.7806 19.417 44.5476 19.1998 44.2666 19.2002H41.0666C40.7855 19.1998 40.5525 19.417 40.5332 19.6973L39.5023 34.6668H38.4001V31.4668C38.4001 31.1725 38.1613 30.9334 37.8669 30.9334C37.7454 30.9332 37.6279 30.9746 37.5333 31.0504L33.0667 34.6236V31.4668C33.0667 31.1725 32.828 30.9334 32.5335 30.9334C32.4122 30.9332 32.2946 30.9746 32.2001 31.0504L27.7335 34.6236V31.4668C27.7335 31.1725 27.4948 30.9334 27.2003 30.9334C27.079 30.9332 26.9612 30.9746 26.8669 31.0504L22.4002 34.6236V31.4668C22.4 31.1725 22.1612 30.9336 21.8668 30.9336C21.7698 30.9336 21.675 30.96 21.592 31.0098L16.2586 34.2098C16.0982 34.3063 16 34.4795 16 34.6668V47.4668C16 47.7613 16.2389 48 16.5334 48H47.4666C47.7611 48 48 47.7613 48 47.4668V35.2002C48 34.9055 47.7611 34.6668 47.4666 34.6668ZM41.5646 20.2668H43.7685L44.7619 34.6668H40.5712L41.5646 20.2668ZM34.1331 46.9334V40.5334H37.3331V46.9334H34.1331ZM46.9334 46.9334H38.4001V40C38.4001 39.7057 38.1611 39.4668 37.8665 39.4668H33.5999C33.3054 39.4668 33.0665 39.7057 33.0665 40V46.9334H17.0666V34.9688L21.3332 32.4088V35.7334C21.3332 36.0281 21.5719 36.2668 21.8664 36.2672C21.9875 36.2672 22.1053 36.2258 22.2 36.15L26.6667 32.5768V35.7334C26.6667 36.0281 26.9051 36.2668 27.1999 36.2672C27.321 36.2672 27.4385 36.2258 27.5333 36.1502L31.9999 32.577V35.7336C31.9999 36.0281 32.2384 36.2672 32.5331 36.2672C32.6542 36.2672 32.7718 36.2258 32.8665 36.1502L37.3331 32.577V35.2002C37.3331 35.4949 37.572 35.7336 37.8665 35.7336H46.933L46.9334 46.9334Z" fill="#333333" fill-opacity="0.99"/>
<path d="M34.1296 17.0671C34.3235 17.171 34.4987 17.3065 34.6481 17.468C34.9472 17.8327 35.3729 18.0702 35.8399 18.1337C36.3319 18.071 36.7811 17.8231 37.0966 17.4403C37.2315 17.2987 37.3825 17.1735 37.5468 17.0671C37.6565 17.0719 37.944 17.3411 38.0987 17.4856C38.3864 17.8417 38.7997 18.0735 39.2532 18.1337C39.7771 18.0673 40.2558 17.8046 40.5931 17.3987C40.7237 17.276 40.9216 17.0899 40.9599 17.0671C41.2462 17.0671 41.3118 17.162 41.488 17.4159C41.7195 17.8532 42.1718 18.1288 42.6667 18.1337C42.9611 18.1337 43.1999 17.8948 43.1999 17.6005C43.1999 17.3057 42.9611 17.0671 42.6667 17.0671C42.5599 17.0671 42.5392 17.0596 42.3659 16.8094C42.0827 16.3007 41.5419 15.9895 40.9599 16.0003C40.5284 16.0602 40.1359 16.2821 39.8624 16.6212C39.6853 16.7882 39.3884 17.0671 39.2757 17.0696C39.1105 16.9696 38.9597 16.8477 38.8265 16.7077C38.5058 16.3171 38.048 16.0641 37.5466 16.0003C37.0843 16.0634 36.6632 16.2989 36.3673 16.6594C36.2177 16.82 36.0448 16.9573 35.8548 17.0671C35.677 16.9651 35.5153 16.8378 35.3749 16.6884C35.0632 16.3098 34.6194 16.0641 34.1331 16.0003C33.8387 15.9993 33.5989 16.2372 33.5979 16.5319C33.5969 16.8262 33.835 17.0661 34.1296 17.0671Z" fill="#333333" fill-opacity="0.99"/>
<path d="M21.8668 40.5334H19.7332C19.4387 40.5334 19.2 40.7723 19.2 41.0666V44.2666C19.2 44.5613 19.4387 44.8 19.7332 44.8H21.8668C22.1612 44.8 22.4 44.5613 22.4 44.2666V41.0666C22.4 40.7723 22.1612 40.5334 21.8668 40.5334ZM21.3332 43.7334H20.2666V41.6002H21.3332V43.7334Z" fill="#333333" fill-opacity="0.99"/>
<path d="M26.1334 40.5334H24C23.7053 40.5334 23.4666 40.7723 23.4666 41.0666V44.2666C23.4666 44.5613 23.7053 44.8 24 44.8H26.1334C26.4278 44.8 26.6667 44.5613 26.6667 44.2666V41.0666C26.6667 40.7723 26.4278 40.5334 26.1334 40.5334ZM25.5999 43.7334H24.5332V41.6002H25.5999V43.7334Z" fill="#333333" fill-opacity="0.99"/>
<path d="M30.4001 40.5334H28.2667C27.972 40.5334 27.7333 40.7723 27.7333 41.0666V44.2666C27.7333 44.5613 27.972 44.8 28.2667 44.8H30.4001C30.6944 44.8 30.9333 44.5613 30.9333 44.2666V41.0666C30.9333 40.7723 30.6944 40.5334 30.4001 40.5334ZM29.8665 43.7334H28.7999V41.6002H29.8665V43.7334Z" fill="#333333" fill-opacity="0.99"/>
</svg>
