<svg width="64" height="64" viewBox="0 0 64 64" fill="none" xmlns="http://www.w3.org/2000/svg">
<rect x="0.5" y="0.5" width="63" height="63" rx="31.5" stroke="#666666"/>
<path d="M48 35.7334V28.2666H44.8C44.5291 27.3371 44.1564 26.4404 43.6891 25.5926L45.9535 23.3279L40.6736 18.0479L38.4092 20.3125C37.5607 19.8445 36.6637 19.4711 35.7334 19.2V16H28.2666V19.2C27.3371 19.4709 26.4404 19.8436 25.5926 20.3109L23.3279 18.0459L18.0479 23.326L20.3125 25.5902C19.8441 26.4391 19.4711 27.3363 19.2 28.2666H16V35.7334H19.2C19.4709 36.6629 19.8436 37.5596 20.3109 38.4074L18.0459 40.6719L23.326 45.952L25.5902 43.6875C26.4391 44.1555 27.3363 44.5285 28.2666 44.8V48H35.7334V44.8C36.6629 44.5291 37.5596 44.1564 38.4074 43.6891L40.6719 45.9535L45.952 40.6736L43.6875 38.409C44.1555 37.5607 44.5285 36.6633 44.8 35.7334H48ZM43.8785 35.0662C43.5918 36.1754 43.15 37.2381 42.566 38.2234L42.3525 38.5799L44.4449 40.6721L40.6721 44.4457L38.5799 42.3535L38.2234 42.5668C37.2383 43.1514 36.1754 43.5934 35.0662 43.8793L34.6668 43.982V46.9334H29.3332V43.982L28.9338 43.8785C27.8246 43.592 26.7617 43.1502 25.7766 42.566L25.4201 42.3525L23.3279 44.4457L19.5543 40.6719L21.6465 38.5797L21.4332 38.2234C20.8488 37.2381 20.407 36.175 20.1207 35.0662L20.018 34.6664H17.0666V29.3332H20.018L20.1215 28.9338C20.408 27.8246 20.8498 26.7617 21.434 25.7766L21.6475 25.4201L19.5543 23.3279L23.3279 19.5543L25.4201 21.6465L25.7766 21.4332C26.7617 20.8486 27.8246 20.4066 28.9338 20.1207L29.3332 20.018V17.0666H34.6668V20.018L35.0662 20.1215C36.1754 20.408 37.2383 20.8498 38.2234 21.434L38.5799 21.6475L40.6721 19.5543L44.4457 23.3279L42.3535 25.4201L42.5668 25.7766C43.1514 26.7617 43.5934 27.8246 43.8793 28.9338L43.9828 29.3332H46.9334V34.6668H43.982L43.8785 35.0662Z" fill="#333333" fill-opacity="0.99"/>
<path d="M32 22.9334C26.9953 22.9306 22.9359 26.9859 22.9334 31.9904C22.9316 35.5543 25.0185 38.7881 28.2666 40.2543V40.2666L28.5967 40.4025H28.6L29.3332 40.6996V40.6633C30.1969 40.9312 31.0959 41.0672 32 41.0666C32.1801 41.0666 32.3574 41.0607 32.5334 41.0506V41.0734L33.131 40.9982L33.6 40.9416V40.9177C38.5273 40.0371 41.8078 35.3291 40.9273 30.4019C40.1545 26.0781 36.3924 22.9306 32 22.9334ZM29.3332 39.5429V34.2677L29.1553 34.1076C27.4002 32.5379 27.2502 29.8425 28.8201 28.0877C29.6293 27.1828 30.7861 26.666 32 26.6668C32.1564 26.6668 32.3129 26.675 32.4687 26.6916L29.9887 29.1734L30.4625 32.473L33.7621 32.9465L36.2418 30.4666C36.2582 30.6215 36.2666 30.7773 36.2666 30.9334C36.257 32.9215 34.8846 34.6429 32.9488 35.0959L32.5334 35.1898V39.9834C31.448 40.0531 30.3596 39.9033 29.3332 39.5429ZM33.6 39.8416V36.0234C35.8144 35.3127 37.3207 33.2588 37.3332 30.9334C37.3355 30.3537 37.241 29.7777 37.0539 29.2293L36.7762 28.4218L33.3867 31.8127L31.4058 31.5291L31.1207 29.5467L34.5115 26.1552L33.7039 25.8779C33.1553 25.6914 32.5793 25.5974 32 25.6C29.0558 25.5986 26.6682 27.9841 26.6668 30.9281C26.666 32.3615 27.2426 33.7347 28.2666 34.7381V39.0758C24.3617 37.0129 22.8681 32.1756 24.9306 28.2705C26.9931 24.3654 31.831 22.872 35.7359 24.9345C39.6408 26.997 41.1346 31.8347 39.0719 35.7398C37.9535 37.8566 35.9457 39.3613 33.6 39.84V39.8416Z" fill="#333333" fill-opacity="0.99"/>
</svg>
