<svg width="64" height="64" viewBox="0 0 64 64" fill="none" xmlns="http://www.w3.org/2000/svg">
<rect x="0.5" y="0.5" width="63" height="63" rx="31.5" stroke="#666666"/>
<path d="M47.4666 24.5332H44.8V22.9334C44.8 22.6387 44.5613 22.4 44.2666 22.4H40C39.7053 22.4 39.4666 22.6387 39.4666 22.9334V24.5332H24.5332V22.9334C24.5332 22.6387 24.2945 22.4 24 22.4H19.7334C19.4387 22.4 19.2 22.6387 19.2 22.9334V24.5332H16.5334C16.2387 24.5332 16 24.7719 16 25.0666V28.2666C16 28.5613 16.2387 28.8 16.5334 28.8H17.0666V47.4666C17.0666 47.7613 17.3055 48 17.6 48H46.4C46.6945 48 46.9334 47.7613 46.9334 47.4666V28.8H47.4666C47.7613 28.8 48 28.5613 48 28.2666V25.0666C48 24.7719 47.7613 24.5332 47.4666 24.5332ZM40.5332 23.4666H43.7334V24.5332H40.5332V23.4666ZM20.2666 23.4666H23.4668V24.5332H20.2666V23.4666ZM45.8668 46.9334H18.1332V28.8H45.8668V46.9334ZM46.9334 27.7334H17.0666V25.6H46.9334V27.7334Z" fill="#333333" fill-opacity="0.99"/>
<path d="M27.2588 40.5301L31.3473 40.0758L30.4084 45.2379C30.3631 45.4881 30.5004 45.736 30.7372 45.8293C30.7997 45.8543 30.8663 45.867 30.9334 45.8668C31.1141 45.8664 31.2825 45.775 31.3809 45.6229L37.2477 36.5563C37.4075 36.3088 37.3364 35.9787 37.0891 35.8188C36.9862 35.7522 36.8633 35.7231 36.7413 35.7365L32.8741 36.1664L35.1522 31.1531C35.2735 30.8848 35.1541 30.5686 34.8858 30.4475C34.8168 30.4162 34.7422 30.4002 34.6665 30.4002H29.8668C29.6301 30.4002 29.4219 30.5563 29.3553 30.783L26.6885 39.8496C26.6055 40.1321 26.7672 40.4287 27.0498 40.5117C27.1174 40.5315 27.1885 40.5379 27.2588 40.5301ZM30.2657 31.4666H33.8389L31.5147 36.5791C31.3928 36.8475 31.5114 37.1637 31.7793 37.2854C31.8668 37.3252 31.9631 37.3406 32.0586 37.3301L35.7413 36.9211L31.9356 42.8028L32.5247 39.5621C32.5774 39.2723 32.3852 38.9945 32.0956 38.9418C32.0448 38.9326 31.9926 38.9307 31.9413 38.9365L27.9375 39.3813L30.2657 31.4666Z" fill="#333333" fill-opacity="0.99"/>
<path d="M40 19.2H41.6V20.8C41.6 21.0945 41.8389 21.3332 42.1332 21.3332C42.4279 21.3332 42.6668 21.0945 42.6668 20.8V19.2H44.2666C44.5613 19.2 44.8 18.9611 44.8 18.6668C44.8 18.3721 44.5613 18.1332 44.2666 18.1332H42.6668V16.5334C42.6668 16.2387 42.4279 16 42.1332 16C41.8389 16 41.6 16.2387 41.6 16.5334V18.1332H40C39.7053 18.1332 39.4666 18.3721 39.4666 18.6668C39.4666 18.9611 39.7053 19.2 40 19.2Z" fill="#333333" fill-opacity="0.99"/>
<path d="M19.7334 19.2H24C24.2947 19.2 24.5334 18.9611 24.5334 18.6668C24.5334 18.3721 24.2947 18.1332 24 18.1332H19.7334C19.4387 18.1332 19.2 18.3721 19.2 18.6668C19.2 18.9611 19.4387 19.2 19.7334 19.2Z" fill="#333333" fill-opacity="0.99"/>
</svg>
