<svg width="77" height="77" viewBox="0 0 77 77" fill="none" xmlns="http://www.w3.org/2000/svg">
<path d="M38.5 63.3145C52.1826 63.3145 63.3145 52.1826 63.3145 38.5C63.3145 24.8174 52.1826 13.6855 38.5 13.6855C24.8174 13.6855 13.6855 24.8174 13.6855 38.5C13.6855 52.1826 24.8174 63.3145 38.5 63.3145ZM36.2441 32.1478V18.1973H40.7559V32.1478C42.6669 32.8298 44.1702 34.3331 44.8522 36.2441H54.291V40.7559H44.8522C43.9176 43.3759 41.4373 45.2676 38.5 45.2676C34.7684 45.2676 31.7324 42.2316 31.7324 38.5C31.7324 35.5627 33.6241 33.0824 36.2441 32.1478Z" fill="#40A8E4"/>
<path d="M38.5 40.7559C39.7448 40.7559 40.7559 39.7448 40.7559 38.5C40.7559 37.2552 39.7448 36.2441 38.5 36.2441C37.2552 36.2441 36.2441 37.2552 36.2441 38.5C36.2441 39.7448 37.2552 40.7559 38.5 40.7559Z" fill="#40A8E4"/>
<path d="M38.5 77C59.6463 77 77 59.6463 77 38.5C77 17.3537 59.6463 0 38.5 0C17.3537 0 0 17.3537 0 38.5C0 59.6463 17.3537 77 38.5 77ZM38.5 9.17383C54.6699 9.17383 67.8262 22.3301 67.8262 38.5C67.8262 54.6699 54.6699 67.8262 38.5 67.8262C22.3301 67.8262 9.17383 54.6699 9.17383 38.5C9.17383 22.3301 22.3301 9.17383 38.5 9.17383Z" fill="#40A8E4"/>
</svg>
