<svg width="77" height="80" viewBox="0 0 77 80" fill="none" xmlns="http://www.w3.org/2000/svg">
<path d="M33.6875 13.4141V0.407622L20.6599 13.4141H33.6875Z" fill="#40A8E4"/>
<path d="M38.5 18.2188H19.25V28.0709C27.3911 29.2489 33.6875 36.1957 33.6875 44.6445C33.6875 50.5547 30.6007 55.7397 25.9687 58.7395C31.1816 61.1782 35.2209 65.6131 37.1697 71.0703H77V-1H38.5V18.2188ZM67.375 61.4609H38.5V56.6562H67.375V61.4609ZM67.375 51.8516H38.5V47.0469H67.375V51.8516ZM48.125 23.987V13.35H54.9267C62.1133 13.35 63.14 17.5461 63.14 20.525C63.14 23.5039 61.6 28.2125 54.9267 28.2125V23.987C56.1479 23.987 58.52 23.5039 58.52 20.525C58.52 17.5461 56.2545 17.45 54.9267 17.45H52.8733V20.6211V23.987H54.9267V28.2125H52.8733V30.976H57.4933V34.3625H52.8733V37.95H48.125V34.3625H45.6867V30.976H48.125V28.2125H45.6867V23.987H48.125Z" fill="#40A8E4"/>
<path d="M28.875 44.6445C28.875 51.2785 23.4885 56.6562 16.8438 56.6562C10.199 56.6562 4.8125 51.2785 4.8125 44.6445C4.8125 38.0106 10.199 32.6328 16.8438 32.6328C23.4885 32.6328 28.875 38.0106 28.875 44.6445Z" fill="#40A8E4"/>
<path d="M16.8438 61.4609C7.54146 61.4609 0 69.1503 0 78.4375V81H33.6875V78.4375C33.6875 69.1503 26.146 61.4609 16.8438 61.4609Z" fill="#40A8E4"/>
</svg>
