<svg width="76" height="80" viewBox="0 0 76 80" fill="none" xmlns="http://www.w3.org/2000/svg">
<path d="M13.592 14.062H23.9375V3.71655L13.592 14.062Z" fill="#40A8E4"/>
<path d="M12.2188 65.7808H63.7812V-0.000488281H28.625V18.7495H12.2188V65.7808ZM38 14.062H52.0625V18.7495H38V14.062ZM19.25 23.437H56.75V28.1245H19.25V23.437ZM19.25 32.812H56.75V37.4995H19.25V32.812ZM19.25 42.187H56.75V46.8745H19.25V42.187ZM19.25 51.7183H33.3125V56.4058H19.25V51.7183Z" fill="#40A8E4"/>
<path d="M0.5 56.4058H7.53125V65.7808H0.5V56.4058Z" fill="#40A8E4"/>
<path d="M68.4688 56.4058H75.5V65.7808H68.4688V56.4058Z" fill="#40A8E4"/>
<path d="M0.5 70.4683H75.5V79.9995H0.5V70.4683Z" fill="#40A8E4"/>
</svg>
