<svg width="519" height="356" viewBox="0 0 519 356" fill="none" xmlns="http://www.w3.org/2000/svg">
<path d="M43.1192 352H41.9572V343.698H36.4972V352H35.3352V342.662H43.1192V352ZM50.636 351.146C50.0293 351.827 49.222 352.168 48.214 352.168C47.206 352.168 46.394 351.827 45.778 351.146C45.1713 350.465 44.868 349.62 44.868 348.612C44.868 347.604 45.1713 346.764 45.778 346.092C46.394 345.411 47.206 345.07 48.214 345.07C49.222 345.07 50.0293 345.411 50.636 346.092C51.252 346.764 51.56 347.604 51.56 348.612C51.56 349.62 51.252 350.465 50.636 351.146ZM46.562 350.474C46.9726 350.978 47.5233 351.23 48.214 351.23C48.9046 351.23 49.4506 350.978 49.852 350.474C50.2533 349.961 50.454 349.34 50.454 348.612C50.454 347.884 50.2533 347.268 49.852 346.764C49.4506 346.26 48.9046 346.008 48.214 346.008C47.5233 346.008 46.9726 346.265 46.562 346.778C46.1606 347.282 45.96 347.893 45.96 348.612C45.96 349.34 46.1606 349.961 46.562 350.474ZM52.4737 352.168V351.3C52.791 351.3 53.0523 351.09 53.2577 350.67C53.463 350.25 53.631 349.55 53.7617 348.57L54.1957 345.238H58.8997V352H57.8497V346.162H55.1197L54.8117 348.696C54.6623 349.937 54.401 350.829 54.0277 351.37C53.6543 351.902 53.1363 352.168 52.4737 352.168ZM66.3723 351.146C65.7656 351.827 64.9583 352.168 63.9503 352.168C62.9423 352.168 62.1303 351.827 61.5143 351.146C60.9076 350.465 60.6043 349.62 60.6043 348.612C60.6043 347.604 60.9076 346.764 61.5143 346.092C62.1303 345.411 62.9423 345.07 63.9503 345.07C64.9583 345.07 65.7656 345.411 66.3723 346.092C66.9883 346.764 67.2963 347.604 67.2963 348.612C67.2963 349.62 66.9883 350.465 66.3723 351.146ZM62.2983 350.474C62.709 350.978 63.2596 351.23 63.9503 351.23C64.641 351.23 65.187 350.978 65.5883 350.474C65.9896 349.961 66.1903 349.34 66.1903 348.612C66.1903 347.884 65.9896 347.268 65.5883 346.764C65.187 346.26 64.641 346.008 63.9503 346.008C63.2596 346.008 62.709 346.265 62.2983 346.778C61.897 347.282 61.6963 347.893 61.6963 348.612C61.6963 349.34 61.897 349.961 62.2983 350.474ZM68.9785 352H67.6345L70.6445 348.304L67.6485 345.238H68.9785L71.8905 348.22V345.238H72.9405V348.206L75.8525 345.238H77.1825L74.1725 348.304L77.1965 352H75.8525L73.4165 348.962L72.9405 349.438V352H71.8905V349.438L71.4145 348.962L68.9785 352ZM81.4526 352.168C80.4446 352.168 79.6186 351.841 78.9746 351.188C78.3306 350.525 78.0086 349.667 78.0086 348.612C78.0086 347.623 78.3259 346.787 78.9606 346.106C79.5953 345.415 80.3886 345.07 81.3406 345.07C82.3393 345.07 83.1279 345.415 83.7066 346.106C84.2946 346.787 84.5886 347.651 84.5886 348.696V348.962H79.1146C79.1613 349.625 79.4039 350.18 79.8426 350.628C80.2813 351.076 80.8506 351.3 81.5506 351.3C82.3906 351.3 83.0859 351.015 83.6366 350.446L84.1406 351.132C83.4499 351.823 82.5539 352.168 81.4526 352.168ZM83.5526 348.192C83.5433 347.613 83.3473 347.095 82.9646 346.638C82.5819 346.171 82.0359 345.938 81.3266 345.938C80.6546 345.938 80.1226 346.167 79.7306 346.624C79.3479 347.081 79.1426 347.604 79.1146 348.192H83.5526ZM87.3393 352H86.2893V345.238H87.3393V348.052H90.8673V345.238H91.9173V352H90.8673V348.976H87.3393V352ZM95.0219 352H94.0139V345.238H95.0639V350.404L98.6059 345.238H99.6419V352H98.5919V346.736L95.0219 352ZM104.79 352.168C103.782 352.168 102.956 351.841 102.312 351.188C101.668 350.525 101.346 349.667 101.346 348.612C101.346 347.623 101.664 346.787 102.298 346.106C102.933 345.415 103.726 345.07 104.678 345.07C105.677 345.07 106.466 345.415 107.044 346.106C107.632 346.787 107.926 347.651 107.926 348.696V348.962H102.452C102.499 349.625 102.742 350.18 103.18 350.628C103.619 351.076 104.188 351.3 104.888 351.3C105.728 351.3 106.424 351.015 106.974 350.446L107.478 351.132C106.788 351.823 105.892 352.168 104.79 352.168ZM106.89 348.192C106.881 347.613 106.685 347.095 106.302 346.638C105.92 346.171 105.374 345.938 104.664 345.938C103.992 345.938 103.46 346.167 103.068 346.624C102.686 347.081 102.48 347.604 102.452 348.192H106.89ZM112.439 353.722V351.132C112.784 351.067 113.055 350.861 113.251 350.516C113.447 350.161 113.605 349.513 113.727 348.57L114.161 345.238H118.865V351.076H119.649V353.722H118.599V352H113.489V353.722H112.439ZM115.085 346.162L114.777 348.696C114.618 349.881 114.291 350.675 113.797 351.076H117.815V346.162H115.085ZM124.136 352.168C123.128 352.168 122.302 351.841 121.658 351.188C121.014 350.525 120.692 349.667 120.692 348.612C120.692 347.623 121.01 346.787 121.644 346.106C122.279 345.415 123.072 345.07 124.024 345.07C125.023 345.07 125.812 345.415 126.39 346.106C126.978 346.787 127.272 347.651 127.272 348.696V348.962H121.798C121.845 349.625 122.088 350.18 122.526 350.628C122.965 351.076 123.534 351.3 124.234 351.3C125.074 351.3 125.77 351.015 126.32 350.446L126.824 351.132C126.134 351.823 125.238 352.168 124.136 352.168ZM126.236 348.192C126.227 347.613 126.031 347.095 125.648 346.638C125.266 346.171 124.72 345.938 124.01 345.938C123.338 345.938 122.806 346.167 122.414 346.624C122.032 347.081 121.826 347.604 121.798 348.192H126.236ZM128.175 352.168V351.3C128.492 351.3 128.754 351.09 128.959 350.67C129.164 350.25 129.332 349.55 129.463 348.57L129.897 345.238H134.601V352H133.551V346.162H130.821L130.513 348.696C130.364 349.937 130.102 350.829 129.729 351.37C129.356 351.902 128.838 352.168 128.175 352.168ZM141.357 352H140.307V345.238H141.357V348.052H144.885V345.238H145.935V352H144.885V348.976H141.357V352ZM153.309 352H152.259V351.23C151.69 351.855 150.943 352.168 150.019 352.168C149.394 352.168 148.843 351.967 148.367 351.566C147.891 351.165 147.653 350.619 147.653 349.928C147.653 349.219 147.887 348.673 148.353 348.29C148.829 347.898 149.385 347.702 150.019 347.702C150.981 347.702 151.727 348.01 152.259 348.626V347.408C152.259 346.96 152.101 346.61 151.783 346.358C151.466 346.106 151.055 345.98 150.551 345.98C149.758 345.98 149.067 346.293 148.479 346.918L147.989 346.19C148.708 345.443 149.609 345.07 150.691 345.07C151.466 345.07 152.096 345.257 152.581 345.63C153.067 346.003 153.309 346.577 153.309 347.352V352ZM150.397 351.412C151.237 351.412 151.858 351.132 152.259 350.572V349.298C151.858 348.738 151.237 348.458 150.397 348.458C149.912 348.458 149.511 348.598 149.193 348.878C148.885 349.149 148.731 349.503 148.731 349.942C148.731 350.371 148.885 350.726 149.193 351.006C149.511 351.277 149.912 351.412 150.397 351.412ZM162.356 352.168C161.404 352.168 160.643 351.771 160.074 350.978V354.576H159.024V345.238H160.074V346.246C160.326 345.891 160.652 345.607 161.054 345.392C161.455 345.177 161.889 345.07 162.356 345.07C163.252 345.07 163.975 345.392 164.526 346.036C165.086 346.671 165.366 347.529 165.366 348.612C165.366 349.695 165.086 350.558 164.526 351.202C163.975 351.846 163.252 352.168 162.356 352.168ZM162.09 351.23C162.752 351.23 163.28 350.987 163.672 350.502C164.064 350.007 164.26 349.377 164.26 348.612C164.26 347.847 164.064 347.221 163.672 346.736C163.28 346.251 162.752 346.008 162.09 346.008C161.688 346.008 161.296 346.115 160.914 346.33C160.54 346.535 160.26 346.787 160.074 347.086V350.138C160.26 350.446 160.54 350.707 160.914 350.922C161.296 351.127 161.688 351.23 162.09 351.23ZM167.035 345.238H168.085V347.856H170.619C171.291 347.856 171.814 348.057 172.187 348.458C172.561 348.85 172.747 349.34 172.747 349.928C172.747 350.516 172.556 351.011 172.173 351.412C171.8 351.804 171.282 352 170.619 352H167.035V345.238ZM170.507 348.78H168.085V351.076H170.507C170.881 351.076 171.165 350.973 171.361 350.768C171.567 350.553 171.669 350.273 171.669 349.928C171.669 349.583 171.567 349.307 171.361 349.102C171.165 348.887 170.881 348.78 170.507 348.78ZM174.903 352H173.853V345.238H174.903V352ZM178.052 352H177.002V345.238H178.052V348.052H181.58V345.238H182.63V352H181.58V348.976H178.052V352ZM190.677 352H189.333L186.897 348.962L185.777 350.068V352H184.727V345.238H185.777V348.836L189.333 345.238H190.663L187.667 348.304L190.677 352ZM194.929 352.168C193.921 352.168 193.095 351.841 192.451 351.188C191.807 350.525 191.485 349.667 191.485 348.612C191.485 347.623 191.802 346.787 192.437 346.106C193.072 345.415 193.865 345.07 194.817 345.07C195.816 345.07 196.604 345.415 197.183 346.106C197.771 346.787 198.065 347.651 198.065 348.696V348.962H192.591C192.638 349.625 192.88 350.18 193.319 350.628C193.758 351.076 194.327 351.3 195.027 351.3C195.867 351.3 196.562 351.015 197.113 350.446L197.617 351.132C196.926 351.823 196.03 352.168 194.929 352.168ZM197.029 348.192C197.02 347.613 196.824 347.095 196.441 346.638C196.058 346.171 195.512 345.938 194.803 345.938C194.131 345.938 193.599 346.167 193.207 346.624C192.824 347.081 192.619 347.604 192.591 348.192H197.029ZM205.769 352.168C204.472 352.168 203.455 351.799 202.717 351.062L203.235 350.39C203.87 350.997 204.715 351.3 205.769 351.3C206.376 351.3 206.857 351.193 207.211 350.978C207.575 350.763 207.757 350.479 207.757 350.124C207.757 349.377 207.048 349.004 205.629 349.004H204.117V348.15H205.629C206.217 348.15 206.698 348.057 207.071 347.87C207.445 347.674 207.631 347.389 207.631 347.016C207.631 346.699 207.445 346.442 207.071 346.246C206.698 346.041 206.227 345.938 205.657 345.938C204.715 345.938 203.959 346.227 203.389 346.806L202.843 346.162C203.543 345.443 204.467 345.084 205.615 345.084C206.539 345.075 207.286 345.233 207.855 345.56C208.434 345.877 208.723 346.321 208.723 346.89C208.723 347.357 208.532 347.735 208.149 348.024C207.776 348.313 207.361 348.486 206.903 348.542C207.379 348.579 207.823 348.738 208.233 349.018C208.653 349.298 208.863 349.69 208.863 350.194C208.863 350.773 208.583 351.249 208.023 351.622C207.473 351.986 206.721 352.168 205.769 352.168ZM215.845 352H214.795V351.23C214.225 351.855 213.479 352.168 212.555 352.168C211.929 352.168 211.379 351.967 210.903 351.566C210.427 351.165 210.189 350.619 210.189 349.928C210.189 349.219 210.422 348.673 210.889 348.29C211.365 347.898 211.92 347.702 212.555 347.702C213.516 347.702 214.263 348.01 214.795 348.626V347.408C214.795 346.96 214.636 346.61 214.319 346.358C214.001 346.106 213.591 345.98 213.087 345.98C212.293 345.98 211.603 346.293 211.015 346.918L210.525 346.19C211.243 345.443 212.144 345.07 213.227 345.07C214.001 345.07 214.631 345.257 215.117 345.63C215.602 346.003 215.845 346.577 215.845 347.352V352ZM212.933 351.412C213.773 351.412 214.393 351.132 214.795 350.572V349.298C214.393 348.738 213.773 348.458 212.933 348.458C212.447 348.458 212.046 348.598 211.729 348.878C211.421 349.149 211.267 349.503 211.267 349.942C211.267 350.371 211.421 350.726 211.729 351.006C212.046 351.277 212.447 351.412 212.933 351.412ZM227.677 352H221.265V351.076C222.235 350.311 222.987 349.704 223.519 349.256C224.06 348.799 224.578 348.318 225.073 347.814C225.577 347.301 225.931 346.848 226.137 346.456C226.342 346.055 226.445 345.658 226.445 345.266C226.445 344.706 226.253 344.281 225.871 343.992C225.488 343.703 225.031 343.558 224.499 343.558C223.425 343.558 222.581 343.95 221.965 344.734L221.251 343.992C221.605 343.525 222.067 343.166 222.637 342.914C223.215 342.653 223.836 342.522 224.499 342.522C225.348 342.522 226.081 342.76 226.697 343.236C227.322 343.712 227.635 344.389 227.635 345.266C227.635 346.134 227.261 347.002 226.515 347.87C225.768 348.729 224.629 349.76 223.099 350.964H227.677V352ZM233.023 352.168C232.407 352.168 231.861 352.028 231.385 351.748C230.919 351.459 230.545 351.076 230.265 350.6C229.995 350.124 229.789 349.611 229.649 349.06C229.519 348.509 229.453 347.935 229.453 347.338C229.453 346.741 229.519 346.167 229.649 345.616C229.789 345.065 229.995 344.557 230.265 344.09C230.545 343.614 230.919 343.236 231.385 342.956C231.861 342.667 232.407 342.522 233.023 342.522C233.63 342.522 234.171 342.667 234.647 342.956C235.123 343.236 235.497 343.614 235.767 344.09C236.047 344.557 236.253 345.065 236.383 345.616C236.523 346.167 236.593 346.741 236.593 347.338C236.593 347.935 236.523 348.509 236.383 349.06C236.253 349.611 236.047 350.124 235.767 350.6C235.497 351.076 235.123 351.459 234.647 351.748C234.171 352.028 233.63 352.168 233.023 352.168ZM231.623 350.558C231.997 350.941 232.463 351.132 233.023 351.132C233.583 351.132 234.05 350.941 234.423 350.558C234.797 350.166 235.053 349.699 235.193 349.158C235.333 348.617 235.403 348.01 235.403 347.338C235.403 346.666 235.333 346.059 235.193 345.518C235.053 344.977 234.797 344.515 234.423 344.132C234.05 343.749 233.583 343.558 233.023 343.558C232.463 343.558 231.997 343.749 231.623 344.132C231.25 344.515 230.993 344.977 230.853 345.518C230.713 346.059 230.643 346.666 230.643 347.338C230.643 348.01 230.713 348.617 230.853 349.158C230.993 349.699 231.25 350.166 231.623 350.558ZM240.966 352H239.804V344.202L238.306 345.784L237.606 345.07L239.944 342.662H240.966V352ZM248.51 351.482C247.875 351.939 247.082 352.168 246.13 352.168C245.178 352.168 244.38 351.939 243.736 351.482C243.101 351.025 242.784 350.409 242.784 349.634C242.784 349.046 242.994 348.537 243.414 348.108C243.843 347.679 244.375 347.371 245.01 347.184C244.412 347.016 243.918 346.745 243.526 346.372C243.134 345.989 242.938 345.513 242.938 344.944C242.938 344.16 243.255 343.563 243.89 343.152C244.524 342.732 245.271 342.522 246.13 342.522C246.988 342.522 247.735 342.732 248.37 343.152C249.014 343.563 249.336 344.16 249.336 344.944C249.336 345.513 249.14 345.989 248.748 346.372C248.356 346.745 247.856 347.016 247.25 347.184C247.884 347.371 248.412 347.679 248.832 348.108C249.261 348.537 249.476 349.046 249.476 349.634C249.476 350.399 249.154 351.015 248.51 351.482ZM246.13 346.708C246.316 346.68 246.503 346.633 246.69 346.568C246.886 346.503 247.105 346.414 247.348 346.302C247.59 346.181 247.786 346.017 247.936 345.812C248.085 345.597 248.16 345.359 248.16 345.098C248.16 344.631 247.964 344.258 247.572 343.978C247.189 343.698 246.708 343.558 246.13 343.558C245.542 343.558 245.056 343.698 244.674 343.978C244.291 344.258 244.1 344.631 244.1 345.098C244.1 345.359 244.174 345.597 244.324 345.812C244.473 346.017 244.669 346.181 244.912 346.302C245.154 346.414 245.369 346.503 245.556 346.568C245.752 346.624 245.943 346.671 246.13 346.708ZM246.13 351.132C246.727 351.132 247.236 350.983 247.656 350.684C248.085 350.385 248.3 349.993 248.3 349.508C248.3 349.135 248.15 348.808 247.852 348.528C247.562 348.239 247.264 348.038 246.956 347.926C246.657 347.805 246.382 347.73 246.13 347.702C245.878 347.73 245.598 347.805 245.29 347.926C244.991 348.038 244.692 348.239 244.394 348.528C244.095 348.808 243.946 349.135 243.946 349.508C243.946 349.993 244.156 350.385 244.576 350.684C245.005 350.983 245.523 351.132 246.13 351.132ZM259.582 345.238V346.162H255.9V352H254.85V345.238H259.582ZM266.323 351.146C265.717 351.827 264.909 352.168 263.901 352.168C262.893 352.168 262.081 351.827 261.465 351.146C260.859 350.465 260.555 349.62 260.555 348.612C260.555 347.604 260.859 346.764 261.465 346.092C262.081 345.411 262.893 345.07 263.901 345.07C264.909 345.07 265.717 345.411 266.323 346.092C266.939 346.764 267.247 347.604 267.247 348.612C267.247 349.62 266.939 350.465 266.323 351.146ZM262.249 350.474C262.66 350.978 263.211 351.23 263.901 351.23C264.592 351.23 265.138 350.978 265.539 350.474C265.941 349.961 266.141 349.34 266.141 348.612C266.141 347.884 265.941 347.268 265.539 346.764C265.138 346.26 264.592 346.008 263.901 346.008C263.211 346.008 262.66 346.265 262.249 346.778C261.848 347.282 261.647 347.893 261.647 348.612C261.647 349.34 261.848 349.961 262.249 350.474ZM268.161 353.722V351.132C268.507 351.067 268.777 350.861 268.973 350.516C269.169 350.161 269.328 349.513 269.449 348.57L269.883 345.238H274.587V351.076H275.371V353.722H274.321V352H269.211V353.722H268.161ZM270.807 346.162L270.499 348.696C270.341 349.881 270.014 350.675 269.519 351.076H273.537V346.162H270.807Z" fill="#666666"/>
<circle cx="156" cy="156" r="156" fill="#40A8E4"/>
<path d="M312 156C312 188.944 301.571 221.042 282.207 247.695C262.843 274.347 235.538 294.185 204.207 304.365L156 156H312Z" fill="#22689E"/>
<path d="M374.454 55.482C373.819 55.9393 373.026 56.168 372.074 56.168C371.122 56.168 370.324 55.9393 369.68 55.482C369.045 55.0247 368.728 54.4087 368.728 53.634C368.728 53.046 368.938 52.5373 369.358 52.108C369.787 51.6787 370.319 51.3707 370.954 51.184C370.357 51.016 369.862 50.7453 369.47 50.372C369.078 49.9893 368.882 49.5133 368.882 48.944C368.882 48.16 369.199 47.5627 369.834 47.152C370.469 46.732 371.215 46.522 372.074 46.522C372.933 46.522 373.679 46.732 374.314 47.152C374.958 47.5627 375.28 48.16 375.28 48.944C375.28 49.5133 375.084 49.9893 374.692 50.372C374.3 50.7453 373.801 51.016 373.194 51.184C373.829 51.3707 374.356 51.6787 374.776 52.108C375.205 52.5373 375.42 53.046 375.42 53.634C375.42 54.3993 375.098 55.0153 374.454 55.482ZM372.074 50.708C372.261 50.68 372.447 50.6333 372.634 50.568C372.83 50.5027 373.049 50.414 373.292 50.302C373.535 50.1807 373.731 50.0173 373.88 49.812C374.029 49.5973 374.104 49.3593 374.104 49.098C374.104 48.6313 373.908 48.258 373.516 47.978C373.133 47.698 372.653 47.558 372.074 47.558C371.486 47.558 371.001 47.698 370.618 47.978C370.235 48.258 370.044 48.6313 370.044 49.098C370.044 49.3593 370.119 49.5973 370.268 49.812C370.417 50.0173 370.613 50.1807 370.856 50.302C371.099 50.414 371.313 50.5027 371.5 50.568C371.696 50.624 371.887 50.6707 372.074 50.708ZM372.074 55.132C372.671 55.132 373.18 54.9827 373.6 54.684C374.029 54.3853 374.244 53.9933 374.244 53.508C374.244 53.1347 374.095 52.808 373.796 52.528C373.507 52.2387 373.208 52.038 372.9 51.926C372.601 51.8047 372.326 51.73 372.074 51.702C371.822 51.73 371.542 51.8047 371.234 51.926C370.935 52.038 370.637 52.2387 370.338 52.528C370.039 52.808 369.89 53.1347 369.89 53.508C369.89 53.9933 370.1 54.3853 370.52 54.684C370.949 54.9827 371.467 55.132 372.074 55.132ZM380.419 56.168C379.803 56.168 379.257 56.028 378.781 55.748C378.314 55.4587 377.941 55.076 377.661 54.6C377.39 54.124 377.185 53.6107 377.045 53.06C376.914 52.5093 376.849 51.9353 376.849 51.338C376.849 50.7407 376.914 50.1667 377.045 49.616C377.185 49.0653 377.39 48.5567 377.661 48.09C377.941 47.614 378.314 47.236 378.781 46.956C379.257 46.6667 379.803 46.522 380.419 46.522C381.025 46.522 381.567 46.6667 382.043 46.956C382.519 47.236 382.892 47.614 383.163 48.09C383.443 48.5567 383.648 49.0653 383.779 49.616C383.919 50.1667 383.989 50.7407 383.989 51.338C383.989 51.9353 383.919 52.5093 383.779 53.06C383.648 53.6107 383.443 54.124 383.163 54.6C382.892 55.076 382.519 55.4587 382.043 55.748C381.567 56.028 381.025 56.168 380.419 56.168ZM379.019 54.558C379.392 54.9407 379.859 55.132 380.419 55.132C380.979 55.132 381.445 54.9407 381.819 54.558C382.192 54.166 382.449 53.6993 382.589 53.158C382.729 52.6167 382.799 52.01 382.799 51.338C382.799 50.666 382.729 50.0593 382.589 49.518C382.449 48.9767 382.192 48.5147 381.819 48.132C381.445 47.7493 380.979 47.558 380.419 47.558C379.859 47.558 379.392 47.7493 379.019 48.132C378.645 48.5147 378.389 48.9767 378.249 49.518C378.109 50.0593 378.039 50.666 378.039 51.338C378.039 52.01 378.109 52.6167 378.249 53.158C378.389 53.6993 378.645 54.166 379.019 54.558ZM389.005 50.484C388.585 50.9133 388.044 51.128 387.381 51.128C386.718 51.128 386.177 50.9133 385.757 50.484C385.346 50.0453 385.141 49.4993 385.141 48.846C385.141 48.1833 385.351 47.6327 385.771 47.194C386.191 46.746 386.728 46.522 387.381 46.522C388.044 46.522 388.585 46.746 389.005 47.194C389.434 47.6327 389.649 48.1833 389.649 48.846C389.649 49.4993 389.434 50.0453 389.005 50.484ZM387.255 56H386.499L392.463 46.662H393.233L387.255 56ZM393.877 55.524C393.457 55.9533 392.916 56.168 392.253 56.168C391.59 56.168 391.049 55.9533 390.629 55.524C390.218 55.0853 390.013 54.5393 390.013 53.886C390.013 53.2233 390.223 52.6727 390.643 52.234C391.063 51.786 391.6 51.562 392.253 51.562C392.916 51.562 393.457 51.786 393.877 52.234C394.297 52.6727 394.507 53.2233 394.507 53.886C394.507 54.5393 394.297 55.0853 393.877 55.524ZM386.373 49.98C386.634 50.2787 386.97 50.428 387.381 50.428C387.792 50.428 388.132 50.2787 388.403 49.98C388.674 49.672 388.809 49.294 388.809 48.846C388.809 48.3793 388.674 47.9967 388.403 47.698C388.142 47.39 387.801 47.236 387.381 47.236C386.97 47.236 386.634 47.39 386.373 47.698C386.112 47.9967 385.981 48.3793 385.981 48.846C385.981 49.294 386.112 49.672 386.373 49.98ZM391.231 55.02C391.502 55.3187 391.842 55.468 392.253 55.468C392.664 55.468 393.004 55.3187 393.275 55.02C393.546 54.712 393.681 54.334 393.681 53.886C393.681 53.4193 393.546 53.0367 393.275 52.738C393.014 52.43 392.673 52.276 392.253 52.276C391.833 52.276 391.492 52.43 391.231 52.738C390.97 53.0367 390.839 53.4193 390.839 53.886C390.839 54.334 390.97 54.712 391.231 55.02ZM399.005 57.722V55.062C399.415 55.034 399.742 54.936 399.985 54.768C400.227 54.6 400.447 54.2453 400.643 53.704C400.848 53.1627 401.016 52.3787 401.147 51.352L401.721 46.662H407.433V54.964H408.287V57.722H407.125V56H400.167V57.722H399.005ZM402.295 51.436C402.08 53.2373 401.604 54.4133 400.867 54.964H406.271V47.698H402.757L402.295 51.436ZM413.518 56H409.724V49.238H413.448C414.036 49.238 414.498 49.3967 414.834 49.714C415.179 50.0313 415.352 50.4513 415.352 50.974C415.352 51.3567 415.244 51.688 415.03 51.968C414.824 52.2387 414.568 52.4207 414.26 52.514C414.605 52.598 414.894 52.7987 415.128 53.116C415.37 53.4333 415.492 53.7833 415.492 54.166C415.492 54.7167 415.314 55.16 414.96 55.496C414.614 55.832 414.134 56 413.518 56ZM413.308 55.076C413.644 55.076 413.91 54.9827 414.106 54.796C414.302 54.6093 414.4 54.3573 414.4 54.04C414.4 53.7507 414.302 53.5033 414.106 53.298C413.91 53.0927 413.644 52.99 413.308 52.99H410.774V55.076H413.308ZM413.266 52.066C413.583 52.066 413.83 51.982 414.008 51.814C414.185 51.6367 414.274 51.408 414.274 51.128C414.274 50.8293 414.185 50.596 414.008 50.428C413.83 50.2507 413.583 50.162 413.266 50.162H410.774V52.066H413.266ZM420.528 56.168C419.52 56.168 418.694 55.8413 418.05 55.188C417.406 54.5253 417.084 53.6667 417.084 52.612C417.084 51.6227 417.401 50.7873 418.036 50.106C418.67 49.4153 419.464 49.07 420.416 49.07C421.414 49.07 422.203 49.4153 422.782 50.106C423.37 50.7873 423.664 51.6507 423.664 52.696V52.962H418.19C418.236 53.6247 418.479 54.18 418.918 54.628C419.356 55.076 419.926 55.3 420.626 55.3C421.466 55.3 422.161 55.0153 422.712 54.446L423.216 55.132C422.525 55.8227 421.629 56.168 420.528 56.168ZM422.628 52.192C422.618 51.6133 422.422 51.0953 422.04 50.638C421.657 50.1713 421.111 49.938 420.402 49.938C419.73 49.938 419.198 50.1667 418.806 50.624C418.423 51.0813 418.218 51.604 418.19 52.192H422.628ZM432.768 56H428.974V49.238H432.698C433.286 49.238 433.748 49.3967 434.084 49.714C434.429 50.0313 434.602 50.4513 434.602 50.974C434.602 51.3567 434.494 51.688 434.28 51.968C434.074 52.2387 433.818 52.4207 433.51 52.514C433.855 52.598 434.144 52.7987 434.378 53.116C434.62 53.4333 434.742 53.7833 434.742 54.166C434.742 54.7167 434.564 55.16 434.21 55.496C433.864 55.832 433.384 56 432.768 56ZM432.558 55.076C432.894 55.076 433.16 54.9827 433.356 54.796C433.552 54.6093 433.65 54.3573 433.65 54.04C433.65 53.7507 433.552 53.5033 433.356 53.298C433.16 53.0927 432.894 52.99 432.558 52.99H430.024V55.076H432.558ZM432.516 52.066C432.833 52.066 433.08 51.982 433.258 51.814C433.435 51.6367 433.524 51.408 433.524 51.128C433.524 50.8293 433.435 50.596 433.258 50.428C433.08 50.2507 432.833 50.162 432.516 50.162H430.024V52.066H432.516ZM439.778 56.168C438.77 56.168 437.944 55.8413 437.3 55.188C436.656 54.5253 436.334 53.6667 436.334 52.612C436.334 51.6227 436.651 50.7873 437.286 50.106C437.92 49.4153 438.714 49.07 439.666 49.07C440.664 49.07 441.453 49.4153 442.032 50.106C442.62 50.7873 442.914 51.6507 442.914 52.696V52.962H437.44C437.486 53.6247 437.729 54.18 438.168 54.628C438.606 55.076 439.176 55.3 439.876 55.3C440.716 55.3 441.411 55.0153 441.962 54.446L442.466 55.132C441.775 55.8227 440.879 56.168 439.778 56.168ZM441.878 52.192C441.868 51.6133 441.672 51.0953 441.29 50.638C440.907 50.1713 440.361 49.938 439.652 49.938C438.98 49.938 438.448 50.1667 438.056 50.624C437.673 51.0813 437.468 51.604 437.44 52.192H441.878ZM443.816 57.722V55.132C444.162 55.0667 444.432 54.8613 444.628 54.516C444.824 54.1613 444.983 53.5127 445.104 52.57L445.538 49.238H450.242V55.076H451.026V57.722H449.976V56H444.866V57.722H443.816ZM446.462 50.162L446.154 52.696C445.996 53.8813 445.669 54.6747 445.174 55.076H449.192V50.162H446.462ZM452.084 58.646L452.252 57.694C452.42 57.7687 452.611 57.806 452.826 57.806C453.069 57.806 453.269 57.7547 453.428 57.652C453.587 57.5493 453.722 57.3627 453.834 57.092L454.282 56.07L451.454 49.238H452.588L454.842 54.782L457.082 49.238H458.23L454.842 57.372C454.469 58.268 453.806 58.7253 452.854 58.744C452.574 58.744 452.317 58.7113 452.084 58.646ZM467.137 49.238H468.187V55.076H469.055V57.722H468.005V56H459.325V49.238H460.375V55.076H463.231V49.238H464.281V55.076H467.137V49.238ZM471.503 56H470.495V49.238H471.545V54.404L475.087 49.238H476.123V56H475.073V50.736L471.503 56ZM481.272 56.168C480.264 56.168 479.438 55.8413 478.794 55.188C478.15 54.5253 477.828 53.6667 477.828 52.612C477.828 51.6227 478.145 50.7873 478.78 50.106C479.415 49.4153 480.208 49.07 481.16 49.07C482.159 49.07 482.947 49.4153 483.526 50.106C484.114 50.7873 484.408 51.6507 484.408 52.696V52.962H478.934C478.981 53.6247 479.223 54.18 479.662 54.628C480.101 55.076 480.67 55.3 481.37 55.3C482.21 55.3 482.905 55.0153 483.456 54.446L483.96 55.132C483.269 55.8227 482.373 56.168 481.272 56.168ZM483.372 52.192C483.363 51.6133 483.167 51.0953 482.784 50.638C482.401 50.1713 481.855 49.938 481.146 49.938C480.474 49.938 479.942 50.1667 479.55 50.624C479.167 51.0813 478.962 51.604 478.934 52.192H483.372ZM375.21 73H369.092V63.662H375.21V64.698H370.254V67.708H375.112V68.744H370.254V71.964H375.21V73ZM380.815 73H377.021V66.238H380.745C381.333 66.238 381.795 66.3967 382.131 66.714C382.476 67.0313 382.649 67.4513 382.649 67.974C382.649 68.3567 382.541 68.688 382.327 68.968C382.121 69.2387 381.865 69.4207 381.557 69.514C381.902 69.598 382.191 69.7987 382.425 70.116C382.667 70.4333 382.789 70.7833 382.789 71.166C382.789 71.7167 382.611 72.16 382.257 72.496C381.911 72.832 381.431 73 380.815 73ZM380.605 72.076C380.941 72.076 381.207 71.9827 381.403 71.796C381.599 71.6093 381.697 71.3573 381.697 71.04C381.697 70.7507 381.599 70.5033 381.403 70.298C381.207 70.0927 380.941 69.99 380.605 69.99H378.071V72.076H380.605ZM380.563 69.066C380.88 69.066 381.127 68.982 381.305 68.814C381.482 68.6367 381.571 68.408 381.571 68.128C381.571 67.8293 381.482 67.596 381.305 67.428C381.127 67.2507 380.88 67.162 380.563 67.162H378.071V69.066H380.563ZM388.105 73.168C387.153 73.168 386.392 72.7713 385.823 71.978V75.576H384.773V66.238H385.823V67.246C386.075 66.8913 386.401 66.6067 386.803 66.392C387.204 66.1773 387.638 66.07 388.105 66.07C389.001 66.07 389.724 66.392 390.275 67.036C390.835 67.6707 391.115 68.5293 391.115 69.612C391.115 70.6947 390.835 71.558 390.275 72.202C389.724 72.846 389.001 73.168 388.105 73.168ZM387.839 72.23C388.501 72.23 389.029 71.9873 389.421 71.502C389.813 71.0073 390.009 70.3773 390.009 69.612C390.009 68.8467 389.813 68.2213 389.421 67.736C389.029 67.2507 388.501 67.008 387.839 67.008C387.437 67.008 387.045 67.1153 386.663 67.33C386.289 67.5353 386.009 67.7873 385.823 68.086V71.138C386.009 71.446 386.289 71.7073 386.663 71.922C387.045 72.1273 387.437 72.23 387.839 72.23ZM398.16 72.146C397.554 72.8273 396.746 73.168 395.738 73.168C394.73 73.168 393.918 72.8273 393.302 72.146C392.696 71.4647 392.392 70.62 392.392 69.612C392.392 68.604 392.696 67.764 393.302 67.092C393.918 66.4107 394.73 66.07 395.738 66.07C396.746 66.07 397.554 66.4107 398.16 67.092C398.776 67.764 399.084 68.604 399.084 69.612C399.084 70.62 398.776 71.4647 398.16 72.146ZM394.086 71.474C394.497 71.978 395.048 72.23 395.738 72.23C396.429 72.23 396.975 71.978 397.376 71.474C397.778 70.9607 397.978 70.34 397.978 69.612C397.978 68.884 397.778 68.268 397.376 67.764C396.975 67.26 396.429 67.008 395.738 67.008C395.048 67.008 394.497 67.2647 394.086 67.778C393.685 68.282 393.484 68.8933 393.484 69.612C393.484 70.34 393.685 70.9607 394.086 71.474ZM406.424 73H405.374V67.162H401.846V73H400.796V66.238H406.424V73ZM411.573 73.168C410.565 73.168 409.739 72.8413 409.095 72.188C408.451 71.5253 408.129 70.6667 408.129 69.612C408.129 68.6227 408.446 67.7873 409.081 67.106C409.715 66.4153 410.509 66.07 411.461 66.07C412.459 66.07 413.248 66.4153 413.827 67.106C414.415 67.7873 414.709 68.6507 414.709 69.696V69.962H409.235C409.281 70.6247 409.524 71.18 409.963 71.628C410.401 72.076 410.971 72.3 411.671 72.3C412.511 72.3 413.206 72.0153 413.757 71.446L414.261 72.132C413.57 72.8227 412.674 73.168 411.573 73.168ZM413.673 69.192C413.663 68.6133 413.467 68.0953 413.085 67.638C412.702 67.1713 412.156 66.938 411.447 66.938C410.775 66.938 410.243 67.1667 409.851 67.624C409.468 68.0813 409.263 68.604 409.235 69.192H413.673ZM417.417 73H416.409V66.238H417.459V71.404L421.001 66.238H422.037V73H420.987V67.736L417.417 73ZM421.673 64.236C421.067 65.0573 420.25 65.468 419.223 65.468C418.206 65.468 417.385 65.0573 416.759 64.236L417.277 63.788C417.763 64.46 418.411 64.796 419.223 64.796C420.045 64.796 420.689 64.46 421.155 63.788L421.673 64.236ZM427.116 73.168C426.117 73.168 425.305 72.832 424.68 72.16C424.055 71.4787 423.742 70.6293 423.742 69.612C423.742 68.5947 424.055 67.75 424.68 67.078C425.305 66.406 426.117 66.07 427.116 66.07C428.161 66.07 428.987 66.462 429.594 67.246L428.894 67.89C428.465 67.302 427.891 67.008 427.172 67.008C426.463 67.008 425.893 67.2507 425.464 67.736C425.044 68.2213 424.834 68.8467 424.834 69.612C424.834 70.3773 425.044 71.0073 425.464 71.502C425.893 71.9873 426.463 72.23 427.172 72.23C427.881 72.23 428.455 71.936 428.894 71.348L429.594 71.992C428.987 72.776 428.161 73.168 427.116 73.168ZM437.016 73H435.672L433.236 69.962L432.116 71.068V73H431.066V66.238H432.116V69.836L435.672 66.238H437.002L434.006 69.304L437.016 73ZM439.265 73H438.257V66.238H439.307V71.404L442.849 66.238H443.885V73H442.835V67.736L439.265 73ZM449.034 73.168C448.026 73.168 447.2 72.8413 446.556 72.188C445.912 71.5253 445.59 70.6667 445.59 69.612C445.59 68.6227 445.907 67.7873 446.542 67.106C447.176 66.4153 447.97 66.07 448.922 66.07C449.92 66.07 450.709 66.4153 451.288 67.106C451.876 67.7873 452.17 68.6507 452.17 69.696V69.962H446.696C446.742 70.6247 446.985 71.18 447.424 71.628C447.862 72.076 448.432 72.3 449.132 72.3C449.972 72.3 450.667 72.0153 451.218 71.446L451.722 72.132C451.031 72.8227 450.135 73.168 449.034 73.168ZM451.134 69.192C451.124 68.6133 450.928 68.0953 450.546 67.638C450.163 67.1713 449.617 66.938 448.908 66.938C448.236 66.938 447.704 67.1667 447.312 67.624C446.929 68.0813 446.724 68.604 446.696 69.192H451.134ZM463.43 73H462.086L459.65 69.962L458.53 71.068V73H457.48V66.238H458.53V69.836L462.086 66.238H463.416L460.42 69.304L463.43 73ZM470.006 72.146C469.399 72.8273 468.592 73.168 467.584 73.168C466.576 73.168 465.764 72.8273 465.148 72.146C464.541 71.4647 464.238 70.62 464.238 69.612C464.238 68.604 464.541 67.764 465.148 67.092C465.764 66.4107 466.576 66.07 467.584 66.07C468.592 66.07 469.399 66.4107 470.006 67.092C470.622 67.764 470.93 68.604 470.93 69.612C470.93 70.62 470.622 71.4647 470.006 72.146ZM465.932 71.474C466.343 71.978 466.893 72.23 467.584 72.23C468.275 72.23 468.821 71.978 469.222 71.474C469.623 70.9607 469.824 70.34 469.824 69.612C469.824 68.884 469.623 68.268 469.222 67.764C468.821 67.26 468.275 67.008 467.584 67.008C466.893 67.008 466.343 67.2647 465.932 67.778C465.531 68.282 465.33 68.8933 465.33 69.612C465.33 70.34 465.531 70.9607 465.932 71.474ZM479.544 73H478.494V67.694L476.296 73H475.904L473.692 67.694V73H472.642V66.238H474.028L476.1 71.25L478.144 66.238H479.544V73ZM487.266 73H486.216V67.162H482.688V73H481.638V66.238H487.266V73ZM494.641 73H493.591V72.23C493.021 72.8553 492.275 73.168 491.351 73.168C490.725 73.168 490.175 72.9673 489.699 72.566C489.223 72.1647 488.985 71.6187 488.985 70.928C488.985 70.2187 489.218 69.6727 489.685 69.29C490.161 68.898 490.716 68.702 491.351 68.702C492.312 68.702 493.059 69.01 493.591 69.626V68.408C493.591 67.96 493.432 67.61 493.115 67.358C492.797 67.106 492.387 66.98 491.883 66.98C491.089 66.98 490.399 67.2927 489.811 67.918L489.321 67.19C490.039 66.4433 490.94 66.07 492.023 66.07C492.797 66.07 493.427 66.2567 493.913 66.63C494.398 67.0033 494.641 67.5773 494.641 68.352V73ZM491.729 72.412C492.569 72.412 493.189 72.132 493.591 71.572V70.298C493.189 69.738 492.569 69.458 491.729 69.458C491.243 69.458 490.842 69.598 490.525 69.878C490.217 70.1487 490.062 70.5033 490.062 70.942C490.062 71.3713 490.217 71.726 490.525 72.006C490.842 72.2767 491.243 72.412 491.729 72.412ZM497.795 73H496.745V66.238H497.795V69.052H501.323V66.238H502.373V73H501.323V69.976H497.795V73ZM505.478 73H504.47V66.238H505.52V71.404L509.062 66.238H510.098V73H509.048V67.736L505.478 73ZM513.203 73H512.195V66.238H513.245V71.404L516.787 66.238H517.823V73H516.773V67.736L513.203 73Z" fill="#666666"/>
<path d="M375.168 232H368.756V231.076C369.727 230.311 370.478 229.704 371.01 229.256C371.551 228.799 372.069 228.318 372.564 227.814C373.068 227.301 373.423 226.848 373.628 226.456C373.833 226.055 373.936 225.658 373.936 225.266C373.936 224.706 373.745 224.281 373.362 223.992C372.979 223.703 372.522 223.558 371.99 223.558C370.917 223.558 370.072 223.95 369.456 224.734L368.742 223.992C369.097 223.525 369.559 223.166 370.128 222.914C370.707 222.653 371.327 222.522 371.99 222.522C372.839 222.522 373.572 222.76 374.188 223.236C374.813 223.712 375.126 224.389 375.126 225.266C375.126 226.134 374.753 227.002 374.006 227.87C373.259 228.729 372.121 229.76 370.59 230.964H375.168V232ZM380.514 232.168C379.898 232.168 379.352 232.028 378.876 231.748C378.41 231.459 378.036 231.076 377.756 230.6C377.486 230.124 377.28 229.611 377.14 229.06C377.01 228.509 376.944 227.935 376.944 227.338C376.944 226.741 377.01 226.167 377.14 225.616C377.28 225.065 377.486 224.557 377.756 224.09C378.036 223.614 378.41 223.236 378.876 222.956C379.352 222.667 379.898 222.522 380.514 222.522C381.121 222.522 381.662 222.667 382.138 222.956C382.614 223.236 382.988 223.614 383.258 224.09C383.538 224.557 383.744 225.065 383.874 225.616C384.014 226.167 384.084 226.741 384.084 227.338C384.084 227.935 384.014 228.509 383.874 229.06C383.744 229.611 383.538 230.124 383.258 230.6C382.988 231.076 382.614 231.459 382.138 231.748C381.662 232.028 381.121 232.168 380.514 232.168ZM379.114 230.558C379.488 230.941 379.954 231.132 380.514 231.132C381.074 231.132 381.541 230.941 381.914 230.558C382.288 230.166 382.544 229.699 382.684 229.158C382.824 228.617 382.894 228.01 382.894 227.338C382.894 226.666 382.824 226.059 382.684 225.518C382.544 224.977 382.288 224.515 381.914 224.132C381.541 223.749 381.074 223.558 380.514 223.558C379.954 223.558 379.488 223.749 379.114 224.132C378.741 224.515 378.484 224.977 378.344 225.518C378.204 226.059 378.134 226.666 378.134 227.338C378.134 228.01 378.204 228.617 378.344 229.158C378.484 229.699 378.741 230.166 379.114 230.558ZM389.101 226.484C388.681 226.913 388.139 227.128 387.477 227.128C386.814 227.128 386.273 226.913 385.853 226.484C385.442 226.045 385.237 225.499 385.237 224.846C385.237 224.183 385.447 223.633 385.867 223.194C386.287 222.746 386.823 222.522 387.477 222.522C388.139 222.522 388.681 222.746 389.101 223.194C389.53 223.633 389.745 224.183 389.745 224.846C389.745 225.499 389.53 226.045 389.101 226.484ZM387.351 232H386.595L392.559 222.662H393.329L387.351 232ZM393.973 231.524C393.553 231.953 393.011 232.168 392.349 232.168C391.686 232.168 391.145 231.953 390.725 231.524C390.314 231.085 390.109 230.539 390.109 229.886C390.109 229.223 390.319 228.673 390.739 228.234C391.159 227.786 391.695 227.562 392.349 227.562C393.011 227.562 393.553 227.786 393.973 228.234C394.393 228.673 394.603 229.223 394.603 229.886C394.603 230.539 394.393 231.085 393.973 231.524ZM386.469 225.98C386.73 226.279 387.066 226.428 387.477 226.428C387.887 226.428 388.228 226.279 388.499 225.98C388.769 225.672 388.905 225.294 388.905 224.846C388.905 224.379 388.769 223.997 388.499 223.698C388.237 223.39 387.897 223.236 387.477 223.236C387.066 223.236 386.73 223.39 386.469 223.698C386.207 223.997 386.077 224.379 386.077 224.846C386.077 225.294 386.207 225.672 386.469 225.98ZM391.327 231.02C391.597 231.319 391.938 231.468 392.349 231.468C392.759 231.468 393.1 231.319 393.371 231.02C393.641 230.712 393.777 230.334 393.777 229.886C393.777 229.419 393.641 229.037 393.371 228.738C393.109 228.43 392.769 228.276 392.349 228.276C391.929 228.276 391.588 228.43 391.327 228.738C391.065 229.037 390.935 229.419 390.935 229.886C390.935 230.334 391.065 230.712 391.327 231.02ZM404 232.168C402.628 232.168 401.513 231.711 400.654 230.796C399.796 229.881 399.366 228.729 399.366 227.338C399.366 225.947 399.796 224.795 400.654 223.88C401.513 222.965 402.628 222.508 404 222.508C405.363 222.508 406.474 222.965 407.332 223.88C408.2 224.795 408.634 225.947 408.634 227.338C408.634 228.729 408.2 229.881 407.332 230.796C406.474 231.711 405.363 232.168 404 232.168ZM404 231.132C405.027 231.132 405.853 230.777 406.478 230.068C407.113 229.349 407.43 228.439 407.43 227.338C407.43 226.227 407.113 225.317 406.478 224.608C405.853 223.899 405.027 223.544 404 223.544C402.964 223.544 402.134 223.899 401.508 224.608C400.883 225.317 400.57 226.227 400.57 227.338C400.57 228.439 400.883 229.349 401.508 230.068C402.134 230.777 402.964 231.132 404 231.132ZM412.689 232H411.639V226.162H409.679V225.238H414.663V226.162H412.689V232ZM419.092 232.168C418.084 232.168 417.258 231.841 416.614 231.188C415.97 230.525 415.648 229.667 415.648 228.612C415.648 227.623 415.966 226.787 416.6 226.106C417.235 225.415 418.028 225.07 418.98 225.07C419.979 225.07 420.768 225.415 421.346 226.106C421.934 226.787 422.228 227.651 422.228 228.696V228.962H416.754C416.801 229.625 417.044 230.18 417.482 230.628C417.921 231.076 418.49 231.3 419.19 231.3C420.03 231.3 420.726 231.015 421.276 230.446L421.78 231.132C421.09 231.823 420.194 232.168 419.092 232.168ZM421.192 228.192C421.183 227.613 420.987 227.095 420.604 226.638C420.222 226.171 419.676 225.938 418.966 225.938C418.294 225.938 417.762 226.167 417.37 226.624C416.988 227.081 416.782 227.604 416.754 228.192H421.192ZM423.789 225.238H424.839V227.142C424.839 227.749 424.979 228.169 425.259 228.402C425.539 228.635 425.973 228.752 426.561 228.752C427.289 228.752 427.886 228.631 428.353 228.388V225.238H429.403V232H428.353V229.242C427.756 229.541 427.07 229.69 426.295 229.69C425.418 229.69 424.778 229.513 424.377 229.158C423.985 228.803 423.789 228.239 423.789 227.464V225.238ZM434.555 232.168C433.547 232.168 432.721 231.841 432.077 231.188C431.433 230.525 431.111 229.667 431.111 228.612C431.111 227.623 431.428 226.787 432.063 226.106C432.698 225.415 433.491 225.07 434.443 225.07C435.442 225.07 436.23 225.415 436.809 226.106C437.397 226.787 437.691 227.651 437.691 228.696V228.962H432.217C432.264 229.625 432.506 230.18 432.945 230.628C433.384 231.076 433.953 231.3 434.653 231.3C435.493 231.3 436.188 231.015 436.739 230.446L437.243 231.132C436.552 231.823 435.656 232.168 434.555 232.168ZM436.655 228.192C436.646 227.613 436.45 227.095 436.067 226.638C435.684 226.171 435.138 225.938 434.429 225.938C433.757 225.938 433.225 226.167 432.833 226.624C432.45 227.081 432.245 227.604 432.217 228.192H436.655ZM442.374 232.168C441.375 232.168 440.563 231.832 439.938 231.16C439.312 230.479 439 229.629 439 228.612C439 227.595 439.312 226.75 439.938 226.078C440.563 225.406 441.375 225.07 442.374 225.07C443.419 225.07 444.245 225.462 444.852 226.246L444.152 226.89C443.722 226.302 443.148 226.008 442.43 226.008C441.72 226.008 441.151 226.251 440.722 226.736C440.302 227.221 440.092 227.847 440.092 228.612C440.092 229.377 440.302 230.007 440.722 230.502C441.151 230.987 441.72 231.23 442.43 231.23C443.139 231.23 443.713 230.936 444.152 230.348L444.852 230.992C444.245 231.776 443.419 232.168 442.374 232.168ZM448.605 232H447.555V226.162H445.595V225.238H450.579V226.162H448.605V232ZM455.75 232H451.956V225.238H455.68C456.268 225.238 456.73 225.397 457.066 225.714C457.412 226.031 457.584 226.451 457.584 226.974C457.584 227.357 457.477 227.688 457.262 227.968C457.057 228.239 456.8 228.421 456.492 228.514C456.838 228.598 457.127 228.799 457.36 229.116C457.603 229.433 457.724 229.783 457.724 230.166C457.724 230.717 457.547 231.16 457.192 231.496C456.847 231.832 456.366 232 455.75 232ZM455.54 231.076C455.876 231.076 456.142 230.983 456.338 230.796C456.534 230.609 456.632 230.357 456.632 230.04C456.632 229.751 456.534 229.503 456.338 229.298C456.142 229.093 455.876 228.99 455.54 228.99H453.006V231.076H455.54ZM455.498 228.066C455.816 228.066 456.063 227.982 456.24 227.814C456.418 227.637 456.506 227.408 456.506 227.128C456.506 226.829 456.418 226.596 456.24 226.428C456.063 226.251 455.816 226.162 455.498 226.162H453.006V228.066H455.498ZM462.76 232.168C461.752 232.168 460.926 231.841 460.282 231.188C459.638 230.525 459.316 229.667 459.316 228.612C459.316 227.623 459.634 226.787 460.268 226.106C460.903 225.415 461.696 225.07 462.648 225.07C463.647 225.07 464.436 225.415 465.014 226.106C465.602 226.787 465.896 227.651 465.896 228.696V228.962H460.422C460.469 229.625 460.712 230.18 461.15 230.628C461.589 231.076 462.158 231.3 462.858 231.3C463.698 231.3 464.394 231.015 464.944 230.446L465.448 231.132C464.758 231.823 463.862 232.168 462.76 232.168ZM464.86 228.192C464.851 227.613 464.655 227.095 464.272 226.638C463.89 226.171 463.344 225.938 462.634 225.938C461.962 225.938 461.43 226.167 461.038 226.624C460.656 227.081 460.45 227.604 460.422 228.192H464.86ZM468.647 232H467.597V225.238H468.647V228.052H472.175V225.238H473.225V232H472.175V228.976H468.647V232ZM476.371 232H475.321V225.238H476.371V228.052H479.899V225.238H480.949V232H479.899V228.976H476.371V232ZM488.324 232H487.274V231.23C486.705 231.855 485.958 232.168 485.034 232.168C484.409 232.168 483.858 231.967 483.382 231.566C482.906 231.165 482.668 230.619 482.668 229.928C482.668 229.219 482.901 228.673 483.368 228.29C483.844 227.898 484.399 227.702 485.034 227.702C485.995 227.702 486.742 228.01 487.274 228.626V227.408C487.274 226.96 487.115 226.61 486.798 226.358C486.481 226.106 486.07 225.98 485.566 225.98C484.773 225.98 484.082 226.293 483.494 226.918L483.004 226.19C483.723 225.443 484.623 225.07 485.706 225.07C486.481 225.07 487.111 225.257 487.596 225.63C488.081 226.003 488.324 226.577 488.324 227.352V232ZM485.412 231.412C486.252 231.412 486.873 231.132 487.274 230.572V229.298C486.873 228.738 486.252 228.458 485.412 228.458C484.927 228.458 484.525 228.598 484.208 228.878C483.9 229.149 483.746 229.503 483.746 229.942C483.746 230.371 483.9 230.726 484.208 231.006C484.525 231.277 484.927 231.412 485.412 231.412ZM491.437 232H490.205L492.011 229.34C491.498 229.275 491.078 229.06 490.751 228.696C490.434 228.332 490.275 227.87 490.275 227.31C490.275 226.713 490.466 226.218 490.849 225.826C491.232 225.434 491.754 225.238 492.417 225.238H495.987V232H494.937V229.382H493.089L491.437 232ZM492.529 228.458H494.937V226.162H492.529C492.165 226.162 491.876 226.269 491.661 226.484C491.456 226.689 491.353 226.965 491.353 227.31C491.353 227.655 491.456 227.935 491.661 228.15C491.866 228.355 492.156 228.458 492.529 228.458ZM374.678 249H373.628V243.162H370.1V249H369.05V242.238H374.678V249ZM380.107 249.168C379.155 249.168 378.394 248.771 377.825 247.978V251.576H376.775V242.238H377.825V243.246C378.077 242.891 378.403 242.607 378.805 242.392C379.206 242.177 379.64 242.07 380.107 242.07C381.003 242.07 381.726 242.392 382.277 243.036C382.837 243.671 383.117 244.529 383.117 245.612C383.117 246.695 382.837 247.558 382.277 248.202C381.726 248.846 381.003 249.168 380.107 249.168ZM379.841 248.23C380.503 248.23 381.031 247.987 381.423 247.502C381.815 247.007 382.011 246.377 382.011 245.612C382.011 244.847 381.815 244.221 381.423 243.736C381.031 243.251 380.503 243.008 379.841 243.008C379.439 243.008 379.047 243.115 378.665 243.33C378.291 243.535 378.011 243.787 377.825 244.086V247.138C378.011 247.446 378.291 247.707 378.665 247.922C379.047 248.127 379.439 248.23 379.841 248.23ZM390.162 248.146C389.556 248.827 388.748 249.168 387.74 249.168C386.732 249.168 385.92 248.827 385.304 248.146C384.698 247.465 384.394 246.62 384.394 245.612C384.394 244.604 384.698 243.764 385.304 243.092C385.92 242.411 386.732 242.07 387.74 242.07C388.748 242.07 389.556 242.411 390.162 243.092C390.778 243.764 391.086 244.604 391.086 245.612C391.086 246.62 390.778 247.465 390.162 248.146ZM386.088 247.474C386.499 247.978 387.05 248.23 387.74 248.23C388.431 248.23 388.977 247.978 389.378 247.474C389.78 246.961 389.98 246.34 389.98 245.612C389.98 244.884 389.78 244.268 389.378 243.764C388.977 243.26 388.431 243.008 387.74 243.008C387.05 243.008 386.499 243.265 386.088 243.778C385.687 244.282 385.486 244.893 385.486 245.612C385.486 246.34 385.687 246.961 386.088 247.474ZM392 250.722V248.132C392.345 248.067 392.616 247.861 392.812 247.516C393.008 247.161 393.167 246.513 393.288 245.57L393.722 242.238H398.426V248.076H399.21V250.722H398.16V249H393.05V250.722H392ZM394.646 243.162L394.338 245.696C394.179 246.881 393.853 247.675 393.358 248.076H397.376V243.162H394.646ZM400.268 251.646L400.436 250.694C400.604 250.769 400.795 250.806 401.01 250.806C401.252 250.806 401.453 250.755 401.612 250.652C401.77 250.549 401.906 250.363 402.018 250.092L402.466 249.07L399.638 242.238H400.772L403.026 247.782L405.266 242.238H406.414L403.026 250.372C402.652 251.268 401.99 251.725 401.038 251.744C400.758 251.744 400.501 251.711 400.268 251.646ZM413.459 249H412.115L409.679 245.962L408.559 247.068V249H407.509V242.238H408.559V245.836L412.115 242.238H413.445L410.449 245.304L413.459 249ZM420.062 250.722V249H414.7V242.238H415.75V248.076H419.278V242.238H420.328V248.076H421.112V250.722H420.062ZM423.556 249H422.548V242.238H423.598V247.404L427.14 242.238H428.176V249H427.126V243.736L423.556 249ZM431.281 249H430.049L431.855 246.34C431.341 246.275 430.921 246.06 430.595 245.696C430.277 245.332 430.119 244.87 430.119 244.31C430.119 243.713 430.31 243.218 430.693 242.826C431.075 242.434 431.598 242.238 432.261 242.238H435.831V249H434.781V246.382H432.933L431.281 249ZM432.373 245.458H434.781V243.162H432.373C432.009 243.162 431.719 243.269 431.505 243.484C431.299 243.689 431.197 243.965 431.197 244.31C431.197 244.655 431.299 244.935 431.505 245.15C431.71 245.355 431.999 245.458 432.373 245.458Z" fill="#666666"/>
<line x1="346" y1="229.5" x2="308" y2="229.5" stroke="#22689E"/>
<line x1="346" y1="52.5" x2="308" y2="52.5" stroke="#40A8E4"/>
</svg>
