<svg width="74" height="74" viewBox="0 0 74 74" fill="none" xmlns="http://www.w3.org/2000/svg">
<path d="M56.5117 43.6484C61.2942 43.6484 65.1836 39.6145 65.1836 34.832C65.1836 30.0495 61.2942 26.1602 56.5117 26.1602C51.7292 26.1602 47.8398 30.0495 47.8398 34.832C47.8398 39.6145 51.7292 43.6484 56.5117 43.6484Z" fill="#40A8E4"/>
<path d="M56.5117 0C51.7292 0 47.8398 4.03389 47.8398 8.81641C47.8398 13.5989 51.7292 17.4883 56.5117 17.4883C61.2942 17.4883 65.1836 13.5989 65.1836 8.81641C65.1836 4.03389 61.2942 0 56.5117 0Z" fill="#40A8E4"/>
<path d="M34.832 34.832C42.005 34.832 47.8398 28.9971 47.8398 21.8242C47.8398 14.6513 42.005 8.81641 34.832 8.81641C27.6591 8.81641 21.8242 14.6513 21.8242 21.8242C21.8242 28.9971 27.6591 34.832 34.832 34.832ZM32.6641 17.4883H37V26.1602H32.6641V17.4883Z" fill="#40A8E4"/>
<path d="M63.7671 51.583L49.6606 60.9922H32.6641V56.6562H45.6719C49.271 56.6562 52.1758 53.7509 52.1758 50.1523V47.9844H39.168C38.7344 47.9409 38.0405 48.1577 37.2168 47.4638L36.1763 46.5532C30.4526 41.5239 21.8677 41.5239 16.144 46.5532L9.59665 52.3203H0V74H45.8887L74 55.1387L72.7856 53.3174C70.7915 50.3691 66.7159 49.5889 63.7671 51.583Z" fill="#40A8E4"/>
</svg>
