<svg width="55" height="76" viewBox="0 0 55 76" fill="none" xmlns="http://www.w3.org/2000/svg">
<path fill-rule="evenodd" clip-rule="evenodd" d="M38.2808 0.26482L38.0196 0.529641V3.35216V6.17467L38.2808 6.43949L38.5421 6.70431H40.554C41.6605 6.70431 42.669 6.74408 42.7951 6.79264C42.9759 6.86232 43.0244 6.94286 43.0244 7.17388C43.0244 7.43825 42.6943 7.80201 39.6283 10.9172C36.307 14.2916 36.2322 14.3755 36.2322 14.7256C36.2322 15.0714 36.2989 15.151 38.182 17.0547C39.9883 18.8806 40.1551 19.0257 40.4489 19.0257C40.6367 19.0257 40.8711 18.945 41.0238 18.8277C41.1656 18.7188 42.7194 17.1797 44.4767 15.4076C46.9638 12.8995 47.7277 12.1796 47.9235 12.1584C48.3412 12.1133 48.3866 12.3569 48.3866 14.6429V16.6841L48.6478 16.9489L48.909 17.2138H51.6933H54.4775L54.7388 16.9489L55 16.6841V8.60688V0.529641L54.7388 0.26482L54.4775 0H46.5098H38.5421L38.2808 0.26482ZM22.6926 6.94603C22.5451 6.96442 21.8413 7.04324 21.1286 7.12116C16.9806 7.57506 13.2588 9.05 9.72592 11.6402C8.41735 12.5997 5.68441 15.3659 4.74762 16.6793C3.2353 18.7996 2.10181 20.959 1.2998 23.2475C0.774304 24.7472 0.555972 25.5803 0.234685 27.3117C0.0123314 28.51 -0.00134297 28.7418 8.69583e-05 31.3019C0.00151689 33.8845 0.0139394 34.0872 0.249609 35.3718C0.797182 38.356 1.74799 40.9326 3.26595 43.5462C3.70101 44.2952 5.8577 47.7562 7.63295 50.5541C8.05978 51.2268 9.74933 53.9176 11.3875 56.5336C13.0257 59.1497 14.9567 62.2278 15.6784 63.3739C16.4003 64.5199 18.3674 67.6592 20.0499 70.35C23.8807 76.4762 23.5311 75.9609 23.8793 75.9954C24.0928 76.0166 24.2166 75.9665 24.3674 75.7981C24.4785 75.6741 25.6326 73.8675 26.9321 71.7835C28.2316 69.6995 29.6414 67.444 30.0649 66.7713C30.4886 66.0986 31.1922 64.9775 31.6286 64.2798C32.065 63.5822 32.9115 62.2368 33.5097 61.2901C34.108 60.3433 35.7341 57.7545 37.1232 55.5371C38.5124 53.3197 40.1624 50.69 40.7899 49.6934C43.0912 46.0384 44.4324 43.8791 44.8102 43.221C45.7099 41.6533 46.7336 39.1428 47.1924 37.3785C47.7824 35.1102 48.0378 32.3375 47.8816 29.8976C47.7873 28.4268 47.7153 28.1761 47.3371 28.0015C47.0404 27.8645 41.7684 27.8692 41.4707 28.0068C41.0838 28.1855 41.0312 28.4837 41.1869 29.6155C41.2636 30.1727 41.3263 30.9443 41.3263 31.3302C41.3263 32.1787 41.0298 34.3817 40.7846 35.3555C40.3772 36.973 39.6558 38.8436 39.0378 39.8848C38.711 40.4356 35.2695 45.9426 33.4178 48.878C32.9149 49.6753 31.5465 51.8565 30.3769 53.7251C27.7409 57.9369 25.5685 61.3887 24.8597 62.4921C24.3272 63.3209 24.1368 63.4774 23.7498 63.4043C23.5438 63.3654 23.632 63.4999 19.6028 57.0772C18.5555 55.408 17.0566 53.0229 16.2719 51.7772C15.487 50.5315 14.6164 49.1453 14.3373 48.6968C14.0581 48.2484 12.9712 46.5157 11.9221 44.8464C9.14778 40.4321 9.00416 40.193 8.43791 39.0479C7.47315 37.0969 6.92299 35.1458 6.6883 32.8431C6.56363 31.6192 6.55702 31.2029 6.64532 30.1267C6.91772 26.8066 7.86701 24.0607 9.70608 21.2737C10.7316 19.7196 12.6932 17.7239 14.1577 16.7446C16.4719 15.1971 18.519 14.3856 21.2108 13.9485C22.2663 13.7771 22.6415 13.7598 24.3388 13.8039C25.3995 13.8315 26.4361 13.8803 26.6424 13.9122C26.9671 13.9625 27.048 13.9393 27.2457 13.7389L27.4739 13.5075V10.6538C27.4739 8.69794 27.4416 7.72817 27.3712 7.57161C27.3084 7.43173 27.1265 7.28976 26.902 7.20532C26.2718 6.96832 23.7579 6.81348 22.6926 6.94603ZM23.116 25.1004C21.7256 25.3514 20.6468 25.931 19.5991 26.9902C18.3818 28.221 17.8219 29.5697 17.8219 31.2712C17.8219 32.4215 17.9338 32.9312 18.4144 33.9699C18.7614 34.7198 18.9127 34.9279 19.6344 35.648C20.2025 36.2147 20.6539 36.5734 21.0879 36.803C23.5471 38.1033 26.2357 37.6851 28.1889 35.6985C29.4611 34.4044 29.9572 33.3101 30.0379 31.619C30.0958 30.4046 29.9286 29.5629 29.4298 28.5584C28.2756 26.234 25.4402 24.681 23.116 25.1004Z" fill="#40A8E4"/>
</svg>
