<svg width="74" height="80" viewBox="0 0 74 80" fill="none" xmlns="http://www.w3.org/2000/svg">
<path fill-rule="evenodd" clip-rule="evenodd" d="M45.2794 0.252527L45.0204 0.505054V3.8013V7.09754L45.2794 7.35006L45.5384 7.60259H48.9641H52.3897L52.6487 7.35006L52.9078 7.09754V3.8013V0.505054L52.6487 0.252527L52.3897 0H48.9641H45.5384L45.2794 0.252527ZM26.8798 13.2538L26.6311 13.4623L26.5868 23.3163L26.5425 33.1702L26.3407 33.3669L26.1388 33.5637L18.5665 33.6069L10.9941 33.6501L10.7922 33.8468L10.5904 34.0436L10.5461 41.2959L10.5018 48.5482L10.3 48.745L10.0981 48.9417L5.0491 48.9654L0 48.989V56.6751V64.3611L13.0694 64.3836L26.1388 64.406L26.3406 64.6028L26.5425 64.7995L26.5868 69.5131L26.6311 74.2268L26.8798 74.4352L27.1285 74.6436H34.3974H41.6663L41.9254 74.3911L42.1844 74.1386V56.7293C42.1844 45.8532 42.2162 39.2385 42.2692 39.1026C42.4705 38.5867 41.4524 38.6177 58.1832 38.6177H73.4819L73.741 38.3652L74 38.1127V30.9719V23.8312L73.741 23.5787L73.4819 23.3261H66.1244H58.7668L58.5181 23.5346L58.2695 23.743L58.2252 28.4567L58.1808 33.1703L57.979 33.367C57.7797 33.5612 57.7485 33.5637 55.5665 33.5637C53.3842 33.5637 53.3532 33.5612 53.154 33.3669L52.9521 33.1702L52.9078 23.3163L52.8635 13.4623L52.6148 13.2538L52.3661 13.0454H39.7473H27.1285L26.8798 13.2538ZM47.4328 18.1234L47.6347 18.3202V25.7451V33.1701L47.4328 33.3669L47.231 33.5637H39.6587H32.0864L31.8845 33.3669L31.6826 33.1702L31.661 25.8507C31.6439 20.0886 31.6631 18.4857 31.7513 18.3171C31.9841 17.8717 31.7678 17.8829 39.767 17.9055L47.2311 17.9266L47.4328 18.1234ZM68.5252 28.4041C68.7249 28.599 68.7269 28.6238 68.7269 30.8855C68.7269 33.1478 68.725 33.1721 68.5251 33.3669C68.3258 33.5612 68.2949 33.5637 66.1126 33.5637C63.9308 33.5637 63.8993 33.5611 63.7001 33.3671C63.502 33.1742 63.4978 33.1293 63.4751 30.9913C63.4576 29.352 63.48 28.759 63.5655 28.5978C63.7826 28.1879 63.9603 28.1603 66.2211 28.1847C68.2759 28.2068 68.3281 28.2118 68.5252 28.4041ZM36.7515 38.7867C36.9474 38.9032 37.0509 39.0429 37.0872 39.2399C37.1161 39.3966 37.1282 43.9071 37.1141 49.2632L37.0886 59.0017L36.8867 59.1984L36.6849 59.3952H26.4539H16.2229L16.021 59.1984L15.8192 59.0017L15.7936 49.2632C15.7795 43.9071 15.7917 39.3966 15.8206 39.2399C15.8569 39.0429 15.9604 38.9032 16.1563 38.7867C16.4326 38.6225 16.6836 38.6183 26.4539 38.6183C36.2242 38.6183 36.4752 38.6225 36.7515 38.7867ZM47.9381 44.1402L47.679 44.3927V51.5767V58.7606L47.9381 59.0131L48.1971 59.2657H55.5665H62.9358L63.1949 59.0131L63.4539 58.7606V51.5767V44.3927L63.1949 44.1402L62.9358 43.8877H55.5665H48.1971L47.9381 44.1402ZM26.1842 45.2258C26.0401 45.2868 24.975 46.2678 23.8174 47.4059C21.7912 49.3978 21.7126 49.4876 21.7126 49.8127C21.7126 50.1387 21.7881 50.2238 23.9112 52.289C26.0224 54.3425 26.1235 54.4276 26.4516 54.4276C26.7793 54.4276 26.8816 54.342 28.9463 52.34C30.1305 51.1918 31.1364 50.1491 31.1815 50.0229C31.2377 49.8654 31.2277 49.7141 31.1496 49.5404C31.0039 49.2167 26.9714 45.3051 26.6716 45.1966C26.516 45.1403 26.3651 45.1494 26.1842 45.2258ZM57.9791 49.1385C58.1788 49.3333 58.1808 49.3582 58.1808 51.6199C58.1808 53.8822 58.1789 53.9064 57.979 54.1012C57.7797 54.2955 57.7488 54.2981 55.5665 54.2981C53.3847 54.2981 53.3532 54.2955 53.154 54.1014C52.9559 53.9085 52.9517 53.8637 52.929 51.7256C52.9115 50.0863 52.9339 49.4934 53.0194 49.3322C53.2365 48.9222 53.4142 48.8946 55.6749 48.919C57.7297 48.9412 57.782 48.9462 57.9791 49.1385ZM10.3001 54.3221C10.4996 54.5166 10.5018 54.5435 10.5018 56.7603C10.5018 58.9776 10.4997 59.0038 10.2999 59.1984C10.1007 59.3927 10.0698 59.3952 7.88743 59.3952C5.70562 59.3952 5.67416 59.3927 5.47494 59.1986C5.27713 59.006 5.27261 58.959 5.24983 56.866C5.23246 55.2613 5.25497 54.6767 5.34023 54.5158C5.55744 54.1058 5.73513 54.0782 7.9959 54.1026C10.0507 54.1247 10.103 54.1298 10.3001 54.3221ZM36.8869 64.6029C37.0866 64.7977 37.0886 64.8225 37.0886 67.0842C37.0886 69.3465 37.0867 69.3708 36.8867 69.5656C36.6871 69.7603 36.6602 69.7624 34.3856 69.7624C32.1117 69.7624 32.0842 69.7603 31.8845 69.5658C31.6864 69.3729 31.6822 69.328 31.6595 67.19C31.642 65.5507 31.6645 64.9578 31.7499 64.7965C31.9679 64.3849 32.1389 64.3591 34.4941 64.3834C36.6412 64.4056 36.6893 64.41 36.8869 64.6029ZM10.8052 70.0581L10.5461 70.3107V74.9028V79.4949L10.8052 79.7475L11.0642 80H15.8192H20.5741L20.8332 79.7475L21.0922 79.4949V74.9028V70.3107L20.8332 70.0581L20.5741 69.8056H15.8192H11.0642L10.8052 70.0581Z" fill="#40A8E4"/>
</svg>
