<svg width="64" height="64" viewBox="0 0 64 64" fill="none" xmlns="http://www.w3.org/2000/svg">
<rect x="0.5" y="0.5" width="63" height="63" rx="31.5" stroke="#666666"/>
<path fill-rule="evenodd" clip-rule="evenodd" d="M26.9088 16.4703C26.701 16.5952 26.4014 16.776 26.2431 16.8721C26.0848 16.9681 25.8874 17.085 25.8045 17.1317C25.5496 17.2752 25.5295 17.4558 25.7371 17.736C25.895 17.9491 26.0914 18.4179 26.0661 18.5214C26.0327 18.6584 25.9169 18.6869 25.3925 18.6869H24.9243L24.8191 18.7952L24.714 18.9034V19.8721V20.8408L24.8191 20.949L24.9243 21.0573H25.3925C25.9138 21.0573 26.0302 21.0857 26.0819 21.2258C26.1334 21.3653 26.0995 21.4587 25.8435 21.8813C25.5172 22.42 25.525 22.5084 25.9222 22.7687C26.003 22.8216 26.1811 22.9231 26.318 22.9942C26.4549 23.0653 26.6965 23.2024 26.8548 23.299C27.2204 23.5218 27.3871 23.5839 27.5008 23.5394C27.5993 23.5009 27.8215 23.2068 27.9727 22.915C28.0826 22.7028 28.2104 22.5758 28.3141 22.5758C28.4013 22.5758 28.5923 22.8131 28.7628 23.1333C28.9387 23.4637 29.0754 23.5904 29.2275 23.5642C29.3586 23.5417 30.7655 22.7377 30.9476 22.5814C31.0428 22.4995 31.0257 22.3155 30.9072 22.1479C30.8503 22.0675 30.7267 21.8492 30.6325 21.6627C30.3571 21.1174 30.413 21.0573 31.1949 21.0573H31.6997L31.8049 20.949L31.9101 20.8408V19.8721V18.9034L31.8049 18.7952L31.6997 18.6869H31.1832C30.3982 18.6869 30.361 18.6251 30.7431 17.9559C30.8864 17.7048 30.9805 17.4975 30.9824 17.4285C30.9864 17.2853 30.872 17.155 30.6327 17.0301C30.5338 16.9784 30.3881 16.8916 30.3089 16.8372C29.9711 16.6048 29.2872 16.2424 29.1866 16.2424C29.0387 16.2424 28.9785 16.32 28.5025 17.1238C28.4748 17.1705 28.4103 17.2284 28.3591 17.2524C28.2731 17.2927 28.2561 17.2844 28.1335 17.1422C28.0606 17.0577 27.9507 16.8914 27.8893 16.7728C27.8278 16.6542 27.7277 16.4864 27.6668 16.3998C27.5047 16.1697 27.3916 16.1802 26.9088 16.4703ZM39.5351 17.5359L39.43 17.6441V18.4266C39.43 19.3315 39.4185 19.3763 39.1503 19.5157C38.8816 19.6554 38.6444 19.7268 38.5376 19.7003C38.4792 19.6857 38.217 19.4497 37.8792 19.1074C37.1197 18.3377 37.2497 18.3239 36.3285 19.2722C35.4079 20.2198 35.4222 20.0913 36.1536 20.8509C36.4493 21.1579 36.709 21.4578 36.7307 21.5173C36.7616 21.6017 36.7576 21.6668 36.7125 21.8144C36.6275 22.0926 36.4741 22.3638 36.3716 22.417C36.3078 22.4501 36.0589 22.4638 35.5143 22.4641L34.747 22.4647L34.6418 22.573L34.5366 22.6812V23.724V24.7667L34.6418 24.875L34.747 24.9832H35.503C35.9188 24.9832 36.3005 24.9995 36.3513 25.0193C36.461 25.0623 36.5539 25.2099 36.6821 25.5452C36.7486 25.7191 36.7691 25.8232 36.7513 25.8963C36.7356 25.9606 36.5148 26.2202 36.171 26.5787C35.4195 27.3621 35.4062 27.2284 36.3301 28.1764C37.2522 29.1226 37.1211 29.1087 37.8792 28.3405C38.217 27.9982 38.4792 27.7622 38.5376 27.7477C38.6444 27.7211 38.8816 27.7925 39.1503 27.9322C39.4185 28.0717 39.43 28.1165 39.43 29.0213V29.8038L39.5351 29.912L39.6403 30.0203H40.6533H41.6663L41.7715 29.912L41.8766 29.8038V29.0213C41.8766 28.1159 41.8882 28.0711 42.1563 27.9333C42.4634 27.7755 42.6593 27.7137 42.7656 27.7411C42.8266 27.7568 43.0644 27.9677 43.3698 28.2769C43.6469 28.5574 43.9136 28.8144 43.9625 28.848C44.168 28.9893 44.2104 28.9616 44.9596 28.1968C45.3434 27.805 45.6667 27.4467 45.6779 27.4005C45.7205 27.2259 45.6437 27.1109 45.1125 26.5536C44.5977 26.0135 44.5752 25.9836 44.5752 25.8391C44.5752 25.62 44.8196 25.0896 44.9483 25.0292C45.0166 24.9972 45.281 24.9832 45.821 24.9832H46.5956L46.7008 24.875L46.806 24.7667V23.724V22.6812L46.7008 22.573L46.5956 22.4647H45.821C45.281 22.4647 45.0166 22.4508 44.9483 22.4187C44.8195 22.3583 44.5752 21.8279 44.5752 21.6087C44.5752 21.4637 44.5973 21.4345 45.1329 20.8733C45.8874 20.0826 45.9005 20.2175 44.9773 19.2705C44.1795 18.452 44.1684 18.4455 43.9059 18.6459C43.8288 18.7049 43.5794 18.9477 43.3518 19.1855C42.9478 19.6079 42.804 19.7239 42.6852 19.7239C42.6531 19.7239 42.4884 19.6628 42.3194 19.588C41.8705 19.3895 41.8769 19.4065 41.8768 18.434L41.8766 17.6441L41.7715 17.5359L41.6663 17.4276H40.6533H39.6403L39.5351 17.5359ZM28.6101 18.523C29.2072 18.6822 29.5637 19.071 29.6836 19.6936C29.7387 19.9794 29.7009 20.1893 29.5318 20.5371C29.3752 20.8592 29.1767 21.0694 28.8935 21.2129C28.6413 21.3408 28.0884 21.3542 27.7903 21.2396C27.4882 21.1235 27.1322 20.7571 27.0196 20.4462C26.814 19.8788 26.9155 19.3202 27.3011 18.8967C27.454 18.7288 27.6385 18.6233 27.9342 18.5347C28.2079 18.4526 28.3379 18.4504 28.6101 18.523ZM41.3369 21.4865C41.8274 21.6367 42.1957 21.9234 42.5219 22.4091C42.6255 22.5634 42.7532 22.7931 42.8056 22.9197C42.8943 23.1341 42.9009 23.188 42.9015 23.7054C42.902 24.1916 42.892 24.2884 42.8216 24.4807C42.5684 25.1712 41.9891 25.7546 41.3583 25.9543C41.1533 26.0192 41.0146 26.035 40.6533 26.0345C40.1495 26.0339 39.9162 25.981 39.5561 25.7855C39.2454 25.6168 38.754 25.1046 38.6087 24.798C38.4916 24.551 38.3506 23.9641 38.3506 23.724C38.3506 23.4834 38.4917 22.8967 38.6089 22.6499C38.6896 22.4799 38.8145 22.3151 39.0337 22.0892C39.424 21.6869 39.7546 21.5043 40.236 21.425C40.4988 21.3817 41.1052 21.4156 41.3369 21.4865ZM27.3213 25.0555C27.1463 25.1285 27.1438 25.1456 27.1246 26.3769L27.1067 27.5373L27.0131 27.6335C26.9414 27.7072 26.8656 27.7367 26.6892 27.7593C26.4564 27.7891 25.7634 27.9686 25.474 28.074C25.1271 28.2004 25.0366 28.1437 24.7376 27.6129C24.6286 27.4194 24.4809 27.161 24.4095 27.0388C24.338 26.9166 24.1954 26.6692 24.0926 26.489C23.8967 26.1456 23.7687 26.0334 23.6237 26.0777C23.5802 26.0911 23.4474 26.1643 23.3287 26.2405C23.21 26.3168 22.9671 26.4623 22.789 26.5641C21.9051 27.0688 21.871 27.0959 21.8722 27.2929C21.8729 27.4242 22.0538 27.7745 22.7101 28.9165C22.9133 29.27 22.9415 29.3791 22.8673 29.5244C22.8372 29.5833 22.5369 29.9128 22.1999 30.2568L21.587 30.8822L21.4314 30.8641C21.3265 30.8519 21.1588 30.7739 20.917 30.6247C20.7197 30.5029 20.3882 30.3063 20.1804 30.1877C19.9726 30.0691 19.735 29.9329 19.6523 29.8851C19.4612 29.7745 19.3151 29.7733 19.2207 29.8814C19.1807 29.9273 19.0294 30.1814 18.8844 30.4462C18.7394 30.711 18.5438 31.0527 18.4498 31.2055C18.1232 31.7359 18.1451 31.7996 18.7898 32.1976C19.05 32.3582 19.4167 32.5784 19.6047 32.6868C20.2974 33.0866 20.308 33.1022 20.1814 33.5337C20.0615 33.9422 19.9352 34.4494 19.8899 34.704C19.8684 34.8253 19.8267 34.9724 19.7973 35.0309C19.6973 35.2299 19.6107 35.2426 18.3466 35.2426H17.194V36.4449V37.6472L18.4204 37.6578L19.6467 37.6685L19.7472 37.7843C19.8181 37.8661 19.8596 37.9696 19.8884 38.1362C19.936 38.4124 20.0614 38.9215 20.1803 39.3218C20.2809 39.66 20.254 39.7746 20.0436 39.9054C19.6684 40.1387 19.4316 40.2802 18.9391 40.5653C18.6422 40.7371 18.3629 40.9191 18.3184 40.9696C18.1917 41.1135 18.2136 41.2609 18.4117 41.596C18.5075 41.7581 18.7263 42.1346 18.8978 42.4327C19.1365 42.8475 19.2344 42.9852 19.3146 43.0194C19.4673 43.0845 19.4375 43.0979 20.4683 42.5018C21.4352 41.9425 21.4379 41.9414 21.6057 42.0327C21.7025 42.0854 22.0957 42.4854 22.6779 43.1235C22.9011 43.3682 22.9222 43.4045 22.9047 43.5151C22.8942 43.5822 22.8134 43.7608 22.7253 43.9121C22.6373 44.0633 22.4468 44.4037 22.3021 44.6685C22.1574 44.9334 22.0083 45.1959 21.9707 45.252C21.7903 45.5214 21.8366 45.7327 22.1112 45.8926C22.2069 45.9484 22.5767 46.1699 22.9329 46.3849C23.8062 46.912 23.8108 46.9116 24.1405 46.2916C24.2253 46.1323 24.3537 45.9102 24.4259 45.7982C24.4982 45.6861 24.6335 45.4493 24.7267 45.2719C24.9686 44.8111 25.0473 44.7241 25.222 44.7241C25.3001 44.7241 25.4241 44.7502 25.4977 44.7822C25.638 44.8432 26.618 45.0945 26.7155 45.0945C26.7466 45.0945 26.829 45.1224 26.8988 45.1564C27.1127 45.2609 27.1246 45.3324 27.1246 46.5036V47.5446L27.2298 47.6529L27.335 47.7612H28.294H29.253L29.3582 47.6529L29.4634 47.5446V46.5036C29.4634 45.3324 29.4754 45.2609 29.6893 45.1564C29.759 45.1224 29.8514 45.0945 29.8946 45.0945C30.0015 45.0945 30.4742 44.9707 30.9786 44.8107C31.5127 44.6412 31.5276 44.647 31.8062 45.1319C32.1332 45.7009 32.5053 46.3601 32.5973 46.5333C32.6777 46.6847 32.819 46.7987 32.9247 46.7977C32.9504 46.7975 33.1658 46.6834 33.4032 46.5443C34.7204 45.7726 34.7751 45.7307 34.7409 45.5204C34.7222 45.4054 34.6477 45.2628 34.0815 44.2597C33.8971 43.9329 33.7361 43.6129 33.7236 43.5486C33.69 43.3759 33.7725 43.2649 34.443 42.5801C35.0355 41.9749 35.0377 41.9732 35.1763 41.9923C35.2527 42.0029 35.4356 42.0865 35.5826 42.178C35.7296 42.2695 35.9471 42.3949 36.0658 42.4565C36.1845 42.5182 36.4355 42.6625 36.6235 42.7772C37.2563 43.1633 37.3305 43.1493 37.6279 42.5886C37.7341 42.3881 37.9408 42.0192 38.0871 41.7687C38.2333 41.5182 38.362 41.2671 38.373 41.2106C38.3994 41.0746 38.2738 40.9213 38.0207 40.7807C37.855 40.6887 36.8503 40.0822 36.5337 39.8831C36.4745 39.8459 36.4044 39.7691 36.378 39.7124C36.3358 39.6216 36.3405 39.5781 36.4182 39.3427C36.4667 39.196 36.5589 38.8509 36.6232 38.5759C36.6874 38.3009 36.755 38.0134 36.7732 37.9369C36.8357 37.6751 36.8555 37.6708 38.1231 37.65C39.2342 37.6317 39.2492 37.6304 39.3301 37.5472C39.4107 37.4642 39.4122 37.4469 39.4226 36.4627L39.4333 35.4625L39.3265 35.3525L39.2196 35.2426H38.1519C37.2541 35.2426 37.0651 35.2333 36.9645 35.1841C36.843 35.1248 36.7314 34.9433 36.7314 34.8051C36.7314 34.7088 36.5754 34.0233 36.4545 33.5886C36.315 33.0873 36.3368 33.0566 37.1562 32.5968C37.7321 32.2736 38.238 31.9454 38.3145 31.8453C38.4357 31.6868 38.414 31.6085 38.1191 31.1391C38.0333 31.0025 37.8473 30.674 37.7058 30.4092C37.5643 30.1444 37.415 29.8985 37.3739 29.8629C37.2846 29.7855 37.1428 29.7798 37.0193 29.8487C36.4302 30.1773 36.1429 30.3455 35.7791 30.5747C35.4708 30.7689 35.3039 30.8512 35.1915 30.8643L35.0345 30.8825L34.3718 30.2003C33.6341 29.4409 33.6332 29.4393 33.7935 29.1284C33.9752 28.7759 34.2685 28.2479 34.4297 27.9832C34.7864 27.3971 34.8227 27.2508 34.654 27.0772C34.5999 27.0214 34.4906 26.9417 34.4112 26.9001C34.2502 26.8156 33.3653 26.2985 33.1694 26.1744C33.0015 26.0681 32.8082 26.0695 32.7122 26.1777C32.6715 26.2235 32.5734 26.3777 32.4941 26.5203C32.3731 26.738 32.1296 27.1607 31.6898 27.9165C31.5558 28.1467 31.4665 28.1608 30.9994 28.0257C30.778 27.9616 30.4349 27.8747 30.237 27.8325C29.6527 27.7079 29.5974 27.685 29.5264 27.5388C29.4708 27.4242 29.4635 27.2829 29.4635 26.323L29.4634 25.2368L29.3582 25.1285L29.253 25.0203L28.3238 25.0226C27.8127 25.0239 27.3615 25.0387 27.3213 25.0555ZM29.3717 30.1479C30.2071 30.331 30.6496 30.4884 31.2546 30.8179C31.6852 31.0523 32.3855 31.5848 32.714 31.9274C33.3118 32.5512 33.9266 33.5925 34.1899 34.4277C34.3097 34.8075 34.3654 35.0372 34.4802 35.6232C34.5439 35.9484 34.5563 36.8731 34.5003 37.1129C34.4812 37.1944 34.4483 37.3694 34.4271 37.5018C34.4059 37.6342 34.3347 37.9355 34.2688 38.1712C34.0411 38.9862 33.7434 39.5872 33.1972 40.335C32.8676 40.7863 32.7207 40.9516 32.4138 41.2162C31.8976 41.6611 31.6296 41.8372 30.957 42.1732C30.3872 42.4578 29.8021 42.6645 29.4413 42.7085C29.3446 42.7203 29.1488 42.7552 29.0062 42.786C28.6762 42.8572 27.7852 42.8351 27.3225 42.7443C26.6382 42.61 26.2492 42.4756 25.6083 42.1519C24.3747 41.5287 23.6222 40.8175 22.9263 39.6169C22.6654 39.1669 22.5475 38.8725 22.3463 38.1685C22.1293 37.4093 22.087 37.1252 22.0872 36.4277C22.0873 35.9235 22.1029 35.7387 22.176 35.3721C22.2622 34.94 22.5109 34.108 22.6629 33.743C22.8652 33.2572 23.4525 32.3991 23.9073 31.9248C24.3915 31.4197 25.1491 30.8737 25.6755 30.6503C25.8096 30.5934 25.9922 30.5142 26.0812 30.4743C26.3449 30.3563 27.3401 30.1085 27.8083 30.0443C28.1261 30.0007 28.9491 30.0553 29.3717 30.1479ZM27.6711 32.7265C27.1613 32.8298 26.5931 33.0717 26.1767 33.3625C25.5509 33.7995 25.0093 34.6137 24.7691 35.4782C24.6879 35.7705 24.678 35.874 24.678 36.4249C24.678 37.161 24.7322 37.4276 24.9991 38.0053C25.2187 38.4803 25.4776 38.8746 25.7324 39.122C25.998 39.3798 26.6447 39.8098 26.9439 39.9274C27.4758 40.1367 27.6468 40.1685 28.2399 40.1688C29.1227 40.1692 29.6185 40.0228 30.3175 39.5556C30.8052 39.2296 30.9723 39.0635 31.2713 38.6072C31.5948 38.1134 31.7357 37.8092 31.8572 37.3426C31.9339 37.0476 31.9459 36.9221 31.9459 36.4085C31.946 35.7272 31.9041 35.5179 31.6471 34.918C31.2982 34.1036 30.7228 33.4691 29.9851 33.0853C29.7094 32.9419 29.1522 32.7608 28.8707 32.7231C28.5618 32.6818 27.8825 32.6837 27.6711 32.7265Z" fill="#333333" fill-opacity="0.99"/>
</svg>
