<svg width="64" height="64" viewBox="0 0 64 64" fill="none" xmlns="http://www.w3.org/2000/svg">
<rect x="0.5" y="0.5" width="63" height="63" rx="31.5" stroke="#666666"/>
<path fill-rule="evenodd" clip-rule="evenodd" d="M35.3131 16.3383L35.2094 16.4378V17.7366V19.0354L35.3131 19.1349L35.4168 19.2344H36.7876H38.1584L38.262 19.1349L38.3657 19.0354V17.7366V16.4378L38.262 16.3383L38.1584 16.2388H36.7876H35.4168L35.3131 16.3383ZM27.9503 21.4612L27.8508 21.5433L27.8331 25.4261L27.8153 29.3088L27.7346 29.3863L27.6538 29.4639L24.6236 29.4809L21.5934 29.4979L21.5127 29.5754L21.4319 29.653L21.4142 32.5106L21.3964 35.3682L21.3157 35.4457L21.2349 35.5233L19.2145 35.5326L17.194 35.5419V38.5704V41.599L22.4239 41.6078L27.6538 41.6167L27.7345 41.6942L27.8153 41.7717L27.8331 43.629L27.8508 45.4863L27.9503 45.5684L28.0498 45.6506H30.9585H33.8673L33.971 45.5511L34.0746 45.4516V38.5918C34.0746 34.3063 34.0873 31.6999 34.1085 31.6464C34.1891 31.4431 33.7817 31.4553 40.4767 31.4553H46.5987L46.7023 31.3558L46.806 31.2563V28.4426V25.629L46.7023 25.5295L46.5987 25.43H43.6544H40.7102L40.6107 25.5121L40.5112 25.5942L40.4935 27.4515L40.4758 29.3089L40.395 29.3864C40.3152 29.4629 40.3028 29.4639 39.4296 29.4639C38.5563 29.4639 38.5439 29.4629 38.4642 29.3863L38.3834 29.3088L38.3657 25.4261L38.348 21.5433L38.2484 21.4612L38.1489 21.379H33.0994H28.0498L27.9503 21.4612ZM36.1748 23.3799L36.2556 23.4575V26.3831V29.3088L36.1748 29.3863L36.094 29.4639H33.0639H30.0338L29.953 29.3863L29.8722 29.3088L29.8635 26.4247C29.8567 24.1543 29.8644 23.5227 29.8997 23.4562C29.9928 23.2808 29.9063 23.2851 33.1072 23.2941L36.0941 23.3024L36.1748 23.3799ZM44.6152 27.4309C44.6951 27.5076 44.6959 27.5174 44.6959 28.4086C44.6959 29.3 44.6951 29.3096 44.6151 29.3863C44.5354 29.4629 44.523 29.4639 43.6497 29.4639C42.7767 29.4639 42.7641 29.4629 42.6843 29.3864C42.6051 29.3104 42.6034 29.2927 42.5943 28.4503C42.5873 27.8043 42.5963 27.5707 42.6305 27.5072C42.7174 27.3456 42.7885 27.3348 43.6931 27.3444C44.5154 27.3531 44.5363 27.3551 44.6152 27.4309ZM31.9006 31.5219C31.9789 31.5678 32.0204 31.6229 32.0349 31.7005C32.0465 31.7622 32.0513 33.5395 32.0457 35.65L32.0355 39.4872L31.9547 39.5647L31.8739 39.6423H27.7799H23.6858L23.605 39.5647L23.5242 39.4872L23.514 35.65C23.5084 33.5395 23.5133 31.7622 23.5248 31.7005C23.5394 31.6229 23.5808 31.5678 23.6592 31.5219C23.7697 31.4572 23.8702 31.4555 27.7799 31.4555C31.6896 31.4555 31.79 31.4572 31.9006 31.5219ZM36.377 33.6313L36.2733 33.7308V36.5615V39.3922L36.377 39.4917L36.4807 39.5912H39.4296H42.3785L42.4822 39.4917L42.5858 39.3922V36.5615V33.7308L42.4822 33.6313L42.3785 33.5318H39.4296H36.4807L36.377 33.6313ZM27.6719 34.0591C27.6143 34.0831 27.1881 34.4697 26.7248 34.9181C25.914 35.703 25.8826 35.7384 25.8826 35.8665C25.8826 35.9949 25.9128 36.0284 26.7624 36.8422C27.6072 37.6514 27.6476 37.6849 27.7789 37.6849C27.9101 37.6849 27.951 37.6512 28.7772 36.8623C29.2511 36.4099 29.6536 35.999 29.6717 35.9493C29.6942 35.8872 29.6902 35.8276 29.6589 35.7592C29.6006 35.6316 27.987 34.0903 27.867 34.0476C27.8047 34.0254 27.7443 34.029 27.6719 34.0591ZM40.395 35.6008C40.4749 35.6776 40.4758 35.6874 40.4758 36.5785C40.4758 37.4699 40.475 37.4795 40.395 37.5563C40.3152 37.6328 40.3029 37.6338 39.4296 37.6338C38.5565 37.6338 38.5439 37.6328 38.4642 37.5563C38.3849 37.4803 38.3832 37.4627 38.3742 36.6202C38.3672 35.9743 38.3761 35.7406 38.4103 35.6771C38.4972 35.5156 38.5683 35.5047 39.473 35.5143C40.2952 35.5231 40.3162 35.525 40.395 35.6008ZM21.3157 37.6433C21.3956 37.7199 21.3964 37.7305 21.3964 38.604C21.3964 39.4777 21.3956 39.488 21.3157 39.5647C21.2359 39.6413 21.2236 39.6423 20.3503 39.6423C19.4772 39.6423 19.4646 39.6413 19.3849 39.5648C19.3057 39.4889 19.3039 39.4704 19.2948 38.6457C19.2879 38.0134 19.2969 37.783 19.331 37.7196C19.4179 37.5581 19.489 37.5472 20.3937 37.5568C21.2159 37.5655 21.2369 37.5675 21.3157 37.6433ZM31.9548 41.6942C32.0346 41.771 32.0355 41.7808 32.0355 42.672C32.0355 43.5634 32.0347 43.5729 31.9547 43.6497C31.8748 43.7264 31.864 43.7272 30.9538 43.7272C30.0439 43.7272 30.0329 43.7264 29.953 43.6498C29.8737 43.5738 29.872 43.5561 29.8629 42.7136C29.856 42.0677 29.8649 41.8341 29.8991 41.7705C29.9864 41.6083 30.0548 41.5982 30.9972 41.6078C31.8564 41.6165 31.8757 41.6182 31.9548 41.6942ZM21.5178 43.8438L21.4142 43.9433V45.7527V47.5622L21.5178 47.6617L21.6215 47.7612H23.5242H25.427L25.5307 47.6617L25.6343 47.5622V45.7527V43.9433L25.5307 43.8438L25.427 43.7443H23.5242H21.6215L21.5178 43.8438Z" fill="#333333" fill-opacity="0.99"/>
</svg>
