<svg width="68" height="76" viewBox="0 0 68 76" fill="none" xmlns="http://www.w3.org/2000/svg">
<path fill-rule="evenodd" clip-rule="evenodd" d="M50.3475 0.198913L50.144 0.397744V5.69951C50.144 10.6665 50.1534 11.0125 50.2919 11.1798C50.3732 11.2779 50.5317 11.3631 50.6441 11.3691C50.8549 11.3803 66.5397 6.33231 67.0451 6.09061C67.2008 6.01615 67.3687 5.88919 67.4181 5.80849C67.5774 5.54841 67.1742 5.3311 65.598 4.82738C64.7794 4.56583 63.3824 4.10829 62.4935 3.81078C61.6046 3.51318 59.3108 2.76582 57.3962 2.14996C55.4817 1.53418 53.2276 0.798486 52.3871 0.515147C51.5467 0.231808 50.7897 0 50.705 0C50.6203 0 50.4594 0.0895309 50.3475 0.198913ZM45.9738 1.31663C45.8165 1.50598 45.5854 1.86151 45.46 2.10661C45.3347 2.35171 45.1295 2.69808 45.0041 2.87633C44.8786 3.05458 44.4453 3.74247 44.0411 4.40492C43.6369 5.06745 43.1117 5.92427 42.8741 6.30897C42.6365 6.69375 42.305 7.24552 42.1374 7.53518C41.9698 7.82484 41.6826 8.29883 41.4992 8.58849C40.6176 9.98079 40.1678 10.7074 39.4933 11.8294C39.0615 12.5475 36.6535 16.4656 36.4806 16.7313C36.312 16.9905 35.7292 17.942 35.3972 18.5002C35.2867 18.686 34.7123 19.6219 34.1206 20.58C33.529 21.5381 32.8704 22.6136 32.6571 22.9701C32.4438 23.3267 32.053 23.9647 31.7888 24.3881C31.5245 24.8114 31.1876 25.3583 31.0401 25.6034C30.6122 26.3146 30.0052 27.3052 29.6749 27.8316C29.0214 28.8729 28.804 29.2308 28.4661 29.8216C28.2734 30.1585 27.4541 31.5075 26.6454 32.8194C25.8366 34.1313 25.0436 35.4235 24.8832 35.6908C24.7227 35.9582 24.2856 36.6692 23.9117 37.2708C23.5378 37.8724 22.7917 39.0938 22.2535 39.9851C21.7154 40.8763 21.0445 41.9701 20.7627 42.4158C20.1796 43.3377 19.2934 44.7841 18.4047 46.2644C18.0702 46.8214 17.6557 47.4959 17.4834 47.7633C17.2196 48.1725 15.6613 50.7139 11.5464 57.4456C11.1786 58.0472 10.6706 58.8676 10.4176 59.2687C9.88343 60.1154 9.8075 60.3387 9.977 60.565C10.0976 60.7261 10.2064 60.7272 28.1793 60.7479L46.2601 60.7686L46.503 60.5313L46.7458 60.2939V30.8409C46.7458 11.9 46.717 1.3138 46.665 1.18011C46.5456 0.873028 46.3021 0.921156 45.9738 1.31663ZM40.6975 22.4893C40.8067 22.7701 40.8081 54.0363 40.6989 54.3171C40.5135 54.7939 41.003 54.7719 30.584 54.7719H21.0447L20.8333 54.5652C20.547 54.2854 20.585 54.1755 21.4496 52.7818C21.8465 52.1421 22.3576 51.3109 22.5855 50.9347C23.1446 50.0121 24.1604 48.3599 24.5356 47.7633C24.8816 47.2129 25.5034 46.1977 25.9001 45.5352C26.0469 45.2901 26.6498 44.3056 27.2401 43.3475C27.8303 42.3894 28.6147 41.1133 28.983 40.5117C29.3513 39.9101 29.9116 38.9986 30.2281 38.4861C30.5447 37.9737 31.2453 36.8252 31.7851 35.9339C32.3249 35.0426 33.0407 33.8828 33.3757 33.3565C33.7106 32.8302 34.1283 32.1557 34.3037 31.8575C34.6736 31.229 35.2825 30.2294 35.7195 29.533C36.1571 28.8359 36.4848 28.3017 37.2358 27.0618C37.6001 26.4602 38.1803 25.5123 38.5251 24.9552C38.8699 24.3982 39.3112 23.6726 39.5057 23.3428C40.0992 22.3368 40.5208 22.0349 40.6975 22.4893ZM66.2647 61.218C66.0368 61.2795 65.6265 61.3517 65.353 61.3783C65.0795 61.4051 64.6059 61.4791 64.3006 61.5429C63.9953 61.6067 63.5291 61.6593 63.2646 61.6598C63 61.6603 62.5785 61.7146 62.3278 61.7804C62.077 61.8462 61.6481 61.9013 61.3746 61.9029C61.1011 61.9044 60.6001 61.9778 60.2613 62.0659C59.9225 62.154 59.4003 62.2264 59.101 62.227C58.8015 62.2275 58.3515 62.2818 58.1007 62.3475C57.85 62.4133 57.4025 62.4684 57.1062 62.4701C56.8098 62.4716 56.2902 62.5449 55.9514 62.6331C55.6126 62.7211 55.1464 62.7937 54.9154 62.7945C54.6843 62.7951 54.2716 62.8485 53.9981 62.9131C53.7245 62.9777 53.277 63.0322 53.0035 63.0343C52.7299 63.0364 52.301 63.092 52.0503 63.1578C51.7996 63.2236 51.3519 63.2779 51.0555 63.2783C50.759 63.2789 50.2556 63.3522 49.9368 63.4414C49.618 63.5305 49.1146 63.6038 48.8181 63.6044C48.5217 63.6049 48.074 63.6592 47.8233 63.7249C47.5726 63.7907 47.125 63.8458 46.8287 63.8475C46.5324 63.849 46.0127 63.9223 45.674 64.0105C45.3352 64.0985 44.8503 64.1719 44.5965 64.1735C44.3426 64.175 43.9112 64.2292 43.6377 64.2937C43.3642 64.3583 42.898 64.4121 42.6017 64.4133C42.3054 64.4145 41.8578 64.4694 41.6071 64.5351C41.3564 64.6008 40.9088 64.6759 40.6125 64.702C40.3162 64.7281 39.824 64.8015 39.5187 64.8651C39.2134 64.9287 38.7658 64.9812 38.5241 64.9818C38.2823 64.9823 37.8794 65.0366 37.6287 65.1023C37.378 65.1681 36.9118 65.2232 36.5927 65.2249C36.2736 65.2264 35.7353 65.2997 35.3965 65.3879C35.0577 65.4759 34.5728 65.5484 34.3191 65.549C34.0652 65.5494 33.6524 65.6037 33.4017 65.6695C33.151 65.7353 32.7034 65.7904 32.4071 65.792C32.1108 65.7936 31.5911 65.8669 31.2524 65.955C30.9136 66.0431 30.4474 66.1164 30.2164 66.1181C29.9853 66.1196 29.5725 66.1737 29.299 66.2383C29.0255 66.3029 28.5406 66.3567 28.2215 66.3579C27.9024 66.3591 27.4362 66.414 27.1855 66.4797C26.9348 66.5455 26.522 66.5998 26.2682 66.6003C26.0144 66.6009 25.5295 66.6733 25.1907 66.7614C24.852 66.8495 24.3696 66.9229 24.1189 66.9244C23.8681 66.926 23.4579 66.9811 23.2071 67.0469C22.9564 67.1127 22.4343 67.1685 22.0468 67.171C21.6427 67.1736 21.2009 67.2265 21.0108 67.295C20.8284 67.3607 20.3249 67.4481 19.8918 67.4893C19.4588 67.5305 18.9742 67.6027 18.8149 67.6499C18.6556 67.697 18.2827 67.736 17.9861 67.7366C17.6895 67.7371 17.2442 67.7902 16.9967 67.8546C16.749 67.919 16.2828 67.9957 15.9606 68.0249C15.6384 68.0541 15.1509 68.128 14.8774 68.1892C14.6039 68.2504 14.1191 68.3013 13.8 68.3025C13.4809 68.3037 13.0146 68.3585 12.7639 68.4243C12.5132 68.4901 12.0842 68.5444 11.8105 68.5449C11.5369 68.5454 11.0521 68.6188 10.7333 68.7079C10.4145 68.797 9.94841 68.8712 9.69752 68.8729C9.44663 68.8744 9.01763 68.9285 8.74412 68.9931C8.47061 69.0577 7.94845 69.1127 7.58376 69.1153C7.21726 69.118 6.77242 69.1735 6.58917 69.2396C6.40683 69.3053 5.90332 69.3937 5.47026 69.436C5.03719 69.4783 4.53368 69.5496 4.35134 69.5945C4.169 69.6395 3.77738 69.6776 3.48107 69.6792C3.18477 69.6808 2.7372 69.7355 2.48648 69.8008C2.23576 69.8661 1.80684 69.9404 1.53333 69.966C1.25982 69.9915 0.802884 70.0538 0.518017 70.1042L0 70.196V73.098V76H27.9341C51.2672 76 55.9121 75.9819 56.1349 75.8901C56.4304 75.7683 56.8673 75.3243 57.7046 74.2947C58.0109 73.918 58.4212 73.4161 58.6163 73.1792C58.8114 72.9424 59.2321 72.4267 59.5512 72.0332C59.8703 71.6396 60.4484 70.9342 60.8359 70.4655C61.2233 69.9969 61.7082 69.4061 61.9133 69.1526C62.1185 68.8992 62.5741 68.34 62.9259 67.9099C63.2777 67.4798 63.7998 66.841 64.0863 66.4901C64.3726 66.1393 64.7935 65.6241 65.0214 65.3453C65.4427 64.8298 66.015 64.1444 66.762 63.261C67.38 62.5299 67.8683 61.8639 67.9611 61.6251C68.0283 61.4525 68.013 61.3829 67.8794 61.2523C67.6804 61.0577 66.9185 61.0416 66.2647 61.218Z" fill="#40A8E4"/>
</svg>
