<svg width="74" height="80" viewBox="0 0 74 80" fill="none" xmlns="http://www.w3.org/2000/svg">
<path fill-rule="evenodd" clip-rule="evenodd" d="M15.0141 0.266029L14.7447 0.532059V18.157V35.7819L15.0141 36.048L15.2834 36.314H18.4186H21.5538L21.8124 36.0944L22.071 35.8747L22.1171 21.7624L22.1631 7.65006L22.3731 7.44282L22.583 7.2355H44.3724H66.1617L66.3716 7.44282L66.5816 7.65015V40.1365V72.6229L66.3716 72.8302L66.1618 73.0375L55.6047 73.083L45.0475 73.1286L44.8251 73.3839L44.6027 73.6393V76.5536V79.4679L44.8721 79.734L45.1415 80H59.3014H73.4613L73.7306 79.734L74 79.4679V40V0.532059L73.7306 0.266029L73.4613 0H44.3724H15.2834L15.0141 0.266029ZM30.0352 14.828L29.7659 15.0941V18.157V21.2199L30.0352 21.486L30.3046 21.752H44.3724H58.4401L58.7095 21.486L58.9788 21.2199V18.157V15.0941L58.7095 14.828L58.4401 14.562H44.3724H30.3046L30.0352 14.828ZM30.2285 29.2404C29.7867 29.4621 29.7686 29.6007 29.7673 32.7943L29.7659 35.7819L30.0352 36.048L30.3046 36.314H44.3724H58.4401L58.713 36.0445L58.9858 35.775L58.9593 32.6795C58.9328 29.5959 58.9319 29.5831 58.7228 29.3767L58.513 29.1695L44.485 29.1476C33.3491 29.1303 30.4099 29.1494 30.2285 29.2404ZM15.3437 43.772C15.2423 43.8131 15.0765 43.9375 14.9751 44.0487C14.8018 44.2386 14.788 44.4138 14.7447 46.9646L14.6986 49.6785L14.4742 49.9143C14.2097 50.1922 13.3853 50.5827 12.9021 50.6589C12.6819 50.6937 12.4658 50.6643 12.2931 50.5761C12.146 50.5009 11.3828 49.7963 10.5974 49.0103C9.81196 48.2243 8.96865 47.4216 8.72334 47.2264C7.94288 46.6053 8.01578 46.5644 5.50715 49.033C4.299 50.2219 3.28761 51.2837 3.25969 51.3928C3.23167 51.5018 3.23766 51.681 3.27305 51.7909C3.30844 51.901 4.15137 52.8069 5.14627 53.8041C6.14117 54.8014 6.99332 55.6845 7.03986 55.7666C7.19192 56.0349 7.10796 56.4867 6.77869 57.1718C6.12486 58.5322 6.1584 58.521 2.7215 58.521H0V61.9795V65.438L2.87983 65.4384C6.36741 65.4387 6.14633 65.3692 6.7128 66.6447C7.12907 67.5823 7.17699 67.9158 6.94503 68.2618C6.86209 68.3856 6.05537 69.2241 5.15245 70.1251C4.24952 71.0262 3.47155 71.8675 3.42372 71.9948C3.36345 72.1549 3.37322 72.3093 3.45542 72.4954C3.52076 72.6434 4.50349 73.6758 5.63921 74.7895C7.94334 77.049 7.94178 77.048 8.62565 76.556C8.82333 76.4137 9.27378 75.994 9.62673 75.6231C9.97959 75.2522 10.6932 74.5494 11.2125 74.0614C12.1072 73.2207 12.1776 73.1742 12.5523 73.175C13.0717 73.1762 14.4639 73.8469 14.6281 74.1752C14.7101 74.3391 14.7424 75.1113 14.7433 76.9353L14.7447 79.4679L15.0141 79.734L15.2834 80H18.4186H21.5538L21.8124 79.7806L22.071 79.5611L22.1171 76.9155L22.1631 74.2699L22.3935 74.0494C22.6026 73.8493 23.3623 73.4937 24.1117 73.2455C24.271 73.1926 24.5128 73.1771 24.649 73.2108C24.7989 73.2481 25.6351 73.9893 26.7677 75.0889C28.7578 77.0211 28.8258 77.065 29.3788 76.7752C29.6777 76.6184 33.5733 72.7582 33.7188 72.4746C33.7917 72.3323 33.7928 72.2034 33.7224 72.0207C33.6684 71.8803 32.7976 70.9427 31.7872 69.9371C29.6759 67.8357 29.7411 67.9698 30.2267 66.7264C30.5215 65.9712 30.7513 65.6607 31.117 65.5235C31.2421 65.4764 32.4647 65.438 33.8338 65.438H36.323L36.5924 65.172L36.8618 64.9059V61.9795V59.0531L36.5924 58.7871L36.323 58.521H33.8493C30.8942 58.521 30.9041 58.5237 30.4414 57.6015C29.999 56.7201 29.8198 56.1356 29.8978 55.8286C29.9423 55.6531 30.5686 54.9621 31.7472 53.7884C33.4876 52.0552 33.7252 51.7434 33.5979 51.3604C33.5041 51.078 29.4423 47.0681 29.1858 47.0045C29.056 46.9724 28.8535 46.9752 28.7358 47.0109C28.6181 47.0465 27.6924 47.8851 26.6787 48.8744C25.3078 50.2123 24.7604 50.689 24.5422 50.7349C24.3219 50.7813 24.0919 50.7297 23.6207 50.5281C23.2752 50.3802 22.9058 50.2334 22.7997 50.202C22.6938 50.1706 22.5072 50.0399 22.385 49.9116L22.1631 49.6785L22.1171 46.9018L22.071 44.125L21.8124 43.9055L21.5538 43.686L18.5409 43.6917C16.8838 43.6949 15.4451 43.7311 15.3437 43.772ZM49.7173 51.4977C48.3285 51.9903 47.5668 52.438 46.7999 53.2123C45.2855 54.7414 44.6027 56.3398 44.6027 58.356C44.6027 59.5322 44.8246 60.3808 45.3954 61.3879C46.4689 63.2821 48.2338 64.7394 49.854 65.0692C50.1318 65.1258 50.5376 65.2319 50.7557 65.305C51.2641 65.4755 52.2253 65.4755 52.7337 65.305C52.9518 65.2319 53.3564 65.1242 53.6328 65.0657C54.3423 64.9154 54.8139 64.6988 55.7831 64.078C56.8129 63.4184 57.2335 62.9987 57.9304 61.9349C58.7035 60.7548 58.8867 60.0679 58.8867 58.3497C58.8867 56.7739 58.7235 56.0458 58.1293 54.9716C57.3849 53.6258 56.3451 52.6666 54.7156 51.8222L53.68 51.2856L52.0672 51.2609C50.4931 51.2368 50.4369 51.2424 49.7173 51.4977ZM20.9762 56.9738C21.9266 57.4499 22.7524 58.1962 23.2082 58.991C23.694 59.8381 24.1445 61.2525 24.1445 61.9308C24.1445 62.5696 23.827 63.7038 23.4304 64.4824C23.1024 65.126 21.7478 66.438 21.0573 66.7809C19.6966 67.4563 18.5156 67.6006 17.2388 67.2475C15.4953 66.7653 14.2556 65.7868 13.4856 64.2851L13.0448 63.4254L13.0086 62.2013C12.9754 61.0806 12.9926 60.9139 13.2115 60.227C13.6352 58.8974 14.5025 57.878 15.8966 57.0707C16.7462 56.5788 17.0766 56.5158 18.6728 56.5409L20.1587 56.5643L20.9762 56.9738Z" fill="#40A8E4"/>
</svg>
