<svg width="64" height="64" viewBox="0 0 64 64" fill="none" xmlns="http://www.w3.org/2000/svg">
<rect x="0.5" y="0.5" width="63" height="63" rx="31.5" stroke="#666666"/>
<path fill-rule="evenodd" clip-rule="evenodd" d="M21.2021 16.3436L21.0943 16.4484V23.3932V30.3379L21.2021 30.4427L21.3099 30.5476H22.5645H23.819L23.9225 30.461L24.026 30.3745L24.0444 24.8138L24.0629 19.2531L24.1469 19.1715L24.2309 19.0898H32.9501H41.6694L41.7534 19.1715L41.8374 19.2532V32.0538V44.8544L41.7534 44.936L41.6694 45.0177L37.4449 45.0357L33.2203 45.0536L33.1313 45.1542L33.0423 45.2549V46.4032V47.5515L33.1501 47.6563L33.2579 47.7612H38.9241H44.5904L44.6982 47.6563L44.806 47.5515V32V16.4484L44.6982 16.3436L44.5904 16.2388H32.9501H21.3099L21.2021 16.3436ZM27.213 22.0815L27.1052 22.1863V23.3932V24.6001L27.213 24.7049L27.3208 24.8097H32.9501H38.5795L38.6873 24.7049L38.7951 24.6001V23.3932V22.1863L38.6873 22.0815L38.5795 21.9766H32.9501H27.3208L27.213 22.0815ZM27.2903 27.7604C27.1135 27.8477 27.1063 27.9023 27.1057 29.1607L27.1052 30.3379L27.213 30.4427L27.3208 30.5476H32.9501H38.5795L38.6887 30.4414L38.7979 30.3352L38.7873 29.1155C38.7767 27.9004 38.7763 27.8954 38.6926 27.8141L38.6087 27.7324L32.9952 27.7238C28.5391 27.717 27.3629 27.7245 27.2903 27.7604ZM21.334 33.4862C21.2934 33.5024 21.227 33.5514 21.1865 33.5953C21.1172 33.6701 21.1116 33.7391 21.0943 34.7442L21.0759 35.8136L20.9861 35.9065C20.8802 36.016 20.5503 36.1698 20.3569 36.1999C20.2688 36.2136 20.1824 36.202 20.1133 36.1673C20.0544 36.1376 19.749 35.86 19.4347 35.5503C19.1204 35.2406 18.7829 34.9243 18.6848 34.8474C18.3725 34.6027 18.4016 34.5865 17.3978 35.5592C16.9143 36.0277 16.5096 36.4461 16.4984 36.4891C16.4872 36.532 16.4896 36.6026 16.5038 36.6459C16.5179 36.6893 16.8552 37.0463 17.2534 37.4392C17.6515 37.8321 17.9925 38.1801 18.0111 38.2125C18.072 38.3182 18.0384 38.4962 17.9066 38.7662C17.645 39.3022 17.6584 39.2978 16.2831 39.2978H15.194V40.6606V42.0233L16.3464 42.0234C17.742 42.0236 17.6536 41.9962 17.8802 42.4988C18.0468 42.8682 18.066 42.9996 17.9732 43.136C17.94 43.1847 17.6172 43.5151 17.2558 43.8702C16.8945 44.2252 16.5832 44.5567 16.5641 44.6069C16.54 44.67 16.5439 44.7308 16.5768 44.8041C16.6029 44.8624 16.9962 45.2692 17.4506 45.7081C18.3726 46.5984 18.372 46.598 18.6457 46.4041C18.7248 46.3481 18.905 46.1827 19.0463 46.0365C19.1875 45.8904 19.473 45.6135 19.6808 45.4212C20.0388 45.0899 20.067 45.0716 20.217 45.0719C20.4248 45.0724 20.9819 45.3367 21.0476 45.466C21.0805 45.5306 21.0934 45.8349 21.0937 46.5536L21.0943 47.5515L21.2021 47.6563L21.3099 47.7612H22.5645H23.819L23.9225 47.6747L24.026 47.5882L24.0444 46.5458L24.0629 45.5033L24.1551 45.4165C24.2387 45.3376 24.5427 45.1975 24.8426 45.0997C24.9063 45.0788 25.0031 45.0727 25.0576 45.086C25.1176 45.1007 25.4522 45.3927 25.9054 45.826C26.7018 46.5874 26.729 46.6047 26.9503 46.4905C27.0699 46.4287 28.6288 44.9077 28.687 44.7959C28.7162 44.7399 28.7166 44.6891 28.6884 44.6171C28.6668 44.5618 28.3184 44.1923 27.914 43.7961C27.0692 42.9681 27.0953 43.0209 27.2896 42.531C27.4076 42.2334 27.4995 42.111 27.6458 42.057C27.6959 42.0384 28.1852 42.0233 28.733 42.0233H29.7291L29.8369 41.9185L29.9447 41.8136V40.6606V39.5075L29.8369 39.4026L29.7291 39.2978H28.7392C27.5567 39.2978 27.5606 39.2988 27.3755 38.9355C27.1985 38.5882 27.1268 38.3579 27.158 38.2369C27.1758 38.1677 27.4264 37.8955 27.898 37.433C28.5945 36.7501 28.6896 36.6272 28.6386 36.4763C28.6011 36.365 26.9757 34.785 26.873 34.7599C26.8211 34.7473 26.7401 34.7484 26.693 34.7625C26.6459 34.7765 26.2755 35.1069 25.8698 35.4967C25.3212 36.0239 25.1022 36.2117 25.0149 36.2298C24.9267 36.2481 24.8347 36.2278 24.6461 36.1483C24.5079 36.0901 24.3601 36.0322 24.3176 36.0198C24.2752 36.0075 24.2005 35.956 24.1517 35.9054L24.0629 35.8136L24.0444 34.7195L24.026 33.6253L23.9225 33.5389L23.819 33.4524L22.6134 33.4546C21.9503 33.4559 21.3746 33.4701 21.334 33.4862ZM35.089 36.5304C34.5332 36.7245 34.2284 36.9009 33.9215 37.206C33.3155 37.8085 33.0423 38.4384 33.0423 39.2328C33.0423 39.6962 33.1311 40.0306 33.3595 40.4275C33.7891 41.1738 34.4953 41.748 35.1437 41.878C35.2548 41.9003 35.4172 41.9421 35.5045 41.9709C35.708 42.0381 36.0926 42.0381 36.296 41.9709C36.3833 41.9421 36.5452 41.8996 36.6558 41.8766C36.9397 41.8174 37.1284 41.732 37.5163 41.4874C37.9284 41.2275 38.0967 41.0621 38.3755 40.643C38.6849 40.178 38.7582 39.9073 38.7582 39.2303C38.7582 38.6094 38.6929 38.3225 38.4551 37.8992C38.1573 37.369 37.7412 36.991 37.0891 36.6582L36.6747 36.4468L36.0293 36.4371C35.3994 36.4276 35.3769 36.4298 35.089 36.5304ZM23.5879 38.6882C23.9682 38.8758 24.2987 39.1698 24.481 39.483C24.6755 39.8168 24.8557 40.3741 24.8557 40.6414C24.8557 40.893 24.7287 41.34 24.57 41.6467C24.4387 41.9004 23.8967 42.4173 23.6203 42.5524C23.0759 42.8186 22.6032 42.8754 22.0923 42.7363C21.3947 42.5463 20.8986 42.1608 20.5904 41.569L20.4141 41.2303L20.3996 40.7479C20.3863 40.3063 20.3932 40.2407 20.4808 39.97C20.6503 39.4461 20.9974 39.0444 21.5553 38.7263C21.8952 38.5325 22.0274 38.5077 22.6662 38.5176L23.2608 38.5268L23.5879 38.6882Z" fill="#333333" fill-opacity="0.99"/>
</svg>
