<svg width="64" height="64" viewBox="0 0 64 64" fill="none" xmlns="http://www.w3.org/2000/svg">
<rect x="0.5" y="0.5" width="63" height="63" rx="31.5" stroke="#666666"/>
<path fill-rule="evenodd" clip-rule="evenodd" d="M31.8995 16.365C31.7952 16.4259 31.9017 16.1125 29.5549 23.2616C29.0474 24.8076 28.6064 26.152 28.5749 26.2491C28.5028 26.4719 28.5028 26.5866 28.575 26.7225C28.6631 26.8884 31.7516 29.9509 31.8783 29.998C31.9632 30.0295 32.0162 30.0258 32.0976 29.9825C32.2273 29.9136 35.3072 26.8269 35.3698 26.7032C35.394 26.6553 35.4139 26.5656 35.4139 26.5038C35.4141 26.323 32.1712 16.4985 32.0769 16.3943C32.0043 16.314 31.9907 16.3117 31.8995 16.365ZM26.2855 28.5833C26.1869 28.6112 25.3976 28.867 24.5316 29.1516C23.6656 29.4364 21.522 30.1399 19.7681 30.7151C18.0142 31.2903 16.5254 31.7917 16.4596 31.8294C16.3078 31.9164 16.2856 32.0444 16.4075 32.1307C16.4581 32.1665 17.4591 32.5104 18.6321 32.8949C19.805 33.2794 21.4911 33.8336 22.3791 34.1265C24.9785 34.9837 26.1756 35.374 26.3353 35.4163C26.6318 35.4949 26.6405 35.4878 28.3683 33.7576C29.8782 32.2455 29.9926 32.1212 29.9926 31.9935C29.9926 31.8659 29.8782 31.7416 28.3686 30.2299C27.4753 29.3355 26.7084 28.5934 26.6645 28.581C26.4981 28.5337 26.4602 28.534 26.2855 28.5833ZM37.2275 28.6103C37.0993 28.68 34.0593 31.7231 33.9929 31.8483C33.9562 31.9175 33.9426 32.0036 33.9582 32.0676C33.9867 32.1847 37.033 35.2688 37.2156 35.3655C37.2748 35.3969 37.389 35.4225 37.4695 35.4225C37.5501 35.4225 38.3419 35.1826 39.2353 34.8874C40.1261 34.5932 41.9581 33.9907 43.3064 33.5487C44.6548 33.1066 46.1398 32.6193 46.6065 32.4657C47.1564 32.2848 47.4931 32.1525 47.5632 32.09L47.6713 31.9935L47.5643 31.8981C47.451 31.7969 47.3925 31.7768 43.2466 30.4179C41.9312 29.9867 40.2002 29.4184 39.4 29.1551C38.5998 28.8918 37.8682 28.6512 37.7742 28.6205C37.572 28.5543 37.3386 28.5499 37.2275 28.6103ZM31.8462 34.0047C31.7274 34.0587 28.7076 37.067 28.5829 37.2556C28.5027 37.3769 28.5005 37.5082 28.5749 37.738C28.6637 38.0119 30.4104 43.3321 31.0548 45.2908C31.7556 47.4214 31.8113 47.5726 31.9146 47.6279C32.0929 47.7234 31.8995 48.2673 34.5537 40.2064C35.0268 38.7697 35.4138 37.5439 35.4138 37.4825C35.4138 37.4212 35.394 37.3318 35.3698 37.2839C35.3072 37.16 32.2272 34.0735 32.0973 34.0045C31.9707 33.9371 31.995 33.9371 31.8462 34.0047Z" fill="#333333" fill-opacity="0.99"/>
</svg>
