<svg width="64" height="64" viewBox="0 0 64 64" fill="none" xmlns="http://www.w3.org/2000/svg">
<rect x="0.5" y="0.5" width="63" height="63" rx="31.5" stroke="#666666"/>
<path fill-rule="evenodd" clip-rule="evenodd" d="M39.3668 16.3213L39.2811 16.4037V18.6027C39.2811 20.6629 39.285 20.8064 39.3434 20.8758C39.3776 20.9165 39.4445 20.9518 39.4918 20.9543C39.5806 20.959 46.1906 18.8652 46.4036 18.765C46.4692 18.7341 46.5399 18.6814 46.5607 18.6479C46.6279 18.5401 46.458 18.4499 45.7937 18.241C45.4488 18.1325 44.86 17.9428 44.4854 17.8194C44.1108 17.6959 43.1442 17.3859 42.3373 17.1305C41.5305 16.8751 40.5805 16.57 40.2264 16.4524C39.8722 16.3349 39.5532 16.2388 39.5175 16.2388C39.4818 16.2388 39.414 16.2759 39.3668 16.3213ZM37.5236 16.7849C37.4574 16.8634 37.36 17.0109 37.3071 17.1125C37.2543 17.2142 37.1679 17.3578 37.115 17.4318C37.0621 17.5057 36.8795 17.791 36.7092 18.0658C36.5388 18.3406 36.3175 18.696 36.2174 18.8555C36.1172 19.0151 35.9775 19.244 35.9069 19.3641C35.8363 19.4843 35.7152 19.6809 35.6379 19.801C35.2664 20.3785 35.0769 20.6799 34.7926 21.1452C34.6107 21.4431 33.5959 23.0682 33.523 23.1784C33.4519 23.2859 33.2064 23.6805 33.0664 23.9121C33.0199 23.9891 32.7778 24.3773 32.5285 24.7747C32.2791 25.1721 32.0016 25.6182 31.9117 25.7661C31.8218 25.9139 31.6571 26.1786 31.5458 26.3542C31.4344 26.5298 31.2924 26.7566 31.2303 26.8583C31.0499 27.1532 30.7941 27.5641 30.6549 27.7824C30.3795 28.2143 30.2879 28.3628 30.1455 28.6078C30.0643 28.7475 29.719 29.3071 29.3782 29.8512C29.0374 30.3953 28.7032 30.9313 28.6356 31.0422C28.568 31.1531 28.3838 31.448 28.2262 31.6975C28.0686 31.947 27.7542 32.4536 27.5274 32.8233C27.3006 33.193 27.0179 33.6467 26.8991 33.8315C26.6534 34.2139 26.2799 34.8138 25.9054 35.4278C25.7645 35.6588 25.5898 35.9386 25.5171 36.0495C25.406 36.2192 24.7493 37.2733 23.0152 40.0654C22.8602 40.3149 22.6461 40.6552 22.5395 40.8215C22.3144 41.1727 22.2824 41.2653 22.3538 41.3592C22.4046 41.426 22.4505 41.4265 30.0246 41.4351L37.6443 41.4437L37.7467 41.3452L37.849 41.2468V29.0306C37.849 21.1745 37.8368 16.7837 37.8149 16.7282C37.7646 16.6009 37.662 16.6208 37.5236 16.7849ZM35.3001 25.5666C35.3461 25.6831 35.3467 38.6513 35.3007 38.7678C35.2226 38.9655 35.4288 38.9564 31.0381 38.9564H27.0179L26.9289 38.8707C26.8082 38.7546 26.8242 38.7091 27.1886 38.131C27.3558 37.8656 27.5713 37.5209 27.6673 37.3649C27.9029 36.9822 28.331 36.2969 28.4891 36.0495C28.6349 35.8212 28.897 35.4001 29.0641 35.1253C29.126 35.0237 29.3801 34.6153 29.6289 34.218C29.8776 33.8206 30.2081 33.2913 30.3633 33.0417C30.5186 32.7922 30.7547 32.4142 30.8881 32.2016C31.0215 31.989 31.3167 31.5127 31.5442 31.143C31.7717 30.7733 32.0733 30.2923 32.2145 30.074C32.3557 29.8557 32.5317 29.5759 32.6056 29.4523C32.7615 29.1916 33.0181 28.777 33.2023 28.4881C33.3867 28.199 33.5248 27.9774 33.8413 27.4632C33.9948 27.2136 34.2393 26.8204 34.3846 26.5894C34.5299 26.3584 34.7159 26.0574 34.7978 25.9206C35.048 25.5034 35.2256 25.3781 35.3001 25.5666ZM46.0747 41.6301C45.9786 41.6556 45.8057 41.6855 45.6905 41.6966C45.5752 41.7077 45.3756 41.7384 45.247 41.7648C45.1183 41.7913 44.9218 41.8131 44.8104 41.8133C44.6989 41.8135 44.5212 41.836 44.4156 41.8633C44.3099 41.8906 44.1292 41.9135 44.0139 41.9141C43.8986 41.9148 43.6875 41.9452 43.5447 41.9817C43.4019 42.0183 43.1819 42.0483 43.0557 42.0485C42.9295 42.0488 42.7399 42.0713 42.6342 42.0986C42.5286 42.1258 42.3399 42.1487 42.2151 42.1494C42.0902 42.15 41.8712 42.1804 41.7284 42.217C41.5857 42.2535 41.3892 42.2836 41.2918 42.2839C41.1945 42.2842 41.0205 42.3063 40.9052 42.3331C40.79 42.3599 40.6014 42.3825 40.4861 42.3834C40.3708 42.3843 40.1901 42.4073 40.0844 42.4346C39.9788 42.4619 39.7901 42.4844 39.6652 42.4846C39.5402 42.4849 39.3281 42.5153 39.1937 42.5522C39.0594 42.5892 38.8473 42.6196 38.7223 42.6199C38.5974 42.6201 38.4087 42.6426 38.3031 42.6699C38.1974 42.6971 38.0088 42.72 37.8839 42.7207C37.7591 42.7213 37.54 42.7517 37.3973 42.7883C37.2545 42.8248 37.0502 42.8552 36.9432 42.8559C36.8362 42.8565 36.6544 42.879 36.5392 42.9058C36.4239 42.9326 36.2274 42.9549 36.1026 42.9554C35.9777 42.9559 35.7891 42.9786 35.6834 43.0059C35.5778 43.0331 35.3891 43.0643 35.2643 43.0751C35.1394 43.0859 34.932 43.1164 34.8033 43.1428C34.6746 43.1691 34.486 43.1909 34.3842 43.1912C34.2823 43.1914 34.1125 43.2139 34.0068 43.2412C33.9012 43.2684 33.7047 43.2913 33.5702 43.292C33.4358 43.2926 33.2089 43.323 33.0661 43.3596C32.9234 43.3961 32.719 43.4262 32.6121 43.4264C32.5051 43.4266 32.3311 43.4491 32.2255 43.4764C32.1198 43.5037 31.9312 43.5265 31.8063 43.5272C31.6815 43.5279 31.4625 43.5583 31.3197 43.5948C31.1769 43.6314 30.9805 43.6618 30.8831 43.6624C30.7857 43.6631 30.6118 43.6855 30.4965 43.7123C30.3813 43.7391 30.1769 43.7614 30.0424 43.7619C29.908 43.7624 29.7115 43.7852 29.6058 43.8125C29.5002 43.8397 29.3262 43.8623 29.2193 43.8625C29.1123 43.8627 28.908 43.8927 28.7652 43.9293C28.6224 43.9658 28.4191 43.9963 28.3135 43.9969C28.2078 43.9976 28.0349 44.0204 27.9293 44.0477C27.8236 44.075 27.6036 44.0981 27.4403 44.0992C27.27 44.1003 27.0838 44.1222 27.0037 44.1506C26.9268 44.1779 26.7146 44.2141 26.5321 44.2312C26.3496 44.2483 26.1454 44.2782 26.0783 44.2978C26.0112 44.3174 25.854 44.3335 25.729 44.3338C25.604 44.334 25.4164 44.356 25.312 44.3827C25.2077 44.4094 25.0112 44.4412 24.8754 44.4533C24.7396 44.4655 24.5342 44.4961 24.4189 44.5215C24.3037 44.5469 24.0993 44.568 23.9649 44.5685C23.8304 44.569 23.6339 44.5917 23.5283 44.619C23.4226 44.6463 23.2418 44.6688 23.1265 44.669C23.0111 44.6692 22.8069 44.6997 22.6725 44.7366C22.5382 44.7736 22.3417 44.8044 22.236 44.805C22.1303 44.8057 21.9495 44.8281 21.8342 44.8549C21.719 44.8817 21.4989 44.9045 21.3452 44.9056C21.1908 44.9067 21.0033 44.9298 20.9261 44.9571C20.8492 44.9844 20.6371 45.0211 20.4545 45.0386C20.272 45.0561 20.0599 45.0858 19.983 45.1044C19.9062 45.123 19.7411 45.1388 19.6163 45.1395C19.4914 45.1402 19.3028 45.1628 19.1971 45.1899C19.0915 45.217 18.9107 45.2478 18.7954 45.2585C18.6802 45.269 18.4876 45.2949 18.3676 45.3158L18.1493 45.3539V46.5575V47.7612H29.9213C39.7544 47.7612 41.7119 47.7537 41.8058 47.7156C41.9303 47.665 42.1144 47.4809 42.4673 47.0539C42.5963 46.8976 42.7692 46.6894 42.8515 46.5912C42.9337 46.493 43.111 46.2791 43.2455 46.1158C43.3799 45.9526 43.6236 45.66 43.7869 45.4656C43.9501 45.2713 44.1545 45.0262 44.2409 44.9211C44.3274 44.816 44.5194 44.584 44.6676 44.4056C44.8159 44.2273 45.0359 43.9623 45.1566 43.8168C45.2773 43.6712 45.4547 43.4576 45.5507 43.3419C45.7283 43.1281 45.9695 42.8438 46.2843 42.4774C46.5447 42.1742 46.7505 41.898 46.7896 41.7989C46.8179 41.7273 46.8115 41.6984 46.7552 41.6443C46.6713 41.5636 46.3502 41.5569 46.0747 41.6301Z" fill="#333333" fill-opacity="0.99"/>
</svg>
