<svg width="64" height="64" viewBox="0 0 64 64" fill="none" xmlns="http://www.w3.org/2000/svg">
<rect x="0.5" y="0.5" width="63" height="63" rx="31.5" stroke="#666666"/>
<path fill-rule="evenodd" clip-rule="evenodd" d="M36.9713 16.3486L36.8624 16.4584V17.6291V18.7998L36.9713 18.9097L37.0802 19.0195H37.9188C38.3801 19.0195 38.8004 19.036 38.853 19.0561C38.9284 19.085 38.9486 19.1184 38.9486 19.2143C38.9486 19.3239 38.811 19.4748 37.533 20.7669C36.1486 22.1665 36.1174 22.2013 36.1174 22.3465C36.1174 22.4899 36.1452 22.5229 36.9301 23.3125C37.683 24.0698 37.7526 24.13 37.875 24.13C37.9533 24.13 38.051 24.0966 38.1147 24.0479C38.1738 24.0027 38.8214 23.3644 39.5539 22.6293C40.5906 21.5891 40.909 21.2905 40.9906 21.2817C41.1647 21.263 41.1837 21.364 41.1837 22.3122V23.1588L41.2925 23.2687L41.4014 23.3785H42.562H43.7225L43.8314 23.2687L43.9403 23.1588V19.8086V16.4584L43.8314 16.3486L43.7225 16.2388H40.4014H37.0802L36.9713 16.3486ZM30.4738 19.1198C30.4123 19.1274 30.1189 19.1601 29.8219 19.1924C28.0928 19.3807 26.5415 19.9924 25.0689 21.0668C24.5235 21.4647 23.3843 22.6121 22.9939 23.1568C22.3635 24.0363 21.891 24.9319 21.5567 25.8811C21.3377 26.5031 21.2467 26.8487 21.1127 27.5668C21.0201 28.0638 21.0144 28.16 21.015 29.2218C21.0156 30.293 21.0207 30.377 21.119 30.9099C21.3472 32.1476 21.7435 33.2163 22.3763 34.3004C22.5576 34.611 23.4566 36.0465 24.1965 37.207C24.3744 37.486 25.0787 38.6021 25.7615 39.6871C26.4444 40.7722 27.2492 42.0489 27.5501 42.5242C27.851 42.9996 28.6709 44.3016 29.3722 45.4177C30.969 47.9587 30.8233 47.7449 30.9684 47.7593C31.0574 47.768 31.109 47.7473 31.1719 47.6774C31.2182 47.626 31.6992 46.8766 32.2409 46.0123C32.7826 45.1479 33.3702 44.2124 33.5467 43.9334C33.7233 43.6544 34.0166 43.1894 34.1985 42.9C34.3804 42.6107 34.7332 42.0526 34.9826 41.66C35.232 41.2673 35.9098 40.1935 36.4888 39.2738C37.0679 38.3541 37.7556 37.2634 38.0172 36.85C38.9764 35.334 39.5355 34.4384 39.6929 34.1655C40.068 33.5153 40.4946 32.4739 40.6859 31.7422C40.9318 30.8014 41.0383 29.6513 40.9732 28.6393C40.9338 28.0293 40.9039 27.9253 40.7462 27.8529C40.6225 27.7961 38.4251 27.798 38.3009 27.8551C38.1397 27.9292 38.1178 28.0529 38.1827 28.5223C38.2146 28.7534 38.2408 29.0735 38.2408 29.2335C38.2408 29.5855 38.1172 30.4992 38.0149 30.9031C37.8452 31.574 37.5445 32.3499 37.2869 32.7817C37.1506 33.0102 35.7161 35.2943 34.9443 36.5118C34.7347 36.8425 34.1643 37.7472 33.6768 38.5222C32.578 40.2692 31.6725 41.7008 31.3771 42.1585C31.1551 42.5023 31.0757 42.5672 30.9144 42.5369C30.8286 42.5207 30.8653 42.5765 29.1859 39.9126C28.7493 39.2202 28.1245 38.231 27.7974 37.7143C27.4703 37.1976 27.1074 36.6227 26.991 36.4367C26.8747 36.2507 26.4217 35.532 25.9844 34.8396C24.8279 33.0087 24.7681 32.9095 24.5321 32.4346C24.1299 31.6254 23.9006 30.8161 23.8028 29.8611C23.7508 29.3534 23.7481 29.1808 23.7849 28.7344C23.8984 27.3573 24.2941 26.2184 25.0607 25.0624C25.4881 24.4179 26.3058 23.5901 26.9162 23.1839C27.8808 22.5421 28.7341 22.2055 29.8561 22.0242C30.2961 21.9531 30.4525 21.9459 31.1599 21.9642C31.6021 21.9757 32.0342 21.9959 32.1201 22.0091C32.2555 22.03 32.2892 22.0203 32.3716 21.9372L32.4667 21.8412V20.6576C32.4667 19.8464 32.4533 19.4442 32.4239 19.3792C32.3977 19.3212 32.3219 19.2623 32.2284 19.2273C31.9657 19.129 30.9178 19.0648 30.4738 19.1198ZM30.6503 26.6496C30.0707 26.7537 29.621 26.9941 29.1843 27.4334C28.6769 27.9439 28.4435 28.5034 28.4435 29.2091C28.4435 29.6862 28.4902 29.8976 28.6905 30.3284C28.8351 30.6394 28.8982 30.7258 29.199 31.0244C29.4358 31.2595 29.624 31.4082 29.8049 31.5035C30.8299 32.0428 31.9506 31.8694 32.7647 31.0454C33.2951 30.5086 33.5018 30.0547 33.5354 29.3533C33.5596 28.8496 33.4899 28.5005 33.282 28.0839C32.8009 27.1198 31.619 26.4757 30.6503 26.6496Z" fill="#333333" fill-opacity="0.99"/>
</svg>
