<svg width="72" height="76" viewBox="0 0 72 76" fill="none" xmlns="http://www.w3.org/2000/svg">
<path fill-rule="evenodd" clip-rule="evenodd" d="M23.6209 0.558268C23.1157 0.859286 22.3874 1.29514 22.0024 1.52686C21.6175 1.7585 21.1376 2.04023 20.9359 2.15283C20.3162 2.49877 20.2672 2.93426 20.772 3.60988C21.1559 4.1236 21.6335 5.25383 21.5721 5.50341C21.4909 5.83381 21.2093 5.90238 19.9341 5.90238H18.7958L18.54 6.1634L18.2843 6.42441V8.75987V11.0953L18.54 11.3563L18.7958 11.6174H19.9341C21.2017 11.6174 21.4846 11.6859 21.6105 12.0237C21.7357 12.3599 21.6531 12.5851 21.0306 13.6041C20.2373 14.9028 20.2564 15.116 21.2222 15.7435C21.4185 15.8711 21.8515 16.1157 22.1845 16.2872C22.5174 16.4586 23.1047 16.7893 23.4897 17.022C24.3785 17.5594 24.784 17.7091 25.0605 17.6017C25.2999 17.5089 25.8401 16.7999 26.2077 16.0963C26.4751 15.5847 26.7858 15.2785 27.0378 15.2785C27.2499 15.2785 27.7142 15.8505 28.1288 16.6225C28.5567 17.4193 28.889 17.7248 29.2589 17.6616C29.5775 17.6072 32.9984 15.6688 33.4411 15.2919C33.6727 15.0946 33.631 14.6509 33.3428 14.2469C33.2045 14.053 32.9041 13.5266 32.6751 13.0771C32.0054 11.7624 32.1412 11.6174 34.0424 11.6174H35.2699L35.5256 11.3563L35.7813 11.0953V8.75987V6.42441L35.5256 6.1634L35.2699 5.90238H34.014C32.1053 5.90238 32.0148 5.75344 32.9438 4.14003C33.2923 3.5346 33.5211 3.03472 33.5258 2.86836C33.5354 2.52305 33.2574 2.209 32.6756 1.9078C32.435 1.78332 32.0807 1.57401 31.8882 1.44275C31.0667 0.882592 29.404 0.00882734 29.1593 0.00882734C28.7998 0.00882734 28.6535 0.195814 27.496 2.13372C27.4286 2.24641 27.2717 2.38598 27.1473 2.44385C26.9382 2.54109 26.8969 2.521 26.5988 2.17819C26.4216 1.97433 26.1543 1.57357 26.0049 1.28764C25.8556 1.00171 25.6121 0.597112 25.4639 0.388337C25.07 -0.16664 24.7949 -0.14128 23.6209 0.558268ZM54.3213 3.12732L54.0656 3.38834V5.2749C54.0656 7.45641 54.0376 7.56446 53.3856 7.90057C52.7323 8.23739 52.1556 8.40965 51.8958 8.34562C51.7537 8.31062 51.1164 7.74153 50.2951 6.91634C48.4482 5.06059 48.7645 5.02728 46.5246 7.31345C44.2862 9.59827 44.3209 9.28841 46.0993 11.1197C46.8182 11.86 47.4497 12.583 47.5025 12.7264C47.5777 12.93 47.5679 13.0869 47.4583 13.4427C47.2516 14.1135 46.8786 14.7674 46.6294 14.8955C46.4742 14.9753 45.869 15.0084 44.5449 15.0093L42.6791 15.0106L42.4234 15.2716L42.1677 15.5326V18.0467V20.5607L42.4234 20.8217L42.6791 21.0828H44.5173C45.5283 21.0828 46.4565 21.122 46.5799 21.1698C46.8468 21.2734 47.0725 21.6292 47.3843 22.4377C47.546 22.8569 47.5959 23.1078 47.5525 23.2841C47.5143 23.4393 46.9776 24.0652 46.1416 24.9294C44.3143 26.8183 44.2819 26.4957 46.5285 28.7815C48.7704 31.0627 48.4517 31.0293 50.2951 29.177C51.1164 28.3518 51.7537 27.7828 51.8958 27.7477C52.1556 27.6837 52.7323 27.856 53.3856 28.1928C54.0376 28.5289 54.0656 28.637 54.0656 30.8185V32.705L54.3213 32.966L54.5771 33.2271H57.0401H59.5031L59.7589 32.966L60.0146 32.705V30.8185C60.0146 28.6356 60.0426 28.5275 60.6946 28.1953C61.4413 27.8148 61.9176 27.6658 62.1761 27.7319C62.3243 27.7697 62.9025 28.2782 63.6452 29.0238C64.3188 29.7001 64.9674 30.3197 65.0863 30.4007C65.586 30.7412 65.689 30.6744 67.5106 28.8307C68.4438 27.8861 69.2298 27.0221 69.2572 26.9109C69.3607 26.4898 69.174 26.2126 67.8824 24.8688C66.6307 23.5668 66.5759 23.4946 66.5759 23.1462C66.5759 22.6179 67.1701 21.3391 67.4832 21.1936C67.6493 21.1163 68.2921 21.0828 69.605 21.0828H71.4886L71.7443 20.8217L72 20.5607V18.0467V15.5326L71.7443 15.2716L71.4886 15.0106H69.605C68.2921 15.0106 67.6493 14.977 67.4832 14.8998C67.17 14.7542 66.5759 13.4754 66.5759 12.9467C66.5759 12.5972 66.6298 12.5267 67.932 11.1737C69.7664 9.26752 69.7983 9.59273 67.5538 7.30943C65.6139 5.33607 65.5868 5.32035 64.9487 5.80362C64.7611 5.94569 64.1548 6.53121 63.6015 7.10458C62.6189 8.12283 62.2695 8.40268 61.9806 8.40268C61.9024 8.40268 61.5021 8.25525 61.0912 8.07505C59.9995 7.59634 60.0153 7.63723 60.0149 5.29276L60.0146 3.38834L59.7589 3.12732L59.5031 2.86631H57.0401H54.5771L54.3213 3.12732ZM27.7575 5.50716C29.2093 5.89113 30.0761 6.82839 30.3678 8.32946C30.5018 9.01865 30.4099 9.52469 29.9987 10.3632C29.618 11.1397 29.1353 11.6465 28.4467 11.9927C27.8336 12.301 26.4892 12.3332 25.7643 12.057C25.0297 11.777 24.1642 10.8936 23.8904 10.1441C23.3904 8.77612 23.6372 7.42935 24.5749 6.40825C24.9467 6.00347 25.3953 5.74915 26.1142 5.53538C26.7797 5.33759 27.0958 5.33214 27.7575 5.50716ZM58.7023 12.6523C59.8949 13.0142 60.7904 13.7055 61.5835 14.8765C61.8354 15.2485 62.1458 15.8025 62.2732 16.1077C62.489 16.6246 62.505 16.7544 62.5064 18.002C62.5077 19.1741 62.4834 19.4077 62.3121 19.8712C61.6967 21.5359 60.288 22.9426 58.7542 23.424C58.2558 23.5804 57.9184 23.6185 57.0401 23.6174C55.8151 23.616 55.2478 23.4883 54.3723 23.017C53.6167 22.6102 52.422 21.3755 52.0687 20.6363C51.784 20.0406 51.4411 18.6256 51.4411 18.0467C51.4411 17.4668 51.7843 16.0523 52.0693 15.4571C52.2655 15.0473 52.5692 14.6499 53.1021 14.1053C54.0511 13.1355 54.8549 12.6952 56.0254 12.504C56.6643 12.3996 58.1387 12.4813 58.7023 12.6523ZM24.6239 21.2571C24.1984 21.4331 24.1923 21.4742 24.1458 24.443L24.1021 27.2405L23.8745 27.4726C23.7002 27.6503 23.5158 27.7213 23.0872 27.7758C22.521 27.8478 20.8361 28.2805 20.1324 28.5346C19.2888 28.8394 19.0687 28.7027 18.3417 27.4228C18.0767 26.9562 17.7178 26.3334 17.5439 26.0387C17.3702 25.744 17.0235 25.1475 16.7736 24.7132C16.2971 23.8853 15.9859 23.6147 15.6335 23.7216C15.5277 23.7537 15.2049 23.9303 14.9162 24.1141C14.6275 24.298 14.0369 24.6489 13.6039 24.8941C11.4548 26.111 11.3719 26.1764 11.3747 26.6514C11.3765 26.9679 11.8162 27.8126 13.412 30.5658C13.9061 31.4181 13.9747 31.6813 13.7943 32.0316C13.7211 32.1734 12.9909 32.9679 12.1714 33.7972L10.6814 35.3051L10.303 35.2615C10.0479 35.2321 9.64021 35.044 9.05214 34.6842C8.57237 34.3907 7.76646 33.9165 7.26124 33.6307C6.75601 33.3448 6.17818 33.0164 5.97714 32.901C5.51259 32.6344 5.15732 32.6315 4.92776 32.8922C4.83047 33.0027 4.46251 33.6155 4.11004 34.254C3.75756 34.8924 3.28199 35.7162 3.05331 36.0845C2.2593 37.3634 2.3124 37.5169 3.88004 38.4764C4.51273 38.8637 5.40437 39.3945 5.86148 39.656C7.54574 40.6198 7.57155 40.6574 7.26369 41.6979C6.97219 42.6827 6.66503 43.9057 6.55498 44.5193C6.50248 44.8118 6.40118 45.1666 6.3297 45.3076C6.08667 45.7874 5.87601 45.8178 2.80231 45.8178H0V48.7166V51.6153L2.98175 51.641L5.96349 51.6668L6.20783 51.946C6.38027 52.1431 6.48131 52.3926 6.55113 52.7943C6.66704 53.4604 6.97184 54.6877 7.26106 55.6528C7.5055 56.4682 7.44023 56.7446 6.92862 57.06C6.01642 57.6223 5.44051 57.9635 4.24301 58.6509C3.52126 59.0651 2.84212 59.5038 2.7339 59.6257C2.42569 59.9727 2.47906 60.328 2.96066 61.1359C3.19363 61.5268 3.72554 62.4346 4.14267 63.1532C4.72313 64.1532 4.961 64.4852 5.15618 64.5677C5.52738 64.7247 5.45485 64.757 7.96112 63.3197C10.3121 61.9713 10.3187 61.9686 10.7267 62.1887C10.9622 62.3158 11.9182 63.2803 13.3336 64.8186C13.8765 65.4086 13.9277 65.4962 13.8853 65.7629C13.8596 65.9246 13.6633 66.3553 13.4491 66.7199C13.235 67.0846 12.7719 67.9053 12.42 68.5438C12.0682 69.1822 11.7056 69.8153 11.6142 69.9505C11.1755 70.6 11.2882 71.1094 11.9558 71.495C12.1886 71.6295 13.0877 72.1636 13.9538 72.6819C16.0771 73.9526 16.0883 73.9518 16.8901 72.4569C17.0961 72.0728 17.4083 71.5374 17.584 71.2673C17.7597 70.9972 18.0887 70.4262 18.3152 69.9985C18.9035 68.8875 19.0948 68.6777 19.5197 68.6777C19.7095 68.6777 20.011 68.7407 20.1899 68.8178C20.531 68.9648 22.914 69.5707 23.1509 69.5707C23.2265 69.5707 23.427 69.6379 23.5966 69.72C24.1167 69.9719 24.1458 70.1444 24.1458 72.9679V75.478L24.4015 75.739L24.6572 76H26.9891H29.3209L29.5766 75.739L29.8323 75.478V72.9679C29.8323 70.1444 29.8615 69.9719 30.3816 69.72C30.5511 69.6379 30.7758 69.5707 30.8808 69.5707C31.1408 69.5707 32.2901 69.2723 33.5165 68.8865C34.8151 68.4779 34.8513 68.4918 35.5287 69.6609C36.3238 71.0327 37.2286 72.6221 37.4523 73.0396C37.6479 73.4046 37.9912 73.6796 38.2484 73.6772C38.3109 73.6766 38.8345 73.4017 39.4119 73.0663C42.6146 71.2056 42.7476 71.1047 42.6644 70.5976C42.619 70.3203 42.4377 69.9765 41.0612 67.5579C40.6128 66.7702 40.2211 65.9987 40.1908 65.8437C40.1092 65.4273 40.3098 65.1596 41.94 63.5086C43.3807 62.0494 43.3859 62.0454 43.723 62.0915C43.9089 62.1169 44.3534 62.3184 44.711 62.539C45.0684 62.7598 45.5971 63.0619 45.8858 63.2106C46.1745 63.3593 46.7847 63.7073 47.2418 63.9838C48.7804 64.9147 48.961 64.881 49.6838 63.5291C49.9423 63.0457 50.4448 62.1561 50.8004 61.5523C51.156 60.9484 51.4689 60.3429 51.4956 60.2068C51.5598 59.8788 51.2544 59.5092 50.6391 59.1703C50.2361 58.9484 47.7932 57.4862 47.0235 57.0062C46.8794 56.9164 46.7091 56.7312 46.645 56.5947C46.5422 56.3757 46.5537 56.2707 46.7427 55.7032C46.8605 55.3495 47.0848 54.5175 47.241 53.8545C47.3973 53.1915 47.5615 52.4982 47.6058 52.3138C47.7577 51.6826 47.8059 51.6724 50.8879 51.6221C53.5897 51.578 53.6261 51.575 53.8228 51.3742C54.0187 51.1742 54.0223 51.1324 54.0478 48.7595L54.0737 46.3481L53.8139 46.083L53.5542 45.8178H50.958C48.775 45.8178 48.3155 45.7954 48.071 45.677C47.7755 45.5339 47.5043 45.0963 47.5043 44.7631C47.5043 44.5309 47.1247 42.8781 46.8308 41.8301C46.4918 40.6215 46.5446 40.5475 48.537 39.439C49.9374 38.6598 51.1674 37.8685 51.3535 37.6271C51.648 37.2449 51.5953 37.0563 50.8783 35.9245C50.6696 35.595 50.2174 34.8031 49.8734 34.1647C49.5294 33.5262 49.1663 32.9335 49.0663 32.8475C48.8492 32.6609 48.5045 32.6473 48.2041 32.8134C46.7719 33.6056 46.0733 34.0112 45.1887 34.5638C44.4391 35.032 44.0332 35.2304 43.76 35.2619L43.3783 35.3057L41.7669 33.6609C39.9731 31.83 39.971 31.8262 40.3608 31.0767C40.8027 30.2268 41.5158 28.9539 41.9076 28.3158C42.7751 26.9026 42.8632 26.5497 42.4531 26.1312C42.3215 25.9968 42.0557 25.8047 41.8626 25.7042C41.4712 25.5007 39.3197 24.2539 38.8433 23.9547C38.4351 23.6983 37.9652 23.7016 37.7316 23.9626C37.6326 24.0731 37.3941 24.4448 37.2014 24.7886C36.9072 25.3135 36.3152 26.3325 35.2458 28.1549C34.92 28.7099 34.7029 28.7439 33.5671 28.4181C33.0287 28.2636 32.1944 28.054 31.7132 27.9522C30.2928 27.6519 30.1581 27.5967 29.9856 27.2442C29.8503 26.968 29.8326 26.6272 29.8325 24.3129L29.8323 21.6941L29.5766 21.4331L29.3209 21.1721L27.0614 21.1777C25.8187 21.1808 24.7218 21.2165 24.6239 21.2571ZM29.6093 33.5346C31.6406 33.9761 32.7165 34.3557 34.1877 35.15C35.2346 35.7152 36.9374 36.999 37.736 37.8251C39.1897 39.3289 40.6844 41.8397 41.3247 43.8533C41.6158 44.769 41.7514 45.3227 42.0305 46.7356C42.1854 47.5196 42.2156 49.7491 42.0793 50.3273C42.033 50.5238 41.953 50.9457 41.9015 51.2649C41.8499 51.5842 41.6767 52.3104 41.5165 52.8788C40.9628 54.8437 40.239 56.2927 38.911 58.0957C38.1096 59.1838 37.7524 59.5822 37.0061 60.2202C35.7511 61.2929 35.0994 61.7174 33.4641 62.5275C32.0787 63.2137 30.656 63.712 29.7787 63.8182C29.5435 63.8467 29.0674 63.9307 28.7207 64.0049C27.9184 64.1765 25.7519 64.1234 24.627 63.9045C22.9629 63.5807 22.0171 63.2565 20.4589 62.4761C17.4594 60.9736 15.6299 59.2589 13.9376 56.3643C13.3033 55.2793 13.0168 54.5697 12.5275 52.8723C11.9999 51.0419 11.8971 50.3569 11.8975 48.6751C11.8978 47.4596 11.9356 47.0141 12.1135 46.1302C12.3231 45.0884 12.9276 43.0824 13.2973 42.2025C13.7891 41.0313 15.2171 38.9623 16.3229 37.8187C17.5004 36.6009 19.3424 35.2845 20.6223 34.7459C20.9483 34.6087 21.3922 34.4179 21.6087 34.3217C22.25 34.0372 24.6697 33.4398 25.808 33.285C26.5808 33.1799 28.5818 33.3114 29.6093 33.5346ZM25.4745 39.7518C24.235 40.0008 22.8533 40.5838 21.8409 41.285C20.3194 42.3388 19.0024 44.3018 18.4185 46.3859C18.2211 47.0908 18.1968 47.3403 18.1968 48.6685C18.1968 50.4431 18.3286 51.0861 18.9777 52.4787C19.5115 53.624 20.141 54.5746 20.7606 55.171C21.4064 55.7926 22.9789 56.8293 23.7064 57.113C24.9997 57.6175 25.4154 57.6943 26.8576 57.6949C29.004 57.6959 30.2094 57.3431 31.9091 56.2165C33.095 55.4306 33.5012 55.03 34.2281 53.9299C35.0147 52.7395 35.3574 52.0061 35.6527 50.8809C35.8394 50.1699 35.8683 49.8672 35.8685 48.6289C35.8688 46.9862 35.7668 46.4817 35.1419 45.0354C34.2937 43.0719 32.8946 41.5421 31.1009 40.6168C30.4305 40.271 29.0757 39.8344 28.3913 39.7435C27.6401 39.6438 25.9884 39.6485 25.4745 39.7518Z" fill="#40A8E4"/>
</svg>
