<svg width="80" height="80" viewBox="0 0 80 80" fill="none" xmlns="http://www.w3.org/2000/svg">
<path fill-rule="evenodd" clip-rule="evenodd" d="M39.7431 0.0922811C39.4768 0.247788 39.7488 -0.552136 33.7585 17.6956C32.4631 21.6418 31.3375 25.0733 31.2572 25.3211C31.0731 25.8898 31.0731 26.1825 31.2573 26.5294C31.4823 26.9528 39.3656 34.7697 39.6891 34.8899C39.9056 34.9704 40.0409 34.9608 40.2487 34.8504C40.5797 34.6744 48.4412 26.7959 48.6008 26.4801C48.6627 26.3578 48.7134 26.1288 48.7136 25.9712C48.714 25.5096 40.4365 0.43291 40.196 0.167083C40.0105 -0.0379864 39.976 -0.0436857 39.7431 0.0922811ZM25.4136 31.2791C25.1617 31.3503 23.1472 32.003 20.9368 32.7297C18.7263 33.4564 13.255 35.2522 8.77818 36.7204C4.30138 38.1885 0.501188 39.4684 0.333308 39.5646C-0.0542409 39.7866 -0.110811 40.1134 0.200326 40.3335C0.329441 40.4249 2.88458 41.3027 5.87844 42.2842C8.8723 43.2657 13.1761 44.6802 15.4425 45.4277C22.0775 47.6159 25.1329 48.6121 25.5407 48.7201C26.2974 48.9207 26.3196 48.9026 30.7298 44.4861C34.5837 40.6266 34.8759 40.3093 34.8759 39.9836C34.8759 39.6578 34.5838 39.3406 30.7305 35.482C28.4505 33.199 26.4931 31.3049 26.3809 31.273C25.9563 31.1525 25.8595 31.1531 25.4136 31.2791ZM53.3427 31.3479C53.0153 31.5257 45.256 39.2931 45.0864 39.6129C44.9927 39.7895 44.958 40.0093 44.9977 40.1726C45.0707 40.4714 52.8462 48.3436 53.3122 48.5904C53.4634 48.6705 53.7549 48.7359 53.9602 48.7359C54.166 48.7359 56.1872 48.1234 58.4674 47.3701C60.7412 46.6191 65.4173 45.0813 68.8589 43.9529C72.3004 42.8246 76.0909 41.5808 77.2822 41.1887C78.6857 40.7269 79.5452 40.3893 79.7241 40.2297L80 39.9836L79.727 39.7398C79.4378 39.4816 79.2884 39.4304 68.7063 35.9616C65.3487 34.8611 60.9304 33.4106 58.8878 32.7385C56.8453 32.0664 54.9779 31.4524 54.7381 31.3739C54.222 31.2049 53.6263 31.1939 53.3427 31.3479ZM39.6071 45.117C39.3038 45.2548 31.5958 52.9334 31.2777 53.4146C31.0729 53.7243 31.0674 54.0595 31.2572 54.646C31.4837 55.3452 35.9423 68.9249 37.5869 73.9243C39.3758 79.3625 39.5178 79.7485 39.7815 79.8897C40.2368 80.1333 39.743 81.5218 46.5178 60.9466C47.7253 57.2793 48.7133 54.1507 48.7133 53.994C48.7133 53.8375 48.6627 53.6093 48.6008 53.487C48.441 53.1708 40.5794 45.2926 40.2481 45.1164C39.9247 44.9445 39.9868 44.9445 39.6071 45.117Z" fill="#40A8E4"/>
</svg>
