<svg width="168" height="110" viewBox="0 0 168 110" fill="none" xmlns="http://www.w3.org/2000/svg">
<path fill-rule="evenodd" clip-rule="evenodd" d="M4.84057 91.4209V96.5553H2.79199V84.5918H4.84057V89.56H5.83182L8.65688 84.5918H10.2594V86.0042C9.79681 86.7519 7.86388 89.9587 7.51694 90.5071C8.09517 91.504 9.81333 94.3287 10.342 95.1928V96.5553H8.70644C8.21081 95.6912 6.01355 91.853 5.78226 91.4209H4.84057Z" fill="#22689E"/>
<path fill-rule="evenodd" clip-rule="evenodd" d="M13.0844 92.7834C13.0844 93.8967 13.993 94.8272 15.1164 94.8272C16.2564 94.8272 17.165 93.8967 17.165 92.7834V88.3802C17.165 87.2503 16.2564 86.3198 15.1164 86.3198C13.993 86.3198 13.0844 87.2503 13.0844 88.3802V92.7834ZM11.0193 88.2971C11.0193 86.0373 12.8531 84.3591 15.1164 84.3591C17.3963 84.3591 19.2301 86.0373 19.2301 88.2971V92.8499C19.2301 95.1097 17.3963 96.7879 15.1164 96.7879C12.8531 96.7879 11.0193 95.1097 11.0193 92.8499V88.2971Z" fill="#22689E"/>
<path fill-rule="evenodd" clip-rule="evenodd" d="M22.7986 86.4528V90.424H24.0046C25.3593 90.4074 25.9706 89.2941 25.9871 88.4301C25.9871 87.5827 25.3758 86.4528 24.0046 86.4528H22.7986ZM22.7986 92.285V96.5553H20.75V84.5918H24.335C26.6645 84.5918 28.1513 86.5359 28.1513 88.4467C28.1348 90.4074 26.5818 92.285 24.335 92.285H22.7986Z" fill="#22689E"/>
<path fill-rule="evenodd" clip-rule="evenodd" d="M34.8753 86.4528H31.3894V96.5553H29.3408V84.5918H36.9239V96.5553H34.8753V86.4528Z" fill="#22689E"/>
<path fill-rule="evenodd" clip-rule="evenodd" d="M40.509 92.7834C40.509 93.8967 41.4177 94.8272 42.5411 94.8272C43.681 94.8272 44.6062 93.8967 44.6062 92.7834V88.3802C44.6062 87.2503 43.681 86.3198 42.5411 86.3198C41.4177 86.3198 40.509 87.2503 40.509 88.3802V92.7834ZM38.4604 88.2971C38.4604 86.0373 40.2943 84.3591 42.5411 84.3591C44.821 84.3591 46.6548 86.0373 46.6548 88.2971V92.8499C46.6548 95.1097 44.821 96.7879 42.5411 96.7879C40.2943 96.7879 38.4604 95.1097 38.4604 92.8499V88.2971Z" fill="#22689E"/>
<path fill-rule="evenodd" clip-rule="evenodd" d="M50.2397 86.4528V90.424H51.4457C52.8004 90.4074 53.4116 89.2941 53.4282 88.4301C53.4282 87.5827 52.8169 86.4528 51.4457 86.4528H50.2397ZM50.2397 92.285V96.5553H48.1746V84.5918H51.7596C54.089 84.5918 55.5759 86.5359 55.5759 88.4467C55.5594 90.4074 54.0229 92.285 51.7596 92.285H50.2397Z" fill="#22689E"/>
<path fill-rule="evenodd" clip-rule="evenodd" d="M57.8723 91.3877H60.4495L59.1444 86.5691L57.8723 91.3877ZM60.9286 93.1822H57.3766L56.4845 96.5553H54.7168V95.0432C55.0968 93.8303 57.4262 86.2202 57.9053 84.5918H60.4C60.7799 85.8214 63.3076 94.146 63.5885 95.0432V96.5553H61.8373L60.9286 93.1822Z" fill="#22689E"/>
<path fill-rule="evenodd" clip-rule="evenodd" d="M70.7585 96.0236C71.3368 96.1731 71.948 96.6217 72.295 97.1368C72.4932 97.4525 72.708 97.8015 72.9558 98.1338V99.4797H71.4029L70.4116 97.8015C69.9655 97.0704 69.4864 96.738 68.6604 96.738H68.4456C66.3805 96.738 64.5632 95.226 64.5632 93.0493V84.5918H66.6118V92.8831C66.6118 93.9798 67.4544 94.7774 68.4456 94.7774C69.4534 94.7607 70.2794 93.9632 70.2794 92.8665V84.5918H72.3445V93.0493C72.3445 94.362 71.6672 95.3922 70.7585 96.0236Z" fill="#22689E"/>
<path fill-rule="evenodd" clip-rule="evenodd" d="M79.8945 96.5553V95.1595C79.7954 95.3257 79.2006 96.2396 79.0189 96.5054C78.6389 96.6716 78.1929 96.7713 77.6807 96.7713C75.7478 96.7713 74.1453 95.2592 74.1453 93.2653V84.5918H76.1938V92.933C76.1938 94.0296 77.0199 94.8272 78.0277 94.8272C79.0189 94.8106 79.8615 94.013 79.8615 92.9164V84.5918H81.9101V96.5553H79.8945Z" fill="#22689E"/>
<path fill-rule="evenodd" clip-rule="evenodd" d="M87.6925 86.4528C86.4039 86.4528 85.7926 87.5162 85.7926 88.3802V88.4135C85.7926 89.3772 86.6186 90.2744 87.6925 90.2744H89.0307V86.4528H87.6925ZM84.6361 96.5553H83.0171V95.1928C83.4632 94.4617 84.2727 93.1324 84.6527 92.501C84.8674 92.1521 85.4457 91.5871 86.0239 91.4376C84.4874 91.0222 83.6284 89.5932 83.6284 88.2307C83.6284 86.2866 85.1648 84.5918 87.2464 84.5918H91.0793V96.5553H89.0307V92.1354H88.3038C87.4612 92.1354 87.0317 92.4013 86.6186 93.1656L84.6361 96.5553Z" fill="#22689E"/>
<path fill-rule="evenodd" clip-rule="evenodd" d="M99.0752 86.4528V90.424H100.281C101.636 90.4074 102.247 89.2941 102.264 88.4301C102.264 87.5827 101.652 86.4528 100.281 86.4528H99.0752ZM99.0752 92.285V96.5553H97.0266V84.5918H100.595C102.925 84.5918 104.428 86.5359 104.428 88.4467C104.411 90.4074 102.858 92.285 100.595 92.285H99.0752Z" fill="#22689E"/>
<path fill-rule="evenodd" clip-rule="evenodd" d="M106.708 91.3877H109.302L107.98 86.5691L106.708 91.3877ZM109.764 93.1822H106.229L105.32 96.5553H103.552V95.0432C103.932 93.8303 106.278 86.2202 106.741 84.5918H109.252C109.616 85.8214 112.143 94.146 112.441 95.0432V96.5553H110.673L109.764 93.1822Z" fill="#22689E"/>
<path fill-rule="evenodd" clip-rule="evenodd" d="M116.455 87.7488C116.505 87.6325 117.265 86.6023 117.38 86.4029C117.083 86.4195 115.827 86.4528 115.629 86.4528H113.035V84.5918H119.495V86.4528C119.198 86.9513 118.603 87.9316 117.925 89.0615C119.445 89.6264 120.304 91.0222 120.304 92.6505C120.304 94.9269 118.471 96.7713 116.207 96.7713C114.687 96.7713 113.366 95.9571 112.655 94.7109V93.1989H114.241C114.489 94.0795 115.266 94.7109 116.207 94.7109C117.347 94.7109 118.256 93.797 118.256 92.6505C118.256 91.5373 117.347 90.6068 116.207 90.6068C116.059 90.6068 115.794 90.64 115.646 90.6898V89.0781L116.455 87.7488Z" fill="#22689E"/>
<path fill-rule="evenodd" clip-rule="evenodd" d="M123.757 91.4209V94.6943H125.657C126.582 94.6943 127.276 93.9632 127.276 93.0992C127.276 92.1521 126.582 91.4209 125.657 91.4209H123.757ZM123.757 86.4528V89.56H125.426C126.351 89.56 126.979 88.8289 126.979 88.0147C126.979 87.2337 126.351 86.4528 125.459 86.4528H123.757ZM121.709 96.5553V84.5918H125.988C127.937 84.5918 129.127 86.27 129.127 87.7821C129.127 88.9119 128.466 89.9089 127.491 90.3741C128.581 90.7065 129.44 91.9693 129.44 93.1822C129.424 94.9435 128.102 96.5553 126.087 96.5553H121.709Z" fill="#22689E"/>
<path fill-rule="evenodd" clip-rule="evenodd" d="M136.644 96.5553V95.1595C136.544 95.3257 135.95 96.2396 135.784 96.5054C135.388 96.6716 134.942 96.7713 134.43 96.7713C132.497 96.7713 130.894 95.2592 130.894 93.2653V84.5918H132.943V92.933C132.943 94.0296 133.769 94.8272 134.777 94.8272C135.784 94.8106 136.611 94.013 136.611 92.9164V84.5918H138.659V96.5553H136.644Z" fill="#22689E"/>
<path fill-rule="evenodd" clip-rule="evenodd" d="M144.54 96.5553H142.475V86.4528H139.766V84.5918H147.25V86.4528H144.54V96.5553Z" fill="#22689E"/>
<path fill-rule="evenodd" clip-rule="evenodd" d="M154.023 96.5553V95.1595C153.924 95.3257 153.33 96.2396 153.164 96.5054C152.768 96.6716 152.322 96.7713 151.826 96.7713C149.877 96.7713 148.274 95.2592 148.274 93.2653V84.5918H150.323V92.933C150.323 94.0296 151.149 94.8272 152.157 94.8272C153.164 94.8106 153.99 94.013 153.99 92.9164V84.5918H156.039V96.5553H154.023Z" fill="#22689E"/>
<path fill-rule="evenodd" clip-rule="evenodd" d="M161.821 86.4528C160.549 86.4528 159.938 87.5162 159.938 88.3802V88.4135C159.938 89.3772 160.747 90.2744 161.821 90.2744H163.159V86.4528H161.821ZM158.765 96.5553H157.146V95.1928C157.592 94.4617 158.401 93.1324 158.781 92.501C158.996 92.1521 159.574 91.5871 160.153 91.4376C158.633 91.0222 157.757 89.5932 157.757 88.2307C157.757 86.2866 159.31 84.5918 161.375 84.5918H165.208V96.5553H163.159V92.1354H162.432C161.59 92.1354 161.177 92.4013 160.747 93.1656L158.765 96.5553Z" fill="#22689E"/>
<path fill-rule="evenodd" clip-rule="evenodd" d="M27.1933 109.15V105.079L24.7317 109.15H23.6248V102.803H24.8473V106.857L27.3089 102.803H28.4158V109.15H27.1933Z" fill="#2388C2"/>
<path fill-rule="evenodd" clip-rule="evenodd" d="M34.0328 105.644C34.3137 105.644 34.5284 105.561 34.6936 105.411C34.8589 105.262 34.9415 105.046 34.9415 104.78C34.9415 104.514 34.8589 104.298 34.6936 104.149C34.5284 103.982 34.3137 103.916 34.0328 103.916H32.8764V105.644H34.0328ZM34.0824 102.803C34.3963 102.803 34.6606 102.853 34.9249 102.952C35.1727 103.052 35.404 103.185 35.5858 103.368C35.7675 103.534 35.9162 103.75 36.0153 103.982C36.1144 104.232 36.164 104.498 36.164 104.78C36.164 105.079 36.1144 105.345 36.0153 105.578C35.8997 105.81 35.7675 106.026 35.5858 106.209C35.404 106.375 35.1727 106.508 34.9249 106.608C34.6771 106.707 34.3963 106.757 34.0824 106.757H32.8764V109.15H31.6538V102.803H34.0824Z" fill="#2388C2"/>
<path fill-rule="evenodd" clip-rule="evenodd" d="M39.0056 109.15V102.803H40.2116V105.81L42.2602 102.803H43.7306L41.6159 105.777L43.9288 109.15H42.4254L40.2116 105.827V109.15H39.0056Z" fill="#2388C2"/>
<path fill-rule="evenodd" clip-rule="evenodd" d="M48.5547 108.07C48.5051 108.22 48.4225 108.352 48.3399 108.485C48.2573 108.618 48.1582 108.735 48.0426 108.834C47.9269 108.934 47.7948 109 47.6461 109.067C47.4974 109.117 47.3322 109.15 47.1504 109.15H46.3905V108.037H46.8861C47.0678 108.037 47.2 108.004 47.2991 107.937C47.4148 107.871 47.4809 107.771 47.5469 107.638L47.7287 107.206L45.7131 102.803H47.0018L48.3234 105.86L49.5129 102.803H50.785L48.5547 108.07Z" fill="#2388C2"/>
<path fill-rule="evenodd" clip-rule="evenodd" d="M55.7246 103.916V109.15H54.502V103.916H52.8665V102.803H57.3766V103.916H55.7246Z" fill="#2388C2"/>
<path fill-rule="evenodd" clip-rule="evenodd" d="M64.3982 107.189C64.3321 107.522 64.2495 107.821 64.1008 108.07C63.9687 108.319 63.7869 108.519 63.5887 108.701C63.3904 108.868 63.1591 108.984 62.8948 109.067C62.6305 109.15 62.3661 109.2 62.0688 109.2C61.7218 109.2 61.4079 109.133 61.1271 109.017C60.8462 108.901 60.5984 108.735 60.3836 108.502C60.2184 108.336 60.1028 108.17 60.0202 107.987C59.9211 107.804 59.8715 107.621 59.8385 107.405C59.8054 107.206 59.7724 106.973 59.7724 106.741C59.7724 106.508 59.7559 106.242 59.7559 105.976C59.7559 105.694 59.7724 105.445 59.7724 105.212C59.7724 104.979 59.8054 104.747 59.8385 104.547C59.8715 104.331 59.9211 104.132 60.0202 103.966C60.1028 103.783 60.2184 103.6 60.3836 103.451C60.5984 103.218 60.8462 103.052 61.1271 102.936C61.4079 102.819 61.7218 102.753 62.0688 102.753C62.3661 102.753 62.647 102.786 62.8948 102.869C63.1591 102.952 63.3904 103.085 63.5887 103.251C63.7869 103.418 63.9687 103.634 64.1008 103.883C64.2495 104.132 64.3321 104.415 64.3982 104.763H63.1426C63.0765 104.498 62.9609 104.282 62.7957 104.115C62.6305 103.949 62.3992 103.85 62.0853 103.85C61.9036 103.85 61.7549 103.883 61.6227 103.949C61.4905 103.999 61.3749 104.082 61.2923 104.182C61.2262 104.248 61.1766 104.315 61.1436 104.398C61.094 104.481 61.061 104.581 61.0445 104.714C61.028 104.847 61.0114 105.013 60.9949 105.212C60.9949 105.411 60.9784 105.677 60.9784 105.976C60.9784 106.276 60.9949 106.525 60.9949 106.724C61.0114 106.94 61.028 107.106 61.0445 107.223C61.061 107.356 61.094 107.472 61.1436 107.538C61.1766 107.621 61.2262 107.704 61.2923 107.771C61.3749 107.871 61.4905 107.937 61.6227 108.004C61.7549 108.07 61.9036 108.087 62.0853 108.087C62.3992 108.087 62.6305 108.004 62.7957 107.837C62.9609 107.655 63.0765 107.455 63.1426 107.189H64.3982Z" fill="#2388C2"/>
<path fill-rule="evenodd" clip-rule="evenodd" d="M67.2563 109.15V102.803H68.4789V105.81L70.5109 102.803H71.9813L69.8666 105.777L72.1961 109.15H70.6761L68.4789 105.827V109.15H67.2563Z" fill="#2388C2"/>
<path fill-rule="evenodd" clip-rule="evenodd" d="M77.6974 105.86C77.6974 105.594 77.6974 105.378 77.6974 105.195C77.6809 105.013 77.6644 104.863 77.6478 104.73C77.6148 104.614 77.5818 104.514 77.5487 104.431C77.4992 104.348 77.4496 104.265 77.4 104.199C77.2018 103.966 76.9374 103.85 76.607 103.85C76.4418 103.85 76.2931 103.883 76.161 103.933C76.0123 103.999 75.8966 104.082 75.7975 104.199C75.6653 104.348 75.5662 104.564 75.5497 104.863C75.5167 105.146 75.5001 105.495 75.5001 105.893V106.209C75.5001 106.541 75.5167 106.84 75.5332 107.123C75.5662 107.389 75.6488 107.605 75.7975 107.754C76.0288 107.987 76.2931 108.087 76.607 108.087C76.9374 108.087 77.2018 107.987 77.4 107.754C77.4496 107.688 77.5157 107.605 77.5487 107.522C77.5983 107.439 77.6313 107.322 77.6478 107.173C77.6644 107.04 77.6809 106.874 77.6974 106.658C77.6974 106.442 77.6974 106.176 77.6974 105.86ZM78.9199 106.209C78.9199 106.408 78.9199 106.624 78.9199 106.824C78.9034 107.023 78.8869 107.223 78.8373 107.422C78.8043 107.621 78.7382 107.804 78.6556 107.987C78.573 108.17 78.4574 108.336 78.2922 108.502C77.8626 108.967 77.2844 109.2 76.607 109.2C75.9132 109.2 75.3514 108.967 74.8889 108.502C74.7402 108.336 74.6245 108.17 74.5419 107.97C74.4593 107.788 74.3932 107.588 74.3602 107.389C74.3106 107.189 74.2941 106.99 74.2941 106.791C74.2776 106.591 74.2776 106.408 74.2776 106.242V105.711C74.2776 105.395 74.2941 105.129 74.3106 104.896C74.3272 104.68 74.3602 104.464 74.3932 104.298C74.4428 104.115 74.5089 103.966 74.5915 103.833C74.6741 103.7 74.7732 103.567 74.8889 103.451C75.3514 102.986 75.9132 102.753 76.607 102.753C77.2844 102.753 77.8461 102.986 78.2922 103.451C78.5234 103.667 78.6721 103.949 78.7713 104.282C78.8704 104.597 78.9199 105.013 78.9199 105.528V106.209Z" fill="#2388C2"/>
<path fill-rule="evenodd" clip-rule="evenodd" d="M85.7926 101.191C85.776 101.424 85.7265 101.623 85.6439 101.789C85.5613 101.955 85.4621 102.088 85.33 102.188C85.1978 102.288 85.0491 102.354 84.8839 102.404C84.7022 102.454 84.537 102.47 84.3552 102.47C84.19 102.47 84.0083 102.454 83.8431 102.404C83.6779 102.354 83.5292 102.288 83.397 102.188C83.2649 102.088 83.1492 101.955 83.0666 101.789C82.984 101.623 82.9344 101.424 82.9179 101.191H83.7935C83.8101 101.374 83.8596 101.523 83.9587 101.606C84.0744 101.69 84.2066 101.739 84.3552 101.739C84.5205 101.739 84.6526 101.69 84.7517 101.606C84.8509 101.523 84.917 101.374 84.9335 101.191H85.7926ZM85.5117 109.15V105.079L83.0666 109.15H81.9597V102.803H83.1823V106.857L85.6439 102.803H86.7342V109.15H85.5117Z" fill="#2388C2"/>
<path fill-rule="evenodd" clip-rule="evenodd" d="M97.0101 105.86C97.0101 105.594 97.0101 105.378 97.0101 105.195C96.9936 105.013 96.9771 104.863 96.9606 104.73C96.9275 104.614 96.8945 104.514 96.8614 104.431C96.8119 104.348 96.7623 104.265 96.7128 104.199C96.5145 103.966 96.2502 103.85 95.9198 103.85C95.7546 103.85 95.6059 103.883 95.4737 103.933C95.325 103.999 95.2094 104.082 95.1102 104.199C94.9781 104.348 94.879 104.564 94.8624 104.863C94.8294 105.146 94.8129 105.495 94.8129 105.893V106.209C94.8129 106.541 94.8294 106.84 94.8459 107.123C94.879 107.389 94.9616 107.605 95.1102 107.754C95.3415 107.987 95.6059 108.087 95.9198 108.087C96.2502 108.087 96.5145 107.987 96.7128 107.754C96.7623 107.688 96.8284 107.605 96.8614 107.522C96.911 107.439 96.944 107.322 96.9606 107.173C96.9771 107.04 96.9936 106.874 97.0101 106.658C97.0101 106.442 97.0101 106.176 97.0101 105.86ZM98.2327 106.209C98.2327 106.408 98.2327 106.624 98.2327 106.824C98.2161 107.023 98.1831 107.223 98.1501 107.422C98.117 107.621 98.0509 107.804 97.9683 107.987C97.8857 108.17 97.7701 108.336 97.6049 108.502C97.1753 108.967 96.5971 109.2 95.9198 109.2C95.2259 109.2 94.6642 108.967 94.2016 108.502C94.0529 108.336 93.9373 108.17 93.8547 107.97C93.7721 107.788 93.706 107.588 93.6729 107.389C93.6234 107.189 93.6069 106.99 93.6069 106.791C93.5903 106.591 93.5903 106.408 93.5903 106.242V105.711C93.5903 105.395 93.6069 105.129 93.6234 104.896C93.6399 104.68 93.6729 104.464 93.7225 104.298C93.7555 104.115 93.8216 103.966 93.9042 103.833C93.9868 103.7 94.086 103.567 94.2016 103.451C94.6642 102.986 95.2259 102.753 95.9198 102.753C96.5971 102.753 97.1588 102.986 97.6049 103.451C97.8362 103.667 97.9849 103.949 98.084 104.282C98.1831 104.597 98.2327 105.013 98.2327 105.528V106.209Z" fill="#2388C2"/>
<path fill-rule="evenodd" clip-rule="evenodd" d="M104.626 107.173C104.626 106.907 104.544 106.691 104.378 106.541C104.23 106.375 104.015 106.292 103.734 106.292H102.495V108.037H103.734C104.015 108.037 104.23 107.954 104.378 107.804C104.544 107.655 104.626 107.439 104.626 107.173ZM105.832 107.173C105.832 107.455 105.799 107.721 105.7 107.97C105.601 108.203 105.469 108.419 105.304 108.585C105.122 108.768 104.907 108.901 104.659 109C104.395 109.1 104.114 109.15 103.8 109.15H101.272V102.803H105.436V103.916H102.495V105.195H103.784C104.114 105.195 104.395 105.245 104.643 105.345C104.891 105.428 105.105 105.578 105.287 105.744C105.469 105.927 105.601 106.126 105.7 106.375C105.799 106.608 105.832 106.874 105.832 107.173Z" fill="#2388C2"/>
<path fill-rule="evenodd" clip-rule="evenodd" d="M112.027 109.15V103.916H110.508V105.76C110.508 106.408 110.458 106.973 110.392 107.405C110.309 107.837 110.194 108.186 110.028 108.452C109.863 108.701 109.648 108.884 109.417 108.984C109.169 109.084 108.889 109.15 108.558 109.15H108.062V108.037H108.244C108.409 108.037 108.558 108.004 108.674 107.954C108.806 107.887 108.922 107.771 109.021 107.605C109.12 107.439 109.202 107.189 109.252 106.89C109.302 106.575 109.335 106.176 109.335 105.677V102.803H113.25V109.15H112.027Z" fill="#2388C2"/>
<path fill-rule="evenodd" clip-rule="evenodd" d="M118.619 104.68L117.81 106.973H119.379L118.619 104.68ZM120.09 109.15L119.71 108.02H117.463L117.083 109.15H115.811L118.107 102.803H119.065L121.362 109.15H120.09Z" fill="#2388C2"/>
<path fill-rule="evenodd" clip-rule="evenodd" d="M128.234 107.189C128.185 107.522 128.086 107.821 127.954 108.07C127.821 108.319 127.64 108.519 127.441 108.701C127.243 108.868 127.012 108.984 126.748 109.067C126.483 109.15 126.219 109.2 125.922 109.2C125.575 109.2 125.261 109.133 124.98 109.017C124.699 108.901 124.451 108.735 124.22 108.502C124.071 108.336 123.956 108.17 123.856 107.987C123.774 107.804 123.724 107.621 123.691 107.405C123.642 107.206 123.625 106.973 123.625 106.741C123.609 106.508 123.609 106.242 123.609 105.976C123.609 105.694 123.609 105.445 123.625 105.212C123.625 104.979 123.642 104.747 123.691 104.547C123.724 104.331 123.774 104.132 123.856 103.966C123.956 103.783 124.071 103.6 124.22 103.451C124.451 103.218 124.699 103.052 124.98 102.936C125.261 102.819 125.575 102.753 125.922 102.753C126.219 102.753 126.5 102.786 126.748 102.869C127.012 102.952 127.243 103.085 127.441 103.251C127.64 103.418 127.821 103.634 127.954 103.883C128.086 104.132 128.185 104.415 128.234 104.763H126.995C126.929 104.498 126.814 104.282 126.648 104.115C126.483 103.949 126.252 103.85 125.938 103.85C125.756 103.85 125.608 103.883 125.475 103.949C125.343 103.999 125.228 104.082 125.145 104.182C125.079 104.248 125.029 104.315 124.996 104.398C124.947 104.481 124.914 104.581 124.897 104.714C124.881 104.847 124.864 105.013 124.848 105.212C124.831 105.411 124.831 105.677 124.831 105.976C124.831 106.276 124.831 106.525 124.848 106.724C124.864 106.94 124.881 107.106 124.897 107.223C124.914 107.356 124.947 107.472 124.996 107.538C125.029 107.621 125.079 107.704 125.145 107.771C125.228 107.871 125.343 107.937 125.475 108.004C125.608 108.07 125.756 108.087 125.938 108.087C126.252 108.087 126.483 108.004 126.648 107.837C126.814 107.655 126.929 107.455 126.995 107.189H128.234Z" fill="#2388C2"/>
<path fill-rule="evenodd" clip-rule="evenodd" d="M133.389 103.916V109.15H132.166V103.916H130.531V102.803H135.041V103.916H133.389Z" fill="#2388C2"/>
<path fill-rule="evenodd" clip-rule="evenodd" d="M141.385 109.15V105.079L138.923 109.15H137.816V102.803H139.039V106.857L141.501 102.803H142.591V109.15H141.385Z" fill="#2388C2"/>
<path fill-rule="evenodd" clip-rule="evenodd" d="M0 79.0254L84.0083 72.2461L168 79.0254H0Z" fill="#2388C2"/>
<path fill-rule="evenodd" clip-rule="evenodd" d="M86.5358 30.7561H74.3269V42.8691H83.6612V34.5612H86.5358V30.7561Z" fill="#2388C2"/>
<path fill-rule="evenodd" clip-rule="evenodd" d="M74.3269 62.7253H83.6611V43.6501H74.3269V62.7253Z" fill="#2388C2"/>
<path fill-rule="evenodd" clip-rule="evenodd" d="M99.8352 62.2765H109.549V43.4839H99.8352V62.2765Z" fill="#2388C2"/>
<path fill-rule="evenodd" clip-rule="evenodd" d="M83.6611 71.6313V63.3732H74.3269V72.379L83.6611 71.6313Z" fill="#2388C2"/>
<path fill-rule="evenodd" clip-rule="evenodd" d="M109.549 73.6585V62.9246H99.8352V72.8775L109.549 73.6585Z" fill="#2388C2"/>
<path fill-rule="evenodd" clip-rule="evenodd" d="M99.0586 72.8111V13.5752H90.6826V34.5611H93.5737V72.3624L99.0586 72.8111Z" fill="#2388C2"/>
<path fill-rule="evenodd" clip-rule="evenodd" d="M92.7972 72.3127V35.3422H84.4211V71.6314L92.7972 72.3127Z" fill="#2388C2"/>
<path fill-rule="evenodd" clip-rule="evenodd" d="M65.8353 73.0603V53.8855H56.1211V73.8413L65.8353 73.0603Z" fill="#2388C2"/>
<path fill-rule="evenodd" clip-rule="evenodd" d="M66.6118 0V72.9939L73.5506 72.4455V29.9752H74.9879V0H66.6118Z" fill="#2388C2"/>
</svg>
