<svg width="199" height="129" viewBox="0 0 199 129" fill="none" xmlns="http://www.w3.org/2000/svg">
<path fill-rule="evenodd" clip-rule="evenodd" d="M5.72598 107.404V113.436H3.30273V99.3806H5.72598V105.217H6.89852L10.2402 99.3806H12.1358V101.04C11.5887 101.918 9.30222 105.686 8.89183 106.33C9.57581 107.501 11.6082 110.82 12.2336 111.835V113.436H10.2989C9.7126 112.421 7.11348 107.911 6.83989 107.404H5.72598Z" fill="white"/>
<path fill-rule="evenodd" clip-rule="evenodd" d="M15.4775 109.005C15.4775 110.312 16.5523 111.406 17.8812 111.406C19.2296 111.406 20.3044 110.312 20.3044 109.005V103.831C20.3044 102.504 19.2296 101.411 17.8812 101.411C16.5523 101.411 15.4775 102.504 15.4775 103.831V109.005ZM13.0347 103.734C13.0347 101.079 15.2039 99.1074 17.8812 99.1074C20.578 99.1074 22.7472 101.079 22.7472 103.734V109.083C22.7472 111.737 20.578 113.709 17.8812 113.709C15.2039 113.709 13.0347 111.737 13.0347 109.083V103.734Z" fill="white"/>
<path fill-rule="evenodd" clip-rule="evenodd" d="M26.9687 101.567V106.232H28.3952C29.9977 106.213 30.7208 104.905 30.7403 103.89C30.7403 102.894 30.0173 101.567 28.3952 101.567H26.9687ZM26.9687 108.419V113.436H24.5454V99.3806H28.7861C31.5416 99.3806 33.3004 101.665 33.3004 103.909C33.2808 106.213 31.4438 108.419 28.7861 108.419H26.9687Z" fill="white"/>
<path fill-rule="evenodd" clip-rule="evenodd" d="M41.2537 101.567H37.1303V113.436H34.707V99.3806H43.6769V113.436H41.2537V101.567Z" fill="white"/>
<path fill-rule="evenodd" clip-rule="evenodd" d="M47.9179 109.005C47.9179 110.312 48.9927 111.406 50.3216 111.406C51.67 111.406 52.7644 110.312 52.7644 109.005V103.831C52.7644 102.504 51.67 101.411 50.3216 101.411C48.9927 101.411 47.9179 102.504 47.9179 103.831V109.005ZM45.4946 103.734C45.4946 101.079 47.6638 99.1074 50.3216 99.1074C53.0184 99.1074 55.1876 101.079 55.1876 103.734V109.083C55.1876 111.737 53.0184 113.709 50.3216 113.709C47.6638 113.709 45.4946 111.737 45.4946 109.083V103.734Z" fill="white"/>
<path fill-rule="evenodd" clip-rule="evenodd" d="M59.4281 101.567V106.232H60.8547C62.4572 106.213 63.1802 104.905 63.1998 103.89C63.1998 102.894 62.4767 101.567 60.8547 101.567H59.4281ZM59.4281 108.419V113.436H56.9854V99.3806H61.226C63.9815 99.3806 65.7403 101.665 65.7403 103.909C65.7207 106.213 63.9033 108.419 61.226 108.419H59.4281Z" fill="white"/>
<path fill-rule="evenodd" clip-rule="evenodd" d="M68.4567 107.365H71.5053L69.9615 101.704L68.4567 107.365ZM72.072 109.473H67.8704L66.8151 113.436H64.7241V111.659C65.1736 110.234 67.9291 101.294 68.4958 99.3806H71.4467C71.8961 100.825 74.8861 110.605 75.2183 111.659V113.436H73.1469L72.072 109.473Z" fill="white"/>
<path fill-rule="evenodd" clip-rule="evenodd" d="M83.6995 112.811C84.3834 112.987 85.1065 113.514 85.5169 114.119C85.7514 114.49 86.0054 114.9 86.2986 115.29V116.871H84.4616L83.2891 114.9C82.7614 114.041 82.1947 113.65 81.2176 113.65H80.9635C78.5207 113.65 76.3711 111.874 76.3711 109.317V99.3806H78.7943V109.122C78.7943 110.41 79.791 111.347 80.9635 111.347C82.1556 111.327 83.1327 110.39 83.1327 109.102V99.3806H85.5755V109.317C85.5755 110.859 84.7743 112.069 83.6995 112.811Z" fill="white"/>
<path fill-rule="evenodd" clip-rule="evenodd" d="M94.5068 113.436V111.796C94.3895 111.991 93.686 113.065 93.471 113.377C93.0216 113.572 92.4939 113.689 91.8881 113.689C89.6017 113.689 87.7061 111.913 87.7061 109.571V99.3806H90.1293V109.18C90.1293 110.468 91.1064 111.405 92.2985 111.405C93.471 111.386 94.4677 110.449 94.4677 109.161V99.3806H96.8909V113.436H94.5068Z" fill="white"/>
<path fill-rule="evenodd" clip-rule="evenodd" d="M103.731 101.567C102.206 101.567 101.483 102.816 101.483 103.831V103.87C101.483 105.003 102.46 106.057 103.731 106.057H105.314V101.567H103.731ZM100.115 113.436H98.2002V111.835C98.7278 110.976 99.6854 109.414 100.135 108.673C100.389 108.263 101.073 107.599 101.757 107.423C99.9395 106.935 98.9233 105.256 98.9233 103.656C98.9233 101.372 100.741 99.3806 103.203 99.3806H107.737V113.436H105.314V108.243H104.454C103.457 108.243 102.949 108.555 102.46 109.453L100.115 113.436Z" fill="white"/>
<path fill-rule="evenodd" clip-rule="evenodd" d="M117.195 101.567V106.232H118.622C120.224 106.213 120.947 104.905 120.967 103.89C120.967 102.894 120.244 101.567 118.622 101.567H117.195ZM117.195 108.419V113.436H114.772V99.3806H118.993C121.749 99.3806 123.527 101.665 123.527 103.909C123.507 106.213 121.67 108.419 118.993 108.419H117.195Z" fill="white"/>
<path fill-rule="evenodd" clip-rule="evenodd" d="M126.224 107.365H129.292L127.729 101.704L126.224 107.365ZM129.839 109.473H125.657L124.582 113.436H122.491V111.659C122.941 110.234 125.716 101.294 126.263 99.3806H129.233C129.663 100.825 132.653 110.605 133.005 111.659V113.436H130.914L129.839 109.473Z" fill="white"/>
<path fill-rule="evenodd" clip-rule="evenodd" d="M137.754 103.09C137.812 102.953 138.711 101.743 138.848 101.508C138.496 101.528 137.011 101.567 136.776 101.567H133.708V99.3806H141.349V101.567C140.998 102.153 140.294 103.304 139.493 104.632C141.291 105.295 142.307 106.935 142.307 108.848C142.307 111.523 140.138 113.689 137.46 113.689C135.662 113.689 134.099 112.733 133.259 111.269V109.492H135.135C135.428 110.527 136.346 111.269 137.46 111.269C138.809 111.269 139.884 110.195 139.884 108.848C139.884 107.54 138.809 106.447 137.46 106.447C137.285 106.447 136.972 106.486 136.796 106.545V104.651L137.754 103.09Z" fill="white"/>
<path fill-rule="evenodd" clip-rule="evenodd" d="M146.392 107.404V111.249H148.639C149.733 111.249 150.554 110.39 150.554 109.375C150.554 108.263 149.733 107.404 148.639 107.404H146.392ZM146.392 101.567V105.217H148.365C149.46 105.217 150.202 104.358 150.202 103.402C150.202 102.484 149.46 101.567 148.404 101.567H146.392ZM143.968 113.436V99.3806H149.03C151.336 99.3806 152.743 101.352 152.743 103.129C152.743 104.456 151.961 105.627 150.808 106.174C152.098 106.564 153.114 108.048 153.114 109.473C153.095 111.542 151.531 113.436 149.147 113.436H143.968Z" fill="white"/>
<path fill-rule="evenodd" clip-rule="evenodd" d="M161.634 113.436V111.796C161.517 111.991 160.813 113.065 160.618 113.377C160.149 113.572 159.621 113.689 159.016 113.689C156.729 113.689 154.833 111.913 154.833 109.571V99.3806H157.257V109.18C157.257 110.468 158.234 111.405 159.426 111.405C160.618 111.386 161.595 110.449 161.595 109.161V99.3806H164.018V113.436H161.634Z" fill="white"/>
<path fill-rule="evenodd" clip-rule="evenodd" d="M170.975 113.436H168.533V101.567H165.328V99.3806H174.18V101.567H170.975V113.436Z" fill="white"/>
<path fill-rule="evenodd" clip-rule="evenodd" d="M182.193 113.436V111.796C182.076 111.991 181.372 113.065 181.177 113.377C180.708 113.572 180.18 113.689 179.594 113.689C177.288 113.689 175.392 111.913 175.392 109.571V99.3806H177.815V109.18C177.815 110.468 178.792 111.405 179.985 111.405C181.177 111.386 182.154 110.449 182.154 109.161V99.3806H184.577V113.436H182.193Z" fill="white"/>
<path fill-rule="evenodd" clip-rule="evenodd" d="M191.417 101.567C189.912 101.567 189.189 102.816 189.189 103.831V103.87C189.189 105.003 190.146 106.057 191.417 106.057H193V101.567H191.417ZM187.801 113.436H185.886V111.835C186.414 110.976 187.371 109.414 187.821 108.673C188.075 108.263 188.759 107.599 189.443 107.423C187.645 106.935 186.609 105.256 186.609 103.656C186.609 101.372 188.446 99.3806 190.889 99.3806H195.423V113.436H193V108.243H192.14C191.143 108.243 190.655 108.555 190.146 109.453L187.801 113.436Z" fill="white"/>
<path fill-rule="evenodd" clip-rule="evenodd" d="M32.1665 128.233V123.45L29.2546 128.233H27.9453V120.776H29.3914V125.539L32.3032 120.776H33.6126V128.233H32.1665Z" fill="white"/>
<path fill-rule="evenodd" clip-rule="evenodd" d="M40.257 124.114C40.5892 124.114 40.8432 124.016 41.0387 123.84C41.2341 123.665 41.3318 123.411 41.3318 123.099C41.3318 122.786 41.2341 122.533 41.0387 122.357C40.8432 122.162 40.5892 122.084 40.257 122.084H38.889V124.114H40.257ZM40.3156 120.776C40.6869 120.776 40.9996 120.834 41.3122 120.951C41.6054 121.068 41.879 121.225 42.0939 121.439C42.3089 121.635 42.4848 121.888 42.602 122.162C42.7193 122.454 42.7779 122.767 42.7779 123.099C42.7779 123.45 42.7193 123.762 42.602 124.036C42.4652 124.309 42.3089 124.563 42.0939 124.777C41.879 124.973 41.6054 125.129 41.3122 125.246C41.0191 125.363 40.6869 125.422 40.3156 125.422H38.889V128.233H37.4429V120.776H40.3156Z" fill="white"/>
<path fill-rule="evenodd" clip-rule="evenodd" d="M46.1392 128.233V120.776H47.5658V124.309L49.989 120.776H51.7283L49.2269 124.27L51.9628 128.233H50.1844L47.5658 124.328V128.233H46.1392Z" fill="white"/>
<path fill-rule="evenodd" clip-rule="evenodd" d="M57.4345 126.964C57.3759 127.139 57.2782 127.296 57.1805 127.452C57.0828 127.608 56.9655 127.745 56.8287 127.862C56.6919 127.979 56.5356 128.057 56.3597 128.135C56.1838 128.194 55.9884 128.233 55.7734 128.233H54.8745V126.925H55.4607C55.6757 126.925 55.832 126.886 55.9493 126.808C56.0861 126.729 56.1643 126.612 56.2424 126.456L56.4574 125.949L54.0732 120.776H55.5975L57.1609 124.367L58.568 120.776H60.0727L57.4345 126.964Z" fill="white"/>
<path fill-rule="evenodd" clip-rule="evenodd" d="M65.916 122.084V128.233H64.4698V122.084H62.5352V120.776H67.8702V122.084H65.916Z" fill="white"/>
<path fill-rule="evenodd" clip-rule="evenodd" d="M76.1759 125.929C76.0978 126.32 76.0001 126.671 75.8242 126.964C75.6679 127.257 75.4529 127.491 75.2184 127.706C74.9839 127.901 74.7103 128.037 74.3976 128.135C74.0849 128.233 73.7722 128.291 73.4205 128.291C73.0101 128.291 72.6388 128.213 72.3066 128.076C71.9744 127.94 71.6812 127.745 71.4272 127.471C71.2318 127.276 71.095 127.081 70.9972 126.866C70.88 126.651 70.8214 126.437 70.7823 126.183C70.7432 125.949 70.7041 125.675 70.7041 125.402C70.7041 125.129 70.6846 124.816 70.6846 124.504C70.6846 124.172 70.7041 123.879 70.7041 123.606C70.7041 123.333 70.7432 123.06 70.7823 122.825C70.8214 122.572 70.88 122.337 70.9972 122.142C71.095 121.927 71.2318 121.713 71.4272 121.537C71.6812 121.264 71.9744 121.068 72.3066 120.932C72.6388 120.795 73.0101 120.717 73.4205 120.717C73.7722 120.717 74.1045 120.756 74.3976 120.854C74.7103 120.951 74.9839 121.107 75.2184 121.303C75.4529 121.498 75.6679 121.752 75.8242 122.044C76.0001 122.337 76.0978 122.669 76.1759 123.079H74.6907C74.6126 122.767 74.4758 122.513 74.2803 122.318C74.0849 122.123 73.8113 122.005 73.44 122.005C73.2251 122.005 73.0492 122.044 72.8928 122.123C72.7365 122.181 72.5997 122.279 72.502 122.396C72.4238 122.474 72.3652 122.552 72.3261 122.65C72.2675 122.747 72.2284 122.864 72.2089 123.021C72.1893 123.177 72.1698 123.372 72.1502 123.606C72.1502 123.84 72.1307 124.153 72.1307 124.504C72.1307 124.855 72.1502 125.148 72.1502 125.383C72.1698 125.636 72.1893 125.832 72.2089 125.968C72.2284 126.124 72.2675 126.261 72.3261 126.339C72.3652 126.437 72.4238 126.534 72.502 126.612C72.5997 126.729 72.7365 126.808 72.8928 126.886C73.0492 126.964 73.2251 126.983 73.44 126.983C73.8113 126.983 74.0849 126.886 74.2803 126.69C74.4758 126.476 74.6126 126.241 74.6907 125.929H76.1759Z" fill="white"/>
<path fill-rule="evenodd" clip-rule="evenodd" d="M79.5566 128.233V120.776H81.0028V124.309L83.4065 120.776H85.1457L82.6443 124.27L85.3998 128.233H83.6019L81.0028 124.328V128.233H79.5566Z" fill="white"/>
<path fill-rule="evenodd" clip-rule="evenodd" d="M91.9071 124.367C91.9071 124.055 91.9071 123.801 91.9071 123.587C91.8875 123.372 91.868 123.196 91.8485 123.04C91.8094 122.903 91.7703 122.786 91.7312 122.689C91.6726 122.591 91.614 122.493 91.5553 122.415C91.3208 122.142 91.0081 122.005 90.6173 122.005C90.4219 122.005 90.246 122.044 90.0896 122.103C89.9138 122.181 89.777 122.279 89.6597 122.415C89.5034 122.591 89.3861 122.845 89.3666 123.196C89.3275 123.528 89.308 123.938 89.308 124.406V124.777C89.308 125.168 89.3275 125.519 89.347 125.851C89.3861 126.163 89.4838 126.417 89.6597 126.593C89.9333 126.866 90.246 126.983 90.6173 126.983C91.0081 126.983 91.3208 126.866 91.5553 126.593C91.614 126.515 91.6921 126.417 91.7312 126.32C91.7898 126.222 91.8289 126.085 91.8485 125.91C91.868 125.753 91.8875 125.558 91.9071 125.304C91.9071 125.051 91.9071 124.738 91.9071 124.367ZM93.3532 124.777C93.3532 125.012 93.3532 125.265 93.3532 125.5C93.3337 125.734 93.3141 125.968 93.2555 126.202C93.2164 126.437 93.1383 126.651 93.0405 126.866C92.9428 127.081 92.806 127.276 92.6106 127.471C92.1025 128.018 91.4185 128.291 90.6173 128.291C89.7965 128.291 89.1321 128.018 88.5849 127.471C88.409 127.276 88.2722 127.081 88.1745 126.847C88.0768 126.632 87.9986 126.398 87.9595 126.163C87.9009 125.929 87.8814 125.695 87.8814 125.461C87.8618 125.226 87.8618 125.012 87.8618 124.816V124.192C87.8618 123.821 87.8814 123.509 87.9009 123.235C87.9204 122.981 87.9595 122.728 87.9986 122.532C88.0572 122.318 88.1354 122.142 88.2331 121.986C88.3308 121.83 88.4481 121.674 88.5849 121.537C89.1321 120.99 89.7965 120.717 90.6173 120.717C91.4185 120.717 92.083 120.99 92.6106 121.537C92.8842 121.791 93.0601 122.123 93.1773 122.513C93.2946 122.884 93.3532 123.372 93.3532 123.977V124.777Z" fill="white"/>
<path fill-rule="evenodd" clip-rule="evenodd" d="M101.483 118.882C101.463 119.155 101.405 119.39 101.307 119.585C101.209 119.78 101.092 119.936 100.936 120.053C100.78 120.17 100.604 120.249 100.408 120.307C100.193 120.366 99.9978 120.385 99.7829 120.385C99.5874 120.385 99.3725 120.366 99.177 120.307C98.9816 120.249 98.8057 120.17 98.6494 120.053C98.4931 119.936 98.3563 119.78 98.2586 119.585C98.1608 119.39 98.1022 119.155 98.0827 118.882H99.1184C99.138 119.097 99.1966 119.272 99.3138 119.37C99.4506 119.468 99.607 119.526 99.7829 119.526C99.9783 119.526 100.135 119.468 100.252 119.37C100.369 119.272 100.447 119.097 100.467 118.882H101.483ZM101.151 128.233V123.45L98.2586 128.233H96.9492V120.776H98.3954V125.539L101.307 120.776H102.597V128.233H101.151Z" fill="white"/>
<path fill-rule="evenodd" clip-rule="evenodd" d="M114.752 124.367C114.752 124.055 114.752 123.801 114.752 123.587C114.733 123.372 114.713 123.196 114.694 123.04C114.655 122.903 114.615 122.786 114.576 122.689C114.518 122.591 114.459 122.493 114.401 122.415C114.166 122.142 113.853 122.005 113.462 122.005C113.267 122.005 113.091 122.044 112.935 122.103C112.759 122.181 112.622 122.279 112.505 122.415C112.349 122.591 112.231 122.845 112.212 123.196C112.173 123.528 112.153 123.938 112.153 124.406V124.777C112.153 125.168 112.173 125.519 112.192 125.851C112.231 126.163 112.329 126.417 112.505 126.593C112.779 126.866 113.091 126.983 113.462 126.983C113.853 126.983 114.166 126.866 114.401 126.593C114.459 126.515 114.537 126.417 114.576 126.32C114.635 126.222 114.674 126.085 114.694 125.91C114.713 125.753 114.733 125.558 114.752 125.304C114.752 125.051 114.752 124.738 114.752 124.367ZM116.198 124.777C116.198 125.012 116.198 125.265 116.198 125.5C116.179 125.734 116.14 125.968 116.101 126.202C116.062 126.437 115.983 126.651 115.886 126.866C115.788 127.081 115.651 127.276 115.456 127.471C114.948 128.018 114.264 128.291 113.462 128.291C112.642 128.291 111.977 128.018 111.43 127.471C111.254 127.276 111.117 127.081 111.02 126.847C110.922 126.632 110.844 126.398 110.805 126.163C110.746 125.929 110.727 125.695 110.727 125.461C110.707 125.226 110.707 125.012 110.707 124.816V124.192C110.707 123.821 110.727 123.509 110.746 123.235C110.766 122.981 110.805 122.728 110.863 122.532C110.902 122.318 110.981 122.142 111.078 121.986C111.176 121.83 111.293 121.674 111.43 121.537C111.977 120.99 112.642 120.717 113.462 120.717C114.264 120.717 114.928 120.99 115.456 121.537C115.729 121.791 115.905 122.123 116.023 122.513C116.14 122.884 116.198 123.372 116.198 123.977V124.777Z" fill="white"/>
<path fill-rule="evenodd" clip-rule="evenodd" d="M123.761 125.91C123.761 125.597 123.663 125.344 123.468 125.168C123.292 124.973 123.038 124.875 122.706 124.875H121.24V126.925H122.706C123.038 126.925 123.292 126.827 123.468 126.651C123.663 126.476 123.761 126.222 123.761 125.91ZM125.188 125.91C125.188 126.241 125.149 126.554 125.031 126.847C124.914 127.12 124.758 127.374 124.562 127.569C124.347 127.784 124.093 127.94 123.8 128.057C123.487 128.174 123.155 128.233 122.784 128.233H119.794V120.776H124.719V122.084H121.24V123.587H122.764C123.155 123.587 123.487 123.645 123.781 123.762C124.074 123.86 124.328 124.036 124.543 124.231C124.758 124.446 124.914 124.68 125.031 124.973C125.149 125.246 125.188 125.558 125.188 125.91Z" fill="white"/>
<path fill-rule="evenodd" clip-rule="evenodd" d="M132.516 128.233V122.084H130.718V124.25C130.718 125.012 130.66 125.675 130.582 126.183C130.484 126.69 130.347 127.1 130.152 127.413C129.956 127.706 129.702 127.92 129.429 128.037C129.136 128.155 128.803 128.233 128.412 128.233H127.826V126.925H128.041C128.237 126.925 128.412 126.886 128.549 126.827C128.706 126.749 128.842 126.612 128.96 126.417C129.077 126.222 129.175 125.929 129.233 125.578C129.292 125.207 129.331 124.738 129.331 124.153V120.776H133.962V128.233H132.516Z" fill="white"/>
<path fill-rule="evenodd" clip-rule="evenodd" d="M140.313 122.981L139.356 125.675H141.212L140.313 122.981ZM142.053 128.233L141.603 126.905H138.945L138.496 128.233H136.991L139.708 120.776H140.841L143.557 128.233H142.053Z" fill="white"/>
<path fill-rule="evenodd" clip-rule="evenodd" d="M151.687 125.929C151.629 126.32 151.511 126.671 151.355 126.964C151.199 127.257 150.984 127.491 150.749 127.706C150.515 127.901 150.241 128.037 149.928 128.135C149.616 128.233 149.303 128.291 148.951 128.291C148.541 128.291 148.17 128.213 147.837 128.076C147.505 127.94 147.212 127.745 146.938 127.471C146.763 127.276 146.626 127.081 146.508 126.866C146.411 126.651 146.352 126.437 146.313 126.183C146.254 125.949 146.235 125.675 146.235 125.402C146.215 125.129 146.215 124.816 146.215 124.504C146.215 124.172 146.215 123.879 146.235 123.606C146.235 123.333 146.254 123.06 146.313 122.825C146.352 122.572 146.411 122.337 146.508 122.142C146.626 121.927 146.763 121.713 146.938 121.537C147.212 121.264 147.505 121.068 147.837 120.932C148.17 120.795 148.541 120.717 148.951 120.717C149.303 120.717 149.635 120.756 149.928 120.854C150.241 120.951 150.515 121.107 150.749 121.303C150.984 121.498 151.199 121.752 151.355 122.044C151.511 122.337 151.629 122.669 151.687 123.079H150.221C150.143 122.767 150.007 122.513 149.811 122.318C149.616 122.123 149.342 122.005 148.971 122.005C148.756 122.005 148.58 122.044 148.424 122.123C148.267 122.181 148.13 122.279 148.033 122.396C147.955 122.474 147.896 122.552 147.857 122.65C147.798 122.747 147.759 122.864 147.74 123.021C147.72 123.177 147.701 123.372 147.681 123.606C147.661 123.84 147.661 124.153 147.661 124.504C147.661 124.855 147.661 125.148 147.681 125.383C147.701 125.636 147.72 125.832 147.74 125.968C147.759 126.124 147.798 126.261 147.857 126.339C147.896 126.437 147.955 126.534 148.033 126.612C148.13 126.729 148.267 126.808 148.424 126.886C148.58 126.964 148.756 126.983 148.971 126.983C149.342 126.983 149.616 126.886 149.811 126.69C150.007 126.476 150.143 126.241 150.221 125.929H151.687Z" fill="white"/>
<path fill-rule="evenodd" clip-rule="evenodd" d="M157.784 122.084V128.233H156.338V122.084H154.403V120.776H159.738V122.084H157.784Z" fill="white"/>
<path fill-rule="evenodd" clip-rule="evenodd" d="M167.243 128.233V123.45L164.331 128.233H163.021V120.776H164.468V125.539L167.379 120.776H168.669V128.233H167.243Z" fill="white"/>
<path fill-rule="evenodd" clip-rule="evenodd" d="M0 92.8412L99.3725 84.8767L198.725 92.8412H0Z" fill="white"/>
<path fill-rule="evenodd" clip-rule="evenodd" d="M102.363 36.1331H87.9209V50.3638H98.9623V40.6033H102.363V36.1331Z" fill="white"/>
<path fill-rule="evenodd" clip-rule="evenodd" d="M87.9209 73.6912H98.9623V51.2812H87.9209V73.6912Z" fill="white"/>
<path fill-rule="evenodd" clip-rule="evenodd" d="M118.094 73.1643H129.585V51.0862H118.094V73.1643Z" fill="white"/>
<path fill-rule="evenodd" clip-rule="evenodd" d="M98.9623 84.1545V74.4526H87.9209V85.0329L98.9623 84.1545Z" fill="white"/>
<path fill-rule="evenodd" clip-rule="evenodd" d="M129.585 86.536V73.9255H118.094V85.6186L129.585 86.536Z" fill="white"/>
<path fill-rule="evenodd" clip-rule="evenodd" d="M117.175 85.5404V15.9485H107.268V40.6033H110.687V85.0133L117.175 85.5404Z" fill="white"/>
<path fill-rule="evenodd" clip-rule="evenodd" d="M109.769 84.9547V41.5208H99.8613V84.1543L109.769 84.9547Z" fill="white"/>
<path fill-rule="evenodd" clip-rule="evenodd" d="M77.8761 85.8332V63.3062H66.3853V86.7507L77.8761 85.8332Z" fill="white"/>
<path fill-rule="evenodd" clip-rule="evenodd" d="M78.7944 0V85.7552L87.0022 85.111V35.2156H88.7024V0H78.7944Z" fill="white"/>
</svg>
