<svg width="1180" height="768" viewBox="0 0 1180 768" fill="none" xmlns="http://www.w3.org/2000/svg">
<path opacity="0.1" fill-rule="evenodd" clip-rule="evenodd" d="M726.47 -509.675C721.994 -508.641 712.461 -504.157 707.298 -500.657C705.959 -499.749 706.004 -499.684 708.807 -498.477C719.697 -493.784 724.062 -490.323 725.884 -484.936C727.706 -479.547 723.835 -476.521 713.578 -475.317C697.676 -473.45 694.663 -471.42 691.584 -460.496C689.478 -453.027 687.743 -451.185 682.543 -450.899C679.183 -450.715 677.62 -452.131 676.793 -456.111C675.729 -461.23 670.783 -457.78 670.277 -451.566C670.081 -449.166 669.955 -449.105 665.139 -449.067C658.156 -449.011 655.412 -451.391 656.902 -456.213C657.489 -458.115 657.423 -458.619 656.273 -461.01C653.804 -466.142 650.984 -466.103 647.114 -460.883C644.291 -457.075 643.774 -450.956 646.062 -448.424C647.504 -446.828 646.523 -444.011 641.76 -436.061C636.6 -427.45 636.213 -423.315 638.896 -405.474C638.985 -404.884 639.066 -401.93 639.076 -398.91L639.095 -393.42L639.752 -392.172C640.466 -390.819 640.872 -390.541 643.304 -389.742C645.721 -388.949 646.376 -387.886 646.376 -384.758C646.376 -379.498 645.012 -378.331 638.486 -378.009C628.143 -377.498 625.255 -371.658 632.066 -365.027C636.443 -360.766 636.888 -358.069 633.583 -355.828C632.235 -354.914 631.943 -354.572 631.214 -353.057C630.232 -351.016 628.931 -349.755 626.329 -348.324C623.432 -346.729 623.15 -344.472 625.122 -338.635C626.3 -335.149 626.311 -335.087 626.552 -330.733C626.877 -324.864 626.982 -324.058 627.534 -323.15C628.304 -321.884 630.369 -321.097 634.438 -320.519C641.768 -319.477 643.083 -318.154 649.641 -305.219C659.517 -285.741 660.065 -279.356 653.241 -263.327C649.077 -253.547 648.562 -250.474 649.335 -239.99C650.631 -222.409 649.277 -219.047 636.469 -208.035C623.256 -196.676 620.444 -190.694 623.075 -179.542C625.467 -169.403 623.976 -165.669 617.804 -166.343C609.938 -167.202 604.964 -162.968 594.452 -146.469C588.707 -137.451 587.647 -136.456 583.779 -136.455C578.679 -136.454 574.912 -135.544 570.622 -133.278C562.506 -128.992 561.324 -125.239 566.601 -120.517C573.499 -114.342 574.686 -111.676 572.571 -107.095C571.415 -104.593 565.647 -98.9368 562.949 -97.6604C560.033 -96.2812 557.245 -92.6441 553.879 -85.8291C550.561 -79.1103 550.166 -76.9297 551.483 -72.6028C553.381 -66.3676 553.529 -65.1089 552.907 -60.4788C552.358 -56.3963 552.527 -55.4214 554.331 -52.2648C556.195 -49.0022 556.346 -46.9322 555.067 -42.165C554.733 -40.9195 554.068 -38.4503 553.589 -36.6779C550.867 -26.6008 554.588 -15.9774 564.364 -5.92053C573.129 3.09601 579.951 6.26929 593.453 7.61011C611.752 9.42706 613.236 10.5416 614.253 23.2366C614.708 28.9235 614.965 30.0972 617.234 36.8427C619.152 42.5465 619.877 45.7174 619.877 48.4021C619.877 49.1996 620.046 52.1337 620.253 54.9225C621.023 65.2772 620.573 66.084 614.028 66.0836C606.596 66.0829 604.228 65.3095 604.641 63.017C604.972 61.1813 604.73 60.9252 602.635 60.8935C599.786 60.8503 598.644 62.1667 598.001 66.2369C596.84 73.5844 596.214 74.718 591.376 78.2436C584.941 82.9322 584.066 85.9026 586.132 96.0375C588.421 107.269 591.515 110.05 601.156 109.542C604.626 109.359 605.315 109.537 605.315 110.618C605.315 114.428 607.874 122.057 613.078 133.756C618.252 145.389 618.973 147.596 618.963 151.778C618.946 159.867 614.384 165.526 600.062 175.225C589.915 182.098 588.24 186.097 590.77 197.414C591.163 199.17 591.548 201.436 591.626 202.45C592.416 212.754 576.573 223.875 567.21 219.588C563.083 217.699 562.025 215.009 562.793 208.351C563.419 202.92 562.117 201.281 556.614 200.572C551.642 199.932 543.384 201.184 539.961 203.097C538.126 204.122 538.086 203.473 539.547 196.39C540.267 192.9 540.379 191.904 540.379 188.985C540.38 185.053 540.608 185.416 537.391 184.235C532.708 182.518 530.798 181.971 526.162 181.023C514.6 178.657 510.353 175.619 504.566 165.574C501.624 160.469 497.349 148.884 496.479 143.662C496.046 141.062 495.877 140.802 493.675 139.337C489.116 136.304 486.208 135.342 481.533 135.321L478.43 135.308L478.303 139.485C478.135 144.998 477.957 145.382 474.828 146.958C471.763 148.502 471.106 148.612 463.748 148.809C452.479 149.11 451.132 149.948 449.573 157.627C447.666 167.023 448.379 174.163 451.932 181.261C460.142 197.656 458.339 209.417 445.899 220.635C443.258 223.017 440.972 225.576 436.297 231.386C426.131 244.019 421.508 246.704 409.795 246.773C402.728 246.815 402.412 246.862 400.099 248.218C396.993 250.038 395.724 252.942 394.18 261.767C392.727 270.075 391.804 271.092 381.768 275.46C370.707 280.274 368.972 282.903 370.175 293.023C371.708 305.908 369.739 307.875 354.449 308.735C351.867 308.88 349.54 309.04 349.277 309.09C348.773 309.187 348.56 327.012 349.022 330.448C349.677 335.324 351.473 338.396 354.749 340.245C356.444 341.201 356.286 340.788 356.686 345.301C357.634 355.991 356.445 359.993 351.803 361.737C347.476 363.362 344.488 362.493 338.346 357.822C334.202 354.671 332.245 353.762 329.129 353.54C328.132 353.469 328.058 353.324 327.562 350.499C325.883 340.911 319.408 330.054 311.751 323.985C309.568 322.255 309.537 322.217 309.533 321.172C309.53 320.545 309.267 320.083 308.327 319.054C305.746 316.231 305.167 314.007 304.768 305.384C304.279 294.836 303.264 294.068 289.834 294.07C281.966 294.072 276.296 294.619 272.515 295.742C269.516 296.632 268.033 299.939 267.049 307.925C266.793 310.006 266.407 313.155 266.192 314.922C264.68 327.346 261.497 330.206 252.234 327.461C250.593 326.975 247.8 326.144 246.027 325.616C240.273 323.899 233.217 324.791 230.09 327.629C228.103 329.432 227.485 329.426 223.932 327.567C219.354 325.171 219.026 325.13 204.018 325.05C190.307 324.978 189.394 324.913 182.883 323.533C176.866 322.258 175.445 322.049 172.541 322.009L169.992 321.974L168.995 324.976C168.447 326.627 167.28 331.187 166.403 335.11C163.897 346.317 162.647 349.735 158.852 355.75C153.02 364.994 145.772 378.66 141.127 389.169C133.754 405.851 133.891 409.218 142.196 415.372C147.047 418.967 147.471 421.049 144.934 428.793C142.922 434.932 142.932 436.668 145.056 449.083C147.021 460.576 150.314 467.013 154.594 467.73C158.936 468.457 158.611 468.317 160.565 470.297C164.409 474.192 165.208 477.915 164.438 488.35L164.262 490.737L163.044 490.808C162.373 490.847 159.644 490.605 156.978 490.271C142.841 488.497 141.028 489.812 137.406 504.462C135.242 513.212 131.1 521.476 127.77 523.687C125.126 525.442 123.912 525.512 120.814 524.086C111.988 520.024 98.349 529.649 94.3209 542.781C91.2903 552.662 91.3246 552.577 87.8401 558.82C82.209 568.909 82.1789 574.385 87.6243 598.034C92.0341 617.186 91.9229 618.472 85.8052 619.038C76.862 619.866 73.6744 623.408 73.6651 632.527C73.6606 636.777 73.1979 639.468 71.6577 644.199C70.1945 648.693 69.7237 651.171 69.956 653.155C70.1804 655.07 70.2594 655.245 71.1499 655.795C73.9397 657.519 75.6652 663.7 75.6833 672.032C75.6974 678.631 75.373 679.583 70.554 687.07C67.742 691.439 66.6599 693.483 65.8138 696.022C65.1382 698.049 64.8701 699.328 63.9909 704.716C62.8135 711.931 58.0568 713.717 46.0914 711.437C33.8363 709.102 30.9804 710.138 25.0926 719.057C21.1359 725.05 19.2325 726.333 12.1592 727.774C0.908591 730.066 -3.09681 738.687 2.52479 748.511C5.19378 753.176 9.36342 757.65 17.9675 765.083C32.4581 777.6 35.0535 781.468 37.7507 794.571C39.6286 803.693 40.1762 804.885 46.1898 812.94C53.7656 823.087 57.9281 826.196 62.2057 824.903C62.9278 824.685 64.0078 824.483 64.6058 824.455C65.5185 824.413 65.9735 824.191 67.44 823.074C71.2139 820.199 77.6763 819.327 85.5746 820.627C88.3744 821.087 87.9533 820.717 89.7944 824.338C92.5023 829.662 93.7998 830.665 100.55 832.653C109.514 835.292 110.436 836.054 113.957 843.727C120.794 858.63 129.605 865.682 141.464 865.743C151.04 865.792 152.787 866.944 158.656 877.078C162.726 884.106 164.45 885.669 173.095 890.164C182.601 895.107 185.793 897.946 187.152 902.664C187.771 904.815 189.302 905.552 194.462 906.186C197.637 906.576 198.726 906.302 203.295 903.961C214.217 898.366 221.279 897.26 227.152 900.224C232.81 903.08 237.216 911.601 237.647 920.522L237.791 923.506L239.844 923.486C245.805 923.427 249.681 918.866 252.128 909.032C254.466 899.634 255.354 899.115 264.29 901.927C270.559 903.899 272.853 903.677 279.247 900.476C287.685 896.252 289.071 893.653 287.075 885.791C284.588 875.991 288.596 870.772 294.68 875.891C300.309 880.627 305.324 879.83 309.802 873.487C311.548 871.013 311.515 871.023 314.111 872.156C321.998 875.6 324.087 880.182 324.09 894.044C324.094 912.542 326.779 916.936 345.816 929.595C352.395 933.97 354.849 935.798 363.659 942.882C378.972 955.197 382.397 957.408 395.918 963.704C406.232 968.507 408.381 970.146 414.745 978.065C419.45 983.919 420.18 984.518 426.024 987.321C433.419 990.867 434.39 991.955 436.433 998.986C437.949 1004.2 437.971 1004.23 440.52 1003.47C442.771 1002.8 444.72 1000.19 445.05 997.405C445.48 993.776 456.451 995.421 462.014 999.948C463.475 1001.14 463.607 1001.16 464.977 1000.37C473.753 995.311 480.281 1000.32 491.085 1020.42C499.735 1036.51 500.778 1037.61 511.398 1041.81C517.725 1044.32 520.378 1045.62 522.366 1047.22C527.177 1051.07 528.107 1057.94 524.181 1060.62C519.346 1063.92 519.791 1067.39 525.803 1073.28C530.664 1078.04 531.178 1079 533.339 1087.4C536.362 1099.14 538.613 1100.29 554.226 1098.1C565.59 1096.51 570.982 1097.59 577.335 1102.72C582.074 1106.55 584.401 1111.57 584.384 1117.93L584.376 1121.15L582.98 1125.33C580.804 1131.84 581.076 1134.09 584.235 1135.69C587.25 1137.21 594.394 1133.13 602.826 1125.07C612.7 1115.63 620.324 1112.41 634.201 1111.8C638.132 1111.63 637.915 1111.8 638.097 1108.68C638.467 1102.35 639.568 1099.5 644.419 1092.29L646.973 1088.49L649.002 1087.3C650.118 1086.64 652.535 1084.98 654.373 1083.6C656.212 1082.22 658.521 1080.71 659.506 1080.23L661.297 1079.38L667.229 1079.45C678.111 1079.58 682.276 1076.94 683.737 1069C684.661 1063.97 685.215 1062.7 687.628 1060.1C690.199 1057.33 693.194 1055.91 700.905 1053.8C707.934 1051.88 710.674 1051 715.727 1049.07C720.969 1047.06 727.546 1044.88 733.512 1043.18L737.69 1041.99L744.971 1041.78C753.912 1041.52 755.734 1041.12 758.879 1038.73C761.945 1036.41 763.434 1033.45 764.887 1026.81C765.526 1023.89 766.55 1021.48 768.713 1017.8C774.549 1007.89 774.891 1001.88 769.977 995.589C767.194 992.026 767.184 991.363 769.859 987.393C773.899 981.396 773.885 977.205 769.808 971.842C767.197 968.408 767.233 967.888 770.318 964.502C771.681 963.006 773.554 960 775.552 956.103C778.105 951.123 780.295 949.169 784.386 948.227C788.581 947.26 794.953 948.848 798.363 951.711C803.823 956.294 809.649 955.922 812.034 950.839C812.713 949.393 812.759 948.266 812.517 939.141C812.345 932.681 813.278 931.615 821.603 928.759C829.386 926.088 831.565 924.59 836.886 918.249C841.085 913.247 842.621 912.24 848.031 910.945C863.183 907.321 870.356 901.505 874.098 889.812C876.225 883.167 876.551 882.749 882.874 878.539C890.028 873.776 891.936 869.044 890.214 860.339C888.925 853.821 890.47 849.168 895.507 844.401C899.677 840.453 901.878 839.332 907.708 838.18C922.726 835.215 931.653 820.641 928.088 804.906C925.404 793.061 912.342 789.093 900.133 796.414C894.119 800.02 894.472 797.773 901.391 788.4C910.519 776.034 914.809 774.21 918.524 781.113C921.156 786.003 923.981 787.649 929.747 787.649C941.239 787.651 945.078 781.958 942.723 768.406C940.819 757.449 942.075 753.986 949.589 749.484C963.134 741.367 965.803 734.979 964.959 712.701C964.365 697.013 964.082 695.767 956.896 677.164C951.633 663.539 951.111 660.645 951.121 645.178C951.127 635.46 951.183 633.935 951.705 629.185C952.168 624.962 952.283 622.647 952.291 617.369C952.306 608.321 952.477 608.909 947.254 600.112C940.1 588.065 938.311 582.576 938.641 573.686C938.83 568.595 939.396 567.389 944.506 561.192C955.027 548.43 953.683 539.196 939.457 526.506C934.07 521.701 932.4 520.691 924.588 517.516C914.717 513.505 915.067 514.029 915.147 503.388C915.229 492.508 914.918 491.045 911.866 487.933C910.868 486.916 909.827 485.795 909.551 485.441L909.049 484.798L908.385 485.321C907.896 485.705 907.394 485.843 906.489 485.843C904.777 485.843 902.748 486.412 900.494 487.523C896.797 489.346 890.873 486.731 883.896 480.195C877.65 474.343 877.294 473.76 876.625 468.299C875.949 462.776 873.995 461.929 863.155 462.46C857.156 462.754 857.799 463.385 857.317 456.722C855.188 427.229 856.124 425.19 875.198 417.784C885.291 413.866 886.737 413.323 890.954 411.865C898.683 409.195 902.617 406.966 907.426 402.532C911.176 399.075 913.211 398.478 921.251 398.478C930.581 398.478 932.119 396.758 932.138 386.304C932.157 375.905 932.895 373.375 937.148 369.113C943.162 363.087 950.79 362.36 959.189 367.012C964.537 369.975 965.152 370.146 972.353 370.661C974.983 370.849 978.561 371.275 980.305 371.607C997.874 374.955 1012.01 373.665 1017.48 368.216C1020.27 365.434 1021.21 363.237 1022.74 355.87C1023.31 353.113 1024.32 348.242 1024.98 345.046C1025.64 341.849 1026.36 337.714 1026.58 335.856C1027.07 331.795 1027.02 331.88 1029.04 331.88C1033.14 331.88 1034.91 334.276 1035.23 340.234L1035.39 343.218L1038.25 343.362C1044.94 343.699 1047.55 346.06 1046.6 350.914C1045.9 354.48 1046.88 355.627 1050.47 355.463C1052.52 355.369 1053.18 354.954 1057.45 351.068C1063.66 345.405 1067.87 345.306 1076.22 350.624C1084.95 356.181 1089.73 355.018 1098 345.322C1102.9 339.581 1105.32 337.968 1109.04 337.967C1112.11 337.967 1112.01 337.778 1111.75 342.856C1111.22 353.392 1111.58 354.713 1116.48 359.964C1119.07 362.736 1120.3 364.477 1121.14 366.574C1122.61 370.243 1121.52 369.953 1133.86 369.952L1144.01 369.95L1146.27 369.321C1147.52 368.975 1150.64 367.916 1153.2 366.968C1160.02 364.443 1161.96 364.012 1169.19 363.414C1183.33 362.245 1185.55 362.763 1189.06 368.043C1193.72 375.068 1198.39 374.544 1202.96 366.487C1209.18 355.501 1216.67 349.626 1224.34 349.73C1230.7 349.817 1231.99 349.347 1236.21 345.414C1240.57 341.344 1242.8 340.234 1246.6 340.234C1253.56 340.234 1256.53 329.609 1256.57 304.548C1256.58 295.215 1258.38 291.836 1265.04 288.656C1270.78 285.914 1279.05 283.725 1285.6 283.214C1288.71 282.972 1288.2 283.438 1292.86 276.599C1306.79 256.131 1311.38 254.281 1329.5 261.824C1335.36 264.266 1334.98 264.02 1335.06 265.368C1335.43 271.077 1331.15 275.27 1320.07 280.083C1311.67 283.728 1308.9 286.217 1307.32 291.523C1305.62 297.275 1308.79 299.163 1320.19 299.18C1329.49 299.193 1332.38 300.003 1333.4 302.877C1334.74 306.691 1342.55 305.531 1345.44 301.087C1347.56 297.831 1355.4 296.15 1355.4 298.951C1355.4 300.631 1358.76 304.872 1360.95 305.966C1364.01 307.488 1366.42 306.387 1367.97 302.758C1370.75 296.262 1375.54 295.005 1390.38 296.869C1397.91 297.816 1400.27 297.933 1400.68 297.38C1401.12 296.777 1401.1 291.976 1400.64 288.555C1400.19 285.197 1400.15 285.539 1401.14 284.354C1402.25 283.019 1403.16 281.205 1404.58 277.434C1407.48 269.754 1408.36 269.752 1415.05 277.413C1417.17 279.843 1417.12 279.894 1418.6 274.23C1421.2 264.282 1422.21 258.81 1422.72 251.914C1423.02 247.827 1423.39 246.141 1425.33 240.127C1428.02 231.797 1428.72 226.768 1427.38 225.435C1426.8 224.862 1419.16 224.546 1413.77 224.872L1410.67 225.06L1410.54 227.208C1410.37 230.132 1408.96 232.818 1407.58 232.818C1407.09 232.818 1405.41 230.881 1401.8 226.134C1399.94 223.706 1397.48 220.644 1396.33 219.331C1392.44 214.909 1392.23 214.432 1391.34 208.431C1389.48 195.891 1386.56 192.544 1377.06 192.07C1373.61 191.897 1373.66 191.929 1373.19 189.135C1372.22 183.279 1370.95 180.815 1366.67 176.439C1363.73 173.441 1363.73 173.427 1366.54 172.559C1382.66 167.571 1386.05 160.292 1379.65 144.444C1377.27 138.545 1376.62 136.314 1376.57 133.767L1376.53 131.749L1378.21 131.464C1383.98 130.484 1386.34 125.398 1385.32 116.092L1385.12 114.302L1383.88 113.889C1383.2 113.663 1381.69 113.302 1380.54 113.089C1375.15 112.091 1374.86 111.844 1375.05 108.454C1375.42 101.982 1380.53 93.2977 1385.41 90.8562C1389.73 88.6914 1393.17 88.8754 1402.17 91.7518C1406.71 93.2024 1408.74 93.6445 1410.86 93.65C1412.64 93.6545 1412.34 93.8412 1414.47 91.446C1415.9 89.8431 1418.2 90.64 1420.44 93.5103C1422.62 96.2991 1423.24 96.7794 1427.09 98.6572C1439.32 104.618 1443.53 104.536 1454.87 98.1123C1463.41 93.2745 1466.75 92.6157 1477.92 93.5655C1480.14 93.7535 1480.32 93.5499 1479.67 91.6556C1478.24 87.5423 1476.98 85.0762 1474.1 80.7846C1469.1 73.3101 1468.48 71.6523 1467.83 63.9477C1467.35 58.2336 1464.33 56.5206 1452.65 55.345C1442.65 54.3384 1441.12 50.9565 1443.38 34.8137C1444.56 26.3968 1443.39 23.1308 1438.09 19.9847C1434.21 17.6838 1432.56 15.678 1432.01 12.5864C1430.68 5.12903 1429.59 2.99933 1423.82 -3.4082C1415.51 -12.6443 1414.32 -21.1379 1420.32 -28.3233C1426.43 -35.6346 1423.66 -38.3021 1403.74 -44.3088C1389.88 -48.4885 1390.15 -48.3653 1389.95 -50.6748C1389.41 -57.0598 1381.19 -62.3856 1374 -61.0207C1368.54 -59.9857 1366.19 -56.7207 1364.12 -47.3002C1362.46 -39.7558 1360.91 -36.7166 1357.95 -35.2066C1356.57 -34.4998 1356.46 -34.6442 1356.14 -37.6719C1355.71 -41.7112 1355.92 -41.3398 1353.42 -42.5422C1348.08 -45.1204 1347.62 -44.9574 1342.22 -38.605C1333.97 -28.896 1318.3 -28.6721 1313.84 -38.1994C1312.42 -41.2346 1312.18 -43.3533 1311.96 -54.4613C1311.76 -64.854 1311.6 -66.808 1310.62 -70.4432C1308.82 -77.1307 1308.6 -79.0186 1308.41 -89.312L1308.25 -97.6666L1306.34 -97.6406C1305.29 -97.6263 1302.71 -97.5726 1300.61 -97.5212C1295.06 -97.3857 1294.35 -97.833 1291.64 -103.109C1288.92 -108.391 1285.33 -110.637 1273.64 -114.363C1270.49 -115.367 1264.9 -117.272 1261.22 -118.595C1238.57 -126.75 1228.19 -128.334 1216.78 -125.377C1215.98 -125.169 1215.26 -124.998 1215.19 -124.998C1215.11 -124.998 1214.46 -125.79 1213.73 -126.758C1206.88 -135.863 1190.74 -133.631 1173.22 -121.155L1172.5 -120.641L1172.66 -109.512C1172.83 -97.3795 1172.76 -96.3401 1171.44 -90.4513C1169.51 -81.8468 1168.46 -80.8039 1161.78 -80.8622C1146.52 -80.9956 1141.2 -71.722 1142.79 -47.7344C1144.12 -27.6516 1142.15 -23.4129 1121.68 -2.25046C1109.59 10.2411 1106.24 15.097 1102.24 25.9305C1100.17 31.554 1100.14 31.6793 1100.07 37.2007C1099.99 42.7964 1099.91 42.5379 1102.68 45.0287C1104.95 47.068 1105.46 48.2472 1105.64 51.8464C1106.03 59.9768 1101.85 64.7638 1085.88 74.4404C1074.56 81.2961 1070.47 84.7311 1067.85 89.5787L1067.13 90.9089L1065.94 90.8541C1065.28 90.824 1063.64 90.6208 1062.28 90.4029C1059.39 89.9405 1059.54 89.8513 1059.12 92.335C1058.74 94.6022 1058.96 98.6744 1059.71 103.083C1061.24 112.168 1061.16 112.507 1057.45 112.51C1055.37 112.512 1055.34 112.46 1055.07 108.332C1054.87 105.319 1054.36 99.8632 1053.75 94.4382C1052.86 86.3452 1054.02 79.3564 1057.89 69.6661C1059.4 65.8659 1059.71 64.8516 1059.81 63.3977C1060.26 56.3142 1050.47 53.17 1040.7 57.2596C1037.96 58.4037 1038.11 58.5441 1039 55.5809C1039.71 53.2363 1039.6 47.9092 1038.78 44.9102C1035.99 34.7032 1028.87 32.6165 1024.4 40.6937L1023.69 41.9748L1023.65 46.6295C1023.59 52.9246 1023.35 53.5953 1019.68 57.7292C1016.97 60.783 1015.94 63.3034 1015.93 66.9036C1015.92 71.5804 1014.07 73.1454 1006.16 75.15C1004.8 75.494 1002.61 76.1471 1001.29 76.6013C997.488 77.9094 996.557 77.9865 991.645 77.3998C984.021 76.4894 981.967 76.8298 976.938 79.8362C970.501 83.6846 970.14 83.7662 959.936 83.6758C947.091 83.5621 946.121 83.9307 939.526 91.4372C929.879 102.417 928.607 105.647 931.523 111.764C933.035 114.937 933.013 114.801 932.37 116.884C931.418 119.965 929.012 122.404 922.752 126.632C919.031 129.144 916.923 130.749 915.855 131.881C915.233 132.54 915.136 132.563 912.871 132.564C911.583 132.565 908.435 132.778 905.875 133.037C895.206 134.117 891.469 133.291 883.816 128.161C876.885 123.515 874.756 120.777 873.54 114.949C871.817 106.693 866.65 100.813 859.247 98.6864C855.195 97.522 854.077 96.7424 852.786 94.1823C851.518 91.6663 851.693 90.9529 854.211 88.3651C858.371 84.0906 859.28 79.7537 857.755 71.4573C856.394 64.0544 857.027 60.9959 860.651 57.4745C864.973 53.2743 865.293 51.5341 862.994 44.7452L861.653 40.7839L861.777 37.4409C861.913 33.7749 862.287 31.9705 864.251 25.5098C867.668 14.2742 867.587 10.9689 863.596 -1.31671C860.318 -11.4064 860.352 -15.9504 863.761 -23.7379C867.382 -32.0077 867.558 -32.7112 868.043 -40.84C868.523 -48.8986 868.893 -50.7739 871.726 -59.4813C874.189 -67.0539 874.455 -68.4188 874.47 -73.5485L874.482 -77.8364L875.317 -78.0507C883.15 -80.0601 884.122 -82.3679 881.29 -92.2216C879.003 -100.176 879.155 -101.678 882.812 -107.314C886 -112.226 886.443 -113.624 887.954 -123.566C888.482 -127.045 889.132 -131.113 889.397 -132.606C891.355 -143.622 887.014 -147.668 879.256 -142.059C876.745 -140.244 876.556 -140.179 874.233 -140.328C871.659 -140.493 870.505 -141.159 868.925 -143.39C863.893 -150.497 861.337 -151.726 851.206 -151.911C844.358 -152.037 844.759 -151.871 844.763 -154.567C844.767 -157.429 845.152 -158.66 847.495 -163.31C852.349 -172.942 850.875 -180.171 840.219 -198.996C838.621 -201.819 836.775 -205.197 836.117 -206.503C835.459 -207.809 833.754 -210.747 832.328 -213.032C826.399 -222.535 826.481 -227.356 832.704 -234.969C837.525 -240.866 838.398 -242.026 839.587 -244.111C844.861 -253.354 847.452 -265.827 846.672 -278.206C846.02 -288.553 844.428 -293.909 841.177 -296.692C838.105 -299.321 834.399 -299.228 824.468 -296.275C814.173 -293.214 809.711 -293.977 805.991 -299.433C801.705 -305.72 802.564 -311.653 810.397 -329.848C814.697 -339.834 816.585 -346.068 816.303 -349.344L816.232 -350.176L814.032 -350.714C805.066 -352.907 801.496 -359.341 797.948 -379.695C795.255 -395.144 794.648 -396.597 788.073 -403.326C783.784 -407.715 783.344 -408.383 781.654 -413.061C776.642 -426.937 765.685 -429.511 739.242 -423.025C729.415 -420.615 727.371 -420.194 726.09 -420.316L725.276 -420.393L725.201 -422.184C725.097 -424.67 725.46 -426.948 726.952 -433.164C728.215 -438.426 728.678 -441.155 728.797 -444.025L728.857 -445.457L729.931 -445.612C730.522 -445.697 732.885 -445.65 735.183 -445.508C737.481 -445.366 740.163 -445.243 741.143 -445.234L742.926 -445.219L743.309 -446.676C743.858 -448.765 744.678 -450.019 747.37 -452.881C751.831 -457.625 753.256 -461.873 752.246 -467.418C751.834 -469.682 750.902 -475.245 750.346 -478.756C748.815 -488.433 745.45 -491.986 736.855 -493.004C735.24 -493.195 735.239 -493.199 735.06 -497.26C734.583 -508.123 732.538 -511.077 726.47 -509.675ZM908.034 505.317C908.246 517.781 909.273 519.126 922.705 524.52C928.958 527.031 930.982 528.327 935.926 532.984C945.277 541.794 946.466 547.435 940.506 554.727C932.342 564.716 931.545 566.52 931.561 574.999C931.58 585.278 933.26 590.601 940.161 602.239C942.077 605.472 943.983 608.828 944.395 609.699L945.146 611.282L945.125 617.608C945.111 621.852 944.97 625.151 944.695 627.633C944.003 633.889 943.851 637.006 943.841 645.07C943.823 661.39 944.716 665.909 951.294 682.774C956.607 696.395 957.283 699.262 957.703 709.964C958.598 732.759 957.251 736.514 945.717 743.393C935.809 749.301 933.298 755.651 935.55 769.103C937.091 778.309 936.834 779.157 932.175 780.281C928.227 781.233 926.294 780.434 924.531 777.121C919.44 767.552 909.377 767.618 901.015 777.275C893.269 786.221 888.369 794.494 888.774 797.943C889.629 805.219 895.908 807.406 903.235 802.98C906.738 800.864 909.904 799.977 913.956 799.977C922.776 799.977 924.732 816.695 916.869 824.878C912.746 829.169 910.907 830.213 905.633 831.255C898.864 832.593 895.045 834.658 890.063 839.676C883.653 846.131 881.424 853.041 883.097 861.268C884.451 867.922 883.874 869.289 878.114 873.085C871.426 877.494 869.562 879.995 867.313 887.581C865.213 894.664 863.096 897 855.247 900.892C852.365 902.321 850.417 902.966 845.715 904.049C839.75 905.424 836.492 907.579 831.689 913.329C827.293 918.591 826.059 919.444 819.455 921.783C808.126 925.794 805.151 929.402 805.337 938.902C805.518 948.144 805.55 947.367 804.98 947.449C804.635 947.498 803.945 947.055 802.832 946.067C797.176 941.052 786.53 939.32 779.456 942.264C774.554 944.305 772.576 946.415 768.747 953.684C767.511 956.03 766.133 958.267 765.316 959.254C762.571 962.569 762.319 962.919 761.591 964.443C759.867 968.055 760.535 971.474 763.82 975.852C766.31 979.171 766.3 979.694 763.675 983.781C759.67 990.016 759.632 993.771 763.523 998.936C767.217 1003.84 767.135 1006.23 763.03 1013.36C759.54 1019.42 758.649 1021.6 757.496 1026.93C756.506 1031.5 755.191 1033.25 752.02 1034.18C751.623 1034.3 748.021 1034.5 744.016 1034.62C736.044 1034.86 735.875 1034.89 729.497 1036.79C723.947 1038.44 719.063 1040.08 713.22 1042.26C707.168 1044.52 705.897 1044.93 699.081 1046.78C684.969 1050.62 678.937 1055.85 677.027 1065.91C675.857 1072.07 675.622 1072.22 666.787 1072.22H660.342L658.447 1072.89C655.789 1073.83 653.928 1074.93 650.058 1077.84C647.9 1079.47 645.665 1080.9 643.816 1081.84L640.937 1083.31L626.766 1085.24L612.596 1087.17L610.686 1086.78C609.636 1086.56 604.962 1085.47 600.301 1084.35C585.308 1080.77 579.902 1079.84 572.131 1079.53L568.431 1079.38L568.463 1075.68C568.589 1060.91 576.312 1054.27 599.704 1048.83C615.739 1045.09 623.536 1042.61 631.054 1038.82C638.815 1034.91 636.981 1028 624.053 1012.42C614.482 1000.89 610.418 992.943 612.072 988.985C614.487 983.205 624.127 991.422 633.765 1007.48C652.227 1038.23 661.115 1038.38 691.46 1008.48C710.18 990.038 713.654 985.094 717.04 972.082C720.95 957.051 723.835 953.595 738.764 946.063C749.075 940.861 753.984 937.174 761.333 929.115C771.998 917.419 776.47 909.425 782.77 890.797C792.143 863.08 795.934 856.852 811.099 844.249C824.611 833.02 827.105 828.851 828.52 815.135C830.067 800.132 832.179 797.028 848.102 786.357C863.821 775.823 866.665 770.226 867.564 748.059C868.178 732.951 868.395 731.986 874.413 717.624C882.883 697.412 885.725 689.574 887.486 681.572C888.301 677.864 888.283 677.761 886.81 677.76C881.224 677.752 878.163 676.338 879.22 674.252C880.296 672.128 881.448 668.407 882.715 662.961C883.402 660.007 884.486 655.948 885.123 653.942C887.737 645.709 887.73 627.98 885.108 616.338C883.72 610.176 883.793 608.965 885.948 602.331C887.927 596.239 887.689 594.59 884.371 591.414C881.305 588.478 880.876 587.438 880.335 581.618C879.905 576.991 879.041 574.353 876.368 569.509C869.654 557.339 869.303 552.292 874.553 543.417C880.699 533.029 880.607 533.292 881.04 524.897C881.659 512.888 882.591 511.569 895.132 504.949C900.899 501.904 903.603 500.328 905.752 498.757C908.036 497.087 907.886 496.656 908.034 505.317ZM845.222 831.314C841.361 833.638 833.814 839.903 818.858 853.199C814.394 857.167 809.729 861.178 808.491 862.11C803.48 865.888 800.924 869.036 798.93 873.885C797.329 877.779 797.357 877.832 800.676 877.198C801.705 877 803.639 876.838 804.973 876.837C818.649 876.823 824.337 873.071 828.554 861.281C829.005 860.022 829.526 858.995 829.819 858.792C830.093 858.601 831.171 857.899 832.215 857.232C833.471 856.429 835.527 854.634 838.302 851.918C840.606 849.662 843.004 847.452 843.63 847.007C844.887 846.114 845.007 845.831 846.431 840.437C847.846 835.079 847.948 830.57 846.656 830.535C846.582 830.533 845.937 830.883 845.222 831.314Z" fill="#40A8E4"/>
</svg>
