<svg width="570" height="634" viewBox="0 0 570 634" fill="none" xmlns="http://www.w3.org/2000/svg">
<path fill-rule="evenodd" clip-rule="evenodd" d="M279.789 0.125125C278.065 0.523421 274.394 2.25057 272.405 3.59882C271.89 3.94847 271.907 3.97339 272.986 4.43853C277.181 6.24594 278.862 7.57893 279.563 9.65417C280.265 11.7298 278.774 12.8952 274.824 13.3591C268.699 14.0783 267.539 14.8602 266.353 19.0679C265.542 21.9446 264.874 22.6542 262.871 22.7642C261.577 22.8353 260.975 22.2897 260.657 20.7569C260.247 18.7852 258.342 20.114 258.147 22.5074C258.072 23.4317 258.023 23.4552 256.168 23.47C253.479 23.4916 252.422 22.5746 252.996 20.7173C253.222 19.985 253.197 19.7906 252.754 18.8699C251.803 16.8932 250.717 16.9082 249.226 18.9186C248.139 20.3853 247.94 22.7425 248.821 23.7177C249.376 24.3323 248.999 25.4176 247.164 28.4794C245.177 31.7961 245.028 33.3888 246.061 40.2607C246.096 40.4883 246.127 41.6261 246.131 42.7892L246.138 44.9038L246.391 45.3844C246.666 45.9057 246.822 46.0126 247.759 46.3204C248.69 46.6261 248.942 47.0355 248.942 48.2401C248.942 50.2664 248.417 50.7157 245.903 50.8398C241.92 51.0364 240.808 53.2861 243.431 55.8401C245.116 57.4813 245.288 58.5202 244.015 59.3833C243.496 59.7353 243.383 59.8671 243.103 60.4506C242.724 61.2368 242.223 61.7225 241.221 62.2739C240.105 62.888 239.997 63.7573 240.756 66.0057C241.21 67.3486 241.214 67.3724 241.307 69.0495C241.433 71.3101 241.473 71.6203 241.685 71.97C241.982 72.4579 242.777 72.7611 244.344 72.9836C247.167 73.3848 247.674 73.8945 250.2 78.8767C254.003 86.3792 254.214 88.8385 251.586 95.0127C249.982 98.7798 249.784 99.9632 250.082 104.001C250.581 110.773 250.059 112.068 245.126 116.31C240.038 120.685 238.955 122.989 239.968 127.285C240.889 131.19 240.315 132.628 237.938 132.369C234.909 132.038 232.993 133.668 228.944 140.023C226.732 143.497 226.323 143.88 224.834 143.881C222.869 143.881 221.419 144.232 219.767 145.104C216.641 146.755 216.185 148.201 218.218 150.02C220.875 152.398 221.332 153.425 220.517 155.189C220.072 156.153 217.851 158.332 216.811 158.823C215.688 159.355 214.615 160.756 213.318 163.381C212.04 165.968 211.888 166.808 212.396 168.475C213.127 170.877 213.184 171.361 212.944 173.145C212.733 174.717 212.798 175.093 213.492 176.309C214.21 177.565 214.268 178.363 213.776 180.199C213.647 180.679 213.391 181.63 213.207 182.312C212.158 186.194 213.591 190.286 217.357 194.159C220.732 197.632 223.36 198.855 228.559 199.371C235.607 200.071 236.179 200.5 236.57 205.39C236.746 207.58 236.845 208.033 237.718 210.631C238.457 212.828 238.736 214.049 238.736 215.083C238.736 215.39 238.801 216.521 238.881 217.595C239.178 221.583 239.004 221.894 236.484 221.894C233.621 221.893 232.709 221.596 232.869 220.712C232.996 220.005 232.903 219.907 232.096 219.895C230.998 219.878 230.559 220.385 230.311 221.953C229.864 224.783 229.623 225.219 227.76 226.577C225.281 228.383 224.944 229.527 225.74 233.431C226.622 237.757 227.813 238.828 231.526 238.633C232.863 238.562 233.128 238.631 233.128 239.047C233.128 240.515 234.114 243.453 236.118 247.96C238.111 252.44 238.388 253.29 238.385 254.901C238.378 258.017 236.621 260.197 231.105 263.932C227.197 266.58 226.552 268.12 227.526 272.479C227.678 273.155 227.826 274.028 227.856 274.419C228.16 278.387 222.059 282.671 218.453 281.02C216.863 280.292 216.456 279.256 216.751 276.692C216.992 274.6 216.491 273.968 214.372 273.695C212.457 273.449 209.276 273.931 207.958 274.668C207.251 275.063 207.236 274.813 207.799 272.085C208.076 270.74 208.119 270.357 208.119 269.233C208.119 267.718 208.207 267.858 206.968 267.403C205.165 266.741 204.429 266.531 202.644 266.165C198.19 265.254 196.555 264.084 194.326 260.215C193.193 258.248 191.547 253.787 191.212 251.775C191.045 250.774 190.98 250.673 190.132 250.109C188.376 248.941 187.256 248.57 185.455 248.562L184.26 248.557L184.211 250.166C184.147 252.29 184.078 252.438 182.873 253.045C181.692 253.639 181.439 253.682 178.606 253.757C174.266 253.874 173.747 254.196 173.146 257.154C172.412 260.773 172.686 263.523 174.055 266.257C177.217 272.572 176.523 277.102 171.731 281.423C170.714 282.341 169.834 283.327 168.033 285.564C164.118 290.43 162.338 291.464 157.827 291.491C155.105 291.507 154.983 291.525 154.092 292.048C152.896 292.749 152.407 293.867 151.813 297.266C151.253 300.466 150.897 300.858 147.032 302.541C142.772 304.395 142.104 305.407 142.568 309.305C143.158 314.268 142.399 315.026 136.511 315.357C135.516 315.413 134.62 315.475 134.519 315.494C134.325 315.531 134.243 322.397 134.42 323.72C134.673 325.599 135.365 326.782 136.626 327.494C137.279 327.862 137.218 327.703 137.372 329.442C137.737 333.559 137.279 335.101 135.492 335.772C133.825 336.398 132.674 336.064 130.309 334.264C128.713 333.051 127.959 332.7 126.759 332.615C126.375 332.588 126.346 332.532 126.156 331.444C125.509 327.751 123.015 323.569 120.066 321.231C119.225 320.565 119.214 320.55 119.212 320.148C119.211 319.906 119.11 319.728 118.747 319.332C117.753 318.244 117.531 317.388 117.377 314.066C117.189 310.004 116.798 309.708 111.625 309.709C108.595 309.709 106.411 309.92 104.955 310.352C103.8 310.696 103.229 311.969 102.85 315.045C102.751 315.847 102.603 317.06 102.52 317.74C101.937 322.526 100.712 323.627 97.1442 322.57C96.5121 322.383 95.4364 322.063 94.7537 321.859C92.5376 321.198 89.8202 321.541 88.6157 322.635C87.8505 323.329 87.6126 323.327 86.2441 322.611C84.4809 321.688 84.3547 321.672 78.5747 321.641C73.2938 321.614 72.9423 321.588 70.4348 321.057C68.1172 320.566 67.57 320.485 66.4515 320.47L65.4698 320.456L65.0859 321.613C64.8747 322.249 64.4255 324.005 64.0877 325.516C63.1226 329.833 62.641 331.149 61.1793 333.466C58.9333 337.027 56.1418 342.291 54.3529 346.338C51.5133 352.764 51.5661 354.061 54.7647 356.431C56.6328 357.816 56.7964 358.618 55.819 361.601C55.0442 363.965 55.0483 364.634 55.866 369.416C56.6231 373.843 57.8913 376.322 59.5396 376.598C61.2118 376.878 61.0868 376.824 61.8393 377.587C63.3198 379.087 63.6274 380.521 63.331 384.541L63.2632 385.46L62.7938 385.487C62.5357 385.502 61.4844 385.409 60.4577 385.28C55.0132 384.597 54.3149 385.104 52.9198 390.747C52.0866 394.117 50.4912 397.3 49.2087 398.152C48.1905 398.828 47.7228 398.855 46.5296 398.305C43.1304 396.741 37.8776 400.448 36.3263 405.506C35.1591 409.312 35.1723 409.279 33.8303 411.684C31.6616 415.57 31.65 417.679 33.7472 426.788C35.4456 434.165 35.4027 434.661 33.0466 434.879C29.6022 435.198 28.3746 436.562 28.371 440.074C28.3693 441.711 28.1911 442.748 27.5979 444.57C27.0343 446.301 26.853 447.255 26.9425 448.02C27.0289 448.757 27.0594 448.825 27.4023 449.037C28.4768 449.701 29.1413 452.081 29.1483 455.291C29.1537 457.832 29.0288 458.199 27.1728 461.083C26.0898 462.766 25.673 463.553 25.3472 464.531C25.087 465.312 24.9837 465.804 24.6451 467.88C24.1917 470.659 22.3597 471.347 17.7514 470.468C13.0315 469.569 11.9316 469.968 9.66402 473.403C8.14016 475.712 7.40709 476.206 4.68292 476.761C0.349919 477.644 -1.1927 480.965 0.972372 484.749C2.0003 486.545 3.60617 488.269 6.91989 491.131C12.5007 495.953 13.5003 497.443 14.5391 502.49C15.2623 506.003 15.4733 506.462 17.7893 509.565C20.707 513.473 22.3101 514.671 23.9576 514.173C24.2357 514.089 24.6516 514.011 24.882 514C25.2335 513.984 25.4087 513.899 25.9735 513.468C27.4269 512.361 29.9158 512.025 32.9578 512.526C34.0361 512.703 33.8739 512.561 34.583 513.955C35.6259 516.006 36.1256 516.392 38.7254 517.158C42.1778 518.174 42.5328 518.468 43.8887 521.423C46.522 527.164 49.9155 529.88 54.4826 529.903C58.1708 529.922 58.8437 530.366 61.104 534.269C62.6715 536.977 63.3355 537.578 66.6651 539.31C70.3262 541.214 71.5555 542.307 72.0789 544.125C72.3174 544.953 72.9067 545.237 74.894 545.481C76.1169 545.631 76.5362 545.526 78.2959 544.624C82.5026 542.469 85.2224 542.043 87.4842 543.185C89.6634 544.285 91.3601 547.567 91.5261 551.003L91.5816 552.152L92.3722 552.144C94.6682 552.122 96.161 550.365 97.1033 546.577C98.0039 542.958 98.3459 542.758 101.787 543.841C104.202 544.6 105.085 544.515 107.548 543.282C110.798 541.655 111.331 540.654 110.563 537.625C109.605 533.851 111.148 531.841 113.491 533.812C115.66 535.636 117.591 535.329 119.316 532.886C119.988 531.933 119.975 531.937 120.975 532.374C124.013 533.7 124.817 535.465 124.818 540.804C124.82 547.929 125.854 549.622 133.186 554.498C135.72 556.183 136.665 556.887 140.058 559.616C145.955 564.359 147.275 565.21 152.482 567.636C156.454 569.486 157.282 570.117 159.733 573.167C161.545 575.422 161.826 575.653 164.077 576.732C166.925 578.098 167.299 578.517 168.086 581.226C168.67 583.235 168.678 583.244 169.66 582.953C170.527 582.695 171.277 581.69 171.404 580.616C171.57 579.219 175.795 579.852 177.938 581.596C178.501 582.054 178.551 582.061 179.079 581.757C182.459 579.81 184.973 581.741 189.134 589.481C192.465 595.678 192.867 596.101 196.957 597.721C199.394 598.686 200.416 599.189 201.182 599.803C203.034 601.287 203.393 603.934 201.881 604.966C200.018 606.238 200.19 607.574 202.505 609.842C204.377 611.676 204.575 612.047 205.408 615.279C206.572 619.801 207.439 620.245 213.452 619.403C217.828 618.789 219.905 619.205 222.352 621.183C224.177 622.658 225.073 624.591 225.067 627.04L225.064 628.281L224.526 629.89C223.688 632.399 223.793 633.264 225.009 633.879C226.171 634.465 228.922 632.895 232.17 629.79C235.972 626.155 238.909 624.913 244.253 624.679C245.767 624.613 245.683 624.68 245.754 623.477C245.896 621.041 246.32 619.94 248.188 617.162L249.172 615.7L249.953 615.241C250.383 614.989 251.314 614.348 252.022 613.816C252.73 613.285 253.62 612.702 253.999 612.521L254.689 612.191L256.973 612.219C261.165 612.269 262.769 611.253 263.331 608.191C263.687 606.255 263.9 605.767 264.83 604.766C265.82 603.7 266.973 603.152 269.943 602.339C272.65 601.598 273.706 601.261 275.652 600.516C277.671 599.742 280.203 598.904 282.501 598.249L284.11 597.79L286.915 597.708C290.358 597.607 291.06 597.454 292.271 596.536C293.452 595.64 294.025 594.502 294.585 591.943C294.831 590.817 295.225 589.889 296.059 588.473C298.306 584.654 298.438 582.34 296.545 579.917C295.473 578.545 295.47 578.289 296.5 576.76C298.056 574.45 298.05 572.836 296.48 570.77C295.475 569.448 295.488 569.247 296.677 567.943C297.202 567.367 297.923 566.209 298.692 564.708C299.675 562.79 300.519 562.037 302.094 561.674C303.71 561.302 306.164 561.914 307.478 563.016C309.581 564.781 311.824 564.638 312.743 562.68C313.004 562.123 313.022 561.689 312.929 558.175C312.863 555.686 313.222 555.276 316.428 554.175C319.426 553.147 320.265 552.57 322.314 550.127C323.931 548.201 324.523 547.813 326.607 547.314C332.442 545.918 335.205 543.678 336.646 539.174C337.465 536.615 337.59 536.454 340.026 534.832C342.781 532.997 343.516 531.175 342.853 527.822C342.356 525.311 342.951 523.519 344.891 521.683C346.497 520.162 347.345 519.73 349.59 519.287C355.374 518.145 358.812 512.531 357.439 506.471C356.406 501.908 351.375 500.38 346.673 503.2C344.357 504.589 344.492 503.723 347.157 500.113C350.673 495.35 352.325 494.647 353.756 497.306C354.769 499.189 355.858 499.823 358.078 499.824C362.504 499.824 363.983 497.632 363.076 492.411C362.342 488.191 362.826 486.857 365.72 485.123C370.937 481.997 371.965 479.536 371.64 470.955C371.411 464.913 371.302 464.433 368.534 457.267C366.507 452.019 366.306 450.905 366.31 444.947C366.313 441.204 366.334 440.617 366.535 438.787C366.713 437.16 366.758 436.269 366.761 434.236C366.766 430.751 366.832 430.977 364.821 427.589C362.066 422.948 361.377 420.834 361.504 417.41C361.576 415.449 361.795 414.984 363.762 412.598C367.814 407.682 367.297 404.125 361.818 399.237C359.743 397.386 359.1 396.998 356.091 395.775C352.29 394.23 352.424 394.431 352.455 390.333C352.487 386.142 352.367 385.579 351.192 384.38C350.807 383.988 350.406 383.556 350.3 383.42L350.107 383.173L349.851 383.374C349.663 383.522 349.469 383.575 349.121 383.575C348.461 383.575 347.68 383.794 346.812 384.222C345.388 384.924 343.107 383.917 340.419 381.399C338.014 379.145 337.877 378.921 337.619 376.817C337.359 374.69 336.606 374.364 332.431 374.568C330.121 374.681 330.368 374.925 330.183 372.358C329.363 360.998 329.723 360.213 337.069 357.36C340.957 355.851 341.513 355.642 343.138 355.081C346.114 354.052 347.629 353.193 349.482 351.486C350.926 350.154 351.71 349.924 354.806 349.924C358.4 349.924 358.992 349.262 358.999 345.235C359.007 341.23 359.29 340.255 360.929 338.613C363.245 336.292 366.182 336.012 369.417 337.804C371.477 338.945 371.714 339.011 374.487 339.21C375.5 339.282 376.878 339.446 377.55 339.574C384.316 340.864 389.76 340.367 391.868 338.268C392.944 337.196 393.304 336.35 393.893 333.512C394.113 332.45 394.502 330.574 394.756 329.343C395.011 328.112 395.289 326.519 395.374 325.803C395.56 324.24 395.54 324.272 396.32 324.272C397.898 324.272 398.581 325.195 398.703 327.49L398.763 328.639L399.867 328.695C402.445 328.825 403.45 329.734 403.083 331.603C402.813 332.977 403.189 333.419 404.574 333.356C405.363 333.32 405.617 333.16 407.259 331.663C409.653 329.482 411.273 329.443 414.491 331.492C417.854 333.632 419.694 333.184 422.879 329.45C424.765 327.239 425.698 326.617 427.131 326.617C428.313 326.617 428.273 326.544 428.174 328.5C427.97 332.558 428.11 333.067 429.997 335.089C430.993 336.157 431.465 336.828 431.789 337.635C432.357 339.049 431.937 338.937 436.69 338.936L440.597 338.936L441.471 338.693C441.951 338.56 443.151 338.152 444.137 337.787C446.763 336.815 447.51 336.649 450.297 336.418C455.742 335.968 456.598 336.167 457.947 338.201C459.742 340.907 461.543 340.705 463.301 337.602C465.697 333.37 468.584 331.108 471.536 331.148C473.986 331.181 474.483 331 476.107 329.485C477.788 327.918 478.646 327.49 480.109 327.49C482.791 327.49 483.934 323.397 483.948 313.745C483.954 310.15 484.648 308.848 487.212 307.623C489.424 306.567 492.609 305.724 495.131 305.527C496.328 305.434 496.131 305.613 497.924 302.979C503.292 295.095 505.059 294.383 512.036 297.288C514.295 298.229 514.147 298.134 514.18 298.653C514.32 300.852 512.674 302.467 508.405 304.321C505.172 305.725 504.103 306.684 503.497 308.728C502.839 310.943 504.061 311.671 508.451 311.677C512.034 311.682 513.148 311.994 513.538 313.101C514.056 314.57 517.063 314.123 518.176 312.411C518.992 311.157 522.013 310.51 522.013 311.589C522.013 312.236 523.305 313.869 524.151 314.291C525.327 314.877 526.255 314.453 526.854 313.055C527.925 310.553 529.767 310.069 535.482 310.787C538.383 311.151 539.294 311.196 539.449 310.983C539.619 310.751 539.611 308.902 539.435 307.584C539.262 306.291 539.246 306.423 539.628 305.966C540.057 305.452 540.405 304.753 540.953 303.301C542.069 300.343 542.407 300.342 544.986 303.293C545.804 304.229 545.782 304.248 546.353 302.067C547.355 298.235 547.745 296.127 547.94 293.471C548.055 291.897 548.199 291.247 548.946 288.931C549.981 285.723 550.25 283.786 549.734 283.272C549.512 283.051 546.569 282.93 544.493 283.055L543.298 283.128L543.25 283.955C543.185 285.081 542.638 286.116 542.108 286.116C541.92 286.116 541.274 285.37 539.881 283.541C539.167 282.606 538.22 281.427 537.776 280.921C536.279 279.218 536.195 279.034 535.853 276.723C535.137 271.892 534.013 270.603 530.356 270.421C529.027 270.354 529.043 270.366 528.865 269.29C528.49 267.035 528.002 266.085 526.353 264.4C525.222 263.245 525.222 263.24 526.303 262.905C532.511 260.984 533.818 258.181 531.351 252.076C530.434 249.804 530.186 248.945 530.166 247.964L530.15 247.187L530.797 247.077C533.021 246.699 533.927 244.74 533.535 241.156L533.46 240.466L532.981 240.307C532.718 240.22 532.138 240.081 531.694 239.999C529.619 239.615 529.506 239.519 529.58 238.214C529.721 235.721 531.69 232.376 533.568 231.436C535.234 230.602 536.56 230.673 540.026 231.78C541.774 232.339 542.554 232.509 543.374 232.512C544.058 232.513 543.941 232.585 544.762 231.663C545.311 231.045 546.199 231.352 547.063 232.458C547.901 233.532 548.14 233.717 549.624 234.44C554.333 236.736 555.952 236.704 560.32 234.23C563.609 232.367 564.896 232.113 569.2 232.479C570.053 232.551 570.125 232.473 569.872 231.743C569.322 230.159 568.836 229.209 567.729 227.556C565.802 224.677 565.564 224.039 565.314 221.071C565.129 218.87 563.965 218.21 559.465 217.757C555.613 217.37 555.026 216.067 555.896 209.849C556.35 206.607 555.901 205.349 553.859 204.137C552.364 203.251 551.73 202.479 551.517 201.288C551.005 198.415 550.586 197.595 548.365 195.127C545.164 191.57 544.703 188.298 547.015 185.53C549.367 182.714 548.302 181.687 540.631 179.373C535.293 177.763 535.396 177.811 535.32 176.921C535.11 174.462 531.946 172.41 529.174 172.936C527.072 173.335 526.167 174.592 525.37 178.221C524.732 181.127 524.135 182.297 522.995 182.879C522.461 183.151 522.42 183.096 522.296 181.93C522.131 180.374 522.211 180.517 521.251 180.054C519.193 179.061 519.014 179.123 516.936 181.57C513.76 185.31 507.724 185.396 506.007 181.726C505.46 180.557 505.365 179.741 505.282 175.463C505.205 171.46 505.141 170.707 504.765 169.307C504.071 166.731 503.986 166.004 503.913 162.039L503.854 158.821L503.118 158.831C502.714 158.837 501.721 158.857 500.912 158.877C498.775 158.929 498.498 158.757 497.454 156.725C496.409 154.69 495.026 153.825 490.522 152.39C489.309 152.003 487.157 151.27 485.741 150.76C477.018 147.619 473.02 147.009 468.625 148.148C468.315 148.228 468.039 148.294 468.011 148.294C467.983 148.294 467.731 147.988 467.45 147.616C464.811 144.109 458.596 144.968 451.848 149.774L451.569 149.972L451.631 154.258C451.698 158.932 451.673 159.332 451.164 161.6C450.421 164.914 450.016 165.316 447.442 165.294C441.564 165.242 439.517 168.814 440.128 178.054C440.64 185.789 439.882 187.422 431.997 195.573C427.343 200.384 426.053 202.255 424.513 206.428C423.713 208.594 423.704 208.642 423.675 210.769C423.646 212.924 423.612 212.824 424.68 213.784C425.554 214.569 425.751 215.024 425.819 216.41C425.972 219.541 424.359 221.385 418.209 225.113C413.852 227.753 412.276 229.076 411.266 230.943L410.989 231.456L410.531 231.435C410.278 231.423 409.644 231.345 409.12 231.261C408.009 231.083 408.066 231.048 407.904 232.005C407.757 232.878 407.842 234.447 408.13 236.145C408.723 239.644 408.691 239.775 407.262 239.776C406.46 239.777 406.449 239.757 406.344 238.167C406.268 237.006 406.069 234.905 405.838 232.815C405.492 229.698 405.941 227.006 407.43 223.274C408.013 221.81 408.133 221.419 408.169 220.859C408.344 218.131 404.574 216.92 400.81 218.495C399.756 218.936 399.811 218.99 400.157 217.848C400.431 216.945 400.388 214.893 400.072 213.738C398.995 209.807 396.253 209.003 394.532 212.114L394.259 212.608L394.242 214.4C394.22 216.825 394.128 217.083 392.714 218.676C391.669 219.852 391.273 220.823 391.271 222.21C391.267 224.011 390.553 224.614 387.507 225.386C386.985 225.518 386.141 225.77 385.632 225.945C384.168 226.449 383.809 226.478 381.917 226.252C378.981 225.902 378.19 226.033 376.253 227.191C373.774 228.673 373.635 228.705 369.705 228.67C364.758 228.626 364.385 228.768 361.845 231.659C358.129 235.889 357.639 237.133 358.762 239.489C359.345 240.711 359.336 240.658 359.088 241.461C358.722 242.648 357.795 243.587 355.384 245.215C353.951 246.183 353.139 246.801 352.728 247.237C352.488 247.491 352.451 247.5 351.579 247.5C351.083 247.501 349.87 247.583 348.884 247.683C344.775 248.098 343.336 247.78 340.389 245.804C337.719 244.015 336.899 242.96 336.431 240.715C335.767 237.536 333.777 235.271 330.926 234.451C329.366 234.003 328.935 233.703 328.438 232.717C327.95 231.748 328.017 231.473 328.987 230.476C330.589 228.83 330.939 227.159 330.352 223.963C329.827 221.112 330.071 219.934 331.467 218.578C333.131 216.96 333.255 216.29 332.369 213.675L331.853 212.149L331.901 210.861C331.953 209.449 332.097 208.754 332.854 206.266C334.169 201.938 334.138 200.665 332.601 195.933C331.339 192.046 331.352 190.296 332.665 187.297C334.059 184.111 334.127 183.84 334.314 180.709C334.499 177.605 334.641 176.883 335.732 173.529C336.681 170.612 336.783 170.087 336.789 168.111L336.794 166.459L337.115 166.377C340.132 165.603 340.507 164.714 339.416 160.918C338.535 157.855 338.593 157.276 340.002 155.105C341.23 153.213 341.4 152.674 341.982 148.845C342.186 147.505 342.436 145.938 342.538 145.363C343.292 141.12 341.62 139.562 338.632 141.722C337.665 142.421 337.593 142.446 336.698 142.389C335.707 142.325 335.262 142.069 334.654 141.209C332.716 138.472 331.731 137.999 327.829 137.927C325.192 137.879 325.346 137.943 325.348 136.904C325.349 135.802 325.498 135.328 326.4 133.537C328.27 129.827 327.702 127.042 323.598 119.791C322.982 118.704 322.272 117.403 322.018 116.9C321.765 116.397 321.108 115.265 320.559 114.385C318.275 110.725 318.307 108.868 320.704 105.935C322.56 103.664 322.897 103.217 323.355 102.414C325.385 98.854 326.384 94.0498 326.083 89.2813C325.832 85.2961 325.219 83.233 323.967 82.1613C322.784 81.1486 321.356 81.1842 317.532 82.3216C313.567 83.5006 311.848 83.2069 310.416 81.1055C308.765 78.6838 309.096 76.3984 312.112 69.3904C313.768 65.5438 314.496 63.1428 314.387 61.8807L314.36 61.5605L313.512 61.3532C310.059 60.5084 308.684 58.0302 307.318 50.1906C306.281 44.2397 306.047 43.6801 303.514 41.0882C301.863 39.3979 301.693 39.1405 301.042 37.3384C299.112 31.994 294.892 31.0026 284.708 33.5007C280.924 34.429 280.136 34.5913 279.643 34.5442L279.329 34.5143L279.3 33.8247C279.26 32.8672 279.4 31.9897 279.975 29.5954C280.461 27.5688 280.64 26.5174 280.685 25.412L280.708 24.8603L281.122 24.8007C281.35 24.768 282.26 24.786 283.145 24.8407C284.03 24.8955 285.063 24.943 285.44 24.9463L286.127 24.9523L286.274 24.3908C286.486 23.5861 286.802 23.1033 287.839 22.0007C289.556 20.1737 290.105 18.5373 289.716 16.4016C289.558 15.5295 289.199 13.387 288.985 12.0343C288.395 8.30721 287.099 6.93864 283.789 6.5466C283.167 6.47295 283.166 6.47148 283.097 4.90725C282.914 0.723121 282.126 -0.414855 279.789 0.125125ZM349.716 391.076C349.797 395.877 350.193 396.395 355.366 398.472C357.774 399.44 358.554 399.939 360.458 401.733C364.06 405.126 364.517 407.299 362.222 410.107C359.078 413.955 358.771 414.65 358.777 417.916C358.784 421.875 359.431 423.925 362.089 428.408C362.827 429.653 363.561 430.946 363.72 431.281L364.009 431.891L364.001 434.328C363.996 435.962 363.941 437.233 363.835 438.189C363.569 440.599 363.51 441.799 363.506 444.906C363.499 451.192 363.843 452.932 366.377 459.428C368.423 464.675 368.683 465.779 368.845 469.901C369.19 478.681 368.671 480.127 364.229 482.777C360.413 485.053 359.446 487.499 360.313 492.68C360.906 496.226 360.808 496.553 359.013 496.985C357.493 497.352 356.749 497.044 356.07 495.768C354.109 492.083 350.233 492.108 347.013 495.828C344.029 499.273 342.142 502.46 342.298 503.789C342.627 506.591 345.046 507.433 347.867 505.729C349.217 504.913 350.436 504.572 351.997 504.572C355.394 504.572 356.147 511.011 353.119 514.163C351.531 515.816 350.822 516.218 348.791 516.62C346.184 517.135 344.713 517.93 342.795 519.863C340.326 522.349 339.467 525.011 340.112 528.18C340.633 530.743 340.411 531.269 338.193 532.731C335.617 534.43 334.899 535.393 334.033 538.315C333.224 541.043 332.409 541.943 329.386 543.442C328.276 543.992 327.525 544.241 325.714 544.658C323.417 545.188 322.162 546.018 320.313 548.233C318.62 550.259 318.144 550.588 315.601 551.489C311.238 553.034 310.092 554.423 310.163 558.083C310.233 561.642 310.246 561.343 310.026 561.375C309.893 561.393 309.628 561.223 309.199 560.842C307.021 558.91 302.92 558.243 300.196 559.378C298.308 560.163 297.546 560.976 296.071 563.776C295.596 564.68 295.065 565.541 294.75 565.922C293.693 567.198 293.596 567.333 293.316 567.92C292.652 569.311 292.909 570.628 294.174 572.315C295.133 573.593 295.129 573.795 294.118 575.369C292.576 577.77 292.561 579.217 294.059 581.206C295.482 583.095 295.451 584.016 293.87 586.761C292.526 589.095 292.182 589.937 291.739 591.987C291.357 593.75 290.85 594.422 289.629 594.783C289.476 594.828 288.089 594.904 286.547 594.951C283.476 595.045 283.411 595.055 280.955 595.786C278.817 596.423 276.936 597.056 274.686 597.895C272.355 598.764 271.866 598.921 269.241 599.635C263.806 601.113 261.483 603.128 260.747 607.003C260.296 609.377 260.206 609.433 256.803 609.433H254.321L253.591 609.691C252.567 610.053 251.851 610.476 250.36 611.599C249.529 612.225 248.668 612.777 247.956 613.14L246.847 613.705L241.39 614.449L235.932 615.193L235.197 615.04C234.792 614.956 232.992 614.536 231.197 614.107C225.423 612.726 223.341 612.369 220.348 612.248L218.923 612.191L218.935 610.766C218.984 605.075 221.958 602.518 230.967 600.422C237.143 598.985 240.146 598.027 243.041 596.569C246.03 595.064 245.324 592.4 240.345 586.401C236.659 581.96 235.093 578.898 235.73 577.373C236.661 575.147 240.373 578.312 244.085 584.496C251.195 596.341 254.619 596.401 266.305 584.884C273.515 577.779 274.853 575.875 276.157 570.863C277.663 565.073 278.774 563.742 284.524 560.841C288.495 558.837 290.386 557.417 293.216 554.313C297.324 549.808 299.046 546.729 301.472 539.553C305.082 528.878 306.542 526.479 312.383 521.624C317.587 517.299 318.547 515.693 319.092 510.41C319.688 504.632 320.501 503.436 326.634 499.326C332.688 495.268 333.783 493.112 334.13 484.574C334.366 478.755 334.449 478.384 336.767 472.852C340.029 465.066 341.124 462.047 341.802 458.965C342.116 457.537 342.109 457.497 341.542 457.497C339.39 457.494 338.211 456.949 338.619 456.146C339.033 455.328 339.477 453.894 339.965 451.797C340.229 450.659 340.646 449.096 340.892 448.323C341.899 445.152 341.896 438.323 340.886 433.839C340.352 431.465 340.38 430.999 341.21 428.443C341.972 426.097 341.88 425.462 340.602 424.238C339.422 423.108 339.257 422.707 339.048 420.465C338.882 418.683 338.55 417.667 337.52 415.801C334.934 411.113 334.799 409.17 336.821 405.751C339.188 401.75 339.153 401.851 339.319 398.618C339.558 393.992 339.917 393.484 344.747 390.934C346.968 389.761 348.009 389.154 348.837 388.549C349.717 387.906 349.659 387.74 349.716 391.076ZM325.525 516.642C324.038 517.537 321.131 519.951 315.371 525.072C313.652 526.6 311.855 528.145 311.378 528.504C309.449 529.959 308.464 531.172 307.696 533.04C307.079 534.54 307.09 534.56 308.368 534.315C308.765 534.24 309.509 534.177 310.023 534.177C315.291 534.171 317.481 532.726 319.105 528.185C319.279 527.7 319.48 527.304 319.592 527.226C319.698 527.153 320.113 526.882 320.515 526.625C320.999 526.316 321.791 525.625 322.86 524.578C323.747 523.709 324.67 522.858 324.911 522.687C325.396 522.343 325.442 522.234 325.99 520.156C326.535 518.093 326.575 516.356 326.077 516.342C326.049 516.341 325.8 516.476 325.525 516.642Z" fill="#40A8E4"/>
<circle cx="225.461" cy="568.896" r="2.98401" fill="white"/>
<circle cx="225.461" cy="568.896" r="5.89432" stroke="white"/>
<path d="M152.655 560.068H150.189V548.062H152.745V555.82L158.307 548.062H160.935V560.068H158.379V552.022L152.655 560.068ZM168.216 560.284C167.124 560.284 166.23 559.84 165.534 558.952V563.38H163.248V551.374H165.534V552.472C166.218 551.596 167.112 551.158 168.216 551.158C169.356 551.158 170.28 551.566 170.988 552.382C171.708 553.186 172.068 554.296 172.068 555.712C172.068 557.128 171.708 558.244 170.988 559.06C170.28 559.876 169.356 560.284 168.216 560.284ZM167.496 558.25C168.156 558.25 168.684 558.016 169.08 557.548C169.488 557.08 169.692 556.468 169.692 555.712C169.692 554.968 169.488 554.362 169.08 553.894C168.684 553.426 168.156 553.192 167.496 553.192C167.124 553.192 166.752 553.288 166.38 553.48C166.008 553.672 165.726 553.906 165.534 554.182V557.26C165.726 557.536 166.008 557.77 166.38 557.962C166.764 558.154 167.136 558.25 167.496 558.25ZM182.239 560.068H179.377L177.073 556.72L176.029 557.836V560.068H173.743V551.374H176.029V555.244L179.323 551.374H182.131L178.693 555.316L182.239 560.068ZM183.069 563.47L183.411 561.418C183.627 561.514 183.867 561.562 184.131 561.562C184.743 561.562 185.145 561.352 185.337 560.932L185.661 560.194L182.133 551.374H184.581L186.849 557.422L189.117 551.374H191.583L187.497 561.49C187.197 562.258 186.777 562.792 186.237 563.092C185.697 563.404 185.019 563.572 184.203 563.596C183.783 563.596 183.405 563.554 183.069 563.47ZM196.51 560.068H194.206V553.372H191.776V551.374H198.94V553.372H196.51V560.068ZM204.423 560.284C203.079 560.284 201.975 559.858 201.111 559.006C200.247 558.154 199.815 557.056 199.815 555.712C199.815 554.38 200.247 553.288 201.111 552.436C201.975 551.584 203.079 551.158 204.423 551.158C205.959 551.158 207.105 551.68 207.861 552.724L206.367 554.128C205.947 553.504 205.335 553.192 204.531 553.192C203.835 553.192 203.265 553.426 202.821 553.894C202.389 554.35 202.173 554.956 202.173 555.712C202.173 556.468 202.389 557.08 202.821 557.548C203.265 558.016 203.835 558.25 204.531 558.25C205.311 558.25 205.923 557.938 206.367 557.314L207.861 558.7C207.105 559.756 205.959 560.284 204.423 560.284ZM217.852 560.068H214.99L212.686 556.72L211.642 557.836V560.068H209.356V551.374H211.642V555.244L214.936 551.374H217.744L214.306 555.316L217.852 560.068Z" fill="white"/>
</svg>
