<svg width="64" height="64" viewBox="0 0 64 64" fill="none" xmlns="http://www.w3.org/2000/svg">
<rect x="0.5" y="0.5" width="63" height="63" rx="31.5" stroke="#666666"/>
<path d="M41.1486 32.5082C39.9583 31.8128 38.6043 31.4465 37.2257 31.4472C35.8452 31.4478 34.4902 31.8186 33.3018 32.5209L39.1718 26.6509C41.3464 24.3644 41.2557 20.748 38.9692 18.5734C36.7634 16.4755 33.3001 16.4755 31.0943 18.5734L16.5734 33.0898C14.3988 35.3763 14.4895 38.9927 16.776 41.1673C18.9818 43.2652 22.4451 43.2652 24.6509 41.1673L30.5209 35.2973C28.3563 39.0023 29.605 43.7605 33.31 45.9251C37.015 48.0897 41.7731 46.841 43.9378 43.136C46.1023 39.431 44.8536 34.6728 41.1486 32.5082ZM31.8012 19.2808C33.6489 17.4497 36.631 17.4631 38.4621 19.3108C40.2815 21.1466 40.2816 24.1055 38.4624 25.9415L31.5564 32.8465L24.8967 26.1853L31.8012 19.2808ZM23.9435 40.4604C22.1124 42.308 19.1302 42.3215 17.2826 40.4904C15.4349 38.6592 15.4215 35.6771 17.2526 33.8294C17.2626 33.8193 17.2727 33.8092 17.2828 33.7992L24.1873 26.8947L30.848 33.5544L23.9435 40.4604ZM32.1497 43.7168C31.0532 42.4772 30.4495 40.8785 30.4526 39.2237C30.4531 37.6013 31.0391 36.0336 32.1028 34.8086L41.6954 44.3019C38.8978 46.7763 34.6241 46.5143 32.1497 43.7168ZM42.3998 43.585L32.8107 34.0967C35.6365 31.6534 39.908 31.9635 42.3513 34.7893C43.4162 36.021 44.0012 37.5954 43.9987 39.2237C43.9994 40.821 43.4328 42.3666 42.3998 43.585Z" fill="#333333" fill-opacity="0.99"/>
</svg>
