<svg width="64" height="64" viewBox="0 0 64 64" fill="none" xmlns="http://www.w3.org/2000/svg">
<rect x="0.5" y="0.5" width="63" height="63" rx="31.5" stroke="#666666"/>
<path d="M29.9542 27.917L29.5928 27.5485L29.2313 27.917C28.9347 28.2207 22 35.3331 22 39.4073C22 43.6007 25.3994 47.0001 29.5928 47.0001C33.7861 47.0001 37.1855 43.6007 37.1855 39.4073C37.1855 35.3331 30.2508 28.2207 29.9542 27.917ZM29.5928 45.9877C25.9603 45.9835 23.0165 43.0398 23.0124 39.4073C23.0124 36.2351 28.1668 30.5243 29.5928 29.0047C31.0187 30.5233 36.1732 36.233 36.1732 39.4073C36.169 43.0398 33.2253 45.9835 29.5928 45.9877Z" fill="#333333" fill-opacity="0.99"/>
<path d="M25.5433 39.4075H24.5309C24.5337 41.9223 26.5717 43.9603 29.0866 43.9631V42.9508C27.1307 42.9482 25.5458 41.3633 25.5433 39.4075Z" fill="#333333" fill-opacity="0.99"/>
<path d="M37.5758 18.8097L37.1855 18.3451L36.7968 18.8102C36.1023 19.6434 32.6299 23.8944 32.6299 25.7404C32.6299 28.2564 34.6695 30.2961 37.1855 30.2961C39.7016 30.2961 41.7412 28.2564 41.7412 25.7404C41.7412 24.3049 39.4967 21.1098 37.5758 18.8097ZM37.1855 29.2837C35.2297 29.2812 33.6448 27.6962 33.6422 25.7404C33.6422 24.9994 34.8571 22.7939 37.1855 19.9299C39.4897 22.7646 40.7288 25.015 40.7288 25.7404C40.7263 27.6963 39.1413 29.2812 37.1855 29.2837Z" fill="#333333" fill-opacity="0.99"/>
<path d="M30.5875 21.1335C30.4493 20.5974 29.7452 19.2834 28.4848 17.5583L28.0748 17L27.6658 17.5568C26.5314 19.1093 25.7033 20.5104 25.558 21.134L25.5428 21.1988V21.2651C25.5802 22.6345 26.705 23.7229 28.0748 23.7155C29.4386 23.7215 30.56 22.6419 30.6057 21.2788V21.2049L30.5875 21.1335ZM28.0748 22.7032C27.2847 22.6972 26.6289 22.0912 26.5608 21.3041C26.9645 20.3896 27.4725 19.5248 28.0748 18.7271C28.6759 19.5314 29.1833 20.4016 29.5872 21.3208C29.5195 22.1049 28.8618 22.7061 28.0748 22.7032Z" fill="#333333" fill-opacity="0.99"/>
</svg>
