<svg width="64" height="64" viewBox="0 0 64 64" fill="none" xmlns="http://www.w3.org/2000/svg">
<rect x="0.5" y="0.5" width="63" height="63" rx="31.5" stroke="#666666"/>
<path d="M32.5001 36.9998H31.1866C31.0806 36.6688 30.9479 36.3469 30.7895 36.0374L31.7184 35.1084C31.9138 34.9132 31.9138 34.5966 31.7184 34.4014L29.5986 32.2816C29.4032 32.0862 29.0868 32.0862 28.8916 32.2816L27.9625 33.2105C27.6531 33.0521 27.3312 32.9193 27.0001 32.8133V31.4999C27.0001 31.2238 26.7762 31 26.4999 31H23.5001C23.2239 31 23 31.2238 23 31.4999V32.8133C22.6689 32.9193 22.3469 33.0521 22.0374 33.2105L21.1087 32.2816C20.9131 32.0862 20.5969 32.0862 20.4017 32.2816L18.2816 34.4001C18.0862 34.5953 18.0862 34.9117 18.2816 35.1071L19.2104 36.0358C19.0519 36.346 18.9191 36.6682 18.8135 36.9998H17.4999C17.2238 36.9998 17 37.2238 17 37.5001V40.4999C17 40.776 17.2238 41 17.5001 41H18.8135C18.9193 41.331 19.0522 41.6531 19.2104 41.9625L18.2816 42.8913C18.0862 43.0868 18.0862 43.403 18.2816 43.5982L20.4014 45.7184C20.5969 45.9134 20.9131 45.9134 21.1085 45.7184L22.0374 44.7895C22.3469 44.9477 22.6689 45.0806 23 45.1863V46.4999C23 46.7762 23.2238 47 23.5001 47H26.4999C26.7762 47 27.0001 46.7762 27.0001 46.4999V45.1863C27.331 45.0806 27.6531 44.9477 27.9625 44.7895L28.8916 45.7184C29.0868 45.9134 29.4032 45.9134 29.5984 45.7184L31.7184 43.5982C31.9138 43.403 31.9138 43.0866 31.7184 42.8913L30.7895 41.9625C30.9479 41.6531 31.0806 41.331 31.1863 41H32.4999C32.7762 41 32.9999 40.776 32.9999 40.4999V37.5001C32.9999 37.2238 32.7762 36.9998 32.5001 36.9998ZM32 39.9998H30.81C30.5813 39.9998 30.3821 40.1551 30.3255 40.3763C30.1992 40.8747 30.0021 41.3523 29.7401 41.7945C29.6233 41.9911 29.6546 42.2418 29.8165 42.4033L30.658 43.2448L29.245 44.6579L28.4036 43.8165C28.2419 43.6546 27.9911 43.6233 27.7944 43.7399C27.3524 44.0022 26.8747 44.1992 26.3766 44.3255C26.1551 44.3817 26 44.5813 26 44.8098V46H24.0001V44.8098C24.0001 44.5813 23.8448 44.3817 23.6237 44.3255C23.1252 44.1992 22.6477 44.0022 22.2055 43.7399C22.0088 43.6233 21.7582 43.6546 21.5967 43.8165L20.7551 44.6579L19.3421 43.2448L20.1835 42.4033C20.3453 42.2418 20.3766 41.9911 20.26 41.7945C19.9978 41.3523 19.8008 40.8747 19.6744 40.3763C19.6182 40.1551 19.4186 39.9998 19.1901 39.9998H17.9999V38H19.1899C19.4186 38 19.6182 37.8449 19.6744 37.6233C19.8008 37.1251 19.9978 36.6475 20.26 36.2055C20.3766 36.0089 20.3453 35.758 20.1835 35.5963L19.3419 34.755L20.7551 33.3419L21.5963 34.1835C21.758 34.3454 22.0088 34.3767 22.2055 34.2598C22.6477 33.9978 23.1252 33.8008 23.6233 33.6745C23.8448 33.6179 23.9999 33.4187 23.9999 33.19V32H26V33.19C26 33.4187 26.1551 33.6179 26.3765 33.6745C26.8747 33.8008 27.3524 33.9978 27.7944 34.2598C27.9911 34.3767 28.2418 34.3454 28.4034 34.1835L29.245 33.3419L30.6578 34.755L29.8165 35.5963C29.6546 35.758 29.6233 36.0089 29.7401 36.2055C30.0021 36.6475 30.1992 37.1253 30.3255 37.6233C30.3817 37.8449 30.5813 38 30.81 38H32V39.9998Z" fill="#333333" fill-opacity="0.99"/>
<path d="M24.9998 35.0001C22.7908 35.0001 20.9998 36.7911 20.9998 39.0002C20.9998 41.2092 22.7908 43.0002 24.9998 43.0002C27.2089 43.0002 28.9999 41.2092 28.9999 39.0002C28.9973 36.792 27.208 35.0027 24.9998 35.0001ZM24.9998 42.0002C23.3428 42.0002 21.9998 40.657 21.9998 39.0001C21.9998 37.3431 23.3428 36.0001 24.9998 36.0001C26.6567 36.0001 27.9999 37.3431 27.9999 39.0001C27.9981 40.6563 26.656 41.9984 24.9998 42.0002Z" fill="#333333" fill-opacity="0.99"/>
<path d="M46.4999 31.5H45.329L46.1575 30.6745C46.3529 30.4795 46.3534 30.1631 46.1584 29.9675C46.1581 29.9672 46.1577 29.9668 46.1575 29.9666L44.0326 27.8415C43.9386 27.7479 43.8117 27.6952 43.6788 27.695C43.5462 27.6952 43.4186 27.7483 43.325 27.8426L42.5 28.671V27.5C42.5 27.2239 42.276 27.0001 42.0001 27.0001H39.0001C38.7238 27.0001 38.5 27.2239 38.5 27.5V28.671L37.6744 27.8426C37.5808 27.7483 37.4536 27.6952 37.3207 27.695C37.1881 27.6952 37.0608 27.7479 36.9669 27.8415L34.842 29.9666C34.6466 30.1616 34.646 30.4782 34.841 30.6736C34.8416 30.674 34.8418 30.6743 34.842 30.6745L35.6711 31.5H34.5001C34.224 31.5 34.0002 31.7239 34.0002 32V35C34.0002 35.2761 34.224 35.5001 34.5001 35.5001H35.6711L34.8427 36.3253C34.6469 36.5205 34.6468 36.8373 34.8418 37.0327C34.842 37.0329 34.8421 37.0332 34.8427 37.0336L36.9676 39.1585C37.0619 39.2517 37.189 39.3041 37.3214 39.305C37.4549 39.3041 37.5821 39.2501 37.6755 39.155L38.5 38.3291V39.5C38.5 39.7761 38.7238 39.9999 39.0001 39.9999H42.0001C42.2762 39.9999 42.5002 39.7761 42.5002 39.5V38.3291L43.3254 39.1574C43.4188 39.2526 43.5464 39.3067 43.6795 39.3076C43.8136 39.3143 43.9438 39.2605 44.0335 39.1611L46.1586 37.0358C46.354 36.841 46.3543 36.5244 46.1593 36.3288C46.1592 36.3286 46.1588 36.3284 46.1586 36.3279L45.329 35.5001H46.4999C46.7762 35.5001 47 35.2761 47 35V32C47 31.7239 46.7762 31.5 46.4999 31.5ZM46 34.5001H44.7401C44.5248 34.4998 44.3338 34.6375 44.2655 34.8416C44.2241 34.9698 44.1739 35.0952 44.1153 35.2164C44.0192 35.4093 44.0573 35.642 44.2098 35.794L45.0995 36.6804L43.683 38.0971L42.7966 37.2075C42.6443 37.0548 42.4117 37.0167 42.2191 37.1131C42.0975 37.1716 41.9723 37.2218 41.8439 37.2628C41.6383 37.3306 41.4993 37.5232 41.4999 37.74V39H39.5V37.74C39.5002 37.5247 39.3626 37.3337 39.1585 37.2654C39.0303 37.2242 38.9049 37.1742 38.7837 37.1156C38.591 37.0182 38.3576 37.0565 38.2062 37.2101L37.3196 38.0994L35.9031 36.6829L36.7926 35.7965C36.9453 35.6445 36.9834 35.4116 36.8871 35.219C36.8285 35.0974 36.7783 34.9722 36.7371 34.844C36.6693 34.6382 36.4769 34.4992 36.2601 34.5001H35.0002V32.5001H36.2601C36.4753 32.5001 36.6664 32.3626 36.7347 32.1586C36.7757 32.0302 36.8263 31.905 36.8845 31.7836C36.9808 31.5908 36.9427 31.3581 36.79 31.2061L35.9005 30.3195L37.3172 28.903L38.2036 29.7925C38.3556 29.9452 38.5883 29.9833 38.7811 29.887C38.9027 29.8284 39.0277 29.7782 39.1559 29.737C39.3619 29.6693 39.5009 29.4768 39.5 29.26V28.0001H41.4999V29.26C41.4999 29.4752 41.6375 29.6663 41.8415 29.7346C41.9699 29.776 42.0949 29.8262 42.2165 29.8844C42.4093 29.9807 42.6421 29.9426 42.794 29.7899L43.6805 28.9004L45.0971 30.3171L44.2074 31.2035C44.0549 31.3557 44.0168 31.5882 44.1128 31.781C44.1714 31.9026 44.2215 32.0277 44.2629 32.156C44.3305 32.3622 44.5233 32.5008 44.7401 32.5001H46V34.5001Z" fill="#333333" fill-opacity="0.99"/>
<path d="M40.4999 30.4999C38.8429 30.4999 37.5 31.8432 37.5 33.4999C37.5 35.1568 38.8429 36.4999 40.4999 36.4999C42.1568 36.4999 43.4999 35.1568 43.4999 33.4999C43.4982 31.8439 42.156 30.5017 40.4999 30.4999ZM40.4999 35.5C39.3954 35.5 38.5 34.6046 38.5 33.4999C38.5 32.3954 39.3954 31.4998 40.4999 31.4998C41.6045 31.4998 42.4999 32.3954 42.4999 33.4999C42.4999 34.6046 41.6045 35.5 40.4999 35.5Z" fill="#333333" fill-opacity="0.99"/>
<path d="M24.4999 23.9999H25.7908L25.8174 24.064L24.8998 24.9761C24.7047 25.1711 24.7043 25.4877 24.8995 25.683C24.8995 25.6827 24.8995 25.6832 24.8995 25.683L26.3149 27.0984C26.5103 27.2938 26.8269 27.2938 27.022 27.0984L27.9368 26.1835L27.9984 26.2091V27.5C27.9984 27.7761 28.2223 28.0001 28.4986 28.0001H30.4985C30.7746 28.0001 30.9984 27.7761 30.9984 27.5V26.2091L31.0599 26.1835L31.975 27.0984C32.1702 27.2938 32.4868 27.2938 32.682 27.0984L34.0969 25.6836C34.2922 25.4884 34.2924 25.1718 34.0974 24.9763L33.1813 24.064L33.2088 23.9999H34.5001C34.776 23.9999 34.9999 23.776 34.9999 23.5001V21.5C34.9999 21.2239 34.776 20.9999 34.5001 20.9999H33.2088C33.2008 20.9791 33.1921 20.9586 33.1835 20.9386L34.0983 20.0234C34.2935 19.8282 34.2935 19.5118 34.0983 19.3165L32.6833 17.9C32.5897 17.8064 32.4625 17.7535 32.3299 17.7535C32.1973 17.7537 32.0699 17.8066 31.9763 17.9005L31.0641 18.8175L31 18.791V17.5001C31 17.2238 30.7761 17 30.4999 17H28.4999C28.2239 17 28 17.2238 28 17.5001V18.791L27.9359 18.8175L27.0239 17.9C26.9301 17.806 26.8032 17.7533 26.6705 17.7529C26.5379 17.7529 26.4107 17.8057 26.3171 17.8994L24.8998 19.3165C24.7048 19.5118 24.7048 19.8282 24.8998 20.0234L25.8148 20.9386C25.8066 20.9586 25.7982 20.9791 25.7894 20.9999H24.4999C24.2236 20.9999 23.9999 21.2239 23.9999 21.5V23.5001C23.9999 23.776 24.2236 23.9999 24.4999 23.9999ZM24.9998 21.9999H26.145C26.3649 22.0002 26.5592 21.8563 26.6236 21.6461C26.6822 21.448 26.7609 21.2568 26.8583 21.075C26.9649 20.8802 26.9305 20.6385 26.7734 20.4816L25.9619 19.6699L26.6688 18.9625L27.4758 19.7724C27.6364 19.9277 27.8782 19.9625 28.076 19.8585C28.2576 19.7609 28.4492 19.6821 28.6469 19.6235C28.8569 19.5589 29.0003 19.3648 28.9999 19.1451V17.9999H30.0001V19.1451C29.9997 19.365 30.1434 19.5594 30.3538 19.6235C30.5518 19.6821 30.7431 19.7609 30.9249 19.8585C31.1225 19.9625 31.3644 19.9277 31.525 19.7724L32.3317 18.9625L33.038 19.6699L32.2263 20.4816C32.0695 20.6385 32.0347 20.8802 32.1413 21.075C32.2391 21.2568 32.3178 21.448 32.3764 21.6461C32.4405 21.8563 32.635 22.0002 32.8549 21.9999H33.9998V23H32.8549C32.635 23 32.4405 23.1436 32.3764 23.3539C32.3178 23.5519 32.2391 23.7434 32.1413 23.925C32.101 24.0003 32.0801 24.0845 32.0798 24.17C32.0807 24.3033 32.1347 24.4306 32.2299 24.524L33.04 25.3311L32.3299 26.0381L31.5184 25.2266C31.3613 25.0695 31.1196 25.0349 30.9249 25.1416C30.7431 25.239 30.5518 25.3177 30.3538 25.3763C30.1434 25.4408 29.9997 25.6351 30.0001 25.855V27.0001H28.9999V25.855C28.9999 25.6351 28.8562 25.4408 28.6458 25.3763C28.4479 25.3177 28.2569 25.239 28.0749 25.1416C27.8801 25.0349 27.6384 25.0695 27.4813 25.2266L26.6699 26.0381L25.9626 25.3311L26.7725 24.524C26.8671 24.4286 26.9202 24.2995 26.9199 24.1649C26.9199 24.0811 26.8988 23.9985 26.8583 23.925C26.7609 23.7434 26.6822 23.5519 26.6236 23.3539C26.5592 23.1436 26.3649 23 26.145 23H24.9998V21.9999Z" fill="#333333" fill-opacity="0.99"/>
<path d="M29.5001 24.5002C30.6047 24.5002 31.5001 23.6048 31.5001 22.5003C31.5001 21.3956 30.6047 20.5002 29.5001 20.5002C28.3956 20.5002 27.5002 21.3956 27.5002 22.5003C27.5002 23.6048 28.3956 24.5002 29.5001 24.5002ZM29.5001 21.5002C30.0523 21.5002 30.5002 21.9479 30.5002 22.5003C30.5002 23.0525 30.0523 23.5002 29.5001 23.5002C28.9478 23.5002 28.5001 23.0525 28.5001 22.5003C28.5001 21.9479 28.9478 21.5002 29.5001 21.5002Z" fill="#333333" fill-opacity="0.99"/>
</svg>
