<svg width="64" height="64" viewBox="0 0 64 64" fill="none" xmlns="http://www.w3.org/2000/svg">
<rect x="0.5" y="0.5" width="63" height="63" rx="31.5" stroke="#666666"/>
<path d="M46.932 39.9101C46.6437 38.8459 45.5475 38.2165 44.4833 38.5043L41.7641 39.3365C42.1258 37.7111 41.27 36.0602 39.7332 35.4189C39.9821 34.6619 39.8528 33.8316 39.3857 33.1861C38.9189 32.5407 38.1706 32.1583 37.3738 32.1581C37.324 32.1581 37.2743 32.1581 37.2248 32.1625C36.8361 30.8656 35.7316 29.9113 34.3922 29.7147V29.006C34.3913 28.6105 34.5485 28.2308 34.829 27.9517L36.1708 26.6099C36.8257 27.1391 37.6414 27.4286 38.4834 27.4308C39.7354 27.3883 40.9185 26.8482 41.7706 25.9301C43.3742 24.3255 44.8958 18.2979 45.0637 17.6156C45.1052 17.4468 45.0554 17.2684 44.9324 17.1456C44.8096 17.0226 44.6313 16.9729 44.4624 17.0144C43.7801 17.1823 37.754 18.7039 36.148 20.3074C34.4216 22.0343 34.1746 24.2714 35.4676 25.9078L34.1258 27.2495C33.8791 27.498 33.6879 27.7962 33.5649 28.124C33.3734 27.9165 33.1536 27.7372 32.9119 27.5914L31.2188 26.5777C31.664 25.6734 31.7147 24.6252 31.359 23.682C30.9335 22.6343 30.1582 21.7664 29.1651 21.2258C27.2002 20.0922 20.9829 20.1822 20.2822 20.1966C20.1082 20.2002 19.9488 20.2943 19.8619 20.445C19.7748 20.5955 19.7729 20.7808 19.8568 20.9332C20.1963 21.5483 23.2253 26.9775 25.1897 28.1116C25.9628 28.5726 26.8431 28.8235 27.743 28.839C27.9677 28.8393 28.1921 28.8209 28.4139 28.784C29.3189 28.635 30.134 28.1485 30.6947 27.4223L32.4021 28.4436C32.8721 28.7282 33.2091 29.1889 33.3377 29.7232C31.6565 29.9976 30.4205 31.4484 30.4169 33.1519V33.1866C29.4182 33.0444 28.4069 33.3422 27.6445 34.0026C26.8821 34.6631 26.4432 35.6215 26.4415 36.6304H26.2874C25.1604 36.6311 24.036 36.7374 22.9288 36.948C22.2402 37.0834 21.5795 37.335 20.9754 37.6917V36.1334C20.9754 35.859 20.7529 35.6365 20.4784 35.6365H17.4969C17.2225 35.6365 17 35.859 17 36.1334V46.0719C17 46.3463 17.2225 46.5688 17.4969 46.5688H20.4784C20.7529 46.5688 20.9754 46.3463 20.9754 46.0719V44.4816C21.6157 44.88 22.3227 45.1588 23.0625 45.3051C24.0159 45.4849 24.9842 45.5752 25.9545 45.5749H33.0854C34.0004 45.574 34.9112 45.4534 35.7952 45.2166L45.5283 42.345C46.5882 42.0601 47.2166 40.9699 46.932 39.9101ZM36.8516 21.0091C37.895 19.9656 41.7446 18.7691 43.8883 18.1897C43.3094 20.3312 42.1105 24.1841 41.0689 25.2264C39.9479 26.3464 38.2737 26.9244 36.8807 25.8997L38.3557 24.425L39.4406 24.9675C39.6859 25.091 39.985 24.9923 40.1085 24.7467C40.232 24.5012 40.1333 24.202 39.8877 24.0785L39.0987 23.6845L40.1124 22.6668L41.2002 23.2135C41.4455 23.337 41.7446 23.238 41.8681 22.9927C41.9916 22.7472 41.8929 22.448 41.6473 22.3245L40.8522 21.928L42.1219 20.6578C42.251 20.5331 42.303 20.3482 42.2573 20.1745C42.212 20.0007 42.0763 19.8651 41.9024 19.8197C41.7286 19.7741 41.544 19.8261 41.4193 19.9551L40.15 21.2258L39.756 20.4358C39.6332 20.1902 39.3345 20.0908 39.0892 20.2135C38.8437 20.3363 38.7442 20.635 38.867 20.8803L39.4112 21.9656L38.395 22.9818L38.001 22.1927C37.878 21.9474 37.5795 21.8479 37.334 21.9707C37.0884 22.0935 36.9892 22.3919 37.112 22.6375L37.6545 23.7223L36.1798 25.1971C35.1529 23.8048 35.734 22.1296 36.8516 21.0091ZM28.2484 27.8035C27.3562 27.9202 26.4515 27.7249 25.6867 27.251C24.4116 26.5151 22.258 23.105 21.1413 21.1836C23.3627 21.1889 27.3931 21.351 28.6682 22.0869C30.0716 22.8974 31.0822 24.4131 30.3628 26.0657L28.5782 24.9993L28.8388 23.7257C28.8863 23.4603 28.7133 23.2053 28.4488 23.1511C28.1846 23.0973 27.9255 23.264 27.8653 23.527L27.6743 24.4587L26.432 23.7175L26.6844 22.4834C26.7322 22.218 26.5592 21.963 26.2947 21.9088C26.0305 21.855 25.7713 22.0217 25.7109 22.2847L25.5282 23.1793L23.9877 22.2568C23.7521 22.1161 23.4469 22.1927 23.3059 22.4283C23.1649 22.6639 23.2418 22.9692 23.4774 23.1101L25.0177 24.031L24.3798 24.5968C24.1741 24.779 24.1546 25.0935 24.3369 25.2992C24.5188 25.5052 24.8333 25.5244 25.0393 25.3422L25.9123 24.5682L27.1396 25.3021L26.532 25.8413C26.326 26.0232 26.3068 26.3375 26.4888 26.5432C26.6706 26.7492 26.985 26.7686 27.1908 26.5866L28.0356 25.8413L29.8341 26.9171C29.4264 27.3903 28.8647 27.7042 28.2484 27.8035ZM29.92 34.1458C30.2262 34.1433 30.5299 34.2004 30.8143 34.3137C30.9873 34.3836 31.1851 34.3508 31.326 34.2285C31.4673 34.1065 31.5279 33.9155 31.4833 33.7343C31.4357 33.5438 31.4114 33.3482 31.4107 33.1519C31.4102 31.8497 32.4162 30.7685 33.715 30.6751C35.0139 30.5819 36.164 31.5081 36.3496 32.7972C36.3693 32.9406 36.4508 33.0685 36.5723 33.1471C36.6941 33.2257 36.8443 33.2473 36.9831 33.206C37.11 33.1694 37.2418 33.1512 37.3738 33.1519C38.197 33.1519 38.8645 33.8194 38.8645 34.6427C38.865 34.9275 38.7823 35.2066 38.6265 35.4451C38.5379 35.5815 38.5217 35.7523 38.5826 35.9027C38.6435 36.0531 38.7743 36.1643 38.9327 36.2004C40.0537 36.4666 40.8471 37.4658 40.8522 38.6181C40.8542 38.9895 40.7714 39.3566 40.6103 39.6915L38.1689 40.4393C38.0471 39.6628 37.4767 39.0322 36.7162 38.8338L34.5318 38.2502L30.2975 37.0079C29.9995 36.921 29.6948 36.8543 29.3893 36.7973C29.4102 36.7439 29.4216 36.6876 29.423 36.6304C29.423 36.3559 29.6455 36.1334 29.92 36.1334C29.9707 36.1315 30.0211 36.1393 30.0689 36.1563C30.323 36.257 30.6105 36.1339 30.7129 35.8806C30.8153 35.6276 30.6942 35.3391 30.4416 35.235C30.2757 35.1697 30.0985 35.1372 29.92 35.1396C29.0967 35.1396 28.4292 35.8071 28.4292 36.6304C28.4292 36.6432 28.4357 36.6542 28.4367 36.667C28.1732 36.6447 27.909 36.6304 27.644 36.6304H27.4353C27.437 35.2587 28.5483 34.1475 29.92 34.1458ZM19.9815 45.5749H17.9938V36.6304H19.9815V45.5749ZM45.2585 41.3863L35.5268 44.2601C34.7302 44.4722 33.9096 44.5801 33.0854 44.5811H25.9545C25.0471 44.5806 24.1415 44.4952 23.2499 44.3261C22.611 44.1999 22.0012 43.9563 21.4514 43.6076L20.9754 43.3094V38.8719L21.0295 38.8333C21.6516 38.3829 22.3635 38.0724 23.1166 37.9224C24.1619 37.7242 25.2235 37.6245 26.2874 37.6242H27.644C28.4476 37.624 29.2471 37.7378 30.019 37.962L34.2641 39.2074L36.459 39.7936C36.9858 39.9312 37.3017 40.4694 37.1651 40.9964V41.0032L37.1622 41.0092V41.0136C37.0435 41.447 36.6502 41.7478 36.2011 41.7486C36.1152 41.749 36.0296 41.7381 35.9466 41.7158L30.0437 40.1355C29.8705 40.0841 29.6829 40.1307 29.5538 40.2573C29.425 40.384 29.375 40.5706 29.4233 40.7448C29.4716 40.919 29.6106 41.0532 29.7863 41.0951L35.6901 42.6759C35.8568 42.7206 36.0286 42.7429 36.2011 42.7424C37.0011 42.7395 37.7217 42.2581 38.0306 41.52L44.755 39.4627C45.2867 39.3232 45.8311 39.6398 45.9731 40.1709C45.9952 40.2549 46.0061 40.3415 46.0054 40.4284C46.0022 40.8799 45.6958 41.2732 45.2585 41.3863Z" fill="#333333" fill-opacity="0.99"/>
<path d="M32.9287 33.8765C33.0813 33.8765 33.2254 33.8061 33.3198 33.686C33.4139 33.5659 33.4477 33.4089 33.411 33.2606C33.4025 33.225 33.3984 33.1886 33.3987 33.1519C33.3987 32.8775 33.6212 32.655 33.8956 32.655C34.1375 32.6531 34.3442 32.829 34.3811 33.068C34.3976 33.1993 34.4663 33.3182 34.5718 33.398C34.6771 33.4781 34.8103 33.512 34.9411 33.4924C35.2124 33.4545 35.4021 33.2044 35.365 32.9328C35.2529 32.1595 34.5619 31.6049 33.7828 31.6624C33.0036 31.7201 32.4019 32.3706 32.4048 33.1519C32.4041 33.2691 32.4182 33.3861 32.4465 33.4996C32.5019 33.7209 32.7006 33.8765 32.9287 33.8765Z" fill="#333333" fill-opacity="0.99"/>
<path d="M38.1153 37.5429C38.0854 37.6715 38.1082 37.8067 38.1783 37.9185C38.2485 38.0304 38.3601 38.11 38.4889 38.1393C38.7085 38.1944 38.8631 38.3912 38.8645 38.6178C38.8645 38.8922 39.087 39.1147 39.3614 39.1147C39.6359 39.1147 39.8584 38.8922 39.8584 38.6178C39.8559 37.9277 39.3813 37.3289 38.71 37.1693C38.4426 37.1084 38.1764 37.2755 38.1153 37.5429Z" fill="#333333" fill-opacity="0.99"/>
<path d="M34.796 35.43C34.0841 35.2374 33.3387 35.5975 33.0468 36.2749C32.9403 36.5277 33.059 36.8194 33.312 36.9259C33.5648 37.0327 33.8565 36.914 33.9633 36.6609C34.0596 36.4387 34.3056 36.322 34.5386 36.388C34.6662 36.4222 34.7749 36.5059 34.8406 36.6204C34.9064 36.7349 34.9241 36.8708 34.8894 36.9982C34.8183 37.2634 34.9755 37.5359 35.2407 37.607C35.283 37.6181 35.3264 37.624 35.3698 37.624C35.5948 37.6237 35.7913 37.4728 35.8495 37.2556C36.0611 36.4608 35.5901 35.6445 34.796 35.43Z" fill="#333333" fill-opacity="0.99"/>
<path d="M36.8764 34.6425C37.1508 34.6425 37.3733 34.865 37.3733 35.1394C37.3733 35.4139 37.5958 35.6364 37.8703 35.6364C38.1447 35.6364 38.3672 35.4139 38.3672 35.1394C38.3672 34.3162 37.6997 33.6487 36.8764 33.6487C36.602 33.6487 36.3795 33.8712 36.3795 34.1456C36.3795 34.42 36.602 34.6425 36.8764 34.6425Z" fill="#333333" fill-opacity="0.99"/>
</svg>
