<svg width="64" height="64" viewBox="0 0 64 64" fill="none" xmlns="http://www.w3.org/2000/svg">
<rect x="0.5" y="0.5" width="63" height="63" rx="31.5" stroke="#666666"/>
<path d="M32 17C23.7158 17 17 23.7158 17 32C17 40.2842 23.7158 47 32 47C40.2842 47 47 40.2842 47 32C46.9907 23.7197 40.2803 17.0093 32 17ZM32 46C24.2681 46 18 39.7319 18 32C18 24.2681 24.2681 18 32 18C39.7319 18 46 24.2681 46 32C45.9912 39.7283 39.7283 45.9912 32 46Z" fill="#333333" fill-opacity="0.99"/>
<path d="M32 19.5C25.0964 19.5 19.5 25.0964 19.5 32C19.5 38.9036 25.0964 44.5 32 44.5C38.9036 44.5 44.5 38.9036 44.5 32C44.4922 25.0996 38.9004 19.5078 32 19.5ZM32 43.5C25.6487 43.5 20.5 38.3513 20.5 32C20.5 25.6487 25.6487 20.5 32 20.5C38.3513 20.5 43.5 25.6487 43.5 32C43.4929 38.3484 38.3484 43.4929 32 43.5Z" fill="#333333" fill-opacity="0.99"/>
<path d="M39.3642 24.6359C39.205 24.4772 38.9596 24.4443 38.7641 24.5553L29.8376 29.6498C29.8322 29.6535 29.8298 29.6593 29.8241 29.6625C29.767 29.7116 29.7136 29.7651 29.6642 29.8224C29.6611 29.8278 29.6552 29.8305 29.6518 29.8359L24.5556 38.7624C24.444 38.9582 24.4772 39.2043 24.6364 39.3637C24.7958 39.5229 25.0419 39.5561 25.2377 39.4445L34.1628 34.35C34.1681 34.3464 34.1706 34.3405 34.1762 34.3373C34.2333 34.2882 34.2868 34.2348 34.3361 34.1774C34.3393 34.172 34.3451 34.1694 34.3486 34.164L39.4447 25.2389C39.5573 25.0429 39.5243 24.7956 39.3642 24.6359ZM26.3322 37.6679L30.1952 30.9025L33.1003 33.8049L26.3322 37.6679ZM33.8051 33.1L30.9052 30.1999L37.6706 26.3368L33.8051 33.1Z" fill="#333333" fill-opacity="0.99"/>
<path d="M24 31.5H22C21.7239 31.5 21.5 31.7239 21.5 32C21.5 32.2762 21.7239 32.5 22 32.5H24C24.2762 32.5 24.5 32.2762 24.5 32C24.5 31.7239 24.2762 31.5 24 31.5Z" fill="#333333" fill-opacity="0.99"/>
<path d="M42 31.5H40C39.7239 31.5 39.5 31.7239 39.5 32C39.5 32.2762 39.7239 32.5 40 32.5H42C42.2761 32.5 42.5 32.2762 42.5 32C42.5 31.7239 42.2761 31.5 42 31.5Z" fill="#333333" fill-opacity="0.99"/>
<path d="M32 24.5C32.2762 24.5 32.5 24.2762 32.5 24V22C32.5 21.7239 32.2762 21.5 32 21.5C31.7239 21.5 31.5 21.7239 31.5 22V24C31.5 24.2762 31.7239 24.5 32 24.5Z" fill="#333333" fill-opacity="0.99"/>
<path d="M32 39.5C31.7239 39.5 31.5 39.7239 31.5 40V42C31.5 42.2761 31.7239 42.5 32 42.5C32.2762 42.5 32.5 42.2761 32.5 42V40C32.5 39.7239 32.2762 39.5 32 39.5Z" fill="#333333" fill-opacity="0.99"/>
</svg>
