<svg width="64" height="64" viewBox="0 0 64 64" fill="none" xmlns="http://www.w3.org/2000/svg">
<rect x="0.5" y="0.5" width="63" height="63" rx="31.5" stroke="#666666"/>
<path d="M43.9936 23.3559L44.0086 23.3441L43.6918 22.9395C40.7667 19.179 36.2644 16.986 31.5003 17.0011C30.6113 17.0006 29.7239 17.0758 28.8478 17.2258C25.066 17.8721 21.6628 19.9096 19.3072 22.938V22.9411L18.9915 23.3441L19.0065 23.3559C14.9978 28.7936 14.9978 36.208 19.0065 41.6456L18.9915 41.6575L19.3082 42.0621C22.2334 45.8227 26.7359 48.0158 31.5003 48.0005C32.3893 48.001 33.2766 47.9258 34.1528 47.7758C37.9346 47.1295 41.3378 45.0919 43.6934 42.0636V42.0605L44.0091 41.6575L43.9936 41.6456C48.0022 36.208 48.0022 28.7936 43.9936 23.3559ZM20.5564 23.0522C20.6422 22.953 20.7295 22.8558 20.8173 22.7587C20.9124 22.6554 21.008 22.552 21.1056 22.4487C21.1945 22.3557 21.2854 22.2648 21.3769 22.1749C21.4802 22.0752 21.5799 21.9765 21.6833 21.8804C21.7763 21.7943 21.8701 21.7094 21.9648 21.6257C22.0713 21.5316 22.1791 21.4391 22.2883 21.3482C22.3844 21.2686 22.4813 21.1901 22.5792 21.1126C22.6911 21.0245 22.8046 20.9383 22.9196 20.8543C23.0188 20.7802 23.1187 20.7079 23.2193 20.6373C23.3366 20.5551 23.4554 20.4756 23.5748 20.397C23.6781 20.3281 23.7814 20.2617 23.8847 20.1976C24.0067 20.1222 24.1302 20.0493 24.2536 19.9775C24.357 19.9166 24.4639 19.8556 24.5703 19.7972C24.6974 19.728 24.8261 19.6618 24.9547 19.5962C25.0622 19.542 25.1692 19.4872 25.2771 19.4355C25.4084 19.373 25.5411 19.3146 25.6744 19.2557C25.784 19.2077 25.8935 19.1586 26.0041 19.1132C26.14 19.0579 26.2774 19.0062 26.4174 18.9551C26.528 18.9137 26.638 18.8708 26.7501 18.8321C26.8219 18.8073 26.8958 18.7856 26.9687 18.7618C25.179 20.3467 23.8291 22.367 23.0498 24.6269C22.137 24.2345 21.2683 23.7465 20.4583 23.171C20.4913 23.1317 20.5234 23.0914 20.5564 23.0522ZM19.83 23.9801C20.7286 24.6253 21.6954 25.1699 22.713 25.6039C22.0719 27.6715 21.7281 29.8197 21.692 31.9841H17.055C17.1455 29.0962 18.1135 26.3043 19.83 23.9801ZM17.055 33.0175H21.692C21.7281 35.1819 22.0718 37.3301 22.713 39.3977C21.6955 39.8318 20.7287 40.3763 19.83 41.0215C18.1135 38.6973 17.1455 35.9054 17.055 33.0175ZM26.7455 46.1721C26.6354 46.1313 26.5269 46.0889 26.4179 46.0486C26.2784 45.9969 26.1389 45.9453 26.001 45.8879C25.893 45.8435 25.786 45.7954 25.6786 45.7484C25.5432 45.689 25.4073 45.6291 25.2735 45.565C25.1702 45.5133 25.0643 45.4617 24.9599 45.41C24.8276 45.3428 24.6959 45.2746 24.5657 45.2034C24.4624 45.1476 24.359 45.0887 24.2598 45.0298C24.1317 44.9554 24.0046 44.8804 23.8791 44.8024C23.7788 44.7399 23.6801 44.6753 23.5815 44.6107C23.458 44.5296 23.335 44.447 23.2136 44.3617C23.117 44.2935 23.0209 44.2238 22.9258 44.1551C22.807 44.0672 22.6895 43.9776 22.5735 43.8864C22.4794 43.812 22.3862 43.7366 22.294 43.6601C22.181 43.5657 22.0689 43.4694 21.9576 43.3713C21.8674 43.2917 21.7778 43.2108 21.689 43.1285C21.581 43.0282 21.4751 42.9254 21.3697 42.8216C21.2823 42.7353 21.195 42.6485 21.1113 42.5596C21.008 42.4563 20.9103 42.3462 20.8122 42.2372C20.728 42.1442 20.6438 42.0512 20.5616 41.9556C20.527 41.9153 20.4939 41.8735 20.4583 41.8327C21.2684 41.2577 22.1371 40.77 23.0498 40.3778C23.8282 42.6371 25.1766 44.6573 26.9645 46.2429C26.8917 46.2191 26.8178 46.1974 26.7455 46.1721ZM30.9836 46.9404C28.0211 46.6557 25.4476 43.9437 23.9901 39.9949C26.2337 39.1814 28.5974 38.7478 30.9836 38.7121V46.9404ZM30.9836 37.6787C28.4858 37.7153 26.0114 38.1669 23.6615 39.0148C23.0752 37.0682 22.76 35.0501 22.7248 33.0175H30.9836V37.6787ZM30.9836 31.9841H22.7248C22.76 29.9515 23.0752 27.9333 23.6615 25.9868C26.0113 26.8349 28.4858 27.2864 30.9836 27.3228V31.9841ZM30.9836 26.2895C28.5974 26.2544 26.2336 25.8217 23.9896 25.0093C25.4476 21.0579 28.0211 18.3444 30.9836 18.0612V26.2895ZM45.9455 31.9841H41.3085C41.2725 29.8197 40.9288 27.6715 40.2876 25.6039C41.3051 25.1698 42.2719 24.6252 43.1705 23.9801C44.8871 26.3043 45.855 29.0962 45.9455 31.9841ZM36.2551 18.8321C36.3651 18.8703 36.4736 18.9127 36.5826 18.953C36.7221 19.0047 36.8616 19.0563 36.9996 19.1137C37.1076 19.1581 37.2145 19.2062 37.322 19.2532C37.4573 19.3126 37.5932 19.3725 37.727 19.4366C37.8304 19.4882 37.9363 19.5399 38.0406 19.5916C38.1729 19.6587 38.3047 19.7269 38.4349 19.7982C38.5382 19.854 38.6415 19.9129 38.7407 19.9718C38.8688 20.0462 38.9959 20.1212 39.1215 20.1992C39.2217 20.2617 39.3204 20.3263 39.4191 20.3908C39.5431 20.472 39.6655 20.5546 39.787 20.6399C39.8836 20.7076 39.9791 20.7773 40.0742 20.8465C40.193 20.9349 40.3108 21.0243 40.4276 21.1162C40.5209 21.1903 40.6138 21.2655 40.7061 21.342C40.8197 21.4364 40.9321 21.5327 41.0429 21.6308C41.1336 21.7104 41.2231 21.7913 41.3116 21.8737C41.4196 21.9739 41.5255 22.0767 41.6309 22.1806C41.7182 22.2668 41.8055 22.3536 41.8892 22.4425C41.9926 22.5458 42.0902 22.6559 42.1884 22.7649C42.2726 22.8579 42.3568 22.9509 42.439 23.0465C42.4736 23.0868 42.5066 23.1286 42.5423 23.1694C41.7322 23.7444 40.8635 24.2321 39.9507 24.6243C39.172 22.3657 37.8237 20.3463 36.036 18.7613C36.1089 18.7851 36.1827 18.8068 36.2551 18.8321ZM32.0169 18.0612C34.9795 18.3459 37.5529 21.0579 39.0104 25.0067C36.7668 25.8201 34.4032 26.2538 32.0169 26.2895V18.0612ZM32.0169 27.3228C34.5148 27.2863 36.9892 26.8347 39.339 25.9868C39.9254 27.9333 40.2406 29.9515 40.2757 31.9841H32.0169V27.3228ZM32.0169 33.0175H40.2757C40.2405 35.0501 39.9254 37.0682 39.339 39.0148C36.9893 38.1667 34.5148 37.7152 32.0169 37.6787V33.0175ZM32.0169 46.9404V38.7121C34.4034 38.748 36.7671 39.1816 39.0109 39.9949C37.5529 43.9437 34.9795 46.6572 32.0169 46.9404ZM42.4441 41.9494C42.3584 42.0486 42.271 42.1458 42.1832 42.2429H42.1853C42.0902 42.3462 41.9946 42.4496 41.897 42.5529C41.8081 42.6459 41.7172 42.7368 41.6257 42.8267C41.5224 42.9264 41.4227 43.0251 41.3194 43.1212C41.2264 43.2077 41.1325 43.2926 41.0378 43.3759C40.9313 43.47 40.8236 43.5624 40.7143 43.6534C40.6183 43.7329 40.5211 43.812 40.423 43.889C40.311 43.9775 40.1979 44.0636 40.0835 44.1473C39.9843 44.2214 39.8841 44.294 39.7828 44.3653C39.6661 44.447 39.5472 44.527 39.4279 44.6051C39.3245 44.674 39.2212 44.7404 39.1179 44.8045C38.9959 44.8799 38.8725 44.9528 38.749 45.0246C38.6457 45.0856 38.5387 45.1465 38.4323 45.2049C38.3052 45.2741 38.1765 45.3403 38.0479 45.4059C37.9404 45.4575 37.8335 45.5149 37.7255 45.5666C37.5943 45.6291 37.4615 45.6875 37.3282 45.7464C37.2186 45.7944 37.1091 45.8435 36.9985 45.889C36.8627 45.9442 36.7252 45.9959 36.5852 46.0471C36.4747 46.0884 36.3646 46.1313 36.2525 46.17C36.1807 46.1948 36.1068 46.2165 36.0339 46.2403C37.8229 44.655 39.1721 42.6345 39.9507 40.3747C40.8636 40.7671 41.7323 41.2551 42.5423 41.8306C42.5092 41.8699 42.4772 41.9102 42.4441 41.9494ZM43.1705 41.0215C42.2719 40.3763 41.3051 39.8317 40.2876 39.3977C40.9288 37.3301 41.2725 35.1819 41.3085 33.0175H45.9455C45.855 35.9054 44.8871 38.6973 43.1705 41.0215Z" fill="#333333" fill-opacity="0.99"/>
</svg>
