<svg width="64" height="64" viewBox="0 0 64 64" fill="none" xmlns="http://www.w3.org/2000/svg">
<rect x="0.5" y="0.5" width="63" height="63" rx="31.5" stroke="#666666"/>
<path d="M26.8989 40.7513L31.3316 41.2413C31.5406 41.2645 31.7431 41.159 31.8434 40.9742C31.9438 40.7894 31.9221 40.5622 31.7888 40.3996L30.4148 38.7206L27.8373 35.3778L30.3033 35.8431C30.5055 35.881 30.7113 35.7952 30.8266 35.6248C30.942 35.4541 30.945 35.2314 30.8347 35.0577L27.3341 29.5633C27.238 29.4013 27.061 29.3043 26.8726 29.3106C26.684 29.3169 26.5139 29.4252 26.4285 29.5934C26.3432 29.7615 26.3563 29.9628 26.4624 30.1188L29.3199 34.6078L27.3937 34.246C27.115 34.1935 26.8461 34.3753 26.7908 34.6535C26.7489 34.6707 26.7093 34.6934 26.6734 34.7211C26.4482 34.8954 26.4063 35.219 26.5798 35.445L29.6036 39.3649L30.1853 40.0754L26.9557 39.7181C26.9178 39.7143 26.8799 39.7143 26.8421 39.7181L22.3483 40.216C22.0753 40.2461 21.8734 40.4841 21.8885 40.7581C21.9034 41.0323 22.1299 41.2469 22.4046 41.2471C22.4238 41.2471 22.4429 41.2464 22.4619 41.2443L26.8989 40.7513Z" fill="#333333" fill-opacity="0.99"/>
<path d="M27.6061 24.6886C27.7338 24.9439 28.0444 25.0474 28.2999 24.9196C28.5554 24.7919 28.6589 24.4811 28.5309 24.2258L27.364 21.8882C27.2362 21.6324 26.9254 21.5289 26.6699 21.6567C26.4142 21.7844 26.3106 22.0952 26.4384 22.351L27.6061 24.6886Z" fill="#333333" fill-opacity="0.99"/>
<path d="M26.5951 26.3431C26.4835 26.4236 26.4088 26.5453 26.3873 26.6811C26.3656 26.817 26.3992 26.9558 26.4802 27.0669L28.4157 29.7287C28.5836 29.9598 28.907 30.011 29.138 29.8431C29.369 29.6752 29.4203 29.3518 29.2521 29.1208L27.3174 26.4574C27.1495 26.2264 26.8261 26.1752 26.5951 26.3431Z" fill="#333333" fill-opacity="0.99"/>
<path d="M43.3726 40.4115L45.4275 40.7538C45.629 40.7877 45.8312 40.6995 45.9441 40.5294C46.0567 40.3592 46.059 40.1385 45.9491 39.9664L42.8354 35.0734H44.4787C44.6777 35.0734 44.8587 34.9595 44.945 34.7803C45.0311 34.601 45.0069 34.3882 44.8824 34.2332L41.7025 30.2585L42.2847 30.4041C42.4811 30.4546 42.6889 30.386 42.8162 30.2282C42.9434 30.0704 42.9667 29.8527 42.8758 29.6715L38.2222 20.3642C38.1249 20.2011 37.9492 20.1014 37.7594 20.1014C37.5695 20.1014 37.3938 20.2011 37.2966 20.3642L32.643 29.6715C32.5526 29.8522 32.5758 30.0688 32.7023 30.2264C32.8288 30.3839 33.0356 30.4534 33.2315 30.4041L33.8132 30.2585L32.9997 31.2724L30.6807 28.0836L31.9684 28.3422C32.162 28.3826 32.3617 28.3073 32.4806 28.1493C32.6005 27.9922 32.6205 27.7809 32.5324 27.6042L27.3617 17.2628C27.2645 17.1 27.0888 17 26.8989 17C26.709 17 26.5333 17.1 26.4361 17.2628L21.2654 27.6042C21.1773 27.7809 21.1973 27.9922 21.3172 28.1493C21.4361 28.3073 21.6358 28.3826 21.8295 28.3422L23.1166 28.0836L19.7587 32.7009C19.6337 32.8731 19.6269 33.1043 19.7418 33.2836C19.8554 33.4644 20.0695 33.5553 20.2783 33.5118L21.6744 33.2326L18.7059 37.8981C18.5963 38.0703 18.5983 38.2909 18.7112 38.4611C18.824 38.6313 19.0262 38.7194 19.2277 38.6856L20.9743 38.3944L17.191 43.019C17.0645 43.1738 17.0385 43.3874 17.1241 43.5679C17.2094 43.7484 17.3915 43.8633 17.5912 43.8636C17.6104 43.8636 17.6296 43.8623 17.6485 43.8603L24.8301 43.0619V47.483C24.8301 47.7686 25.0617 48.0001 25.3472 48.0001H28.4496C28.7352 48.0001 28.9667 47.7686 28.9667 47.483V43.0619L30.401 43.2218L29.5277 45.2077C29.4524 45.3789 29.4754 45.5771 29.5875 45.7266C29.6999 45.876 29.8839 45.9533 30.069 45.9285L35.6886 45.1779V47.483C35.6886 47.7686 35.9201 48.0001 36.2056 48.0001H39.308C39.5936 48.0001 39.8251 47.7686 39.8251 47.483V45.1779L45.4447 45.927C45.4672 45.9301 45.4901 45.9318 45.5129 45.9318C45.6954 45.9318 45.8643 45.8356 45.9575 45.6786C46.0506 45.5216 46.0542 45.3272 45.9668 45.1671L43.3726 40.4115ZM22.645 37.9859C22.7715 37.8312 22.7975 37.6176 22.7119 37.4371C22.6263 37.2565 22.4445 37.1417 22.2448 37.1417C22.2163 37.1417 22.1877 37.1442 22.1595 37.1487L20.2013 37.4752L23.2004 32.7655C23.311 32.5911 23.3072 32.3674 23.1906 32.197C23.0739 32.023 22.8631 31.9374 22.6583 31.9813L21.3715 32.2399L24.7294 27.6224C24.8551 27.4502 24.8622 27.2184 24.7471 27.0386C24.6322 26.8591 24.4186 26.7685 24.2095 26.8107L22.6611 27.1207L26.8984 18.6492L31.1337 27.1197L29.585 26.8094C29.3764 26.7677 29.1634 26.8584 29.0485 27.0376C28.9339 27.2166 28.9404 27.4479 29.0654 27.6203L32.4203 32.2356L31.2278 31.9983L31.1385 31.9813C31.0875 31.9695 31.0352 31.9659 30.9832 31.971C30.9511 31.9755 30.9193 31.9834 30.8885 31.9942C30.8711 31.997 30.8539 32.0013 30.837 32.0066C30.8209 32.0132 30.807 32.0253 30.7913 32.0334C30.762 32.0477 30.7343 32.0649 30.7088 32.0851C30.7057 32.0876 30.7032 32.0904 30.7009 32.0934C30.6646 32.1235 30.6323 32.1581 30.6052 32.197C30.5969 32.2116 30.5896 32.2267 30.583 32.2424C30.5653 32.2709 30.5507 32.3012 30.5391 32.3328C30.5088 32.4285 30.507 32.531 30.5338 32.6277C30.5477 32.6764 30.5684 32.7231 30.5954 32.766L33.5945 37.4762L31.7237 37.1659L31.6472 37.1513C31.4364 37.1116 31.223 37.2063 31.1109 37.3888C30.9986 37.5716 31.0107 37.8044 31.1415 37.9746L31.1933 38.0377C31.1968 38.0428 31.1983 38.0491 31.2026 38.0541L35.0003 42.6918L31.2155 42.2694C31.2104 42.2692 31.2054 42.2692 31.2003 42.2694L28.5117 41.971L28.5034 41.9685L26.9522 41.7978C26.9148 41.7935 26.8769 41.7935 26.8393 41.7978L25.2881 41.9685L25.2795 41.971L18.7945 42.6918L22.645 37.9859ZM27.9325 46.966H25.8643V42.9471L26.8984 42.8324L27.9325 42.9471V46.966ZM38.791 46.966H36.7227V45.0398L37.7568 44.9022L38.791 45.0398V46.966ZM39.3929 44.0769C39.3651 44.0686 39.3368 44.063 39.308 44.06C39.3017 44.06 39.2967 44.063 39.2904 44.0635L37.825 43.8681C37.7798 43.8618 37.7339 43.8618 37.6887 43.8681L36.2233 44.0635C36.217 44.0635 36.2119 44.06 36.2056 44.06C36.1769 44.0633 36.1483 44.0691 36.1203 44.0769L30.8461 44.7803L31.4796 43.3412L36.1498 43.8583C36.3589 43.8817 36.5614 43.7762 36.6619 43.5914C36.7623 43.4066 36.7409 43.1791 36.6073 43.0165L32.822 38.3934L34.5711 38.6835C34.6209 38.6916 34.6716 38.6924 34.7216 38.6861C34.8708 38.6671 35.0041 38.5843 35.0872 38.4591C35.1139 38.4184 35.1346 38.3743 35.1488 38.3278V38.3235C35.1571 38.2912 35.1622 38.2581 35.1637 38.2248C35.1637 38.2089 35.171 38.1937 35.171 38.1783C35.171 38.1627 35.168 38.1607 35.1675 38.1523C35.1649 38.0609 35.1384 37.9718 35.0902 37.8938L32.1208 33.2331L33.4476 33.4977L33.5173 33.5118C33.7261 33.5525 33.9384 33.4613 34.0525 33.2821C34.1666 33.1028 34.1596 32.8718 34.0344 32.6999L33.6266 32.1394L35.5717 29.7093C35.7105 29.5359 35.7232 29.2935 35.6032 29.1067C35.4833 28.9198 35.2576 28.8305 35.0422 28.8845L34.0649 29.1291L37.7568 21.7516L41.445 29.1271L40.4679 28.8825C40.2526 28.8284 40.0268 28.9178 39.9069 29.1046C39.787 29.2915 39.7996 29.5339 39.9382 29.707L43.4027 34.0393H41.8934C41.7045 34.039 41.5308 34.1418 41.4399 34.3074C41.3491 34.4728 41.3556 34.6747 41.4569 34.8338L44.456 39.5435L42.4978 39.217C42.3026 39.1844 42.106 39.266 41.9913 39.4271C41.8765 39.5884 41.8638 39.801 41.9585 39.9747L44.5729 44.7672L39.3929 44.0769Z" fill="#333333" fill-opacity="0.99"/>
<path d="M37.912 26.6844C37.9996 26.8596 38.1789 26.9704 38.3748 26.9702C38.5541 26.9702 38.7204 26.8773 38.8146 26.725C38.9085 26.5725 38.9171 26.3824 38.8371 26.2221L38.2223 24.9905C38.0945 24.7348 37.7838 24.6313 37.5282 24.759C37.2725 24.8868 37.169 25.1976 37.2967 25.4533L37.912 26.6844Z" fill="#333333" fill-opacity="0.99"/>
<path d="M41.1931 37.9513C41.3943 37.9846 41.5966 37.8968 41.7092 37.7266C41.8218 37.5564 41.8238 37.336 41.7142 37.1638L39.068 33.0051H40.1761C40.3748 33.0048 40.5559 32.8907 40.642 32.7117C40.7278 32.5324 40.7036 32.3199 40.5793 32.1648L38.1609 29.1415C37.9826 28.9185 37.6569 28.8822 37.434 29.0607C37.2111 29.2392 37.175 29.5649 37.3532 29.7878L39.1016 31.9709H38.1258C37.9372 31.9709 37.7635 32.0737 37.6729 32.2393C37.582 32.4047 37.5885 32.6064 37.69 32.7655L40.2196 36.7407L38.6459 36.4786C38.451 36.4463 38.2546 36.5279 38.1399 36.6889C38.0253 36.85 38.0127 37.0626 38.1071 37.2361L40.8033 42.1782L38.1192 41.8205C37.9339 41.7917 37.7476 41.8652 37.632 42.0129C37.5166 42.1606 37.4901 42.3593 37.563 42.532C37.6357 42.7049 37.7963 42.8246 37.9826 42.8453L41.6781 43.3381C41.7008 43.3411 41.7236 43.3427 41.7463 43.3427C41.9288 43.3427 42.0975 43.2465 42.1906 43.0897C42.2838 42.9329 42.2876 42.7387 42.2002 42.5784L39.525 37.6731L41.1931 37.9513Z" fill="#333333" fill-opacity="0.99"/>
</svg>
