<svg width="64" height="64" viewBox="0 0 64 64" fill="none" xmlns="http://www.w3.org/2000/svg">
<rect x="0.5" y="0.5" width="63" height="63" rx="31.5" stroke="#666666"/>
<path d="M29.9726 27.3856C30.2333 27.6998 30.5856 27.9275 30.9824 28.0374C31.3385 28.135 31.715 28.135 32.0711 28.0374C32.4738 27.9252 32.8309 27.692 33.0924 27.3701C33.6489 26.695 33.6951 25.742 33.2066 25.0173C32.7256 24.3136 31.8446 23.988 31.0124 24.206C30.18 24.4236 29.5798 25.1376 29.5173 25.9831L29.507 26.1216C29.5056 26.4608 29.5924 26.7948 29.7595 27.0917C29.8213 27.1958 29.8929 27.2941 29.9726 27.3856ZM30.5278 26.0433C30.5637 25.5265 31.0006 25.1261 31.5264 25.1273C31.8651 25.1273 32.1816 25.2934 32.3706 25.57C32.6105 25.9301 32.5879 26.4012 32.3144 26.7373C32.1832 26.9011 32.0036 27.0206 31.8 27.0789C31.4165 27.1867 31.0045 27.059 30.7532 26.7544C30.7107 26.7062 30.6725 26.6547 30.6395 26.6001C30.5622 26.463 30.5201 26.3095 30.5172 26.1529L30.5278 26.0433Z" fill="#333333" fill-opacity="0.99"/>
<path d="M34.8076 28.4299C35.2287 27.8548 35.4844 27.1785 35.5475 26.4723L41.4468 24.9135L43.2716 28.5517L47 27.563L46.6334 22.0024L44.1234 17L40.4013 17.9872L40.6637 22.0333L34.6563 23.6171C33.6546 22.3991 32.0186 21.8757 30.4812 22.2818C28.9439 22.6878 27.7932 23.947 27.5448 25.495L16 28.5389L16.787 31.422L18.0334 31.0925L21.2786 43.023H16.3816V47H46.6711V43.023H38.7793L34.8076 28.4299ZM29.0609 29.2684C29.1114 29.3053 29.1617 29.3352 29.2122 29.368C29.2728 29.4102 29.333 29.4514 29.3961 29.4903C29.502 29.5553 29.6115 29.613 29.7236 29.6688C29.7848 29.6991 29.8438 29.7314 29.9063 29.7588C29.926 29.7673 29.9438 29.7786 29.9631 29.7863L26.363 43.023H25.3171L29.0609 29.2684ZM30.9368 30.0535C31.3275 30.1131 31.7252 30.1131 32.1159 30.0535L35.6444 43.023H27.4087L30.9368 30.0535ZM33.0894 29.7881C33.1091 29.7801 33.1266 29.7683 33.1464 29.7603C33.2079 29.7333 33.2671 29.7005 33.3273 29.6707C33.4386 29.6156 33.5483 29.5583 33.6544 29.4932C33.7193 29.4533 33.7811 29.4106 33.8436 29.3675C33.8939 29.3337 33.9445 29.3049 33.992 29.268L37.7358 43.023H36.6897L33.0894 29.7881ZM43.5851 18.1721L45.6388 22.2658L45.9387 26.8159L43.8102 27.3796L42.4418 24.6503H42.4451L41.7567 23.288L41.4614 18.7357L43.5851 18.1721ZM40.7292 23.0438L40.7622 23.5469L40.9908 24.0027L35.5094 25.4529C35.4806 25.2848 35.4404 25.1185 35.3899 24.9557C35.3808 24.9267 35.367 24.8995 35.3577 24.8708C35.3153 24.7455 35.2717 24.6221 35.2166 24.4989L40.7292 23.0438ZM31.5263 23.139C33.1888 23.1345 34.5421 24.4533 34.5553 26.0899V26.1216C34.5496 26.9671 34.1844 27.7718 33.5483 28.3401C33.5422 28.345 33.5351 28.349 33.5291 28.3543C32.9136 28.8934 32.1011 29.1611 31.2803 29.0955C30.4593 29.0298 29.7013 28.6362 29.1824 28.0065C29.0721 27.8763 28.9737 27.737 28.8876 27.5902C28.6316 27.142 28.4972 26.6358 28.4974 26.1216C28.4974 26.0666 28.5007 26.0118 28.508 25.9574V25.9537L28.5692 25.5158C28.8581 24.1333 30.093 23.1405 31.5263 23.139ZM17.2398 29.2418L27.5095 26.5339C27.5095 26.5509 27.516 26.5675 27.518 26.5836C27.5273 26.6613 27.5434 26.7369 27.5571 26.8128C27.573 26.9028 27.5878 26.9929 27.6099 27.0811C27.6287 27.1548 27.6533 27.2265 27.676 27.2985C27.6987 27.3706 27.7135 27.4369 27.7386 27.5033L17.5005 30.2056L17.2398 29.2418ZM19.0069 30.837L28.2214 28.405C28.2279 28.4141 28.2348 28.4221 28.2415 28.431L24.2736 43.023H22.3219L19.0069 30.837ZM45.6615 44.0174V46.0057H17.3912V44.0174H45.6615Z" fill="#333333" fill-opacity="0.99"/>
</svg>
