<svg width="64" height="64" viewBox="0 0 64 64" fill="none" xmlns="http://www.w3.org/2000/svg">
<rect x="0.5" y="0.5" width="63" height="63" rx="31.5" stroke="#666666"/>
<path d="M46.9513 31.325C46.9693 31.2765 46.9796 31.2257 46.9819 31.1739C46.9819 31.1194 46.973 31.0651 46.9561 31.0133L46.9162 30.9004C46.4939 26.8188 44.4678 23.0721 41.2831 20.4847C41.0555 20.2993 40.8176 20.1319 40.5796 19.9601C40.5678 19.9503 40.5615 19.9364 40.5486 19.927C40.5357 19.9177 40.5253 19.9187 40.5145 19.9119C37.8814 18.0244 34.7247 17.0068 31.4849 17.0007C31.3516 17.0007 31.2175 17.0007 31.1177 17.0111C29.3896 17.0447 27.6802 17.3735 26.0629 17.9835C24.6609 16.8898 22.7577 16.6916 21.1602 17.4728C19.5627 18.254 18.5506 19.878 18.5531 21.6562C18.5842 22.2477 18.7216 22.8286 18.9593 23.3709C18.4314 24.0925 17.9667 24.8581 17.5704 25.6595C17.5625 25.6718 17.558 25.6852 17.5512 25.6981C13.8838 33.2812 16.9354 42.4054 24.427 46.2561C31.9184 50.1071 41.1141 47.2786 45.1462 39.8829C46.2504 37.8485 46.8781 35.5897 46.9814 33.2774C46.9975 33.0278 47.0031 32.7735 47.0031 32.5189C47.0031 32.118 46.9824 31.7207 46.9513 31.325ZM45.4483 28.6704C45.3826 28.6121 45.322 28.5446 45.2533 28.4908C44.5774 27.9776 43.8113 27.5949 42.9948 27.3628C42.2512 27.1762 41.474 27.1681 40.7266 27.3391C40.0909 27.4831 39.4317 27.4863 38.7944 27.3487C37.5578 27.0787 36.5806 26.8658 36.0623 26.0381C35.32 24.8482 35.6681 23.1759 36.4513 22.5874C36.7094 22.4093 37.0279 22.3414 37.3363 22.3985C37.8849 22.4434 38.4363 22.3505 38.9399 22.1285C39.4759 21.8774 39.952 21.515 40.3367 21.0649C40.4344 21.1404 40.5377 21.2084 40.6334 21.2864C42.9677 23.1868 44.6506 25.7681 45.4483 28.6704ZM23.2086 18.0353C25.2072 18.0385 26.8265 19.6578 26.8295 21.6562C26.8295 23.2034 24.5056 26.7458 23.2086 28.5416C21.9788 26.8797 20.9102 25.1041 20.0176 23.2391C19.7743 22.7438 19.6284 22.2065 19.5877 21.6562C19.59 19.6573 21.2097 18.0375 23.2086 18.0353ZM17.0013 32.5189C17.0033 31.5551 17.1006 30.5935 17.2915 29.6486C17.3468 30.3677 17.4406 31.0075 17.5244 31.5624C17.8449 33.6833 18.1478 35.6826 19.7109 37.511C20.3646 38.2814 21.4593 39.5692 23.1518 39.7597C24.8443 39.9501 26.9636 38.9764 27.5759 38.6734L27.8107 38.5549C28.1361 38.3501 28.5079 38.2311 28.8915 38.2089C29.5459 38.2682 30.1521 38.5779 30.584 39.0732C31.4668 40.0504 31.6908 41.682 31.0634 42.5648C30.8623 42.8269 30.5848 43.0199 30.2688 43.1169C29.728 43.2977 29.2684 43.6642 28.9716 44.1514C28.5344 44.943 28.453 45.8828 28.748 46.7378C21.9356 45.4179 17.0119 39.4581 17.0013 32.5189ZM31.4849 47.0025C30.9851 47.0025 30.4858 46.9767 29.9884 46.9255C29.946 46.8712 29.9066 46.8146 29.8705 46.7557C29.5209 46.1091 29.5171 45.3305 29.8606 44.6806C30.0473 44.3841 30.3365 44.1666 30.6729 44.0696C31.1662 43.8996 31.5966 43.5837 31.9065 43.1639C32.8062 41.8987 32.5516 39.7069 31.3531 38.3811C30.7297 37.6684 29.8478 37.2339 28.9029 37.1743H28.8799C28.3351 37.1907 27.8042 37.3489 27.3389 37.6333L27.1182 37.7449C25.9879 38.3021 24.3798 38.8529 23.2667 38.7277C21.9821 38.5839 21.09 37.5327 20.4982 36.8366C19.1262 35.233 18.8577 33.4587 18.5476 31.4053C18.2147 29.6486 18.2016 27.8465 18.5082 26.0851C18.7853 25.5241 19.0982 24.9816 19.4455 24.4608C19.4627 24.4951 19.4816 24.5302 19.4973 24.5643C19.5304 24.63 19.5645 24.6951 19.6006 24.7608C19.6523 24.8586 19.7041 24.9563 19.7559 25.0548C19.7915 25.121 19.8276 25.1872 19.8645 25.2538C19.9193 25.3521 19.9746 25.4503 20.0304 25.5486C20.0678 25.6138 20.105 25.6792 20.1428 25.7443C20.2004 25.8426 20.258 25.9403 20.3161 26.0381C20.3542 26.1022 20.3921 26.1659 20.4308 26.2295C20.4919 26.3328 20.5535 26.4296 20.6152 26.5293C20.6503 26.5859 20.6849 26.6432 20.7185 26.6991C20.795 26.8218 20.871 26.9408 20.947 27.0613C20.9672 27.0923 20.9875 27.1249 21.0072 27.1555C21.1019 27.3022 21.1958 27.4454 21.288 27.5851C21.3231 27.6369 21.3572 27.6887 21.3916 27.7404C21.4484 27.8258 21.5052 27.9112 21.5605 27.9928L21.6833 28.1723C21.7277 28.238 21.7727 28.3037 21.8161 28.3663L21.9402 28.5446C21.9786 28.6002 22.0169 28.6545 22.0536 28.7065C22.0902 28.7588 22.1316 28.8179 22.17 28.8712C22.2081 28.9245 22.2342 28.9616 22.2647 29.0046L22.368 29.1473L22.4524 29.2642L22.5347 29.3776L22.6019 29.4685L22.6651 29.5544L22.7027 29.6062C22.7489 29.6688 22.784 29.7158 22.7939 29.7287C22.8914 29.859 23.0447 29.9358 23.2076 29.9358C23.3705 29.9358 23.5238 29.859 23.6213 29.7287C24.0555 29.1531 27.864 24.047 27.864 21.6562C27.864 21.5051 27.8547 21.3551 27.8403 21.2061C27.8358 21.1601 27.8284 21.1141 27.8226 21.0682C27.8092 20.9646 27.7933 20.8611 27.7711 20.7578C27.7612 20.706 27.7504 20.6575 27.739 20.6077C27.715 20.5042 27.6872 20.4009 27.6557 20.2973C27.6428 20.2559 27.6319 20.214 27.6183 20.1733C27.5718 20.0346 27.5195 19.8975 27.4602 19.7641C27.4488 19.7386 27.4352 19.7124 27.4233 19.6891C27.3715 19.5815 27.32 19.4749 27.2604 19.3709C27.2346 19.3244 27.2061 19.2794 27.1783 19.2337C27.1285 19.1521 27.0768 19.0718 27.023 18.9928C26.9909 18.9468 26.9583 18.9008 26.9247 18.8556C26.907 18.8329 26.8921 18.8086 26.8729 18.7864C27.9492 18.424 29.0653 18.1926 30.1971 18.0974C29.3906 19.6197 29.1272 21.0278 29.4282 22.2874C29.6528 23.131 30.0789 23.9076 30.6699 24.5504C31.1566 25.1531 31.5067 25.5875 31.4849 26.2967C31.4405 27.7968 29.7465 29.0455 29.1054 29.5173C28.2646 30.1227 27.3248 30.5766 26.3279 30.859C25.3883 31.1658 24.5778 31.4305 24.2679 32.3555C23.9615 33.5769 24.4646 34.8585 25.5204 35.545C26.1531 35.8867 26.8987 35.9526 27.5817 35.7271C28.3298 35.5533 29.1032 35.5162 29.8644 35.618C30.8472 35.7571 31.6946 35.8766 32.0964 36.4393C32.3349 36.7755 32.3225 37.1231 32.276 37.7606C32.1699 38.663 32.2616 39.5778 32.5442 40.4414C32.7801 41.1491 33.1365 42.2177 33.9928 42.341C34.0483 42.3498 34.1046 42.3544 34.1607 42.3544C34.7666 42.3544 35.1374 41.8194 35.5274 41.2567C35.6997 41.0079 35.8896 40.7394 36.1172 40.4699C37.1818 42.19 38.2633 43.6253 38.3135 43.6935C38.4113 43.8239 38.5646 43.9004 38.7273 43.9004C38.8902 43.9004 39.0435 43.8239 39.1412 43.6935C40.2634 42.1907 41.2863 40.6157 42.2029 38.9792C42.8384 39.1634 43.4436 39.4392 43.9992 39.7981C41.4111 44.2595 36.6428 47.0048 31.4849 47.0025ZM41.1398 32.926C41.9084 33.6115 42.3479 34.5925 42.3477 35.6225C42.3477 35.9946 42.1966 36.7321 41.4793 38.1329C40.6605 39.6506 39.7411 41.1115 38.7268 42.5059C38.24 41.8278 37.4025 40.624 36.6531 39.3588C36.2354 38.6653 35.8623 37.9462 35.5357 37.2054C35.2925 36.7101 35.1465 36.1729 35.1058 35.6225C35.1081 33.6236 36.7279 32.0039 38.7268 32.0016C38.8386 32.0016 38.9495 32.0067 39.0599 32.0168C39.8333 32.0867 40.5632 32.406 41.1398 32.926ZM45.9504 33.2241C45.8612 35.1916 45.3654 37.1193 44.4938 38.8855C43.927 38.5271 43.3163 38.2427 42.6773 38.0391C43.0768 37.2913 43.317 36.4681 43.3822 35.6225C43.3779 33.8474 42.3686 32.2279 40.7766 31.4419L40.7441 31.4275C40.6284 31.3717 40.5109 31.3194 40.391 31.2724C40.3086 31.2404 40.2233 31.2153 40.1389 31.1886C40.0871 31.1729 40.0406 31.1535 39.9904 31.1368C39.857 31.0989 39.7214 31.0681 39.585 31.0426H39.5782C39.4956 31.0272 39.4117 31.0188 39.3279 31.008C37.9978 30.8239 36.6534 31.2272 35.6443 32.113C34.635 32.999 34.0609 34.2798 34.0713 35.6225C34.1115 36.312 34.2855 36.9874 34.5835 37.6105C34.8735 38.2708 35.2006 38.9141 35.5633 39.5372C35.24 39.891 34.9439 40.2686 34.6775 40.6669C34.5353 40.9107 34.3557 41.1304 34.1453 41.3183C34.0418 41.3027 33.85 41.0819 33.5245 40.114C33.2871 39.3793 33.2126 38.6014 33.3068 37.8351C33.4411 37.1468 33.309 36.4333 32.9375 35.8387C32.277 34.9151 31.124 34.7524 30.0021 34.5933C29.1299 34.4741 28.2434 34.514 27.3857 34.7107C26.7239 34.8373 26.4168 34.8845 26.0655 34.6655C25.4237 34.2255 25.1029 33.4473 25.2481 32.6828C25.3863 32.2691 25.8003 32.1196 26.6449 31.8422C27.7479 31.5258 28.7875 31.0206 29.7179 30.349C30.4716 29.7961 32.4596 28.3289 32.5195 26.3273C32.5526 25.2321 32.0047 24.5565 31.4751 23.9033C30.9856 23.379 30.6295 22.7448 30.4365 22.054C30.1617 20.9015 30.5022 19.55 31.4256 18.0353H31.4849C34.3327 18.0393 37.1166 18.8809 39.4898 20.4552C39.2157 20.7605 38.8841 21.0086 38.5136 21.1851C38.1529 21.3412 37.7586 21.4028 37.3674 21.3644C36.8234 21.2973 36.2743 21.4385 35.83 21.7597C34.657 22.6427 34.1314 24.8944 35.1857 26.5854C35.9361 27.7839 37.2179 28.0632 38.6176 28.3683C39.3711 28.5275 40.1498 28.5242 40.9019 28.3585C41.5056 28.2145 42.135 28.2163 42.7376 28.3643C43.4158 28.5598 44.0523 28.8785 44.6155 29.3041C45.2005 29.7893 45.644 30.4228 45.8999 31.1383C45.9423 31.5952 45.9686 32.0534 45.9686 32.5189C45.9686 32.7502 45.964 32.9844 45.9484 33.2241H45.9504Z" fill="#333333" fill-opacity="0.99"/>
<path d="M23.2086 23.208C24.3513 23.208 25.2777 22.2818 25.2777 21.1389C25.2777 19.9962 24.3513 19.0698 23.2086 19.0698C22.066 19.0698 21.1395 19.9962 21.1395 21.1389C21.1395 22.2818 22.066 23.208 23.2086 23.208ZM23.2086 20.1043C23.7799 20.1043 24.2432 20.5675 24.2432 21.1389C24.2432 21.7102 23.7799 22.1734 23.2086 22.1734C22.6373 22.1734 22.1741 21.7102 22.1741 21.1389C22.1741 20.5675 22.6373 20.1043 23.2086 20.1043Z" fill="#333333" fill-opacity="0.99"/>
<path d="M36.6577 35.1053C36.6577 36.2482 37.5841 37.1744 38.7268 37.1744C39.8694 37.1744 40.7959 36.2482 40.7959 35.1053C40.7959 33.9627 39.8694 33.0362 38.7268 33.0362C37.5841 33.0362 36.6577 33.9627 36.6577 35.1053ZM39.7613 35.1053C39.7613 35.6766 39.2981 36.1399 38.7268 36.1399C38.1555 36.1399 37.6922 35.6766 37.6922 35.1053C37.6922 34.534 38.1555 34.0708 38.7268 34.0708C39.2981 34.0708 39.7613 34.534 39.7613 35.1053Z" fill="#333333" fill-opacity="0.99"/>
</svg>
