<svg width="18" height="18" viewBox="0 0 18 18" fill="none" xmlns="http://www.w3.org/2000/svg">
<path d="M18 17.2046L11.8996 11.1042C12.8959 9.92765 13.5 8.40895 13.5 6.75001C13.5 3.02783 10.4722 0 6.75001 0C3.02786 0 0 3.02783 0 6.75001C0 10.4722 3.02783 13.5 6.75001 13.5C8.40895 13.5 9.92765 12.8959 11.1042 11.8996L17.2046 18L18 17.2046ZM6.75001 12.375C3.64857 12.375 1.12501 9.85145 1.12501 6.75001C1.12501 3.64857 3.64857 1.12501 6.75001 1.12501C9.85145 1.12501 12.375 3.64857 12.375 6.75001C12.375 9.85145 9.85145 12.375 6.75001 12.375Z" fill="#333333"/>
</svg>
