<svg width="70" height="70" viewBox="0 0 70 70" fill="none" xmlns="http://www.w3.org/2000/svg">
<path d="M35 57.5581C47.4387 57.5581 57.5586 47.4382 57.5586 34.9995C57.5586 22.5608 47.4387 12.4409 35 12.4409C22.5613 12.4409 12.4414 22.5608 12.4414 34.9995C12.4414 47.4382 22.5613 57.5581 35 57.5581ZM32.9492 29.2247V16.5425H37.0508V29.2247C38.7881 29.8448 40.1547 31.2114 40.7748 32.9487H49.3555V37.0503H40.7748C39.9251 39.4322 37.6703 41.1519 35 41.1519C31.6077 41.1519 28.8477 38.3918 28.8477 34.9995C28.8477 32.3292 30.5673 30.0744 32.9492 29.2247Z" fill="white"/>
<path d="M35 37.0503C36.1317 37.0503 37.0508 36.1312 37.0508 34.9995C37.0508 33.8678 36.1317 32.9487 35 32.9487C33.8683 32.9487 32.9492 33.8678 32.9492 34.9995C32.9492 36.1312 33.8683 37.0503 35 37.0503Z" fill="white"/>
<path d="M35 69.9995C54.2239 69.9995 70 54.2234 70 34.9995C70 15.7756 54.2239 -0.000488281 35 -0.000488281C15.7761 -0.000488281 0 15.7756 0 34.9995C0 54.2234 15.7761 69.9995 35 69.9995ZM35 8.33936C49.6999 8.33936 61.6602 20.2996 61.6602 34.9995C61.6602 49.6994 49.6999 61.6597 35 61.6597C20.3001 61.6597 8.33984 49.6994 8.33984 34.9995C8.33984 20.2996 20.3001 8.33936 35 8.33936Z" fill="white"/>
</svg>
