<svg width="65" height="70" viewBox="0 0 65 70" fill="none" xmlns="http://www.w3.org/2000/svg">
<path d="M28.4375 12.3047V1.20163L17.4402 12.3047H28.4375Z" fill="white"/>
<path d="M32.5 16.4062H16.25V24.8166C23.1224 25.8222 28.4375 31.7524 28.4375 38.9648C28.4375 44.0101 25.8318 48.4364 21.9216 50.9972C26.3221 53.0789 29.7319 56.8649 31.377 61.5234H65V0H32.5V16.4062ZM56.875 53.3203H32.5V49.2188H56.875V53.3203ZM56.875 45.1172H32.5V41.0156H56.875V45.1172ZM40.625 21.3304V12.25H46.3667C52.4333 12.25 53.3 15.832 53.3 18.375C53.3 20.918 52 24.9375 46.3667 24.9375V21.3304C47.3976 21.3304 49.4 20.918 49.4 18.375C49.4 15.832 47.4876 15.75 46.3667 15.75H44.6333V18.457V21.3304H46.3667V24.9375H44.6333V27.2966H48.5333V30.1875H44.6333V33.25H40.625V30.1875H38.5667V27.2966H40.625V24.9375H38.5667V21.3304H40.625Z" fill="white"/>
<path d="M24.375 38.9648C24.375 44.628 19.828 49.2188 14.2188 49.2188C8.60954 49.2188 4.0625 44.628 4.0625 38.9648C4.0625 33.3017 8.60954 28.7109 14.2188 28.7109C19.828 28.7109 24.375 33.3017 24.375 38.9648Z" fill="white"/>
<path d="M14.2188 53.3203C6.36617 53.3203 0 59.8844 0 67.8125V70H28.4375V67.8125C28.4375 59.8844 22.0713 53.3203 14.2188 53.3203Z" fill="white"/>
</svg>
