<svg width="66" height="70" viewBox="0 0 66 70" fill="none" xmlns="http://www.w3.org/2000/svg">
<path d="M11.643 12.3043H20.6953V3.25204L11.643 12.3043Z" fill="white"/>
<path d="M10.4414 57.5582H55.5586V-0.000366211H24.7969V16.4059H10.4414V57.5582ZM33 12.3043H45.3047V16.4059H33V12.3043ZM16.5938 20.5074H49.4062V24.609H16.5938V20.5074ZM16.5938 28.7106H49.4062V32.8121H16.5938V28.7106ZM16.5938 36.9137H49.4062V41.0153H16.5938V36.9137ZM16.5938 45.2535H28.8984V49.3551H16.5938V45.2535Z" fill="white"/>
<path d="M0.1875 49.3551H6.33984V57.5582H0.1875V49.3551Z" fill="white"/>
<path d="M59.6602 49.3551H65.8125V57.5582H59.6602V49.3551Z" fill="white"/>
<path d="M0.1875 61.6598H65.8125V69.9996H0.1875V61.6598Z" fill="white"/>
</svg>
