<svg width="133" height="11" viewBox="0 0 133 11" fill="none" xmlns="http://www.w3.org/2000/svg">
<path d="M4.82474 10H3.66274V1.698H0.708742V0.661999H7.79274V1.698H4.82474V10ZM10.7338 10.168C9.72584 10.168 8.89984 9.84133 8.25584 9.188C7.61184 8.52533 7.28984 7.66667 7.28984 6.612C7.28984 5.62267 7.60717 4.78733 8.24184 4.106C8.8765 3.41533 9.66984 3.07 10.6218 3.07C11.6205 3.07 12.4092 3.41533 12.9878 4.106C13.5758 4.78733 13.8698 5.65067 13.8698 6.696V6.962H8.39584C8.4425 7.62467 8.68517 8.18 9.12384 8.628C9.5625 9.076 10.1318 9.3 10.8318 9.3C11.6718 9.3 12.3672 9.01533 12.9178 8.446L13.4218 9.132C12.7312 9.82267 11.8352 10.168 10.7338 10.168ZM12.8338 6.192C12.8245 5.61333 12.6285 5.09533 12.2458 4.638C11.8632 4.17133 11.3172 3.938 10.6078 3.938C9.93584 3.938 9.40384 4.16667 9.01184 4.624C8.62917 5.08133 8.42384 5.604 8.39584 6.192H12.8338ZM18.5525 10.168C17.5538 10.168 16.7418 9.832 16.1165 9.16C15.4912 8.47867 15.1785 7.62933 15.1785 6.612C15.1785 5.59467 15.4912 4.75 16.1165 4.078C16.7418 3.406 17.5538 3.07 18.5525 3.07C19.5978 3.07 20.4238 3.462 21.0305 4.246L20.3305 4.89C19.9012 4.302 19.3272 4.008 18.6085 4.008C17.8992 4.008 17.3298 4.25067 16.9005 4.736C16.4805 5.22133 16.2705 5.84667 16.2705 6.612C16.2705 7.37733 16.4805 8.00733 16.9005 8.502C17.3298 8.98733 17.8992 9.23 18.6085 9.23C19.3178 9.23 19.8918 8.936 20.3305 8.348L21.0305 8.992C20.4238 9.776 19.5978 10.168 18.5525 10.168ZM24.7841 10H23.7341V4.162H21.7741V3.238H26.7581V4.162H24.7841V10ZM30.865 7.074H27.505V6.15H30.865V7.074ZM37.9602 10H36.9102V4.162H33.3822V10H32.3322V3.238H37.9602V10ZM45.4328 9.146C44.8262 9.82733 44.0188 10.168 43.0108 10.168C42.0028 10.168 41.1908 9.82733 40.5748 9.146C39.9682 8.46467 39.6648 7.62 39.6648 6.612C39.6648 5.604 39.9682 4.764 40.5748 4.092C41.1908 3.41067 42.0028 3.07 43.0108 3.07C44.0188 3.07 44.8262 3.41067 45.4328 4.092C46.0488 4.764 46.3568 5.604 46.3568 6.612C46.3568 7.62 46.0488 8.46467 45.4328 9.146ZM41.3588 8.474C41.7695 8.978 42.3202 9.23 43.0108 9.23C43.7015 9.23 44.2475 8.978 44.6488 8.474C45.0502 7.96067 45.2508 7.34 45.2508 6.612C45.2508 5.884 45.0502 5.268 44.6488 4.764C44.2475 4.26 43.7015 4.008 43.0108 4.008C42.3202 4.008 41.7695 4.26467 41.3588 4.778C40.9575 5.282 40.7568 5.89333 40.7568 6.612C40.7568 7.34 40.9575 7.96067 41.3588 8.474ZM47.2706 10.168V9.3C47.5879 9.3 47.8492 9.09 48.0546 8.67C48.2599 8.25 48.4279 7.55 48.5586 6.57L48.9926 3.238H53.6966V10H52.6466V4.162H49.9166L49.6086 6.696C49.4592 7.93733 49.1979 8.82867 48.8246 9.37C48.4512 9.902 47.9332 10.168 47.2706 10.168ZM61.1692 9.146C60.5625 9.82733 59.7552 10.168 58.7472 10.168C57.7392 10.168 56.9272 9.82733 56.3112 9.146C55.7045 8.46467 55.4012 7.62 55.4012 6.612C55.4012 5.604 55.7045 4.764 56.3112 4.092C56.9272 3.41067 57.7392 3.07 58.7472 3.07C59.7552 3.07 60.5625 3.41067 61.1692 4.092C61.7852 4.764 62.0932 5.604 62.0932 6.612C62.0932 7.62 61.7852 8.46467 61.1692 9.146ZM57.0952 8.474C57.5058 8.978 58.0565 9.23 58.7472 9.23C59.4378 9.23 59.9838 8.978 60.3852 8.474C60.7865 7.96067 60.9872 7.34 60.9872 6.612C60.9872 5.884 60.7865 5.268 60.3852 4.764C59.9838 4.26 59.4378 4.008 58.7472 4.008C58.0565 4.008 57.5058 4.26467 57.0952 4.778C56.6938 5.282 56.4932 5.89333 56.4932 6.612C56.4932 7.34 56.6938 7.96067 57.0952 8.474ZM66.7869 10.168C65.7882 10.168 64.9762 9.832 64.3509 9.16C63.7255 8.47867 63.4129 7.62933 63.4129 6.612C63.4129 5.59467 63.7255 4.75 64.3509 4.078C64.9762 3.406 65.7882 3.07 66.7869 3.07C67.8322 3.07 68.6582 3.462 69.2649 4.246L68.5649 4.89C68.1355 4.302 67.5615 4.008 66.8429 4.008C66.1335 4.008 65.5642 4.25067 65.1349 4.736C64.7149 5.22133 64.5049 5.84667 64.5049 6.612C64.5049 7.37733 64.7149 8.00733 65.1349 8.502C65.5642 8.98733 66.1335 9.23 66.8429 9.23C67.5522 9.23 68.1262 8.936 68.5649 8.348L69.2649 8.992C68.6582 9.776 67.8322 10.168 66.7869 10.168ZM76.6865 10H75.3425L72.9065 6.962L71.7865 8.068V10H70.7365V3.238H71.7865V6.836L75.3425 3.238H76.6725L73.6765 6.304L76.6865 10ZM78.9359 10H77.9279V3.238H78.9779V8.404L82.5199 3.238H83.5559V10H82.5059V4.736L78.9359 10ZM93.7279 10.182C92.3746 10.182 91.2359 9.734 90.3119 8.838C89.3879 7.93267 88.9259 6.766 88.9259 5.338C88.9259 3.91 89.3879 2.748 90.3119 1.852C91.2359 0.956 92.3746 0.508 93.7279 0.508C95.2026 0.508 96.4112 1.09133 97.3539 2.258L96.4299 2.832C96.1312 2.44 95.7392 2.12733 95.2539 1.894C94.7779 1.66067 94.2692 1.544 93.7279 1.544C92.7012 1.544 91.8426 1.90333 91.1519 2.622C90.4706 3.33133 90.1299 4.23667 90.1299 5.338C90.1299 6.43933 90.4706 7.34933 91.1519 8.068C91.8426 8.78667 92.7012 9.146 93.7279 9.146C94.2412 9.146 94.7172 9.048 95.1559 8.852C95.6039 8.64667 95.9632 8.40867 96.2339 8.138V6.234H93.0279V5.198H97.3959V8.572C96.4346 9.64533 95.2119 10.182 93.7279 10.182ZM108.426 10H107.264V2.314L104.086 10H103.61L100.446 2.314V10H99.2844V0.661999H100.95L103.848 7.69L106.76 0.661999H108.426V10ZM118.599 10H117.269L116.443 7.928H111.795L110.969 10H109.639L113.391 0.661999H114.833L118.599 10ZM116.093 6.892L114.119 1.866L112.131 6.892H116.093ZM122.348 10H121.186V1.698H118.232V0.661999H125.316V1.698H122.348V10ZM132.979 10H126.861V0.661999H132.979V1.698H128.023V4.708H132.881V5.744H128.023V8.964H132.979V10Z" fill="#666666"/>
<path d="M4.82474 10V11H5.82474V10H4.82474ZM3.66274 10H2.66274V11H3.66274V10ZM3.66274 1.698H4.66274V0.697999H3.66274V1.698ZM0.708742 1.698H-0.291258V2.698H0.708742V1.698ZM0.708742 0.661999V-0.338001H-0.291258V0.661999H0.708742ZM7.79274 0.661999H8.79274V-0.338001H7.79274V0.661999ZM7.79274 1.698V2.698H8.79274V1.698H7.79274ZM4.82474 1.698V0.697999H3.82474V1.698H4.82474ZM4.82474 9H3.66274V11H4.82474V9ZM4.66274 10V1.698H2.66274V10H4.66274ZM3.66274 0.697999H0.708742V2.698H3.66274V0.697999ZM1.70874 1.698V0.661999H-0.291258V1.698H1.70874ZM0.708742 1.662H7.79274V-0.338001H0.708742V1.662ZM6.79274 0.661999V1.698H8.79274V0.661999H6.79274ZM7.79274 0.697999H4.82474V2.698H7.79274V0.697999ZM3.82474 1.698V10H5.82474V1.698H3.82474ZM8.25584 9.188L7.53868 9.88495L7.54366 9.89L8.25584 9.188ZM8.24184 4.106L8.97357 4.78762L8.97816 4.78262L8.24184 4.106ZM12.9878 4.106L12.2213 4.74822L12.226 4.75382L12.2308 4.75935L12.9878 4.106ZM13.8698 6.962V7.962H14.8698V6.962H13.8698ZM8.39584 6.962V5.962H7.32294L7.39831 7.03225L8.39584 6.962ZM9.12384 8.628L8.40933 9.32762L9.12384 8.628ZM12.9178 8.446L13.7237 7.85392L13.0225 6.89944L12.199 7.75077L12.9178 8.446ZM13.4218 9.132L14.1289 9.83911L14.7361 9.23192L14.2277 8.53992L13.4218 9.132ZM12.8338 6.192V7.192H13.8501L13.8337 6.17587L12.8338 6.192ZM12.2458 4.638L11.4725 5.27211L11.4789 5.27972L12.2458 4.638ZM9.01184 4.624L8.25253 3.97316L8.2449 3.98228L9.01184 4.624ZM8.39584 6.192L7.39697 6.14443L7.34708 7.192H8.39584V6.192ZM10.7338 9.168C9.96442 9.168 9.40457 8.92888 8.96801 8.486L7.54366 9.89C8.3951 10.7538 9.48726 11.168 10.7338 11.168V9.168ZM8.97297 8.49107C8.53633 8.04177 8.28984 7.44621 8.28984 6.612H6.28984C6.28984 7.88713 6.68734 9.00889 7.5387 9.88493L8.97297 8.49107ZM8.28984 6.612C8.28984 5.85827 8.52278 5.27153 8.97356 4.7876L7.51011 3.4244C6.69156 4.30314 6.28984 5.38706 6.28984 6.612H8.28984ZM8.97816 4.78262C9.42026 4.30152 9.94496 4.07 10.6218 4.07V2.07C9.39471 2.07 8.33275 2.52915 7.50551 3.42937L8.97816 4.78262ZM10.6218 4.07C11.3608 4.07 11.8547 4.31068 12.2213 4.74822L13.7544 3.46378C12.9636 2.51999 11.8802 2.07 10.6218 2.07V4.07ZM12.2308 4.75935C12.6372 5.23029 12.8698 5.84955 12.8698 6.696H14.8698C14.8698 5.45178 14.5145 4.34437 13.7449 3.45265L12.2308 4.75935ZM12.8698 6.696V6.962H14.8698V6.696H12.8698ZM13.8698 5.962H8.39584V7.962H13.8698V5.962ZM7.39831 7.03225C7.46057 7.91638 7.79423 8.69944 8.40933 9.32762L9.83835 7.92838C9.57611 7.66056 9.42444 7.33296 9.39337 6.89175L7.39831 7.03225ZM8.40933 9.32762C9.05885 9.99097 9.89733 10.3 10.8318 10.3V8.3C10.3663 8.3 10.0662 8.16103 9.83835 7.92838L8.40933 9.32762ZM10.8318 10.3C11.9245 10.3 12.8852 9.91812 13.6366 9.14122L12.199 7.75077C11.8491 8.11255 11.4191 8.3 10.8318 8.3V10.3ZM12.112 9.03808L12.616 9.72408L14.2277 8.53992L13.7237 7.85392L12.112 9.03808ZM12.7147 8.42489C12.2362 8.90345 11.6069 9.168 10.7338 9.168V11.168C12.0635 11.168 13.2262 10.7419 14.1289 9.83911L12.7147 8.42489ZM13.8337 6.17587C13.8206 5.36072 13.5376 4.62352 13.0128 3.99628L11.4789 5.27972C11.7194 5.56715 11.8284 5.86595 11.834 6.20813L13.8337 6.17587ZM13.0191 4.00392C12.4123 3.26389 11.5582 2.938 10.6078 2.938V4.938C11.0761 4.938 11.3141 5.07878 11.4726 5.27208L13.0191 4.00392ZM10.6078 2.938C9.6818 2.938 8.85791 3.26699 8.25258 3.97321L9.77109 5.27479C9.94976 5.06634 10.1899 4.938 10.6078 4.938V2.938ZM8.2449 3.98228C7.72411 4.60469 7.4355 5.33533 7.39697 6.14443L9.3947 6.23956C9.41218 5.87267 9.53423 5.55798 9.77877 5.26572L8.2449 3.98228ZM8.39584 7.192H12.8338V5.192H8.39584V7.192ZM16.1165 9.16L15.3798 9.8362L15.3844 9.84123L16.1165 9.16ZM16.1165 4.078L16.8486 4.75923L16.1165 4.078ZM21.0305 4.246L21.7076 4.98193L22.3833 4.36023L21.8214 3.63402L21.0305 4.246ZM20.3305 4.89L19.5229 5.4797L20.1833 6.38422L21.0076 5.62593L20.3305 4.89ZM16.9005 4.736L16.1515 4.07339L16.1443 4.08162L16.9005 4.736ZM16.9005 8.502L16.1382 9.14923L16.1448 9.15697L16.1515 9.16457L16.9005 8.502ZM20.3305 8.348L21.0076 7.61207L20.1918 6.86157L19.529 7.75004L20.3305 8.348ZM21.0305 8.992L21.8214 9.60398L22.3833 8.87777L21.7076 8.25607L21.0305 8.992ZM18.5525 9.168C17.8043 9.168 17.267 8.92837 16.8486 8.47877L15.3844 9.84123C16.2167 10.7356 17.3034 11.168 18.5525 11.168V9.168ZM16.8532 8.48382C16.4147 8.00605 16.1785 7.4061 16.1785 6.612H14.1785C14.1785 7.85257 14.5676 8.95128 15.3798 9.83618L16.8532 8.48382ZM16.1785 6.612C16.1785 5.81777 16.4146 5.22554 16.8486 4.75923L15.3844 3.39677C14.5677 4.27446 14.1785 5.37156 14.1785 6.612H16.1785ZM16.8486 4.75923C17.267 4.30963 17.8043 4.07 18.5525 4.07V2.07C17.3034 2.07 16.2167 2.50237 15.3844 3.39677L16.8486 4.75923ZM18.5525 4.07C19.308 4.07 19.834 4.33381 20.2396 4.85798L21.8214 3.63402C21.0137 2.59019 19.8877 2.07 18.5525 2.07V4.07ZM20.3535 3.51007L19.6535 4.15407L21.0076 5.62593L21.7076 4.98193L20.3535 3.51007ZM21.1381 4.3003C20.5234 3.45845 19.6514 3.008 18.6085 3.008V5.008C19.003 5.008 19.2789 5.14555 19.5229 5.4797L21.1381 4.3003ZM18.6085 3.008C17.6432 3.008 16.7899 3.35173 16.1515 4.07343L17.6495 5.39857C17.8697 5.1496 18.1552 5.008 18.6085 5.008V3.008ZM16.1443 4.08162C15.538 4.78232 15.2705 5.65488 15.2705 6.612H17.2705C17.2705 6.03846 17.423 5.66035 17.6567 5.39038L16.1443 4.08162ZM15.2705 6.612C15.2705 7.56975 15.5381 8.44245 16.1382 9.14923L17.6628 7.85477C17.4229 7.57222 17.2705 7.18492 17.2705 6.612H15.2705ZM16.1515 9.16457C16.7899 9.88627 17.6432 10.23 18.6085 10.23V8.23C18.1552 8.23 17.8697 8.0884 17.6495 7.83943L16.1515 9.16457ZM18.6085 10.23C19.646 10.23 20.5122 9.77679 21.132 8.94596L19.529 7.75004C19.2715 8.09521 18.9897 8.23 18.6085 8.23V10.23ZM19.6535 9.08393L20.3535 9.72793L21.7076 8.25607L21.0076 7.61207L19.6535 9.08393ZM20.2396 8.38002C19.834 8.90419 19.308 9.168 18.5525 9.168V11.168C19.8877 11.168 21.0137 10.6478 21.8214 9.60398L20.2396 8.38002ZM24.7841 10V11H25.7841V10H24.7841ZM23.7341 10H22.7341V11H23.7341V10ZM23.7341 4.162H24.7341V3.162H23.7341V4.162ZM21.7741 4.162H20.7741V5.162H21.7741V4.162ZM21.7741 3.238V2.238H20.7741V3.238H21.7741ZM26.7581 3.238H27.7581V2.238H26.7581V3.238ZM26.7581 4.162V5.162H27.7581V4.162H26.7581ZM24.7841 4.162V3.162H23.7841V4.162H24.7841ZM24.7841 9H23.7341V11H24.7841V9ZM24.7341 10V4.162H22.7341V10H24.7341ZM23.7341 3.162H21.7741V5.162H23.7341V3.162ZM22.7741 4.162V3.238H20.7741V4.162H22.7741ZM21.7741 4.238H26.7581V2.238H21.7741V4.238ZM25.7581 3.238V4.162H27.7581V3.238H25.7581ZM26.7581 3.162H24.7841V5.162H26.7581V3.162ZM23.7841 4.162V10H25.7841V4.162H23.7841ZM30.865 7.074V8.074H31.865V7.074H30.865ZM27.505 7.074H26.505V8.074H27.505V7.074ZM27.505 6.15V5.15H26.505V6.15H27.505ZM30.865 6.15H31.865V5.15H30.865V6.15ZM30.865 6.074H27.505V8.074H30.865V6.074ZM28.505 7.074V6.15H26.505V7.074H28.505ZM27.505 7.15H30.865V5.15H27.505V7.15ZM29.865 6.15V7.074H31.865V6.15H29.865ZM37.9602 10V11H38.9602V10H37.9602ZM36.9102 10H35.9102V11H36.9102V10ZM36.9102 4.162H37.9102V3.162H36.9102V4.162ZM33.3822 4.162V3.162H32.3822V4.162H33.3822ZM33.3822 10V11H34.3822V10H33.3822ZM32.3322 10H31.3322V11H32.3322V10ZM32.3322 3.238V2.238H31.3322V3.238H32.3322ZM37.9602 3.238H38.9602V2.238H37.9602V3.238ZM37.9602 9H36.9102V11H37.9602V9ZM37.9102 10V4.162H35.9102V10H37.9102ZM36.9102 3.162H33.3822V5.162H36.9102V3.162ZM32.3822 4.162V10H34.3822V4.162H32.3822ZM33.3822 9H32.3322V11H33.3822V9ZM33.3322 10V3.238H31.3322V10H33.3322ZM32.3322 4.238H37.9602V2.238H32.3322V4.238ZM36.9602 3.238V10H38.9602V3.238H36.9602ZM45.4328 9.146L44.691 8.47533L44.686 8.481L45.4328 9.146ZM40.5748 9.146L39.828 9.81102L39.8331 9.81665L40.5748 9.146ZM40.5748 4.092L39.8331 3.42135L39.8326 3.4219L40.5748 4.092ZM45.4328 4.092L44.686 4.757L44.6908 4.7624L44.6957 4.76772L45.4328 4.092ZM41.3588 8.474L40.571 9.08992L40.5772 9.09786L40.5836 9.10567L41.3588 8.474ZM44.6488 8.474L45.4311 9.09695L45.4366 9.08992L44.6488 8.474ZM44.6488 4.764L45.4311 4.14107L44.6488 4.764ZM41.3588 4.778L40.578 4.1533L40.5766 4.15507L41.3588 4.778ZM44.686 8.481C44.2903 8.92544 43.767 9.168 43.0108 9.168V11.168C44.2707 11.168 45.3621 10.7292 46.1797 9.811L44.686 8.481ZM43.0108 9.168C42.2548 9.168 41.7233 8.92519 41.3166 8.47535L39.8331 9.81665C40.6584 10.7295 41.7509 11.168 43.0108 11.168V9.168ZM41.3217 8.481C40.8956 8.00251 40.6648 7.40253 40.6648 6.612H38.6648C38.6648 7.83747 39.0407 8.92682 39.828 9.811L41.3217 8.481ZM40.6648 6.612C40.6648 5.8213 40.8956 5.22905 41.3171 4.7621L39.8326 3.4219C39.0408 4.29895 38.6648 5.3867 38.6648 6.612H40.6648ZM41.3166 4.76265C41.7233 4.31281 42.2548 4.07 43.0108 4.07V2.07C41.7509 2.07 40.6584 2.50853 39.8331 3.42135L41.3166 4.76265ZM43.0108 4.07C43.767 4.07 44.2903 4.31256 44.686 4.757L46.1797 3.427C45.3621 2.50877 44.2707 2.07 43.0108 2.07V4.07ZM44.6957 4.76772C45.1242 5.23522 45.3568 5.82555 45.3568 6.612H47.3568C47.3568 5.38245 46.9735 4.29278 46.17 3.41628L44.6957 4.76772ZM45.3568 6.612C45.3568 7.39832 45.1241 7.99636 44.6911 8.47535L46.1746 9.81665C46.9735 8.93297 47.3568 7.84168 47.3568 6.612H45.3568ZM40.5836 9.10567C41.1974 9.85893 42.0411 10.23 43.0108 10.23V8.23C42.5993 8.23 42.3416 8.09707 42.1341 7.84233L40.5836 9.10567ZM43.0108 10.23C43.9809 10.23 44.8249 9.85825 45.4311 9.09693L43.8666 7.85107C43.6701 8.09775 43.4221 8.23 43.0108 8.23V10.23ZM45.4366 9.08992C45.9916 8.38011 46.2508 7.53559 46.2508 6.612H44.2508C44.2508 7.14441 44.1088 7.54122 43.861 7.85808L45.4366 9.08992ZM46.2508 6.612C46.2508 5.68874 45.9916 4.84494 45.4311 4.14107L43.8666 5.38693C44.1087 5.69106 44.2508 6.07926 44.2508 6.612H46.2508ZM45.4311 4.14107C44.8249 3.37975 43.9809 3.008 43.0108 3.008V5.008C43.4221 5.008 43.6701 5.14025 43.8666 5.38693L45.4311 4.14107ZM43.0108 3.008C42.0342 3.008 41.1892 3.38922 40.578 4.1533L42.1397 5.40269C42.3498 5.14011 42.6062 5.008 43.0108 5.008V3.008ZM40.5766 4.15507C40.0179 4.8566 39.7568 5.69471 39.7568 6.612H41.7568C41.7568 6.09195 41.8971 5.7074 42.1411 5.40093L40.5766 4.15507ZM39.7568 6.612C39.7568 7.53559 40.0161 8.38011 40.571 9.08992L42.1466 7.85808C41.8989 7.54122 41.7568 7.14441 41.7568 6.612H39.7568ZM47.2706 10.168H46.2706V11.168H47.2706V10.168ZM47.2706 9.3V8.3H46.2706V9.3H47.2706ZM48.0546 8.67L47.1562 8.23079L48.0546 8.67ZM48.5586 6.57L49.5498 6.70216L49.5502 6.69916L48.5586 6.57ZM48.9926 3.238V2.238H48.1144L48.0009 3.10884L48.9926 3.238ZM53.6966 3.238H54.6966V2.238H53.6966V3.238ZM53.6966 10V11H54.6966V10H53.6966ZM52.6466 10H51.6466V11H52.6466V10ZM52.6466 4.162H53.6466V3.162H52.6466V4.162ZM49.9166 4.162V3.162H49.0307L48.9239 4.04134L49.9166 4.162ZM49.6086 6.696L48.6159 6.57534L48.6157 6.57656L49.6086 6.696ZM48.8246 9.37L49.6431 9.94444L49.6478 9.93773L48.8246 9.37ZM48.2706 10.168V9.3H46.2706V10.168H48.2706ZM47.2706 10.3C48.1385 10.3 48.6695 9.68895 48.9529 9.10921L47.1562 8.23079C47.1267 8.29111 47.1024 8.32894 47.0865 8.3504C47.0707 8.37168 47.0667 8.37222 47.0782 8.36299C47.0908 8.35281 47.1172 8.33503 47.1569 8.32061C47.1973 8.30595 47.2372 8.3 47.2706 8.3V10.3ZM48.9529 9.10921C49.2338 8.53467 49.4171 7.6972 49.5498 6.70216L47.5673 6.43784C47.4387 7.4028 47.2859 7.96533 47.1562 8.23079L48.9529 9.10921ZM49.5502 6.69916L49.9842 3.36716L48.0009 3.10884L47.5669 6.44084L49.5502 6.69916ZM48.9926 4.238H53.6966V2.238H48.9926V4.238ZM52.6966 3.238V10H54.6966V3.238H52.6966ZM53.6966 9H52.6466V11H53.6966V9ZM53.6466 10V4.162H51.6466V10H53.6466ZM52.6466 3.162H49.9166V5.162H52.6466V3.162ZM48.9239 4.04134L48.6159 6.57534L50.6012 6.81666L50.9092 4.28266L48.9239 4.04134ZM48.6157 6.57656C48.4713 7.77735 48.2323 8.46744 48.0013 8.80227L49.6478 9.93773C50.1635 9.18989 50.4472 8.09732 50.6014 6.81544L48.6157 6.57656ZM48.006 8.79557C47.8242 9.05463 47.6149 9.168 47.2706 9.168V11.168C48.2515 11.168 49.0782 10.7494 49.6431 9.94443L48.006 8.79557ZM61.1692 9.146L60.4274 8.47533L60.4223 8.481L61.1692 9.146ZM56.3112 9.146L55.5643 9.81102L55.5694 9.81665L56.3112 9.146ZM56.3112 4.092L55.5694 3.42135L55.5689 3.4219L56.3112 4.092ZM61.1692 4.092L60.4223 4.757L60.4271 4.7624L60.432 4.76772L61.1692 4.092ZM57.0952 8.474L56.3074 9.08992L56.3136 9.09786L56.3199 9.10567L57.0952 8.474ZM60.3852 8.474L61.1675 9.09695L61.173 9.08992L60.3852 8.474ZM60.3852 4.764L61.1674 4.14107L60.3852 4.764ZM57.0952 4.778L56.3143 4.1533L56.3129 4.15507L57.0952 4.778ZM60.4223 8.481C60.0266 8.92544 59.5033 9.168 58.7472 9.168V11.168C60.007 11.168 61.0984 10.7292 61.916 9.811L60.4223 8.481ZM58.7472 9.168C57.9911 9.168 57.4596 8.92519 57.0529 8.47535L55.5694 9.81665C56.3947 10.7295 57.4872 11.168 58.7472 11.168V9.168ZM57.058 8.481C56.632 8.00251 56.4012 7.40253 56.4012 6.612H54.4012C54.4012 7.83747 54.777 8.92682 55.5643 9.811L57.058 8.481ZM56.4012 6.612C56.4012 5.8213 56.6319 5.22905 57.0534 4.7621L55.5689 3.4219C54.7771 4.29895 54.4012 5.3867 54.4012 6.612H56.4012ZM57.0529 4.76265C57.4596 4.31281 57.9911 4.07 58.7472 4.07V2.07C57.4872 2.07 56.3947 2.50853 55.5694 3.42135L57.0529 4.76265ZM58.7472 4.07C59.5033 4.07 60.0266 4.31256 60.4223 4.757L61.916 3.427C61.0984 2.50877 60.007 2.07 58.7472 2.07V4.07ZM60.432 4.76772C60.8605 5.23522 61.0932 5.82555 61.0932 6.612H63.0932C63.0932 5.38245 62.7098 4.29278 61.9063 3.41628L60.432 4.76772ZM61.0932 6.612C61.0932 7.39832 60.8605 7.99636 60.4274 8.47535L61.9109 9.81665C62.7099 8.93297 63.0932 7.84168 63.0932 6.612H61.0932ZM56.3199 9.10567C56.9337 9.85893 57.7774 10.23 58.7472 10.23V8.23C58.3356 8.23 58.078 8.09707 57.8704 7.84233L56.3199 9.10567ZM58.7472 10.23C59.7172 10.23 60.5612 9.85825 61.1674 9.09693L59.6029 7.85107C59.4065 8.09775 59.1585 8.23 58.7472 8.23V10.23ZM61.173 9.08992C61.7279 8.38011 61.9872 7.53559 61.9872 6.612H59.9872C59.9872 7.14441 59.8451 7.54122 59.5974 7.85808L61.173 9.08992ZM61.9872 6.612C61.9872 5.68874 61.7279 4.84494 61.1674 4.14107L59.6029 5.38693C59.8451 5.69106 59.9872 6.07926 59.9872 6.612H61.9872ZM61.1674 4.14107C60.5612 3.37975 59.7172 3.008 58.7472 3.008V5.008C59.1585 5.008 59.4065 5.14025 59.6029 5.38693L61.1674 4.14107ZM58.7472 3.008C57.7705 3.008 56.9256 3.38922 56.3143 4.1533L57.876 5.40269C58.0861 5.14011 58.3425 5.008 58.7472 5.008V3.008ZM56.3129 4.15507C55.7543 4.8566 55.4932 5.69471 55.4932 6.612H57.4932C57.4932 6.09195 57.6334 5.7074 57.8774 5.40093L56.3129 4.15507ZM55.4932 6.612C55.4932 7.53559 55.7524 8.38011 56.3074 9.08992L57.883 7.85808C57.6352 7.54122 57.4932 7.14441 57.4932 6.612H55.4932ZM64.3509 9.16L63.6141 9.8362L63.6188 9.84123L64.3509 9.16ZM64.3509 4.078L65.083 4.75923L64.3509 4.078ZM69.2649 4.246L69.9419 4.98193L70.6177 4.36023L70.0558 3.63402L69.2649 4.246ZM68.5649 4.89L67.7573 5.4797L68.4177 6.38422L69.2419 5.62593L68.5649 4.89ZM65.1349 4.736L64.3858 4.07339L64.3787 4.08162L65.1349 4.736ZM65.1349 8.502L64.3726 9.14923L64.3792 9.15697L64.3859 9.16457L65.1349 8.502ZM68.5649 8.348L69.2419 7.61207L68.4262 6.86157L67.7634 7.75004L68.5649 8.348ZM69.2649 8.992L70.0558 9.60398L70.6177 8.87777L69.9419 8.25607L69.2649 8.992ZM66.7869 9.168C66.0387 9.168 65.5013 8.92837 65.083 8.47877L63.6188 9.84123C64.4511 10.7356 65.5377 11.168 66.7869 11.168V9.168ZM65.0876 8.48382C64.6491 8.00605 64.4129 7.4061 64.4129 6.612H62.4129C62.4129 7.85257 62.802 8.95128 63.6141 9.83618L65.0876 8.48382ZM64.4129 6.612C64.4129 5.81777 64.649 5.22554 65.083 4.75923L63.6188 3.39677C62.8021 4.27446 62.4129 5.37156 62.4129 6.612H64.4129ZM65.083 4.75923C65.5013 4.30963 66.0387 4.07 66.7869 4.07V2.07C65.5377 2.07 64.4511 2.50237 63.6188 3.39677L65.083 4.75923ZM66.7869 4.07C67.5423 4.07 68.0684 4.33381 68.474 4.85798L70.0558 3.63402C69.248 2.59019 68.1221 2.07 66.7869 2.07V4.07ZM68.5878 3.51007L67.8878 4.15407L69.2419 5.62593L69.9419 4.98193L68.5878 3.51007ZM69.3725 4.3003C68.7578 3.45845 67.8857 3.008 66.8429 3.008V5.008C67.2374 5.008 67.5133 5.14555 67.7573 5.4797L69.3725 4.3003ZM66.8429 3.008C65.8775 3.008 65.0243 3.35173 64.3859 4.07343L65.8839 5.39857C66.1041 5.1496 66.3896 5.008 66.8429 5.008V3.008ZM64.3787 4.08162C63.7723 4.78232 63.5049 5.65488 63.5049 6.612H65.5049C65.5049 6.03846 65.6574 5.66035 65.8911 5.39038L64.3787 4.08162ZM63.5049 6.612C63.5049 7.56975 63.7725 8.44245 64.3726 9.14923L65.8972 7.85477C65.6573 7.57222 65.5049 7.18492 65.5049 6.612H63.5049ZM64.3859 9.16457C65.0243 9.88627 65.8775 10.23 66.8429 10.23V8.23C66.3896 8.23 66.1041 8.0884 65.8839 7.83943L64.3859 9.16457ZM66.8429 10.23C67.8803 10.23 68.7466 9.77679 69.3664 8.94596L67.7634 7.75004C67.5059 8.09521 67.2241 8.23 66.8429 8.23V10.23ZM67.8878 9.08393L68.5878 9.72793L69.9419 8.25607L69.2419 7.61207L67.8878 9.08393ZM68.474 8.38002C68.0684 8.90419 67.5423 9.168 66.7869 9.168V11.168C68.1221 11.168 69.248 10.6478 70.0558 9.60398L68.474 8.38002ZM76.6865 10V11H78.7906L77.4619 9.36852L76.6865 10ZM75.3425 10L74.5624 10.6256L74.8626 11H75.3425V10ZM72.9065 6.962L73.6867 6.33643L72.993 5.47125L72.2039 6.25046L72.9065 6.962ZM71.7865 8.068L71.0839 7.35646L70.7865 7.6501V8.068H71.7865ZM71.7865 10V11H72.7865V10H71.7865ZM70.7365 10H69.7365V11H70.7365V10ZM70.7365 3.238V2.238H69.7365V3.238H70.7365ZM71.7865 3.238H72.7865V2.238H71.7865V3.238ZM71.7865 6.836H70.7865V9.2704L72.4978 7.53894L71.7865 6.836ZM75.3425 3.238V2.238H74.9249L74.6313 2.53506L75.3425 3.238ZM76.6725 3.238L77.3877 3.93689L79.0479 2.238H76.6725V3.238ZM73.6765 6.304L72.9613 5.60511L72.3375 6.24344L72.9011 6.93548L73.6765 6.304ZM76.6865 9H75.3425V11H76.6865V9ZM76.1227 9.37443L73.6867 6.33643L72.1264 7.58757L74.5624 10.6256L76.1227 9.37443ZM72.2039 6.25046L71.0839 7.35646L72.4892 8.77954L73.6092 7.67354L72.2039 6.25046ZM70.7865 8.068V10H72.7865V8.068H70.7865ZM71.7865 9H70.7365V11H71.7865V9ZM71.7365 10V3.238H69.7365V10H71.7365ZM70.7365 4.238H71.7865V2.238H70.7365V4.238ZM70.7865 3.238V6.836H72.7865V3.238H70.7865ZM72.4978 7.53894L76.0538 3.94094L74.6313 2.53506L71.0753 6.13306L72.4978 7.53894ZM75.3425 4.238H76.6725V2.238H75.3425V4.238ZM75.9573 2.5391L72.9613 5.60511L74.3917 7.0029L77.3877 3.93689L75.9573 2.5391ZM72.9011 6.93548L75.9111 10.6315L77.4619 9.36852L74.4519 5.67252L72.9011 6.93548ZM78.9359 10V11H79.466L79.7635 10.5613L78.9359 10ZM77.9279 10H76.9279V11H77.9279V10ZM77.9279 3.238V2.238H76.9279V3.238H77.9279ZM78.9779 3.238H79.9779V2.238H78.9779V3.238ZM78.9779 8.404H77.9779V11.6309L79.8027 8.96949L78.9779 8.404ZM82.5199 3.238V2.238H81.9931L81.6952 2.67251L82.5199 3.238ZM83.5559 3.238H84.5559V2.238H83.5559V3.238ZM83.5559 10V11H84.5559V10H83.5559ZM82.5059 10H81.5059V11H82.5059V10ZM82.5059 4.736H83.5059V1.47987L81.6783 4.17471L82.5059 4.736ZM78.9359 9H77.9279V11H78.9359V9ZM78.9279 10V3.238H76.9279V10H78.9279ZM77.9279 4.238H78.9779V2.238H77.9279V4.238ZM77.9779 3.238V8.404H79.9779V3.238H77.9779ZM79.8027 8.96949L83.3447 3.80348L81.6952 2.67251L78.1532 7.83852L79.8027 8.96949ZM82.5199 4.238H83.5559V2.238H82.5199V4.238ZM82.5559 3.238V10H84.5559V3.238H82.5559ZM83.5559 9H82.5059V11H83.5559V9ZM83.5059 10V4.736H81.5059V10H83.5059ZM81.6783 4.17471L78.1083 9.43871L79.7635 10.5613L83.3335 5.29729L81.6783 4.17471ZM90.3119 8.838L89.6121 9.55229L89.6158 9.5559L90.3119 8.838ZM90.3119 1.852L91.0081 2.5699L90.3119 1.852ZM97.3539 2.258L97.8816 3.10744L98.8432 2.51007L98.1317 1.62952L97.3539 2.258ZM96.4299 2.832L95.6345 3.43804L96.1854 4.16113L96.9576 3.68144L96.4299 2.832ZM95.2539 1.894L94.8137 2.79195L94.8206 2.79525L95.2539 1.894ZM91.1519 2.622L90.4309 1.92908L90.4307 1.92927L91.1519 2.622ZM91.1519 8.068L90.4262 8.75602L90.4309 8.76092L91.1519 8.068ZM95.1559 8.852L95.5639 9.76505L95.5726 9.76106L95.1559 8.852ZM96.2339 8.138L96.941 8.84511L97.2339 8.55221V8.138H96.2339ZM96.2339 6.234H97.2339V5.234H96.2339V6.234ZM93.0279 6.234H92.0279V7.234H93.0279V6.234ZM93.0279 5.198V4.198H92.0279V5.198H93.0279ZM97.3959 5.198H98.3959V4.198H97.3959V5.198ZM97.3959 8.572L98.1408 9.23917L98.3959 8.95436V8.572H97.3959ZM93.7279 9.182C92.6197 9.182 91.7351 8.82512 91.0081 8.1201L89.6158 9.5559C90.7367 10.6429 92.1295 11.182 93.7279 11.182V9.182ZM91.0118 8.12372C90.3006 7.42695 89.9259 6.52799 89.9259 5.338H87.9259C87.9259 7.00401 88.4752 8.43838 89.6121 9.55229L91.0118 8.12372ZM89.9259 5.338C89.9259 4.14793 90.3005 3.256 91.0081 2.5699L89.6158 1.1341C88.4753 2.24 87.9259 3.67207 87.9259 5.338H89.9259ZM91.0081 2.5699C91.7351 1.86488 92.6197 1.508 93.7279 1.508V-0.492001C92.1295 -0.492001 90.7367 0.0471239 89.6158 1.1341L91.0081 2.5699ZM93.7279 1.508C94.8945 1.508 95.8195 1.9501 96.5761 2.88648L98.1317 1.62952C97.003 0.232564 95.5106 -0.492001 93.7279 -0.492001V1.508ZM96.8262 1.40856L95.9022 1.98256L96.9576 3.68144L97.8816 3.10744L96.8262 1.40856ZM97.2253 2.22596C96.8223 1.69699 96.3014 1.28804 95.6872 0.992747L94.8206 2.79525C95.1771 2.96662 95.4402 3.18301 95.6345 3.43804L97.2253 2.22596ZM95.6941 0.996078C95.0781 0.694128 94.4185 0.544 93.7279 0.544V2.544C94.12 2.544 94.4777 2.6272 94.8138 2.79192L95.6941 0.996078ZM93.7279 0.544C92.4383 0.544 91.3164 1.00769 90.4309 1.92908L91.8729 3.31492C92.3688 2.79898 92.9642 2.544 93.7279 2.544V0.544ZM90.4307 1.92927C89.5485 2.84775 89.1299 4.01201 89.1299 5.338H91.1299C91.1299 4.46132 91.3927 3.81492 91.8731 3.31473L90.4307 1.92927ZM89.1299 5.338C89.1299 6.66415 89.5484 7.83011 90.4262 8.75601L91.8776 7.37999C91.3927 6.86856 91.1299 6.21452 91.1299 5.338H89.1299ZM90.4309 8.76092C91.3164 9.68231 92.4383 10.146 93.7279 10.146V8.146C92.9642 8.146 92.3688 7.89102 91.8729 7.37508L90.4309 8.76092ZM93.7279 10.146C94.3721 10.146 94.9882 10.0222 95.5639 9.76501L94.748 7.93899C94.4463 8.07378 94.1104 8.146 93.7279 8.146V10.146ZM95.5726 9.76106C96.0991 9.51975 96.566 9.22009 96.941 8.84511L95.5268 7.43089C95.3605 7.59724 95.1088 7.77358 94.7393 7.94293L95.5726 9.76106ZM97.2339 8.138V6.234H95.2339V8.138H97.2339ZM96.2339 5.234H93.0279V7.234H96.2339V5.234ZM94.0279 6.234V5.198H92.0279V6.234H94.0279ZM93.0279 6.198H97.3959V4.198H93.0279V6.198ZM96.3959 5.198V8.572H98.3959V5.198H96.3959ZM96.651 7.90483C95.8857 8.75926 94.9373 9.182 93.7279 9.182V11.182C95.4866 11.182 96.9834 10.5314 98.1408 9.23917L96.651 7.90483ZM108.426 10V11H109.426V10H108.426ZM107.264 10H106.264V11H107.264V10ZM107.264 2.314H108.264L106.34 1.9319L107.264 2.314ZM104.086 10V11H104.755L105.011 10.3821L104.086 10ZM103.61 10L102.686 10.3807L102.941 11H103.61V10ZM100.446 2.314L101.371 1.93333L99.4464 2.314H100.446ZM100.446 10V11H101.446V10H100.446ZM99.2844 10H98.2844V11H99.2844V10ZM99.2844 0.661999V-0.338001H98.2844V0.661999H99.2844ZM100.95 0.661999L101.875 0.280786L101.62 -0.338001H100.95V0.661999ZM103.848 7.69L102.924 8.07121L103.846 10.3078L104.772 8.07279L103.848 7.69ZM106.76 0.661999V-0.338001H106.092L105.837 0.279214L106.76 0.661999ZM108.426 0.661999H109.426V-0.338001H108.426V0.661999ZM108.426 9H107.264V11H108.426V9ZM108.264 10V2.314H106.264V10H108.264ZM106.34 1.9319L103.162 9.6179L105.011 10.3821L108.188 2.6961L106.34 1.9319ZM104.086 9H103.61V11H104.086V9ZM104.535 9.61934L101.371 1.93333L99.5217 2.69466L102.686 10.3807L104.535 9.61934ZM99.4464 2.314V10H101.446V2.314H99.4464ZM100.446 9H99.2844V11H100.446V9ZM100.284 10V0.661999H98.2844V10H100.284ZM99.2844 1.662H100.95V-0.338001H99.2844V1.662ZM100.026 1.04321L102.924 8.07121L104.773 7.30879L101.875 0.280786L100.026 1.04321ZM104.772 8.07279L107.684 1.04478L105.837 0.279214L102.925 7.30721L104.772 8.07279ZM106.76 1.662H108.426V-0.338001H106.76V1.662ZM107.426 0.661999V10H109.426V0.661999H107.426ZM118.599 10V11H120.08L119.526 9.62597L118.599 10ZM117.269 10L116.34 10.3703L116.591 11H117.269V10ZM116.443 7.928L117.372 7.55769L117.121 6.928H116.443V7.928ZM111.795 7.928V6.928H111.117L110.866 7.55769L111.795 7.928ZM110.969 10V11H111.647L111.898 10.3703L110.969 10ZM109.639 10L108.711 9.62717L108.159 11H109.639V10ZM113.391 0.661999V-0.338001H112.715L112.463 0.28917L113.391 0.661999ZM114.833 0.661999L115.76 0.287973L115.508 -0.338001H114.833V0.661999ZM116.093 6.892V7.892H117.56L117.023 6.52643L116.093 6.892ZM114.119 1.866L115.049 1.50043L114.122 -0.861068L113.189 1.49818L114.119 1.866ZM112.131 6.892L111.201 6.52418L110.66 7.892H112.131V6.892ZM118.599 9H117.269V11H118.599V9ZM118.198 9.62969L117.372 7.55769L115.514 8.29831L116.34 10.3703L118.198 9.62969ZM116.443 6.928H111.795V8.928H116.443V6.928ZM110.866 7.55769L110.04 9.62969L111.898 10.3703L112.724 8.29831L110.866 7.55769ZM110.969 9H109.639V11H110.969V9ZM110.567 10.3728L114.319 1.03483L112.463 0.28917L108.711 9.62717L110.567 10.3728ZM113.391 1.662H114.833V-0.338001H113.391V1.662ZM113.905 1.03603L117.671 10.374L119.526 9.62597L115.76 0.287973L113.905 1.03603ZM117.023 6.52643L115.049 1.50043L113.188 2.23157L115.162 7.25757L117.023 6.52643ZM113.189 1.49818L111.201 6.52418L113.061 7.25982L115.049 2.23381L113.189 1.49818ZM112.131 7.892H116.093V5.892H112.131V7.892ZM122.348 10V11H123.348V10H122.348ZM121.186 10H120.186V11H121.186V10ZM121.186 1.698H122.186V0.697999H121.186V1.698ZM118.232 1.698H117.232V2.698H118.232V1.698ZM118.232 0.661999V-0.338001H117.232V0.661999H118.232ZM125.316 0.661999H126.316V-0.338001H125.316V0.661999ZM125.316 1.698V2.698H126.316V1.698H125.316ZM122.348 1.698V0.697999H121.348V1.698H122.348ZM122.348 9H121.186V11H122.348V9ZM122.186 10V1.698H120.186V10H122.186ZM121.186 0.697999H118.232V2.698H121.186V0.697999ZM119.232 1.698V0.661999H117.232V1.698H119.232ZM118.232 1.662H125.316V-0.338001H118.232V1.662ZM124.316 0.661999V1.698H126.316V0.661999H124.316ZM125.316 0.697999H122.348V2.698H125.316V0.697999ZM121.348 1.698V10H123.348V1.698H121.348ZM132.979 10V11H133.979V10H132.979ZM126.861 10H125.861V11H126.861V10ZM126.861 0.661999V-0.338001H125.861V0.661999H126.861ZM132.979 0.661999H133.979V-0.338001H132.979V0.661999ZM132.979 1.698V2.698H133.979V1.698H132.979ZM128.023 1.698V0.697999H127.023V1.698H128.023ZM128.023 4.708H127.023V5.708H128.023V4.708ZM132.881 4.708H133.881V3.708H132.881V4.708ZM132.881 5.744V6.744H133.881V5.744H132.881ZM128.023 5.744V4.744H127.023V5.744H128.023ZM128.023 8.964H127.023V9.964H128.023V8.964ZM132.979 8.964H133.979V7.964H132.979V8.964ZM132.979 9H126.861V11H132.979V9ZM127.861 10V0.661999H125.861V10H127.861ZM126.861 1.662H132.979V-0.338001H126.861V1.662ZM131.979 0.661999V1.698H133.979V0.661999H131.979ZM132.979 0.697999H128.023V2.698H132.979V0.697999ZM127.023 1.698V4.708H129.023V1.698H127.023ZM128.023 5.708H132.881V3.708H128.023V5.708ZM131.881 4.708V5.744H133.881V4.708H131.881ZM132.881 4.744H128.023V6.744H132.881V4.744ZM127.023 5.744V8.964H129.023V5.744H127.023ZM128.023 9.964H132.979V7.964H128.023V9.964ZM131.979 8.964V10H133.979V8.964H131.979Z" fill="#666666"/>
</svg>
